<svg width="28" height="28" viewBox="0 0 28 28" fill="none" xmlns="http://www.w3.org/2000/svg">
<g id="wordpress">
<circle id="bg" cx="14" cy="14" r="12.25" fill="#028CB0"/>
<path id="wordpress_2" d="M5.64846 14C5.64846 17.3095 7.57346 20.16 10.3573 21.5149L6.37404 10.6016C5.89573 11.6707 5.64848 12.8288 5.64846 14ZM14 22.3515C14.9699 22.3515 15.9028 22.1812 16.7764 21.8777L16.7172 21.7666L14.1481 14.733L11.6456 22.011C12.386 22.2331 13.1782 22.3515 14 22.3515ZM15.1476 10.0834L18.1684 19.0642L19.005 16.2804C19.3604 15.1254 19.6343 14.2962 19.6343 13.578C19.6343 12.5414 19.2641 11.8307 18.9532 11.2828C18.5238 10.5868 18.1313 10.0019 18.1313 9.32077C18.1313 8.55077 18.7088 7.84 19.5381 7.84H19.6417C18.1029 6.42728 16.089 5.64498 14 5.64846C12.6168 5.6482 11.2553 5.9918 10.0378 6.64833C8.82041 7.30487 7.78528 8.25375 7.02558 9.40962L7.55865 9.42442C8.43231 9.42442 9.77981 9.31337 9.77981 9.31337C10.2388 9.29115 10.2907 9.9501 9.83904 10.0019C9.83904 10.0019 9.3874 10.0612 8.87654 10.0834L11.9269 19.1309L13.7557 13.652L12.4526 10.0834C12.1607 10.0673 11.8694 10.0426 11.5789 10.0093C11.1273 9.97971 11.1791 9.29115 11.6308 9.31337C11.6308 9.31337 13.0079 9.42442 13.8297 9.42442C14.7034 9.42442 16.0509 9.31337 16.0509 9.31337C16.5025 9.29115 16.5617 9.9501 16.1101 10.0019C16.1101 10.0019 15.6585 10.0538 15.1476 10.0834ZM18.198 21.2188C19.4614 20.4841 20.5099 19.4308 21.2388 18.1641C21.9677 16.8973 22.3514 15.4615 22.3515 14C22.3515 12.5488 21.9813 11.1865 21.3298 9.99452C21.4621 11.3059 21.2636 12.6296 20.7523 13.8445L18.198 21.2188ZM14 23.625C11.4473 23.625 8.99914 22.6109 7.1941 20.8059C5.38906 19.0009 4.375 16.5527 4.375 14C4.375 11.4473 5.38906 8.99914 7.1941 7.1941C8.99914 5.38906 11.4473 4.375 14 4.375C16.5527 4.375 19.0009 5.38906 20.8059 7.1941C22.6109 8.99914 23.625 11.4473 23.625 14C23.625 16.5527 22.6109 19.0009 20.8059 20.8059C19.0009 22.6109 16.5527 23.625 14 23.625Z" fill="white"/>
</g>
</svg>
