<svg width="28" height="28" viewBox="0 0 28 28" fill="none" xmlns="http://www.w3.org/2000/svg">
<g id="react">
<g id="react_2">
<path d="M16.344 13.9789C16.344 12.7238 15.2946 11.7062 14 11.7062C12.7055 11.7062 11.656 12.7238 11.656 13.9789C11.656 15.2342 12.7055 16.2517 14 16.2517C15.2946 16.2517 16.344 15.2342 16.344 13.9789Z" fill="#53C1DE"/>
<path fill-rule="evenodd" clip-rule="evenodd" d="M21.6128 9.75949C22.1079 7.80919 22.7301 4.19255 20.5366 2.96639C18.3534 1.74558 15.5124 4.08487 14.0122 5.48904C12.5164 4.09887 9.59555 1.76957 7.40393 2.99962C5.22157 4.22452 5.89456 7.7812 6.40054 9.74372C4.36477 10.3044 0.875 11.5119 0.875 13.9789C0.875 16.439 4.36114 17.7527 6.38486 18.3128C5.87701 20.2862 5.23771 23.7921 7.42286 25.0142C9.62261 26.244 12.5344 23.9702 14.0484 22.5507C15.5583 23.9631 18.372 26.2518 20.5556 25.0262C22.7462 23.7968 22.1756 20.2286 21.6696 18.2547C23.6314 17.6934 27.125 16.4083 27.125 13.9789C27.125 11.5355 23.6165 10.3182 21.6128 9.75949ZM21.3642 17.2086C21.032 16.1889 20.5835 15.1045 20.035 13.9843C20.5586 12.8906 20.9896 11.8202 21.3125 10.807C22.7814 11.2199 26.0037 12.1636 26.0037 13.9789C26.0037 15.8112 22.9116 16.7639 21.3642 17.2086ZM19.9937 24.0853C18.3645 24.9996 15.9444 22.8109 14.8294 21.7708C15.569 20.9864 16.3082 20.0744 17.0297 19.0618C18.2988 18.9527 19.4977 18.7742 20.5849 18.5305C20.9411 19.9267 21.6302 23.1667 19.9937 24.0853ZM7.98317 24.0722C6.35375 23.1613 7.09851 20.0328 7.47212 18.5792C8.5473 18.8097 9.7375 18.9757 11.0096 19.0757C11.7358 20.0666 12.4964 20.9774 13.2629 21.7749C12.3159 22.6632 9.6202 24.9874 7.98317 24.0722ZM1.9963 13.9789C1.9963 12.1397 5.19931 11.2029 6.70166 10.791C7.0302 11.827 7.46108 12.9101 7.98107 14.0054C7.45435 15.117 7.0173 16.2174 6.68574 17.2655C5.25323 16.8679 1.9963 15.8193 1.9963 13.9789ZM7.96574 3.9406C9.60182 3.02239 12.1404 5.2586 13.2264 6.26511C12.4638 7.0591 11.7102 7.96302 10.9903 8.94816C9.75573 9.0591 8.57391 9.2373 7.48745 9.47598C7.07984 7.89312 6.33143 4.85781 7.96574 3.9406ZM17.8319 10.13C18.6695 10.2325 19.4719 10.3687 20.2254 10.5356C19.9992 11.2385 19.7172 11.9736 19.3852 12.7272C18.9038 11.8416 18.3871 10.9739 17.8319 10.13ZM14.0125 7.04209C14.5297 7.58535 15.0478 8.19202 15.5573 8.85016C14.5237 8.8028 13.4884 8.80258 12.4548 8.84948C12.9648 8.19742 13.4872 7.59165 14.0125 7.04209ZM8.62444 12.7264C8.29788 11.9754 8.01848 11.2371 7.79032 10.5241C8.53929 10.3615 9.33797 10.2287 10.1701 10.1279C9.61329 10.97 9.09746 11.8374 8.62444 12.7264ZM10.1941 17.9075C9.33437 17.8145 8.5236 17.6884 7.77487 17.5304C8.00663 16.8048 8.29219 16.0506 8.62572 15.2835C9.10528 16.1816 9.62893 17.0575 10.1941 17.9075ZM14.0436 20.9926C13.5121 20.4365 12.982 19.8215 12.4642 19.1599C13.5037 19.1995 14.5453 19.1996 15.5846 19.1546C15.0734 19.8282 14.5573 20.4441 14.0436 20.9926ZM19.3959 15.2444C19.7467 16.0198 20.0425 16.77 20.2774 17.4833C19.5162 17.6517 18.6946 17.7873 17.8287 17.888C18.3881 17.0281 18.913 16.1469 19.3959 15.2444ZM16.4039 18.0198C14.8139 18.13 13.2139 18.1288 11.6233 18.0288C10.7195 16.7488 9.91501 15.4026 9.22052 14.005C9.91161 12.6104 10.7103 11.2669 11.6099 9.98882C13.2016 9.87215 14.8031 9.87188 16.3948 9.9895C17.2866 11.2675 18.0841 12.6075 18.7912 13.9896C18.0924 15.3836 17.2896 16.7298 16.4039 18.0198ZM19.9765 3.90827C21.613 4.82347 20.8846 8.07385 20.5271 9.48724C19.4381 9.24361 18.2554 9.06226 17.0172 8.94962C16.2959 7.95379 15.5486 7.04829 14.7983 6.26455C15.8983 5.23636 18.3558 3.00203 19.9765 3.90827Z" fill="#53C1DE"/>
</g>
</g>
</svg>
