<svg width="28" height="28" viewBox="0 0 28 28" fill="none" xmlns="http://www.w3.org/2000/svg">
<g id="js">
<rect id="bg" x="1.75" y="1.75" width="24.5" height="24.5" fill="#FFCA28"/>
<g id="js_2">
<path d="M16.625 22.1265L18.4288 20.9329C18.5702 21.377 19.4654 22.4318 20.5962 22.4318C21.7269 22.4318 22.2519 21.8142 22.2519 21.4048C22.2519 20.289 21.0973 19.8956 20.5427 19.7066C20.4523 19.6758 20.3778 19.6505 20.3269 19.6283C20.3008 19.6169 20.2613 19.6018 20.2106 19.5825C19.5938 19.3468 17.3183 18.4774 17.3183 15.9573C17.3183 13.1815 19.9971 12.8623 20.6029 12.8623C20.9992 12.8623 22.9048 12.9109 23.8538 14.6943L22.1038 15.9157C21.7202 15.1385 21.0828 14.8817 20.6904 14.8817C19.7212 14.8817 19.5192 15.5923 19.5192 15.9157C19.5192 16.8232 20.5723 17.23 21.4614 17.5735C21.694 17.6633 21.9155 17.7489 22.1038 17.8379C23.0731 18.2959 24.5 19.0454 24.5 21.4048C24.5 22.5866 23.5088 24.4998 21.0135 24.4998C17.6615 24.4998 16.7731 22.4874 16.625 22.1265Z" fill="#3E3E3E"/>
<path d="M7.875 22.3635L9.75509 21.1705C9.90241 21.6144 10.4749 22.4329 11.3055 22.4329C12.1361 22.4329 12.5612 21.5798 12.5612 21.1705V13.1248H14.8734V21.1705C14.9108 22.2803 14.2954 24.4998 11.5791 24.4998C9.08162 24.4998 8.04337 23.0155 7.875 22.3635Z" fill="#3E3E3E"/>
</g>
</g>
</svg>
