<svg width="26" height="32" viewBox="0 0 26 32" fill="none" xmlns="http://www.w3.org/2000/svg">
<g id="Group 64">
<path id="Vector" d="M24.3426 4.23386C21.4413 -0.0189974 15.7106 -1.27958 11.5676 1.42426L4.29182 6.17441C3.80235 6.48956 3.34573 6.85598 2.93028 7.2678C2.51432 7.67963 2.14161 8.13472 1.81791 8.6256C1.49421 9.11648 1.22107 9.64047 1.00266 10.189C0.784782 10.7379 0.623022 11.3084 0.519972 11.8914C0.433964 12.3801 0.387051 12.8758 0.380796 13.3725C0.374019 13.8698 0.407901 14.3666 0.481399 14.8575C0.554897 15.3489 0.66801 15.8333 0.819176 16.3055C0.970342 16.7777 1.15956 17.236 1.38474 17.6761C1.22983 17.9174 1.08683 18.1664 0.956268 18.4223C0.825431 18.6782 0.707626 18.941 0.602853 19.2091C0.498079 19.4773 0.406859 19.7508 0.329191 20.0285C0.251523 20.3063 0.187929 20.5878 0.137888 20.8719C-0.0700416 22.0669 -0.0425707 23.2924 0.218683 24.4763C0.348999 25.0666 0.536131 25.6424 0.777996 26.1947C1.01986 26.747 1.31437 27.2737 1.65841 27.7661C4.55974 32.019 10.29 33.2796 14.4329 30.5757L21.7087 25.8454C22.1982 25.5297 22.6538 25.1627 23.0692 24.7504C23.4846 24.3383 23.8572 23.8833 24.181 23.3926C24.5047 22.9022 24.7779 22.3782 24.9963 21.8297C25.2147 21.2816 25.3768 20.7112 25.4805 20.1284C25.5666 19.6397 25.6129 19.1445 25.6192 18.6478C25.6255 18.151 25.5916 17.6542 25.5176 17.1634C25.4441 16.6725 25.3309 16.1886 25.1793 15.7164C25.0276 15.2447 24.8384 14.7864 24.6132 14.3463C24.768 14.1054 24.9113 13.8559 25.0422 13.6001C25.1725 13.3442 25.2908 13.0814 25.3956 12.8133C25.5004 12.5452 25.5921 12.2717 25.6703 11.9939C25.748 11.7167 25.8126 11.4352 25.8632 11.151C25.9664 10.5549 26.0112 9.94974 25.9976 9.34456C25.9841 8.73937 25.9116 8.13739 25.7813 7.54663C25.651 6.9564 25.4639 6.38059 25.222 5.82828C24.9805 5.27589 24.6859 4.74948 24.3426 4.25683" fill="#FF3E00"/>
<path id="Vector_2" d="M10.8567 28.1772C10.2872 28.3288 9.69855 28.3904 9.11097 28.3599C8.52351 28.3289 7.94387 28.2071 7.39237 27.9972C6.84086 27.7876 6.32374 27.4931 5.85883 27.1239C5.3943 26.7544 4.98739 26.3145 4.65211 25.8195C4.44517 25.523 4.26794 25.2068 4.12303 24.8746C3.9777 24.5425 3.86507 24.1965 3.78682 23.8415C3.70915 23.4863 3.66536 23.1242 3.65754 22.7604C3.64973 22.3967 3.67735 22.0329 3.7399 21.6745C3.74981 21.6163 3.76127 21.5581 3.77379 21.5004C3.78577 21.4422 3.79933 21.3845 3.81392 21.3273C3.828 21.2696 3.84363 21.2125 3.86031 21.1553C3.87647 21.0987 3.8942 21.0421 3.91244 20.986L4.04953 20.5571L4.42328 20.8428C4.63751 21.0031 4.85853 21.1543 5.08528 21.2953C5.31202 21.4368 5.54451 21.5682 5.7822 21.6889C6.01937 21.8102 6.26228 21.9213 6.50884 22.0212C6.75539 22.1216 7.00612 22.2108 7.2605 22.2893L7.53937 22.3721L7.51435 22.6579C7.5009 22.8524 7.52066 23.0478 7.57273 23.2353C7.59827 23.3293 7.63215 23.4201 7.67333 23.5077C7.71451 23.5953 7.76299 23.6792 7.81824 23.7582C7.91948 23.9073 8.04235 24.0397 8.1826 24.1508C8.3223 24.2619 8.47816 24.3506 8.64444 24.4136C8.81072 24.4766 8.98482 24.513 9.16205 24.522C9.33876 24.5316 9.51599 24.513 9.68748 24.467C9.7271 24.4563 9.76567 24.444 9.80425 24.4302C9.84282 24.4163 9.88087 24.4013 9.91788 24.3842C9.95541 24.3677 9.9919 24.3495 10.0284 24.3297C10.0644 24.3105 10.0993 24.2897 10.1337 24.2672L17.3985 19.5166C17.4875 19.4593 17.5705 19.3927 17.6461 19.3179C17.7217 19.2425 17.7889 19.1598 17.8478 19.0706C17.9067 18.9814 17.9557 18.8857 17.9953 18.7859C18.0344 18.686 18.0636 18.5823 18.0824 18.4766C18.1006 18.3682 18.1084 18.2587 18.1058 18.1486C18.1032 18.0391 18.0897 17.9302 18.0657 17.8228C18.0422 17.716 18.0078 17.6118 17.9635 17.5114C17.9197 17.4115 17.8655 17.3164 17.803 17.2272C17.7019 17.0782 17.5794 16.9463 17.4391 16.8352C17.2989 16.7241 17.1431 16.6354 16.9773 16.5724C16.8112 16.5093 16.6366 16.4726 16.4597 16.4634C16.2825 16.4543 16.1052 16.473 15.9337 16.5184C15.8947 16.5291 15.8556 16.5414 15.817 16.5553C15.7784 16.5692 15.7409 16.5841 15.7033 16.6007C15.6658 16.6178 15.6293 16.6359 15.5934 16.6557C15.5574 16.6749 15.522 16.6963 15.4875 16.7187L12.6978 18.5337C12.5841 18.6074 12.4674 18.6769 12.3485 18.7421C12.2291 18.8067 12.1082 18.867 11.9847 18.9226C11.8611 18.9781 11.7355 19.0289 11.6083 19.0743C11.4811 19.1202 11.3524 19.1608 11.2221 19.1966C10.6534 19.3472 10.0659 19.4081 9.4795 19.3772C8.89308 19.3462 8.31501 19.2239 7.76455 19.015C7.2141 18.8056 6.69806 18.5113 6.23413 18.1427C5.77021 17.7742 5.36363 17.3357 5.02846 16.8416C4.82256 16.5451 4.64585 16.2284 4.50146 15.8961C4.35655 15.5639 4.24448 15.2178 4.16682 14.8631C4.08915 14.5079 4.0464 14.1457 4.03911 13.782C4.03129 13.4188 4.05891 13.055 4.12199 12.6971C4.24523 11.9925 4.51045 11.322 4.90075 10.7283C5.29132 10.1346 5.79855 9.631 6.38999 9.24977L13.6772 4.49962C13.7903 4.42591 13.906 4.35647 14.0244 4.2913C14.1427 4.22667 14.2636 4.16631 14.3861 4.11076C14.5089 4.05519 14.6337 4.00458 14.7604 3.95906C14.8865 3.91313 15.0148 3.872 15.1446 3.83621C15.7138 3.68505 16.3023 3.62309 16.8892 3.65353C17.4767 3.68451 18.0558 3.8063 18.6073 4.01622C19.1588 4.2256 19.6754 4.52045 20.1403 4.88954C20.6047 5.25925 21.0114 5.69926 21.3465 6.19446C21.5529 6.49038 21.7307 6.80659 21.8761 7.13883C22.0215 7.47107 22.1341 7.81666 22.2128 8.17186C22.291 8.52707 22.3348 8.88922 22.3426 9.25297C22.351 9.61673 22.3239 9.98048 22.2613 10.3389C22.2504 10.3976 22.2389 10.4564 22.2259 10.5146C22.2134 10.5728 22.1998 10.6311 22.1852 10.6888C22.1711 10.747 22.1555 10.8047 22.1394 10.8618C22.1232 10.9195 22.1065 10.9767 22.0883 11.0333L21.9491 11.4622L21.578 11.1764C21.3632 11.0146 21.1417 10.8629 20.9144 10.7203C20.6871 10.5782 20.4536 10.4457 20.2154 10.3234C19.7385 10.0796 19.2424 9.87735 18.7324 9.71875L18.453 9.63595L18.4785 9.35019C18.4864 9.25244 18.4858 9.15416 18.477 9.05694C18.4686 8.95973 18.4514 8.86305 18.4264 8.7685C18.4009 8.67449 18.368 8.58209 18.3269 8.49395C18.2862 8.40528 18.2377 8.32089 18.1825 8.24077C18.0808 8.09437 17.9579 7.96469 17.8181 7.85618C17.6785 7.74718 17.5235 7.66072 17.3583 7.59979C17.0266 7.47645 16.6659 7.45986 16.3247 7.55226C16.2851 7.56294 16.246 7.57522 16.2079 7.58858C16.1694 7.60247 16.1313 7.61796 16.0938 7.63451C16.0568 7.65107 16.0198 7.66977 15.9838 7.689C15.9478 7.70876 15.9124 7.72959 15.878 7.75203L8.59961 12.4942C8.511 12.5513 8.42812 12.6181 8.35306 12.6929C8.278 12.7676 8.21023 12.8504 8.15133 12.9391C8.09292 13.0283 8.0435 13.1233 8.00381 13.2227C7.9642 13.3226 7.93501 13.4257 7.91624 13.5315C7.898 13.6399 7.89018 13.7499 7.89278 13.86C7.89903 14.0802 7.94738 14.2971 8.03509 14.4983C8.07931 14.5984 8.1329 14.694 8.19512 14.7835C8.29572 14.9309 8.41769 15.0623 8.55687 15.1724C8.69576 15.2829 8.85026 15.3712 9.01506 15.4341C9.34644 15.5603 9.7074 15.5806 10.0503 15.4923C10.0894 15.4811 10.1285 15.4688 10.167 15.4549C10.2051 15.441 10.2431 15.4255 10.2807 15.409C10.318 15.3923 10.3547 15.3742 10.3907 15.3545C10.4266 15.3353 10.4621 15.3144 10.4965 15.292L13.2863 13.4802C13.4004 13.4054 13.5167 13.3349 13.636 13.2697C13.7549 13.204 13.8763 13.1437 14.0004 13.0876C14.124 13.032 14.2498 12.9814 14.3773 12.9359C14.505 12.89 14.6342 12.8494 14.7651 12.8141C15.3343 12.6624 15.9223 12.6005 16.5097 12.6304C17.0972 12.6608 17.6763 12.7826 18.2278 12.992C18.7788 13.2014 19.2959 13.4957 19.7603 13.8653C20.2253 14.2344 20.6319 14.674 20.967 15.1692C21.1735 15.4656 21.3507 15.7818 21.4961 16.1141C21.6415 16.4461 21.7543 16.7922 21.8328 17.1471C21.911 17.5018 21.9548 17.8639 21.9632 18.2277C21.9715 18.592 21.9439 18.9557 21.8818 19.3136C21.8204 19.665 21.7234 20.0088 21.5925 20.3397C21.4618 20.6706 21.2976 20.9866 21.1026 21.2824C20.9081 21.5784 20.684 21.8529 20.4338 22.1013C20.1836 22.3497 19.9089 22.5708 19.6138 22.761L12.335 27.5111C12.2208 27.5854 12.104 27.6553 11.9852 27.7205C11.8658 27.7857 11.7444 27.846 11.6203 27.9016C11.4968 27.9577 11.3712 28.0084 11.2434 28.0543C11.1163 28.1003 10.987 28.1414 10.8567 28.1772Z" fill="white"/>
</g>
</svg>
