<svg width="64" height="64" viewBox="0 0 64 64" fill="none" xmlns="http://www.w3.org/2000/svg">
<path d="M34.1105 0.369973C43.6203 4.6802 53.2863 9.13138 62.783 13.4685C63.2898 13.7 63.9543 13.8576 63.955 14.5587C63.956 15.261 63.2923 15.4173 62.7845 15.6491C53.2498 20.0062 43.7138 24.3607 34.1718 28.7024C32.7185 29.3637 31.226 29.3551 29.7708 28.6924C20.211 24.3382 10.655 19.9762 1.10079 15.6108C0.609041 15.3863 -0.00970915 15.216 0.00954085 14.5328C0.0275408 13.8935 0.619291 13.7274 1.09254 13.5112C10.6868 9.13113 20.3783 4.68167 29.985 0.328202C31.0005 -0.131279 33.0523 -0.100012 34.1105 0.369973ZM31.97 63.8929C31.2783 63.8929 30.7598 63.6364 29.7715 63.2751C20.2253 58.9483 10.6908 54.5968 1.15704 50.2438C0.650291 50.0125 -0.00595915 49.8491 4.08459e-05 49.1436C0.00629085 48.4418 0.663041 48.2869 1.16979 48.0514C2.75129 47.3167 4.34079 46.5985 5.92954 45.8791C7.51679 45.1602 9.09379 45.1702 10.6858 45.8994C17.0055 48.794 23.3323 51.6743 29.6548 54.5626C31.2245 55.2798 32.7813 55.2649 34.3493 54.5472C40.6893 51.6462 47.0325 48.7513 53.3763 45.8576C54.8743 45.1744 56.392 45.1553 57.897 45.8217C59.5893 46.5709 61.2693 47.3469 62.9505 48.1191C63.1998 48.2337 63.4525 48.3629 63.6613 48.5346C64.1105 48.9044 64.1165 49.4055 63.658 49.7643C63.3793 49.9824 63.0458 50.1432 62.7188 50.2922C53.262 54.6092 43.8065 58.929 34.337 63.2194C33.601 63.5526 32.6618 63.8929 31.97 63.8929ZM31.9365 46.5926C31.6203 46.5926 30.3913 46.2648 29.692 45.9475C20.185 41.6336 10.6908 37.2931 1.19579 32.9543C0.685791 32.7212 0.0207908 32.5708 0.00754085 31.8765C-0.00645915 31.14 0.689541 30.9928 1.21454 30.7487C2.81354 30.0049 4.41704 29.2694 6.02629 28.5468C7.55229 27.8619 9.08079 27.878 10.6055 28.5739C16.9893 31.4874 23.3728 34.4016 29.7613 37.3055C31.24 37.9778 32.7418 37.9727 34.2218 37.2994C40.6285 34.3845 47.0308 31.4605 53.4365 28.5437C54.9178 27.8692 56.414 27.8697 57.8963 28.5305C59.5853 29.2833 61.2638 30.0589 62.944 30.8301C63.1748 30.9361 63.4113 31.048 63.609 31.2014C64.1188 31.5971 64.1148 32.1196 63.599 32.5158C63.4005 32.6682 63.1648 32.7808 62.9338 32.8864C53.3415 37.2679 43.751 41.6534 34.147 46.01C33.4868 46.3098 32.2525 46.5926 31.9365 46.5926Z" fill="#666666"/>
</svg>
