<svg width="32" height="32" viewBox="0 0 32 32" fill="none" xmlns="http://www.w3.org/2000/svg">
<g id="Tech Stack Logos">
<path id="Vector" d="M16 10.668C13.6295 10.668 12.1481 11.8529 11.5554 14.2224C12.4444 13.0375 13.4815 12.5934 14.6666 12.8895C15.3428 13.0584 15.8261 13.549 16.3612 14.0919C17.2327 14.9762 18.2413 15.9997 20.4445 15.9997C22.8147 15.9997 24.2964 14.8149 24.8889 12.4451C24.0001 13.63 22.963 14.0744 21.7777 13.7782C21.1017 13.6093 20.6184 13.1187 20.0833 12.5758C19.2118 11.6915 18.203 10.668 16 10.668ZM11.5554 15.9997C9.1852 15.9997 7.70353 17.1846 7.11108 19.5544C7.99986 18.3695 9.03692 17.9251 10.2223 18.2215C10.8983 18.3906 11.3816 18.881 11.9167 19.4237C12.7881 20.308 13.7969 21.3317 16 21.3317C18.3704 21.3317 19.8519 20.1468 20.4445 17.7771C19.5555 18.962 18.5185 19.4063 17.3334 19.11C16.6571 18.9413 16.1738 18.4504 15.6387 17.9078C14.7673 17.0235 13.7587 15.9997 11.5554 15.9997Z" fill="#06B6D4"/>
</g>
</svg>
