<svg width="40" height="41" viewBox="0 0 40 41" fill="none" xmlns="http://www.w3.org/2000/svg">
<g id="rocket 1">
<g id="Layer_11">
<path id="Vector" d="M21.1 32.5325L22.7012 37.4988C22.8637 38.0238 23.5137 38.1863 23.9012 37.7988C26.3137 35.3863 30.3137 31.3238 30.5887 29.0988C30.7187 28.1463 30.3712 26.8788 29.9825 25.7588C27.645 28.135 24.7337 30.4425 21.1 32.5325Z" fill="#1C1D20"/>
<path id="Vector_2" d="M14.7412 10.5176C13.6225 10.1288 12.3537 9.78131 11.4012 9.91131C9.17622 10.1863 5.11372 14.1863 2.70122 16.5988C2.31372 16.9863 2.47622 17.6363 3.00122 17.7988L7.96747 19.3988C10.0575 15.7663 12.365 12.8551 14.7412 10.5176Z" fill="#1C1D20"/>
<path id="Vector_3" d="M11.5774 34.4651C8.11992 36.4476 4.08992 36.4613 4.03992 36.4613C4.03992 36.4101 4.05242 32.3813 6.03617 28.9238L11.5774 34.4651Z" fill="#1C1D20"/>
<path id="Vector_4" d="M26.8212 11.2075C26.1612 11.2075 25.5412 11.465 25.075 11.9313C24.6075 12.3988 24.35 13.0188 24.35 13.6788C24.35 14.3388 24.6075 14.96 25.075 15.4263C26.0062 16.3613 27.635 16.3613 28.5687 15.4263C29.5325 14.4625 29.5325 12.895 28.5687 11.9313C28.1012 11.465 27.48 11.2075 26.8212 11.2075Z" fill="#1C1D20"/>
<path id="Vector_5" d="M35.9274 2.98758C31.2274 3.07633 16.8824 4.93633 7.93744 23.4626C7.64994 24.0576 7.77494 24.7738 8.24244 25.2401L15.2587 32.2563C15.7262 32.7238 16.4412 32.8488 17.0362 32.5613C35.5637 23.6176 37.4237 9.27258 37.5124 4.57258C37.5287 3.68508 36.8149 2.97133 35.9274 2.98758ZM30.1599 17.0176C29.2674 17.9088 28.0824 18.4001 26.8212 18.4001C25.5599 18.4001 24.3737 17.9088 23.4824 17.0176C22.5912 16.1263 22.0999 14.9401 22.0999 13.6788C22.0999 12.4176 22.5924 11.2313 23.4824 10.3401C25.2649 8.55758 28.3749 8.55758 30.1599 10.3401C31.9999 12.1813 31.9999 15.1763 30.1599 17.0176Z" fill="#1C1D20"/>
</g>
</g>
</svg>
