<svg width="64" height="64" viewBox="0 0 64 64" fill="none" xmlns="http://www.w3.org/2000/svg">
<g id="Icon">
<g id="Group">
<g id="Group_2">
<path id="Vector" d="M15 9.71777C6.72725 9.71777 0 16.4469 0 24.7178C0 32.269 5.60675 38.5349 12.8796 39.5676C12.2974 43.7974 10.6824 47.822 8.15913 51.312C7.66838 51.9931 7.68675 52.916 8.21037 53.5751C8.72412 54.2238 9.61688 54.4696 10.4004 54.1391C22.3059 49.1698 30 37.6194 30 24.7178C30 16.4469 23.2728 9.71777 15 9.71777ZM49 9.71777C40.7272 9.71777 34 16.4469 34 24.7178C34 32.269 39.6068 38.5349 46.8796 39.5676C46.2974 43.7974 44.6824 47.822 42.1591 51.312C41.6684 51.9931 41.6868 52.916 42.2104 53.5751C42.7241 54.2238 43.6169 54.4696 44.4004 54.1391C56.3059 49.1698 64 37.6194 64 24.7178C64 16.4469 57.2728 9.71777 49 9.71777Z" fill="#28E98C"/>
</g>
</g>
</g>
</svg>
