<svg width="101" height="78" viewBox="0 0 101 78" fill="none" xmlns="http://www.w3.org/2000/svg">
<g id="Vector">
<path d="M36.5055 42.5289H39.0177V57.7236H43.6166V42.5289H48.2154V57.7236H52.8142V42.5289H57.413V57.7236H62.0118V42.5289H64.5031C65.3336 42.5289 66.0035 41.8504 66.0035 41.0171V39.407C66.0035 38.5702 65.3301 37.8952 64.5031 37.8952H36.5055C35.6751 37.8952 35.0051 38.5738 35.0051 39.407V41.0171C35.0051 41.8504 35.6785 42.5289 36.5055 42.5289Z" fill="white"/>
<path d="M93.8405 43.5907H92.0471C92.0436 43.5872 92.0471 43.5802 92.0436 43.5766L86.0386 27.5558C86.4782 27.5628 86.8969 27.5417 87.2738 27.4819C91.4539 27.3483 94.179 22.683 91.0282 19.4416C90.3443 18.5838 87.0993 17.1599 86.8969 18.9424C86.883 19.417 87.2528 19.8107 87.7239 19.8248C89.2278 19.8389 90.4978 21.2627 90.3618 22.7393C88.1426 31.1453 68.4633 13.7005 51.4079 23.1401V21.5721C53.0165 21.1643 54.2098 19.7018 54.2098 17.958C54.2098 15.8978 52.5524 14.2244 50.5042 14.2244C48.456 14.2244 46.7986 15.8943 46.7986 17.958C46.7986 19.7053 47.992 21.1678 49.6005 21.5721V23.1506C47.2662 21.8744 44.7191 20.9955 42.137 20.5842C35.4621 19.4943 28.8709 21.1748 22.6392 23.1049C19.7187 23.9065 16.7458 25.2249 13.7311 25.0807C11.4038 25.1124 9.59291 22.7463 11.3236 20.7494C11.8086 20.194 12.5274 19.8494 13.2845 19.8248C13.7311 19.8107 14.0975 19.4486 14.1115 18.9916C14.1254 18.517 13.7556 18.1232 13.2845 18.1092C10.7618 17.9967 8.52171 20.2678 8.60894 22.8307C8.60196 25.58 11.7318 27.503 13.5671 27.4644C14.0382 27.5171 14.5092 27.5347 14.9733 27.5347L8.96136 43.5731C8.95787 43.5766 8.96136 43.5837 8.95787 43.5872H7.1644C6.53983 43.5872 6.05133 44.1602 6.17695 44.7755C6.87828 48.1435 10.5176 50.7064 14.8965 50.7064H17.339V50.6994C21.6482 50.6361 25.2038 48.0978 25.8981 44.772C26.0272 44.1567 25.5352 43.5837 24.9107 43.5837H23.1172C23.1137 43.5802 23.1172 43.5731 23.1137 43.5696L17.0424 27.3694C19.1918 27.0671 21.2923 26.3991 23.4033 25.9456C31.5646 23.8292 41.0309 22.4194 48.1978 27.5452V30.5441H29.82C28.9896 30.5441 28.3196 31.2226 28.3196 32.0558V33.666C28.3196 34.5027 28.9931 35.1777 29.82 35.1777H71.1849C72.0154 35.1777 72.6853 34.4992 72.6853 33.666V32.0558C72.6853 31.2191 72.0119 30.5441 71.1849 30.5441H52.8036V27.5558C54.8413 26.1249 57.1477 25.1089 59.6181 24.5604C65.5184 23.242 71.7083 24.4971 77.5946 25.9456C79.4788 26.3886 81.8375 27.039 83.959 27.3589L77.8843 43.5696C77.8808 43.5731 77.8842 43.5802 77.8808 43.5837H76.0873C75.4627 43.5837 74.9742 44.1567 75.0998 44.772C75.7942 48.0978 79.3497 50.6361 83.6589 50.6994V50.7064H86.1014C90.4839 50.7064 94.1197 48.14 94.821 44.7755C94.9536 44.1637 94.4651 43.5907 93.8405 43.5907ZM9.95579 43.5907L15.6398 28.4206V43.5907H9.95579ZM16.5749 43.5907V28.7651L22.1297 43.5907H16.5749ZM78.8787 43.5907L84.4335 28.7651V43.5907H78.8787ZM85.3652 43.5907V28.4171L91.0491 43.5907H85.3652Z" fill="white"/>
<path d="M77.8844 57.7201C79.1858 56.0993 80.3512 54.3661 81.3561 52.5309C80.7909 52.4184 80.2396 52.2673 79.7092 52.0845C78.5752 54.1024 77.2354 55.9868 75.728 57.7201H77.8844Z" fill="white"/>
<path d="M25.2806 57.7202C23.7767 55.994 22.4403 54.1131 21.3098 52.1021C20.7794 52.2849 20.2281 52.4326 19.6594 52.5416C20.6608 54.3732 21.8262 56.103 23.1242 57.7202H25.2806Z" fill="white"/>
<path d="M19.8269 21.8006C25.0468 9.94933 36.8299 1.66291 50.5042 1.66291C64.1716 1.66291 75.9512 9.94581 81.1746 21.7866C81.8829 21.9975 82.5633 22.1909 83.2019 22.3596C78.0169 9.27432 65.3195 0 50.5042 0C35.6645 0 22.9497 9.30596 17.7787 22.4229C18.4451 22.2366 19.1255 22.0221 19.8199 21.8006C19.8234 21.8006 19.8234 21.8006 19.8269 21.8006Z" fill="white"/>
<path d="M7.68054 65.967L11.4598 76.8133L10.8338 76.5048L12.3455 76.8015L12.2747 77.7864H7.49158L7.56244 76.7777C7.92461 76.6195 8.38127 76.485 8.93241 76.3742L8.71982 76.6946L5.50748 66.774L5.0587 66.0264C5.43662 65.9868 5.84997 65.9631 6.29876 65.9552C6.75541 65.9394 7.21601 65.9433 7.68054 65.967ZM6.57039 66.0383L3.03917 76.8133L2.82659 76.481L4.32647 76.8015L4.2438 77.7864H0.5L0.570861 76.8252C0.736202 76.7382 0.94091 76.659 1.18499 76.5878C1.42906 76.5087 1.69282 76.4375 1.97626 76.3742L1.30309 76.8133L5.0587 66.0264L6.57039 66.0383ZM3.00374 74.5824L3.39347 73.2177H8.87336L9.2749 74.5824H3.00374Z" fill="white"/>
<path d="M16.5184 77.7864V76.3505H19.3765C20.3449 76.3505 21.0889 75.9668 21.6086 75.1994C22.1282 74.432 22.388 73.3363 22.388 71.9123C22.388 68.9535 21.1755 67.4741 18.7505 67.4741H16.5184V66.0383H18.8568C20.9275 66.0383 22.518 66.5287 23.6281 67.5097C24.7461 68.4907 25.3051 69.891 25.3051 71.7106C25.3051 72.9447 25.0532 74.0167 24.5493 74.9265C24.0454 75.8363 23.3328 76.5404 22.4117 77.0388C21.4905 77.5372 20.4 77.7864 19.1403 77.7864H16.5184ZM15.1603 77.6084V66.2044H17.7349V77.6084H15.1603ZM13.9793 77.7864L14.0501 76.8252C14.4438 76.659 14.9398 76.5048 15.5382 76.3624L15.1603 77.4779V75.6741H17.7349V77.4779L17.3806 76.4573L18.9513 76.8015L18.8804 77.7864H13.9793ZM18.9041 66.0383L18.8332 66.9995C18.4395 67.1656 17.9435 67.3199 17.3451 67.4623L17.7349 66.3468V68.1505H15.1603V66.3468L15.5028 67.3673L13.932 67.0232L14.0029 66.0383H18.9041Z" fill="white"/>
<path d="M30.7181 77.8576L27.057 67.0113L27.6829 67.3199L26.1712 67.0232L26.2421 66.0383H31.1669L31.096 67.0232C30.7575 67.1656 30.2575 67.3001 29.5961 67.4267L29.8205 67.13L32.903 77.0507L33.2455 77.7983C32.9069 77.8378 32.5014 77.8615 32.029 77.8695C31.5645 77.8853 31.1275 77.8813 30.7181 77.8576ZM31.722 77.7864L35.1233 67.0113L35.3595 67.3436L33.7179 67.0232L33.8005 66.0383H37.686L37.6152 66.9995C37.4498 67.0865 37.2451 67.1696 37.0011 67.2487C36.757 67.3199 36.4932 67.3871 36.2098 67.4504L36.883 67.0113L33.2455 77.7983L31.722 77.7864Z" fill="white"/>
<path d="M44.5162 78C43.3273 78 42.2959 77.7508 41.422 77.2524C40.548 76.754 39.8709 76.0499 39.3906 75.1401C38.9182 74.2303 38.682 73.1583 38.682 71.9242C38.682 70.6821 38.9182 69.6062 39.3906 68.6964C39.8709 67.7787 40.548 67.0707 41.422 66.5723C42.3038 66.0739 43.3391 65.8247 44.528 65.8247C45.7169 65.8247 46.7483 66.0739 47.6223 66.5723C48.5041 67.0707 49.1851 67.7748 49.6654 68.6846C50.1457 69.5864 50.3858 70.6584 50.3858 71.9005C50.3858 73.1425 50.1457 74.2224 49.6654 75.1401C49.1851 76.0499 48.508 76.754 47.6341 77.2524C46.7601 77.7508 45.7208 78 44.5162 78ZM44.8233 76.5878C46.579 76.5878 47.4569 75.1796 47.4569 72.3633C47.4569 70.7177 47.1774 69.4519 46.6184 68.5659C46.0673 67.6798 45.276 67.2368 44.2446 67.2368C42.4809 67.2368 41.5991 68.645 41.5991 71.4614C41.5991 73.1069 41.8786 74.3727 42.4376 75.2588C42.9967 76.1448 43.7919 76.5878 44.8233 76.5878Z" fill="white"/>
<path d="M59.0111 77.9881C56.9483 77.9881 55.3618 77.4858 54.2517 76.481C53.1415 75.4763 52.5864 74.0365 52.5864 72.1615C52.5864 70.872 52.8423 69.7565 53.3541 68.8151C53.8737 67.8657 54.606 67.134 55.5508 66.6197C56.4956 66.0976 57.6097 65.8365 58.893 65.8365C59.5701 65.8365 60.2276 65.9077 60.8653 66.0501C61.5109 66.1846 62.0345 66.3705 62.4361 66.6079C62.5857 67.6442 62.629 68.6648 62.566 69.6695H61.4558L60.2394 67.0113L61.385 67.8776C60.5425 67.4425 59.6449 67.2249 58.6923 67.2249C56.5664 67.2249 55.5035 68.7281 55.5035 71.7343C55.5035 74.9779 56.7436 76.5997 59.2237 76.5997C60.2079 76.5997 61.1055 76.3782 61.9164 75.9352L61.8456 76.8727L60.1921 76.7184L61.7275 73.9653H62.8848C62.9006 75.0016 62.7707 76.0815 62.4951 77.2049C62.0936 77.4423 61.5779 77.6321 60.948 77.7745C60.326 77.9169 59.6804 77.9881 59.0111 77.9881Z" fill="white"/>
<path d="M71.7464 65.967L75.5256 76.8133L74.8997 76.5048L76.4113 76.8015L76.3405 77.7864H71.5574L71.6283 76.7777C71.9904 76.6195 72.4471 76.485 72.9982 76.3742L72.7856 76.6946L69.5733 66.774L69.1245 66.0264C69.5024 65.9868 69.9158 65.9631 70.3646 65.9552C70.8212 65.9394 71.2818 65.9433 71.7464 65.967ZM70.6362 66.0383L67.105 76.8133L66.8924 76.481L68.3923 76.8015L68.3096 77.7864H64.5658L64.6367 76.8252C64.802 76.7382 65.0067 76.659 65.2508 76.5878C65.4949 76.5087 65.7586 76.4375 66.0421 76.3742L65.3689 76.8133L69.1245 66.0264L70.6362 66.0383ZM67.0696 74.5824L67.4593 73.2177H72.9392L73.3407 74.5824H67.0696Z" fill="white"/>
<path d="M83.9855 77.9881C81.9227 77.9881 80.3362 77.4858 79.2261 76.481C78.1159 75.4763 77.5609 74.0365 77.5609 72.1615C77.5609 70.872 77.8167 69.7565 78.3285 68.8151C78.8482 67.8657 79.5804 67.134 80.5252 66.6197C81.47 66.0976 82.5841 65.8365 83.8674 65.8365C84.5446 65.8365 85.202 65.9077 85.8397 66.0501C86.4854 66.1846 87.0089 66.3705 87.4105 66.6079C87.5601 67.6442 87.6034 68.6648 87.5404 69.6695H86.4302L85.2138 67.0113L86.3594 67.8776C85.5169 67.4425 84.6194 67.2249 83.6667 67.2249C81.5409 67.2249 80.478 68.7281 80.478 71.7343C80.478 74.9779 81.718 76.5997 84.1981 76.5997C85.1823 76.5997 86.0799 76.3782 86.8908 75.9352L86.82 76.8727L85.1666 76.7184L86.7019 73.9653H87.8593C87.875 75.0016 87.7451 76.0815 87.4695 77.2049C87.068 77.4423 86.5523 77.6321 85.9224 77.7745C85.3004 77.9169 84.6548 77.9881 83.9855 77.9881Z" fill="white"/>
<path d="M93.7682 73.7398L90.2961 67.0113L90.9693 67.3199L89.4576 67.0232L89.5284 66.0383H94.4296L94.3587 67.0232C94.0202 67.1656 93.5202 67.3001 92.8589 67.4267L93.036 67.13L95.9295 72.921L96.2956 73.6805L93.7682 73.7398ZM94.7485 73.6686L97.9963 67.0113L98.197 67.3436L96.5554 67.0232L96.6381 66.0383H100.5L100.429 66.9995C100.264 67.0865 100.059 67.1696 99.815 67.2487C99.5709 67.3199 99.3072 67.3871 99.0237 67.4504L99.7441 67.0113L96.2956 73.6805L94.7485 73.6686ZM93.7446 77.6084V72.9091H96.3192V77.6084H93.7446ZM92.3865 77.7864L92.4573 76.8252C92.6857 76.7382 92.9455 76.659 93.2368 76.5878C93.5281 76.5087 93.8273 76.4454 94.1344 76.398L93.7446 77.4779V75.6741H96.3192V77.4779L95.9649 76.4692L97.7246 76.8015L97.6538 77.7864H92.3865Z" fill="white"/>
</g>
</svg>
