<svg width="95" height="78" viewBox="0 0 95 78" fill="none" xmlns="http://www.w3.org/2000/svg">
<g id="Vector">
<path d="M44.1058 29.5613H40.4843V54.6758H44.1058V29.5613Z" fill="white"/>
<path d="M49.4148 29.5612H45.7933V54.6758H49.4148V29.5612Z" fill="white"/>
<path d="M54.5035 54.6758V29.5612H50.882V54.6758" fill="white"/>
<path d="M64.582 19.4593H30.4062C27.4987 19.4593 25.1335 21.8551 25.1335 24.8002C25.1335 27.7454 27.4987 30.1412 30.4062 30.1412C33.3136 30.1412 35.6788 27.7454 35.6788 24.8002H32.4309C32.4309 25.9325 31.524 26.8511 30.4062 26.8511C29.2884 26.8511 28.3815 25.9325 28.3815 24.8002C28.3815 23.668 29.2884 22.7493 30.4062 22.7493H64.582C65.6998 22.7493 66.6067 23.668 66.6067 24.8002C66.6067 25.9325 65.6998 26.8511 64.582 26.8511C63.4642 26.8511 62.5573 25.9325 62.5573 24.8002H59.3093C59.3093 27.7454 61.6745 30.1412 64.582 30.1412C67.4895 30.1412 69.8547 27.7454 69.8547 24.8002C69.8547 21.8551 67.4895 19.4593 64.582 19.4593Z" fill="white"/>
<path d="M57.7667 24.5288H37.7306L40.2193 27.8189H55.278L57.7667 24.5288Z" fill="white"/>
<path d="M55.278 14.3504H53.7022L52.4729 12.7237H43.0243L41.7951 14.3504H40.2193L37.7306 17.6404H57.7667L55.278 14.3504Z" fill="white"/>
<path d="M68.6824 37.7374H67.3055L64.7988 31.0139C64.7747 30.9529 64.7234 30.9132 64.6632 30.8979C64.633 30.8766 64.5999 30.8644 64.5607 30.8644C64.4734 30.8644 64.404 30.9254 64.3799 31.0078C64.3799 31.0108 64.3769 31.0139 64.3739 31.017L61.8671 37.7404H60.4902C60.4902 37.7465 60.4902 37.7557 60.4902 37.7618C60.4902 40.0538 62.3221 41.9094 64.5848 41.9094C66.8475 41.9094 68.6794 40.0538 68.6794 37.7618C68.6824 37.7526 68.6824 37.7465 68.6824 37.7374ZM66.8988 37.7374H64.7505V31.9722L66.8988 37.7374ZM64.3709 32.1157V37.7374H62.2769L64.3709 32.1157Z" fill="white"/>
<path d="M34.4916 37.7374H33.1147L30.608 31.014C30.5838 30.9529 30.5326 30.9133 30.4724 30.898C30.4422 30.8766 30.4091 30.8644 30.3699 30.8644C30.2826 30.8644 30.2133 30.9255 30.1891 31.0079C30.1891 31.0109 30.1861 31.014 30.1831 31.017L27.6764 37.7405H26.2994C26.2994 37.7466 26.2994 37.7557 26.2994 37.7618C26.2994 40.0539 28.1313 41.9095 30.394 41.9095C32.6568 41.9095 34.4886 40.0539 34.4886 37.7618C34.4916 37.7527 34.4916 37.7466 34.4916 37.7374ZM32.711 37.7374H30.5628V31.9723L32.711 37.7374ZM30.1831 32.1157V37.7374H28.0891L30.1831 32.1157Z" fill="white"/>
<path d="M29.3034 54.6759H30.4332C30.4091 54.624 30.376 54.5752 30.3278 54.5355C23.0636 49.0023 18.8997 40.5575 18.8997 31.365C18.8997 15.3911 31.7288 2.39583 47.4986 2.39583C63.2683 2.39583 76.0975 15.3911 76.0975 31.365C76.0975 40.3103 72.1113 48.6147 65.1604 54.1509C65.0008 54.2791 64.6061 54.5721 64.4494 54.6728H65.6877C72.7681 48.9962 76.8296 40.5056 76.8296 31.365C76.8296 14.9821 63.6721 1.65115 47.4955 1.65115C31.322 1.65115 18.1615 14.9791 18.1615 31.365C18.1615 40.5484 22.2109 48.9992 29.3034 54.6759Z" fill="white"/>
<path d="M21.5691 54.6758H22.5966C22.0211 54.0349 21.4667 53.3788 20.9394 52.6951C21.3974 52.1641 21.7168 51.5201 21.8614 50.7999C22.0271 49.9728 21.8945 49.2251 21.5963 48.5719C20.9786 49.0725 20.4905 49.7775 20.3278 50.6045C20.2465 51.0318 20.2465 51.4621 20.3248 51.8742C19.7885 51.1356 19.2823 50.3787 18.8033 49.6004C19.0172 49.399 19.216 49.1823 19.3787 48.9382C19.6107 48.5994 19.7915 48.224 19.915 47.8242C20.0356 47.4244 20.0868 47.0337 20.0717 46.6614C20.0717 46.2799 20.0084 45.9198 19.8849 45.5841C19.213 46.0174 18.6737 46.6522 18.4055 47.4671C18.279 47.8761 18.2368 48.2942 18.27 48.7032C17.818 47.9219 17.3992 47.1223 17.0075 46.3104C17.5619 45.8893 18.0169 45.3185 18.2941 44.6593C18.6014 43.8994 18.6827 43.1181 18.4989 42.4314C17.7849 42.7854 17.1823 43.3592 16.8358 44.1374C16.649 44.5372 16.5676 44.9493 16.5646 45.3582C16.2754 44.7082 16.0012 44.0489 15.7481 43.3806C15.6818 43.2035 15.6186 43.0235 15.5553 42.8465C16.1579 42.4894 16.6731 41.9705 17.0196 41.3388C17.4113 40.6155 17.58 39.8494 17.4625 39.1475C16.7123 39.4222 16.0585 39.9257 15.6306 40.6582C15.3986 41.0458 15.2691 41.4578 15.2239 41.8759C14.9407 41.0061 14.6936 40.1272 14.4827 39.236C15.1244 38.9491 15.6939 38.4852 16.1067 37.8931C16.6038 37.2125 16.8087 36.474 16.7906 35.7598C16.0103 35.9521 15.2932 36.3794 14.8051 37.0599C14.558 37.3987 14.3803 37.7741 14.2748 38.1648C14.2688 38.1861 14.2658 38.2105 14.2627 38.2319C14.079 37.3346 13.9313 36.4282 13.8168 35.5187C14.4857 35.3051 15.0913 34.9083 15.5734 34.362C15.8536 34.0507 16.0675 33.718 16.2151 33.3732C16.3598 33.0283 16.4381 32.6743 16.4803 32.3141C15.6939 32.421 14.9166 32.7689 14.3622 33.3915C14.0639 33.7211 13.8439 34.0995 13.7023 34.4994C13.615 33.5868 13.5668 32.6682 13.5517 31.7495C14.2356 31.6061 14.8683 31.2795 15.4197 30.7912C16.0494 30.2327 16.423 29.5552 16.5315 28.8502C15.7391 28.8715 14.9587 29.1371 14.329 29.6956C14.0006 29.9886 13.7355 30.3395 13.5487 30.721C13.5607 29.8054 13.6029 28.8898 13.6812 27.9773C14.3803 27.9102 15.0702 27.6538 15.6517 27.2265C15.9862 26.9824 16.2573 26.7016 16.4652 26.3933C16.6641 26.0851 16.8629 25.7646 16.9623 25.4198C16.173 25.3526 15.3414 25.5266 14.6514 26.0149C14.2899 26.2804 14.0036 26.6131 13.7837 26.9824C13.8891 26.0637 14.0338 25.1481 14.2085 24.2417C14.9105 24.2539 15.6156 24.0708 16.2272 23.7076C16.9563 23.2987 17.4776 22.7249 17.7367 22.0596C16.9563 21.907 16.1368 21.9955 15.3986 22.4014C15.031 22.6059 14.7117 22.8714 14.4495 23.1796C14.4375 23.1949 14.4315 23.2101 14.4194 23.2224C14.6183 22.3342 14.8503 21.4522 15.1154 20.5794C15.8144 20.6679 16.5496 20.5702 17.2154 20.2833C17.9867 19.9568 18.4899 19.4135 18.8756 18.8062C18.4959 18.6871 18.0952 18.6261 17.6915 18.6322C17.2847 18.6383 16.875 18.7146 16.5014 18.8825C16.0735 19.0686 15.7059 19.3464 15.4016 19.679C15.6999 18.7879 16.0283 17.9058 16.3959 17.0391C17.0919 17.2161 17.8391 17.2008 18.5321 16.9719C19.3124 16.7217 19.9602 16.2822 20.3549 15.6932C19.6258 15.3727 18.8033 15.2781 17.9958 15.5162C17.5951 15.6352 17.2154 15.8183 16.9081 16.0686C16.8599 16.1113 16.8117 16.1571 16.7665 16.2029C17.1612 15.3361 17.5921 14.4846 18.056 13.6545C18.734 13.9108 19.4902 13.9841 20.2224 13.8437C20.6291 13.7643 20.9937 13.627 21.313 13.4408C21.4727 13.3493 21.6173 13.2394 21.759 13.1265C21.9066 13.0166 22.0392 12.8945 22.1597 12.7633C21.8132 12.5649 21.4366 12.4154 21.0389 12.336C20.6381 12.2536 20.2254 12.2414 19.8246 12.3238C19.3185 12.4215 18.8605 12.6382 18.4688 12.9403C18.752 12.4612 19.0443 11.9881 19.3486 11.5211C19.5836 11.1702 19.8277 10.8222 20.0717 10.4774C20.7255 10.8161 21.4727 10.9718 22.2139 10.8985C23.0304 10.8222 23.7565 10.5354 24.2657 10.044C23.621 9.574 22.8376 9.30542 21.997 9.35731C21.5812 9.38783 21.1714 9.48549 20.8189 9.6625C20.7225 9.71439 20.6261 9.77237 20.5357 9.83341C21.1232 9.0338 21.7349 8.25555 22.3857 7.50782C23.0063 7.93204 23.7565 8.18535 24.5279 8.20672C24.9406 8.21893 25.3263 8.16094 25.6788 8.04802C25.8566 7.99308 26.0163 7.91373 26.182 7.83743C26.3477 7.76113 26.5043 7.67263 26.649 7.56886C26.3507 7.30029 26.0132 7.07444 25.6457 6.90964C25.2721 6.74178 24.8713 6.64106 24.4616 6.63496C23.871 6.6197 23.3076 6.7723 22.8135 7.04392C23.0304 6.80282 23.2443 6.55866 23.4703 6.32366C23.9554 5.78957 24.4766 5.29515 25.0099 4.81904C25.5884 5.32872 26.3175 5.67054 27.0919 5.7621C27.9054 5.86587 28.6737 5.74074 29.2763 5.3684C28.746 4.77021 28.0379 4.33683 27.2064 4.20865C26.7936 4.14761 26.3748 4.15677 25.9891 4.25138C25.7752 4.31242 25.5673 4.39482 25.3715 4.49859C25.8385 4.08963 26.3115 3.68372 26.7785 3.2717C27.4956 3.26865 28.2247 3.04891 28.8936 2.59722C29.2702 2.3378 29.5896 2.04786 29.8517 1.72436C30.1139 1.3978 30.3218 1.02851 30.4603 0.640911C30.2434 0.60734 30.0235 0.59208 29.8065 0.595132C29.5896 0.598184 29.3666 0.640911 29.1527 0.692795C28.7219 0.796561 28.3091 0.973575 27.9355 1.22689C27.2485 1.69384 26.8056 2.34696 26.5797 3.07027C26.3959 3.20456 26.2151 3.33884 26.0373 3.47618C25.733 3.72339 25.4317 3.9767 25.1335 4.23307C25.26 4.04079 25.3775 3.83937 25.4679 3.62268C25.6366 3.25339 25.7662 2.85969 25.8174 2.42631C25.9229 1.55345 25.7541 0.701951 25.3534 0C24.7327 0.598184 24.2808 1.36728 24.1904 2.2554C24.1091 3.113 24.3411 3.89735 24.7659 4.53826C23.9795 5.23106 23.2172 5.95132 22.4911 6.70821C22.7412 6.20463 22.8798 5.62781 22.8828 5.00521C22.8798 4.55658 22.8225 4.13846 22.708 3.74781C22.5905 3.3541 22.4098 2.98787 22.1747 2.66131C22.0301 2.82001 21.9006 2.99092 21.7831 3.16793C21.6686 3.348 21.5812 3.55248 21.5029 3.75391C21.3522 4.16287 21.2678 4.59625 21.2648 5.03878C21.2618 5.87502 21.5541 6.61054 22.0301 7.19347C21.53 7.73672 21.0449 8.29217 20.5809 8.86899C20.4031 9.08263 20.2404 9.30542 20.0717 9.52516C20.1079 9.40309 20.141 9.28101 20.1651 9.15283C20.2495 8.75302 20.2947 8.34406 20.2555 7.90763C20.1802 7.04087 19.8367 6.24736 19.2974 5.64612C18.8183 6.36334 18.5351 7.21483 18.6375 8.0999C18.734 8.91477 19.0925 9.60146 19.6017 10.1264C19.0202 10.9108 18.4809 11.7165 17.9747 12.5374C18.053 12.0705 18.047 11.5761 17.9416 11.0664C17.8451 10.63 17.7005 10.2302 17.5047 9.87614C17.3058 9.51906 17.0527 9.19861 16.7575 8.93003C16.649 9.1162 16.5586 9.31153 16.4803 9.50991C16.408 9.71133 16.3658 9.92802 16.3326 10.1447C16.2694 10.575 16.2784 11.0176 16.3718 11.451C16.5375 12.2323 16.9503 12.8671 17.5017 13.331C17.0196 14.1611 16.5707 15.0034 16.1639 15.8641C16.1639 15.8122 16.1669 15.7603 16.1669 15.7084C16.1669 15.2995 16.1217 14.8905 15.9922 14.4724C15.7361 13.6423 15.2299 12.9403 14.5791 12.4703C14.2627 13.276 14.1663 14.1672 14.4526 15.0126C14.7117 15.7664 15.1877 16.3493 15.7722 16.7492C15.3926 17.619 15.0491 18.4979 14.7418 19.3921C14.7087 18.9496 14.5972 18.504 14.4013 18.0615C14.2115 17.6556 13.9916 17.3016 13.7264 16.9933C13.4583 16.6851 13.1419 16.4287 12.7954 16.2303C12.5122 17.0452 12.5996 17.976 12.9551 18.7787C13.2775 19.4929 13.8018 20.0178 14.4254 20.3505C14.1392 21.2691 13.8982 22.1969 13.6903 23.1339C13.6812 23.082 13.6722 23.0331 13.6602 22.9813C13.5848 22.5845 13.4432 22.1908 13.2293 21.8124C12.8015 21.0555 12.1567 20.4817 11.4215 20.1673C11.2829 21.025 11.3944 21.9192 11.8343 22.6791C12.2501 23.3566 12.8346 23.8205 13.4914 24.0861C13.3107 25.0108 13.16 25.9417 13.0515 26.8786C12.922 26.4605 12.7171 26.0515 12.4309 25.67C11.9247 24.965 11.2468 24.4706 10.4815 24.2387C10.4514 24.669 10.4544 25.0993 10.59 25.5205C10.7165 25.9386 10.9123 26.3354 11.1775 26.6894C11.6475 27.3181 12.2742 27.7148 12.9521 27.9041C12.8708 28.8593 12.8256 29.8176 12.8195 30.779C12.6508 30.367 12.4188 29.9672 12.0844 29.604C11.4999 28.96 10.7466 28.5389 9.96026 28.3924C10.0115 29.2561 10.3248 30.1076 10.9123 30.7515C11.4276 31.3223 12.1205 31.6519 12.8165 31.7678C12.8346 32.7262 12.8919 33.6845 12.9853 34.6367C12.7713 34.2369 12.4911 33.8645 12.1236 33.541C11.4607 32.9642 10.6954 32.6254 9.9 32.5644C9.94519 32.9917 10.0868 33.4098 10.2917 33.7913C10.4936 34.1728 10.7587 34.5207 11.0871 34.8106C11.6807 35.3234 12.3917 35.5767 13.0997 35.6133C13.2173 36.5655 13.3709 37.5116 13.5637 38.4486C13.5366 38.4089 13.5095 38.3662 13.4794 38.3296C13.2444 38.003 12.9491 37.7039 12.5966 37.4536C11.8825 36.9501 11.069 36.6998 10.2766 36.7242C10.4815 37.5635 10.9877 38.3235 11.6957 38.8301C12.3465 39.2696 13.0696 39.4466 13.7716 39.41C13.9856 40.3316 14.2386 41.2442 14.5249 42.1445C14.2326 41.8149 13.8801 41.525 13.4764 41.29C12.7231 40.8657 11.8765 40.7101 11.0871 40.82C11.4065 41.6257 11.9458 42.3398 12.7322 42.7549C13.4191 43.1211 14.1483 43.2188 14.8412 43.1089C15.1455 43.9848 15.48 44.8485 15.8536 45.7C15.5342 45.4254 15.1666 45.1904 14.7629 45.0103C13.9735 44.6685 13.1208 44.6044 12.3435 44.8028C12.7382 45.5719 13.3558 46.2219 14.1874 46.5424C14.9015 46.8323 15.6336 46.8506 16.3025 46.6675C16.6972 47.4976 17.122 48.3125 17.58 49.1121C17.2425 48.8771 16.8629 48.6879 16.4351 48.5658C15.6186 48.3095 14.7659 48.34 14.0187 48.6208C14.2537 48.9839 14.5399 49.3074 14.8744 49.573C15.2209 49.8293 15.6125 50.0277 16.0344 50.1498C16.4562 50.2719 16.875 50.3024 17.2757 50.2627C17.574 50.2291 17.8602 50.1559 18.1344 50.0491C18.6165 50.8304 19.1377 51.5903 19.683 52.335C19.3245 52.1366 18.9298 51.9871 18.4899 51.9108C17.6342 51.7582 16.8087 51.868 16.0916 52.2312C16.6128 52.9149 17.3992 53.3818 18.2519 53.5344C18.9931 53.6687 19.7222 53.5161 20.3368 53.1957C20.7255 53.6962 21.1413 54.1906 21.5691 54.6758Z" fill="white"/>
<path d="M66.0973 2.59121C66.7662 3.0429 67.4953 3.26265 68.2124 3.2657C68.6794 3.67771 69.1525 4.08362 69.6195 4.49259C69.4206 4.39187 69.2157 4.30642 69.0018 4.24538C68.6192 4.15077 68.2004 4.14161 67.7846 4.20265C66.953 4.33083 66.245 4.76421 65.7147 5.36239C66.3173 5.73473 67.0856 5.85986 67.8991 5.7561C68.6734 5.66454 69.4025 5.32272 69.981 4.81304C70.5143 5.2922 71.0326 5.78356 71.5207 6.31766C71.7466 6.55266 71.9605 6.79681 72.1775 7.03792C71.6833 6.76629 71.1199 6.6137 70.5294 6.62896C70.1196 6.63506 69.7189 6.73883 69.3453 6.90363C68.9747 7.06844 68.6373 7.29428 68.342 7.56286C68.4866 7.66662 68.6433 7.75513 68.809 7.83143C68.9717 7.91078 69.1344 7.98708 69.3122 8.04201C69.6617 8.15494 70.0503 8.21292 70.4631 8.20072C71.2344 8.17935 71.9816 7.92604 72.6053 7.50182C73.2561 8.24955 73.8677 9.03085 74.4553 9.82741C74.3649 9.76637 74.2685 9.70838 74.172 9.6565C73.8195 9.47949 73.4098 9.38182 72.994 9.35131C72.1534 9.29637 71.37 9.56494 70.7252 10.038C71.2344 10.5294 71.9605 10.8193 72.777 10.8925C73.5182 10.9658 74.2685 10.8101 74.9193 10.4714C75.1633 10.8162 75.4073 11.1642 75.6424 11.5151C75.9497 11.979 76.2389 12.4551 76.5221 12.9343C76.1305 12.6322 75.6695 12.4155 75.1663 12.3178C74.7656 12.2354 74.3528 12.2476 73.9521 12.33C73.5544 12.4094 73.1778 12.5589 72.8313 12.7573C72.9518 12.8885 73.0874 13.0106 73.232 13.1205C73.3736 13.2334 73.5152 13.3433 73.6779 13.4348C73.9973 13.621 74.3619 13.7614 74.7686 13.8377C75.5007 13.9781 76.257 13.9048 76.9349 13.6485C77.3989 14.4816 77.8298 15.3301 78.2245 16.1968C78.1793 16.1511 78.1311 16.1053 78.0828 16.0626C77.7755 15.8123 77.3959 15.6292 76.9952 15.5102C76.1847 15.2752 75.3652 15.3698 74.636 15.6872C75.0307 16.2793 75.6755 16.7187 76.4589 16.9659C77.1518 17.1918 77.8991 17.207 78.595 17.0331C78.9626 17.8998 79.291 18.7788 79.5893 19.673C79.288 19.3404 78.9174 19.0626 78.4896 18.8765C78.116 18.7086 77.7062 18.6323 77.2995 18.6262C76.8957 18.6201 76.495 18.6811 76.1154 18.8002C76.501 19.4075 77.0042 19.9508 77.7755 20.2773C78.4414 20.5673 79.1765 20.6649 79.8755 20.5734C80.1407 21.4462 80.3727 22.3252 80.5715 23.2164C80.5625 23.2011 80.5535 23.1858 80.5414 23.1736C80.2793 22.8654 79.9629 22.5999 79.5923 22.3954C78.8542 21.9864 78.0346 21.901 77.2543 22.0536C77.5134 22.7158 78.0377 23.2896 78.7638 23.7016C79.3754 24.0679 80.0804 24.2479 80.7825 24.2357C80.9572 25.1452 81.1018 26.0577 81.2073 26.9764C80.9873 26.604 80.7011 26.2714 80.3395 26.0089C79.6496 25.5236 78.818 25.3497 78.0286 25.4138C78.128 25.7556 78.3269 26.0791 78.5257 26.3873C78.7336 26.6925 79.0048 26.9764 79.3392 27.2205C79.9238 27.6478 80.6107 27.9042 81.3097 27.9713C81.3911 28.8838 81.4333 29.7994 81.4423 30.715C81.2555 30.3335 80.9903 29.9826 80.6619 29.6896C80.0322 29.1311 79.2519 28.8655 78.4595 28.8442C78.5679 29.5492 78.9415 30.2267 79.5712 30.7852C80.1226 31.2735 80.7553 31.6031 81.4393 31.7435C81.4242 32.6622 81.373 33.5778 81.2886 34.4933C81.15 34.0935 80.9271 33.7151 80.6288 33.3855C80.0744 32.7629 79.3001 32.415 78.5107 32.3081C78.5529 32.6652 78.6312 33.0223 78.7758 33.3672C78.9235 33.712 79.1374 34.0447 79.4176 34.356C79.8997 34.8993 80.5053 35.296 81.1741 35.5127C81.0627 36.4222 80.915 37.3286 80.7282 38.2259C80.7222 38.2045 80.7222 38.1801 80.7162 38.1587C80.6107 37.7681 80.436 37.3927 80.1859 37.0539C79.6948 36.3734 78.9807 35.9461 78.2003 35.7538C78.1853 36.471 78.3902 37.2065 78.8843 37.8871C79.2941 38.4792 79.8665 38.94 80.5083 39.23C80.2974 40.1181 80.0503 40.9971 79.7671 41.8699C79.7189 41.4518 79.5893 41.0398 79.3603 40.6522C78.9355 39.9197 78.2787 39.4162 77.5285 39.1415C77.411 39.8434 77.5767 40.6125 77.9714 41.3328C78.3179 41.9645 78.8331 42.4834 79.4357 42.8405C79.3724 43.0205 79.3091 43.1975 79.2428 43.3745C78.9928 44.0429 78.7186 44.7022 78.4263 45.3522C78.4203 44.9433 78.3389 44.5312 78.1552 44.1314C77.8087 43.3532 77.2031 42.7825 76.492 42.4254C76.3082 43.1151 76.3896 43.8934 76.6969 44.6533C76.9771 45.3156 77.429 45.8863 77.9834 46.3044C77.5917 47.1193 77.1699 47.9159 76.721 48.6972C76.7541 48.2882 76.712 47.8701 76.5854 47.4611C76.3173 46.6462 75.7779 46.0114 75.106 45.5781C74.9825 45.9138 74.9193 46.277 74.9193 46.6554C74.9042 47.0277 74.9554 47.4184 75.0759 47.8182C75.1964 48.218 75.3802 48.5934 75.6122 48.9322C75.7749 49.1763 75.9738 49.393 76.1877 49.5944C75.7086 50.3696 75.2026 51.1296 74.6662 51.8681C74.7445 51.4592 74.7445 51.0258 74.6632 50.5985C74.5005 49.7715 74.0124 49.0665 73.3947 48.5659C73.0964 49.2191 72.9638 49.9668 73.1296 50.7939C73.2742 51.5172 73.5905 52.1581 74.0515 52.6891C73.5243 53.3697 72.9669 54.0289 72.3944 54.6699H73.4218C73.8497 54.1846 74.2654 53.6932 74.6632 53.1866C75.2778 53.5071 76.0069 53.6566 76.7481 53.5254C77.6038 53.3728 78.3871 52.9058 78.9084 52.2222C78.1913 51.8559 77.3628 51.7491 76.5101 51.9017C76.0702 51.978 75.6755 52.1245 75.317 52.3259C75.8623 51.5813 76.3835 50.8213 76.8656 50.04C77.1368 50.1468 77.426 50.2201 77.7243 50.2537C78.125 50.2964 78.5438 50.2628 78.9656 50.1407C79.3875 50.0187 79.7761 49.8203 80.1256 49.5639C80.4601 49.2984 80.7463 48.9718 80.9813 48.6117C80.2341 48.3309 79.3784 48.3004 78.5649 48.5568C78.1371 48.6819 77.7574 48.8681 77.42 49.1031C77.878 48.3035 78.3028 47.4886 78.6975 46.6585C79.3694 46.8416 80.0985 46.8233 80.8126 46.5333C81.6441 46.2098 82.2588 45.5597 82.6565 44.7937C81.8822 44.5953 81.0265 44.6594 80.2371 45.0012C79.8334 45.1813 79.4658 45.4133 79.1464 45.691C79.52 44.8395 79.8545 43.9758 80.1588 43.0999C80.8487 43.2097 81.5809 43.1121 82.2678 42.7458C83.0542 42.3308 83.5935 41.6166 83.9129 40.8109C83.1235 40.701 82.2769 40.8567 81.5236 41.2809C81.1199 41.5159 80.7674 41.8058 80.4751 42.1354C80.7614 41.2321 81.0144 40.3195 81.2284 39.4009C81.9304 39.4375 82.6535 39.2605 83.3043 38.821C84.0123 38.3175 84.5185 37.5575 84.7234 36.7152C83.931 36.6908 83.1175 36.941 82.4034 37.4446C82.0509 37.6979 81.7556 37.9939 81.5206 38.3205C81.4905 38.3602 81.4634 38.3999 81.4363 38.4395C81.6291 37.4995 81.7827 36.5534 81.9002 35.6043C82.6083 35.5646 83.3193 35.3143 83.9129 34.8016C84.2413 34.5117 84.5064 34.1668 84.7083 33.7822C84.9132 33.4007 85.0518 32.9826 85.1 32.5554C84.3016 32.6194 83.5393 32.9552 82.8764 33.532C82.5089 33.8555 82.2287 34.2309 82.0147 34.6276C82.1081 33.6724 82.1654 32.7171 82.1835 31.7588C82.8795 31.6428 83.5724 31.3163 84.0876 30.7425C84.6722 30.0985 84.9885 29.247 85.0397 28.3833C84.2534 28.5329 83.4971 28.951 82.9156 29.595C82.5842 29.9581 82.3492 30.361 82.1865 30.7791C82.1805 29.8208 82.1353 28.8625 82.0539 27.9042C82.7318 27.7149 83.3585 27.3151 83.8285 26.6895C84.0937 26.3355 84.2895 25.9387 84.4161 25.5206C84.5516 25.1025 84.5547 24.6721 84.5245 24.2388C83.7562 24.4707 83.0813 24.9682 82.5751 25.6701C82.2889 26.0516 82.084 26.4606 81.9545 26.8787C81.846 25.9418 81.6954 25.0109 81.5146 24.0862C82.1684 23.8206 82.7559 23.3567 83.1717 22.6792C83.6116 21.9193 83.7231 21.025 83.5845 20.1674C82.8493 20.4849 82.2046 21.0586 81.7767 21.8125C81.5628 22.1909 81.4212 22.5846 81.3459 22.9814C81.3338 23.0302 81.3248 23.0821 81.3157 23.134C81.1048 22.2001 80.8638 21.2692 80.5806 20.3506C81.2012 20.0179 81.7255 19.493 82.0509 18.7788C82.4034 17.9761 82.4938 17.0453 82.2106 16.2304C81.8641 16.4257 81.5477 16.6852 81.2796 16.9934C81.0114 17.2986 80.7915 17.6557 80.6047 18.0616C80.4058 18.5011 80.2974 18.9497 80.2642 19.3923C79.9569 18.498 79.6134 17.6191 79.2338 16.7493C79.8183 16.3494 80.2913 15.7635 80.5535 15.0127C80.8397 14.1673 80.7433 13.2761 80.4269 12.4704C79.7761 12.9404 79.2699 13.6393 79.0138 14.4725C78.8843 14.8906 78.8391 15.2996 78.8391 15.7085C78.8391 15.7604 78.8391 15.8123 78.8421 15.8642C78.4354 15.0035 77.9864 14.1581 77.5044 13.3311C78.0557 12.8672 78.4685 12.2324 78.6342 11.4511C78.7246 11.0177 78.7336 10.5751 78.6734 10.1448C78.6402 9.93118 78.5981 9.71449 78.5257 9.51001C78.4504 9.31163 78.357 9.1163 78.2486 8.93013C77.9503 9.19871 77.6972 9.51916 77.5013 9.87624C77.3085 10.2333 77.1609 10.6301 77.0645 11.0665C76.956 11.5762 76.95 12.0706 77.0313 12.5376C76.5251 11.7166 75.9858 10.9078 75.4043 10.1265C75.9135 9.60157 76.2721 8.91487 76.3685 8.1C76.4679 7.21188 76.1847 6.36344 75.7086 5.64623C75.1723 6.24746 74.8258 7.04097 74.7505 7.90773C74.7114 8.34416 74.7565 8.75312 74.8409 9.15293C74.865 9.28111 74.8982 9.40319 74.9343 9.52527C74.7656 9.30552 74.5999 9.08578 74.4251 8.86909C73.9611 8.29227 73.4761 7.73682 72.9759 7.19357C73.452 6.61065 73.7472 5.87512 73.7412 5.03889C73.7382 4.59635 73.6568 4.16297 73.5032 3.75401C73.4248 3.55258 73.3374 3.3481 73.223 3.16804C73.1055 2.98797 72.9759 2.82011 72.8313 2.66141C72.5963 2.98797 72.4155 3.3542 72.298 3.74791C72.1835 4.13856 72.1263 4.55668 72.1232 5.00531C72.1263 5.63097 72.2679 6.20473 72.5149 6.70831C71.7888 5.95142 71.0295 5.23116 70.2402 4.53836C70.665 3.89745 70.897 3.11615 70.8156 2.2555C70.7252 1.36738 70.2703 0.598285 69.6526 0.000101126C69.2549 0.702052 69.0832 1.55355 69.1946 2.4142C69.2489 2.84758 69.3754 3.24128 69.5442 3.61057C69.6376 3.83031 69.7521 4.03174 69.8816 4.22096C69.5833 3.9646 69.282 3.71128 68.9777 3.46408C68.7969 3.32674 68.6162 3.19245 68.4354 3.05816C68.2124 2.33485 67.7665 1.67868 67.0796 1.21478C66.706 0.961468 66.2932 0.784455 65.8623 0.680688C65.6484 0.631857 65.4255 0.589129 65.2085 0.583025C64.9916 0.579973 64.7716 0.595233 64.5547 0.628805C64.6933 1.01946 64.9012 1.38569 65.1633 1.71225C65.4044 2.04186 65.7237 2.32875 66.0973 2.59121Z" fill="white"/>
<path d="M10.8596 72.1535C10.8596 72.058 10.7601 71.9984 10.5612 71.9745C10.3623 71.9506 10.0639 71.9347 9.66607 71.9268C9.2762 71.9188 8.87041 71.9148 8.4487 71.9148C8.28162 71.9148 8.01109 71.9268 7.63713 71.9506C7.27112 71.9665 6.80168 71.9944 6.2288 72.0341C6.18106 72.0341 5.96623 72.3523 5.58431 72.9887C5.32969 73.4103 5.0711 73.8677 4.80853 74.3608C4.55392 74.854 4.33909 75.3034 4.16404 75.7091C3.99695 76.1068 3.91341 76.3852 3.91341 76.5443C3.91341 76.7034 3.99695 76.8386 4.16404 76.95C4.33909 77.0614 4.53005 77.1449 4.73692 77.2006C4.95175 77.2563 5.11486 77.2841 5.22626 77.2841C5.25808 77.2841 5.274 77.3318 5.274 77.4273C5.274 77.6102 5.23421 77.7773 5.15465 77.9284C4.41468 77.8886 3.85373 77.8608 3.47181 77.8449C3.09785 77.821 2.90291 77.8091 2.887 77.8091C2.74378 77.8091 2.50906 77.8171 2.18283 77.833C1.85661 77.8489 1.53437 77.8648 1.2161 77.8807C0.897833 77.9045 0.675047 77.9205 0.54774 77.9284C0.515913 77.8966 0.5 77.833 0.5 77.7375C0.5 77.4352 0.555697 77.2841 0.66709 77.2841C0.842136 77.2841 1.08481 77.2364 1.39512 77.1409C1.70543 77.0455 1.92424 76.9262 2.05155 76.783C2.40164 76.3932 2.887 75.6455 3.50762 74.5398L10.0957 62.7035C10.3344 62.274 10.6447 62.0592 11.0267 62.0592C11.0983 62.0592 11.1619 62.0751 11.2176 62.107L13.1988 74.7069C13.358 75.7091 13.4534 76.2818 13.4853 76.425C13.5171 76.5841 13.6245 76.7313 13.8075 76.8665C13.9905 76.9938 14.1855 77.0972 14.3923 77.1767C14.6072 77.2483 14.7663 77.2841 14.8697 77.2841C14.9016 77.2841 14.9175 77.3239 14.9175 77.4034C14.9175 77.6023 14.8777 77.7773 14.7981 77.9284C14.0582 77.8886 13.4813 77.8608 13.0675 77.8449C12.6538 77.821 12.4032 77.8091 12.3156 77.8091C12.1645 77.8091 12.0173 77.8131 11.874 77.821C11.7388 77.821 11.6035 77.825 11.4683 77.833C11.2216 77.8489 10.9312 77.8648 10.597 77.8807C10.2708 77.8966 9.9923 77.9125 9.76155 77.9284C9.74564 77.9125 9.73768 77.8648 9.73768 77.7852C9.73768 77.4511 9.79338 77.2841 9.90477 77.2841C10.0639 77.2841 10.2867 77.2364 10.5731 77.1409C10.8596 77.0455 11.0426 76.9341 11.1221 76.8068C11.2335 76.5602 11.2892 76.1864 11.2892 75.6852C11.2892 75.4148 11.146 74.2375 10.8596 72.1535ZM8.75902 70.7455C9.12502 70.7455 9.45522 70.7415 9.74962 70.7336C10.052 70.7256 10.3185 70.7137 10.5493 70.6978C10.6129 70.6978 10.6447 70.666 10.6447 70.6023C10.6447 70.4989 10.593 70.1251 10.4896 69.4808C10.4259 69.0353 10.3503 68.5302 10.2628 67.9654C10.1753 67.4007 10.0918 66.8717 10.0122 66.3785C9.94058 65.8853 9.88886 65.5274 9.85703 65.3047C7.8997 68.8444 6.92103 70.6342 6.92103 70.6739C6.92103 70.7057 6.92898 70.7217 6.9449 70.7217C7.1279 70.7296 7.37058 70.7376 7.67293 70.7455C7.97528 70.7455 8.33731 70.7455 8.75902 70.7455Z" fill="white"/>
<path d="M26.6376 61.9638L26.2796 63.7535L24.0358 75.3273C23.9881 75.5182 23.9642 75.7171 23.9642 75.9239C23.9642 76.3216 24.0438 76.5205 24.2029 76.5205C24.4018 76.5205 24.6405 76.3813 24.919 76.1029C25.1975 75.8165 25.4362 75.5739 25.6351 75.375L25.7783 75.208C25.8101 75.208 25.8698 75.2835 25.9573 75.4347C26.0449 75.5858 26.0886 75.6932 26.0886 75.7568C25.9534 75.9875 25.7067 76.2818 25.3487 76.6398C24.9986 76.9977 24.6166 77.3159 24.2029 77.5943C23.7892 77.8648 23.4152 78 23.081 78C22.8264 78 22.6275 77.8847 22.4843 77.654C22.341 77.4233 22.2694 77.125 22.2694 76.7591C22.2694 76.5205 22.3251 76.0989 22.4365 75.4943C22.4524 75.4148 22.4803 75.2955 22.5201 75.1364C22.5598 74.9773 22.5797 74.8819 22.5797 74.85C22.4763 75.033 22.3609 75.2199 22.2336 75.4108C22.1143 75.6017 21.987 75.7966 21.8517 75.9955C21.6687 76.2659 21.422 76.5563 21.1117 76.8665C20.8094 77.1688 20.4871 77.4313 20.145 77.654C19.8108 77.8688 19.5005 77.9761 19.2141 77.9761C18.4821 77.9761 17.9171 77.6619 17.5193 77.0335C17.1215 76.4051 16.9226 75.6455 16.9226 74.7546C16.9226 73.8955 17.1215 73.0364 17.5193 72.1773C17.9251 71.3182 18.4582 70.5347 19.1186 69.8268C19.779 69.1188 20.507 68.5501 21.3027 68.1205C22.1063 67.691 22.906 67.4762 23.7016 67.4762H24.0119L24.6803 63.9206C24.728 63.6899 24.7519 63.4672 24.7519 63.2524C24.7519 62.9501 24.2665 62.799 23.2958 62.799C23.2481 62.799 23.2242 62.7513 23.2242 62.6558C23.2242 62.4649 23.2879 62.3058 23.4152 62.1785C24.4973 62.0831 25.5237 61.8604 26.4944 61.5104C26.5899 61.5661 26.6376 61.7172 26.6376 61.9638ZM23.2481 71.2705L23.5345 69.7194C23.5982 69.4171 23.5664 69.1507 23.4391 68.92C23.3117 68.6893 23.0969 68.574 22.7946 68.574C22.3092 68.574 21.8239 68.741 21.3385 69.0751C20.8531 69.4092 20.4115 69.8546 20.0137 70.4114C19.6159 70.9603 19.2936 71.5728 19.047 72.2489C18.8083 72.9171 18.6889 73.5932 18.6889 74.2773C18.6889 75.8205 19.0947 76.5921 19.9063 76.5921C20.2007 76.5921 20.515 76.433 20.8492 76.1148C21.1913 75.7887 21.5215 75.3631 21.8398 74.8381C22.158 74.3131 22.4405 73.7404 22.6872 73.1199C22.9418 72.4915 23.1287 71.8751 23.2481 71.2705Z" fill="white"/>
<path d="M31.6265 67.4762C31.8811 67.4762 32.08 67.5916 32.2232 67.8223C32.3664 68.0529 32.438 68.3512 32.438 68.7171C32.438 69.0433 32.3903 69.4649 32.2948 69.9819L31.5787 73.633C31.4514 74.3728 31.3878 74.8739 31.3878 75.1364C31.3878 75.5818 31.4594 75.9 31.6026 76.0909C31.7458 76.2818 32.0004 76.3773 32.3664 76.3773C32.6608 76.3773 32.987 76.2421 33.3451 75.9716C33.7031 75.7012 34.0612 75.3432 34.4193 74.8978C34.7773 74.4523 35.1035 73.9671 35.3979 73.4421C35.7003 72.9091 35.943 72.3841 36.126 71.8671C36.309 71.3501 36.4005 70.8887 36.4005 70.483C36.4005 70.1569 36.2851 69.7989 36.0543 69.4092C35.8236 69.0194 35.7082 68.733 35.7082 68.5501C35.7082 68.2637 35.8037 68.0132 35.9947 67.7984C36.1856 67.5836 36.4164 67.4762 36.6869 67.4762C36.9972 67.4762 37.2518 67.5399 37.4507 67.6671C37.6735 68.0808 37.7849 68.5421 37.7849 69.0512C37.7849 70.3717 37.399 71.7398 36.6272 73.1557C36.118 74.0944 35.5491 74.9176 34.9205 75.6256C34.2999 76.3335 33.6833 76.8824 33.0706 77.2722C32.4659 77.6619 31.9288 77.8568 31.4594 77.8568C30.9183 77.8568 30.4887 77.6619 30.1704 77.2722C29.8521 76.8824 29.693 76.3773 29.693 75.7568C29.693 75.3273 29.7248 74.9773 29.7885 74.7069L30.6001 70.5069C30.6955 70.1728 30.7433 69.8546 30.7433 69.5523C30.7433 69.1546 30.6637 68.9558 30.5046 68.9558C30.4091 68.9558 30.2818 69.0194 30.1227 69.1467C29.9635 69.2739 29.8044 69.4171 29.6453 69.5762C29.4941 69.7273 29.3827 69.8467 29.3111 69.9342L29.1917 70.0773C29.1599 70.0773 29.1002 70.0018 29.0127 69.8506C28.9252 69.6995 28.8814 69.5921 28.8814 69.5285C29.0087 69.3137 29.2395 69.0472 29.5736 68.7291C29.9078 68.4029 30.2659 68.1126 30.6478 67.858C31.0297 67.6035 31.3559 67.4762 31.6265 67.4762Z" fill="white"/>
<path d="M44.564 67.4762C45.5029 67.4762 46.2309 67.8024 46.7481 68.4546C47.2653 69.1069 47.5239 70.0058 47.5239 71.1512C47.5239 71.9705 47.3647 72.7858 47.0465 73.5972C46.7282 74.4006 46.3105 75.1324 45.7933 75.7926C45.2761 76.4529 44.7072 76.9818 44.0866 77.3796C43.466 77.7773 42.8533 77.9761 42.2486 77.9761C41.2938 77.9761 40.5658 77.6659 40.0645 77.0455C39.5632 76.425 39.3126 75.5421 39.3126 74.3966C39.3126 73.5694 39.4678 72.75 39.7781 71.9387C40.0963 71.1194 40.5141 70.3756 41.0312 69.7075C41.5484 69.0313 42.1133 68.4904 42.726 68.0848C43.3466 67.6791 43.9593 67.4762 44.564 67.4762ZM44.2776 68.4546C43.8797 68.4546 43.4938 68.6296 43.1199 68.9796C42.7459 69.3217 42.4077 69.7711 42.1054 70.3279C41.803 70.8847 41.5643 71.4932 41.3893 72.1535C41.2142 72.8137 41.1267 73.458 41.1267 74.0864C41.1267 75.0091 41.2739 75.725 41.5683 76.2341C41.8627 76.7432 42.2327 76.9977 42.6783 76.9977C43.0761 76.9977 43.454 76.8267 43.8121 76.4847C44.1781 76.1347 44.5043 75.6813 44.7908 75.1245C45.0772 74.5597 45.3 73.9472 45.4591 73.287C45.6262 72.6268 45.7098 71.9785 45.7098 71.3421C45.7098 70.4035 45.5824 69.6876 45.3278 69.1944C45.0732 68.7012 44.7231 68.4546 44.2776 68.4546Z" fill="white"/>
<path d="M55.21 67.4762C55.9579 67.4762 56.6502 67.7467 57.2867 68.2876C57.3344 68.4785 57.3583 68.6376 57.3583 68.7649C57.3583 69.2501 57.2986 69.5126 57.1793 69.5523C57.0599 69.5921 56.8889 69.5205 56.6661 69.3376C56.4512 69.1546 56.1966 68.9637 55.9022 68.7649C55.6078 68.558 55.2816 68.4546 54.9236 68.4546C54.5814 68.4546 54.2194 68.6018 53.8375 68.8961C53.4635 69.1904 53.1134 69.5961 52.7872 70.1131C52.461 70.6302 52.1944 71.2228 51.9876 71.891C51.7807 72.5512 51.6772 73.2512 51.6772 73.991C51.6772 75.6773 52.2024 76.5205 53.2527 76.5205C53.4516 76.5205 53.6903 76.4648 53.9688 76.3534C54.2472 76.2421 54.4621 76.1227 54.6133 75.9955C54.7724 75.8603 54.8599 75.7887 54.8758 75.7807C54.8917 75.7728 54.9236 75.7489 54.9713 75.7091C55.019 75.6614 55.1623 75.5182 55.401 75.2796L55.4726 75.208C55.5044 75.208 55.5641 75.2835 55.6516 75.4347C55.7391 75.5858 55.7829 75.6932 55.7829 75.7568C55.6397 76.0114 55.3851 76.3176 55.019 76.6756C54.661 77.0256 54.2552 77.3358 53.8017 77.6063C53.3481 77.8688 52.9026 78 52.465 78C51.6375 78 51.0049 77.6778 50.5673 77.0335C50.1297 76.3892 49.9109 75.5023 49.9109 74.3728C49.9109 73.6091 50.07 72.8256 50.3883 72.0222C50.7065 71.2109 51.1282 70.4631 51.6534 69.7791C52.1785 69.095 52.7514 68.5421 53.372 68.1205C53.9926 67.691 54.6053 67.4762 55.21 67.4762Z" fill="white"/>
<path d="M65.2115 67.4762C65.8003 67.4762 66.3812 67.5796 66.954 67.7865L65.498 75.3273C65.4502 75.5182 65.4264 75.7171 65.4264 75.9239C65.4264 76.3216 65.5059 76.5205 65.6651 76.5205C65.864 76.5205 66.1027 76.3813 66.3812 76.1029C66.6596 75.8165 66.8983 75.5739 67.0973 75.375L67.2405 75.208C67.2723 75.208 67.332 75.2835 67.4195 75.4347C67.507 75.5858 67.5508 75.6932 67.5508 75.7568C67.4155 75.9875 67.1689 76.2818 66.8108 76.6398C66.4607 76.9977 66.0788 77.3159 65.6651 77.5943C65.2513 77.8648 64.8773 78 64.5432 78C64.2886 78 64.0896 77.8847 63.9464 77.654C63.8032 77.4233 63.7316 77.125 63.7316 76.7591C63.7316 76.5125 63.7873 76.0909 63.8987 75.4943L63.9822 75.0767C64.0061 74.9654 64.018 74.8978 64.018 74.8739C63.8907 75.1125 63.7077 75.4068 63.469 75.7568C63.2303 76.0989 62.9558 76.4409 62.6455 76.783C62.3352 77.125 62.009 77.4114 61.6668 77.6421C61.3247 77.8648 60.9865 77.9761 60.6524 77.9761C59.9522 77.9761 59.3992 77.6619 58.9934 77.0335C58.5876 76.4051 58.3847 75.6455 58.3847 74.7546C58.3847 73.6171 58.7229 72.4836 59.3992 71.354C59.8527 70.5904 60.3938 69.9183 61.0223 69.3376C61.6589 68.7569 62.3392 68.3035 63.0632 67.9774C63.7873 67.6433 64.5034 67.4762 65.2115 67.4762ZM64.209 68.574C63.7395 68.574 63.2661 68.741 62.7887 69.0751C62.3113 69.4012 61.8737 69.8427 61.4759 70.3995C61.078 70.9484 60.7558 71.5609 60.5091 72.237C60.2704 72.9052 60.1511 73.5773 60.1511 74.2534C60.1511 75.8125 60.5569 76.5921 61.3685 76.5921C61.6549 76.5921 61.9652 76.433 62.2994 76.1148C62.6336 75.7966 62.9638 75.375 63.29 74.85C63.6162 74.325 63.9027 73.7563 64.1493 73.1438C64.4039 72.5233 64.5909 71.9148 64.7103 71.3182L65.1877 68.8842C64.9967 68.6774 64.6705 68.574 64.209 68.574Z" fill="white"/>
<path d="M70.5345 67.8342H72.2054L72.7783 64.9228C72.826 64.7638 73.2159 64.6842 73.9479 64.6842C74.1071 64.6842 74.2503 64.6922 74.3776 64.7081L73.7809 67.8342H75.953C76.0326 67.8342 76.0724 67.9376 76.0724 68.1444C76.0724 68.3274 76.0008 68.558 75.8575 68.8364H73.5899L72.3248 75.3273C72.277 75.5182 72.2532 75.7171 72.2532 75.9239C72.2532 76.3216 72.3327 76.5205 72.4919 76.5205C72.6908 76.5205 72.9295 76.3813 73.208 76.1029C73.4865 75.8165 73.7252 75.5739 73.9241 75.375L74.0673 75.208C74.0991 75.208 74.1588 75.2835 74.2463 75.4347C74.3338 75.5858 74.3776 75.6932 74.3776 75.7568C74.2423 75.9875 73.9957 76.2818 73.6376 76.6398C73.2875 76.9977 72.9056 77.3159 72.4919 77.5943C72.0781 77.8648 71.7042 78 71.37 78C71.1154 78 70.9165 77.8847 70.7732 77.654C70.63 77.4233 70.5584 77.125 70.5584 76.7591C70.5584 76.5205 70.6141 76.0989 70.7255 75.4943L72.0145 68.8364H70.3197C70.272 68.8364 70.2481 68.7489 70.2481 68.574C70.2481 68.3671 70.3436 68.1205 70.5345 67.8342Z" fill="white"/>
<path d="M80.7748 62.441C81.0135 62.441 81.2164 62.5365 81.3834 62.7274C81.5505 62.9183 81.6341 63.141 81.6341 63.3956C81.6341 63.7774 81.5107 64.1115 81.2641 64.3979C81.0174 64.6842 80.7111 64.8274 80.3451 64.8274C80.0905 64.8274 79.8916 64.728 79.7484 64.5291C79.6051 64.3302 79.5335 64.0876 79.5335 63.8013C79.5335 63.4354 79.6529 63.1172 79.8916 62.8467C80.1303 62.5763 80.4247 62.441 80.7748 62.441ZM80.0825 67.4762C80.3371 67.4762 80.5361 67.5916 80.6793 67.8223C80.8225 68.0529 80.8941 68.3512 80.8941 68.7171C80.8941 69.0433 80.8464 69.4649 80.7509 69.9819L79.7006 75.3273C79.6529 75.5182 79.629 75.7171 79.629 75.9239C79.629 76.3216 79.7086 76.5205 79.8677 76.5205C80.0666 76.5205 80.3053 76.3813 80.5838 76.1029C80.8623 75.8165 81.101 75.5739 81.2999 75.375L81.4431 75.208C81.4749 75.208 81.5346 75.2835 81.6221 75.4347C81.7097 75.5858 81.7534 75.6932 81.7534 75.7568C81.6182 75.9875 81.3715 76.2818 81.0135 76.6398C80.6634 76.9977 80.2814 77.3159 79.8677 77.5943C79.4539 77.8648 79.08 78 78.7458 78C78.4912 78 78.2923 77.8847 78.1491 77.654C78.0058 77.4233 77.9342 77.125 77.9342 76.7591C77.9342 76.5205 77.9899 76.0989 78.1013 75.4943L79.08 70.5069C79.1596 70.0376 79.1993 69.7194 79.1993 69.5523C79.1993 69.1546 79.1198 68.9558 78.9606 68.9558C78.8652 68.9558 78.7339 69.0194 78.5668 69.1467C78.4076 69.2739 78.2525 69.4171 78.1013 69.5762C77.9501 69.7273 77.8388 69.8467 77.7671 69.9342L77.6478 70.0773C77.616 70.0773 77.5563 70.0018 77.4688 69.8506C77.3812 69.6995 77.3375 69.5921 77.3375 69.5285C77.4648 69.3137 77.6955 69.0472 78.0297 68.7291C78.3639 68.4029 78.7219 68.1126 79.1039 67.858C79.4858 67.6035 79.812 67.4762 80.0825 67.4762Z" fill="white"/>
<path d="M87.3867 67.4762C88.0551 67.4762 88.5962 68.1683 89.0099 69.5523L89.5112 71.2467L90.9195 68.8364C91.4446 67.9296 92.113 67.4762 92.9246 67.4762C93.4736 67.4762 93.9351 67.6353 94.309 67.9535C94.4363 68.2001 94.5 68.4069 94.5 68.574C94.5 68.8126 94.4165 69.0154 94.2494 69.1825C94.0823 69.3495 93.9112 69.433 93.7362 69.433C93.5213 69.433 93.2866 69.3097 93.032 69.0631C92.7774 68.8166 92.5347 68.6933 92.304 68.6933C92.113 68.6933 91.8982 68.9001 91.6595 69.3137L89.8692 72.3682L90.8956 75.733C91.0548 76.2739 91.2696 76.5443 91.5401 76.5443C91.7788 76.5443 92.0334 76.421 92.304 76.1744C92.5745 75.9279 92.7654 75.7012 92.8768 75.4943C92.9405 75.4943 93.0201 75.558 93.1155 75.6852C93.211 75.8125 93.2588 75.908 93.2588 75.9716C93.2269 76.1466 93.0758 76.3972 92.8052 76.7233C92.5427 77.0415 92.2284 77.3318 91.8624 77.5943C91.5043 77.8489 91.1582 77.9761 90.824 77.9761C90.1636 77.9761 89.6226 77.2841 89.2009 75.9L88.6519 74.0387L87.148 76.6398C86.6229 77.5466 85.9545 78 85.143 78C84.594 78 84.1325 77.8409 83.7585 77.5227C83.6312 77.3 83.5676 77.0932 83.5676 76.9023C83.5676 76.6637 83.6511 76.4608 83.8182 76.2938C83.9853 76.1267 84.1563 76.0432 84.3314 76.0432C84.5462 76.0432 84.7809 76.1665 85.0356 76.4131C85.2902 76.6597 85.5328 76.783 85.7636 76.783C85.9545 76.783 86.1694 76.5762 86.4081 76.1625L88.2938 72.9171L87.3151 69.7194C87.156 69.1785 86.9412 68.908 86.6706 68.908C86.4319 68.908 86.1773 69.0313 85.9068 69.2779C85.6363 69.5245 85.4453 69.7512 85.3339 69.958C85.2703 69.958 85.1907 69.8944 85.0952 69.7671C84.9997 69.6398 84.952 69.5444 84.952 69.4808C84.9838 69.2978 85.131 69.0472 85.3936 68.7291C85.6641 68.4109 85.9824 68.1245 86.3484 67.87C86.7144 67.6075 87.0605 67.4762 87.3867 67.4762Z" fill="white"/>
</g>
</svg>
