<svg width="73" height="78" viewBox="0 0 73 78" fill="none" xmlns="http://www.w3.org/2000/svg">
<g id="Vector">
<path d="M44.0994 10.4684H29.0679V11.6517H44.0994V10.4684Z" fill="white"/>
<path d="M45.4254 6.21729H27.7393V7.40057H45.4254V6.21729Z" fill="white"/>
<path d="M24.4951 8.41553C22.3272 8.41553 20.5635 10.1624 20.5635 12.3096C20.5635 14.4569 22.3272 16.2037 24.4951 16.2037C26.125 16.2037 27.6055 15.1888 28.1771 13.6791L27.0596 13.2634C26.6605 14.3141 25.6306 15.0205 24.4951 15.0205C22.9863 15.0205 21.7582 13.804 21.7582 12.3096C21.7582 10.8152 22.9863 9.59881 24.4951 9.59881H48.6748C50.1836 9.59881 51.4118 10.8152 51.4118 12.3096C51.4118 13.804 50.1836 15.0205 48.6748 15.0205C47.5393 15.0205 46.5094 14.3141 46.1103 13.2634L44.9929 13.6791C45.5671 15.1888 47.045 16.2037 48.6748 16.2037C50.8428 16.2037 52.6065 14.4569 52.6065 12.3096C52.6065 10.1624 50.8428 8.41553 48.6722 8.41553H24.4951Z" fill="white"/>
<path d="M35.1341 40.6904C35.5177 40.5552 35.9091 41.1979 36.3005 41.0856C36.5451 41.0168 36.7897 40.953 37.0368 40.8944C37.3793 40.8128 37.7114 40.7312 38.0333 40.6547V12.6514L35.1367 12.761V40.6904H35.1341Z" fill="white"/>
<path d="M40.0802 12.5723C40.0802 12.7355 40.0802 19.2614 40.0802 24.2979C40.0802 26.2412 40.0802 27.96 40.0802 29.0106V39.5173L43.1339 38.0127V28.2226C43.1339 27.1643 43.1339 25.2287 43.1339 23.0688C43.1339 18.43 43.1339 12.7636 43.1339 12.5723H40.0802Z" fill="white"/>
<path d="M30.036 37.9974L33.0897 39.502V31.1757C33.0897 29.995 33.0897 28.2277 33.0897 26.2437C33.0897 20.5186 33.0897 12.9931 33.0897 12.5723H30.036V37.9974Z" fill="white"/>
<path d="M36.5991 41.6645L26.2563 36.5719C23.5708 35.2483 21.3153 33.2159 19.737 30.6912C18.1586 28.1665 17.3218 25.2619 17.3218 22.291V0H55.8764V22.2859C55.8764 25.2568 55.0422 28.1614 53.4613 30.6861C51.883 33.2108 49.6275 35.2458 46.942 36.5668L36.5991 41.6645ZM18.1046 0.775249V22.2884C18.1046 25.114 18.9002 27.8784 20.4013 30.2806C21.9049 32.6829 24.0497 34.6184 26.6039 35.8782L36.5991 40.8L46.5944 35.8782C49.1486 34.6184 51.2959 32.6854 52.797 30.2806C54.3007 27.8784 55.0937 25.114 55.0937 22.2884V0.775249H18.1046Z" fill="white"/>
<path d="M25.8726 40.8026C24.8736 39.4229 22.5641 38.2524 22.5718 38.2167C22.5872 38.2142 21.5651 40.313 22.4559 41.9221C23.3597 43.5236 24.8633 44.0948 25.834 43.7047C26.8253 43.3094 26.8691 42.223 25.8726 40.8026ZM5.73279 18.4122C6.41511 19.218 7.46819 18.9528 8.4981 17.6344C9.48938 16.321 9.81638 13.7887 9.85243 13.7785C9.86015 13.7938 7.53513 13.4342 6.31727 14.7476C5.10455 16.0635 5.05563 17.6242 5.73279 18.4122ZM6.50265 20.3018C5.60921 21.8396 5.88213 23.3875 6.69833 24.02C7.52741 24.6728 8.49552 24.1959 9.22676 22.6811C9.92194 21.1842 9.69537 18.6366 9.72626 18.6213C9.73656 18.634 7.40897 18.7666 6.50265 20.3018ZM31.7792 44.4952C32.7112 43.8704 32.4949 42.8147 31.1458 41.6849C29.7889 40.5935 27.1986 39.9916 27.2012 39.9534C27.2167 39.9457 26.6631 42.223 27.9273 43.5746C29.2044 44.9185 30.8728 45.1098 31.7792 44.4952ZM0.503439 19.0701C0.451943 19.0599 0.972046 22.7627 2.52206 24.1551C4.01542 25.5475 5.0994 25.2976 5.447 24.3336C5.80489 23.3442 5.37748 21.9849 4.07979 20.5594C2.78983 19.1211 0.511163 19.0548 0.503439 19.0701ZM1.7522 25.7541C1.70328 25.7541 2.95462 29.2937 4.73378 30.352C6.45631 31.4154 7.45789 30.9488 7.60723 29.921C7.76171 28.8704 7.07682 27.6131 5.52939 26.4783C3.9871 25.3282 1.75993 25.7388 1.7522 25.7541ZM21.1273 38.7574C20.4785 37.1814 18.4959 35.5441 18.5062 35.5135C18.5217 35.5135 17.0927 37.3446 17.6076 39.1042C18.138 40.8612 19.446 41.7487 20.4502 41.5804C21.4801 41.4197 21.7582 40.3639 21.1273 38.7574ZM3.87381 14.49C2.91342 12.8222 0.688822 12.2765 0.675948 12.2892C0.624453 12.2688 0.341228 15.9972 1.58484 17.6726C2.77181 19.3328 3.89441 19.32 4.43511 18.453C4.99126 17.5706 4.84965 16.1527 3.87381 14.49ZM24.9586 48.9197C24.9226 48.9733 28.7512 49.6593 30.6746 48.5525C32.5593 47.5095 32.6366 46.3823 31.7302 45.783C30.8059 45.1685 29.2791 45.1787 27.4767 45.9743C25.6692 46.7521 24.9483 48.9044 24.9586 48.9197ZM12.7928 42.7101C12.7516 42.7382 15.7641 44.9721 17.8059 44.7936C19.8091 44.6584 20.342 43.669 19.8606 42.7331C19.3636 41.7742 18.0917 41.1315 16.2095 41.0933C14.3299 41.0423 12.7902 42.6948 12.7928 42.7101ZM18.4805 46.492C18.4393 46.5328 21.8998 48.0603 23.9055 47.4228C25.8778 46.8388 26.1945 45.7575 25.4993 44.9542C24.7887 44.1331 23.3725 43.7965 21.5033 44.1688C19.634 44.5309 18.4728 46.4767 18.4805 46.492ZM7.47076 10.5373C7.86213 8.50224 6.70091 6.21729 6.70091 6.21729C6.70091 6.21729 4.54325 7.8341 4.05405 9.92523C3.4361 12.5672 4.26775 13.4521 5.11228 13.5108C6.00315 13.5567 7.01503 12.8834 7.47076 10.5373ZM16.9923 35.7329C16.6962 34.0574 15.0869 32.053 15.0998 32.0249C15.1153 32.03 13.3387 33.5091 13.4854 35.3299C13.6399 37.1507 14.729 38.2932 15.7409 38.3468C16.7708 38.4029 17.2678 37.4338 16.9923 35.7329ZM8.02434 37.824C7.97799 37.8444 10.4807 40.6496 12.4967 40.9122C14.4716 41.203 15.1951 40.3563 14.9247 39.3413C14.6466 38.2983 13.5421 37.4032 11.7088 36.9697C9.87302 36.5234 8.02434 37.8087 8.02434 37.824ZM4.3038 32.0887C4.25745 32.0989 6.16793 35.3376 8.09901 36.0159C9.98116 36.7121 10.8643 36.0414 10.8025 34.9959C10.7433 33.9273 9.8344 32.8257 8.10931 32.0249C6.38936 31.2089 4.30637 32.0708 4.3038 32.0887ZM8.75815 29.3498C9.69279 29.8241 10.5373 29.1509 10.9467 27.506C11.3252 25.8765 10.594 23.4156 10.6197 23.3977C10.6326 23.4054 8.40026 24.0174 7.82866 25.7158C7.26993 27.427 7.84153 28.8959 8.75815 29.3498ZM13.5652 31.9204C13.6142 30.2322 12.4195 27.9498 12.4401 27.9243C12.4529 27.9345 10.4086 29.0004 10.1897 30.7983C9.98374 32.6013 10.8257 33.9375 11.8093 34.2002C12.8108 34.4705 13.4957 33.6315 13.5652 31.9204Z" fill="white"/>
<path d="M47.1686 43.7047C48.1367 44.0948 49.6429 43.5236 50.5467 41.9221C51.4375 40.313 50.4153 38.2142 50.4308 38.2167C50.4385 38.2524 48.1289 39.4204 47.1299 40.8026C46.1335 42.223 46.1773 43.3094 47.1686 43.7047ZM66.6879 14.7476C65.4674 13.4342 63.145 13.7938 63.1527 13.7785C63.1888 13.7887 63.5158 16.321 64.507 17.6344C65.537 18.9528 66.5875 19.218 67.2724 18.4122C67.9469 17.6242 67.898 16.0635 66.6879 14.7476ZM63.2763 18.6213C63.3072 18.6391 63.0832 21.1842 63.7758 22.6811C64.5071 24.1959 65.4726 24.6728 66.3017 24.02C67.1204 23.3875 67.3908 21.8421 66.4974 20.3018C65.5936 18.7666 63.266 18.634 63.2763 18.6213ZM45.0753 43.5746C46.3421 42.223 45.7859 39.9432 45.8014 39.9534C45.8039 39.9916 43.2137 40.596 41.8568 41.6849C40.5076 42.8147 40.2914 43.8704 41.2234 44.4952C42.1297 45.1098 43.7982 44.9185 45.0753 43.5746ZM68.9202 20.5569C67.6225 21.9798 67.1951 23.3416 67.553 24.3311C67.9006 25.2951 68.9872 25.545 70.4779 24.1526C72.028 22.7602 72.5481 19.0574 72.4966 19.0676C72.4914 19.0548 70.2127 19.1211 68.9202 20.5569ZM67.4732 26.4758C65.9258 27.6131 65.2409 28.8678 65.3953 29.9185C65.5447 30.9462 66.5463 31.4129 68.2688 30.3495C70.048 29.2912 71.2967 25.7515 71.2504 25.7515C71.2427 25.7388 69.0155 25.3282 67.4732 26.4758ZM52.5524 41.5829C53.5566 41.7512 54.8645 40.8638 55.3949 39.1067C55.9099 37.3471 54.4809 35.5161 54.4964 35.5161C54.5067 35.5467 52.5241 37.1839 51.8752 38.7599C51.2444 40.364 51.5225 41.4197 52.5524 41.5829ZM68.5649 18.4555C69.1056 19.3226 70.2282 19.3353 71.4152 17.6752C72.6588 15.9972 72.3755 12.2714 72.3241 12.2918C72.3112 12.279 70.0866 12.8222 69.1262 14.4926C68.1529 16.1527 68.0113 17.5706 68.5649 18.4555ZM45.5259 45.9743C43.7235 45.1812 42.1993 45.1685 41.2723 45.783C40.366 46.3823 40.4433 47.5095 42.328 48.5525C44.2513 49.6593 48.08 48.9707 48.044 48.9197C48.0543 48.9044 47.3333 46.7521 45.5259 45.9743ZM56.793 41.0958C54.9109 41.1341 53.6364 41.7767 53.142 42.7356C52.6605 43.6715 53.1935 44.661 55.1967 44.7961C57.2385 44.9746 60.251 42.7407 60.2098 42.7127C60.2123 42.6948 58.6726 41.0423 56.793 41.0958ZM51.4993 44.1713C49.63 43.799 48.2139 44.1356 47.5033 44.9568C46.8081 45.7575 47.1248 46.8388 49.0971 47.4254C51.1028 48.0629 54.5633 46.5353 54.5221 46.4945C54.5298 46.4767 53.3686 44.5309 51.4993 44.1713ZM67.8903 13.5108C68.7348 13.4521 69.5665 12.5672 68.9485 9.92523C68.4593 7.8341 66.3017 6.21729 66.3017 6.21729C66.3017 6.21729 65.1404 8.50224 65.5318 10.5373C65.9875 12.8834 66.9969 13.5567 67.8903 13.5108ZM57.2617 38.3468C58.2735 38.2932 59.3627 37.1533 59.5172 35.3299C59.6639 33.5066 57.8873 32.03 57.9028 32.0249C57.9156 32.053 56.3064 34.06 56.0103 35.7329C55.7322 37.4338 56.2317 38.4029 57.2617 38.3468ZM61.2963 36.9697C59.4605 37.4058 58.3559 38.3009 58.0804 39.3413C57.8101 40.3563 58.5336 41.203 60.5084 40.9122C62.5245 40.6496 65.0246 37.8444 64.9808 37.824C64.9782 37.8087 63.1296 36.5234 61.2963 36.9697ZM64.8933 32.0224C63.1682 32.8231 62.2593 33.9248 62.2001 34.9933C62.1383 36.0389 63.0214 36.7121 64.9036 36.0134C66.8346 35.3325 68.7451 32.0938 68.6988 32.0861C68.6962 32.0708 66.6132 31.2089 64.8933 32.0224ZM65.1739 25.7184C64.6049 24.02 62.37 23.4079 62.3829 23.4003C62.4086 23.4181 61.6774 25.879 62.0559 27.5086C62.4653 29.1534 63.3098 29.8241 64.2444 29.3524C65.161 28.8959 65.7326 27.427 65.1739 25.7184ZM61.1933 34.1977C62.1743 33.935 63.0188 32.6013 62.8129 30.7957C62.594 28.9979 60.5471 27.9319 60.5625 27.9217C60.5831 27.9472 59.391 30.2296 59.4373 31.9178C59.5068 33.6315 60.1917 34.4705 61.1933 34.1977Z" fill="white"/>
<path d="M36.6043 42.9779L37.4437 44.6584L39.3155 44.9262L37.9612 46.2344L38.2805 48.0833L36.6043 47.2111L34.9307 48.0833L35.25 46.2344L33.8956 44.9262L35.7675 44.6584L36.6043 42.9779Z" fill="white"/>
<path d="M14.7875 73.1239L5.59063 73.7507L5.54 61.0399L7.28656 60.948L7.23594 71.9205L14.7031 71.3439L14.7875 73.1239Z" fill="white"/>
<path d="M19.3888 61.792C19.3888 61.9536 19.355 62.1068 19.2875 62.2516C19.2256 62.3965 19.1384 62.5218 19.0259 62.6277C18.9191 62.7335 18.7925 62.8171 18.6462 62.8784C18.5 62.9397 18.3425 62.9703 18.1737 62.9703C18.0106 62.9703 17.8559 62.9397 17.7097 62.8784C17.5691 62.8171 17.4425 62.7335 17.33 62.6277C17.2231 62.5218 17.1388 62.3965 17.0769 62.2516C17.015 62.1068 16.9841 61.9536 16.9841 61.792C16.9841 61.6249 17.015 61.4689 17.0769 61.324C17.1388 61.1792 17.2231 61.0538 17.33 60.948C17.4425 60.8365 17.5691 60.7502 17.7097 60.6889C17.8559 60.622 18.0106 60.5886 18.1737 60.5886C18.3425 60.5886 18.5 60.622 18.6462 60.6889C18.7925 60.7502 18.9191 60.8365 19.0259 60.948C19.1384 61.0538 19.2256 61.1792 19.2875 61.324C19.355 61.4689 19.3888 61.6249 19.3888 61.792ZM18.9922 64.7336C18.9753 65.5303 18.9584 66.2629 18.9416 66.9315C18.9303 67.5944 18.9191 68.1989 18.9078 68.7449C18.8966 69.2909 18.8853 69.7812 18.8741 70.2157C18.8684 70.6447 18.8628 71.0208 18.8572 71.3439C18.8403 72.1127 18.8319 72.7172 18.8319 73.1573H17.1022C17.1134 72.5556 17.1275 71.8397 17.1444 71.0096C17.1556 70.2965 17.1697 69.4246 17.1866 68.3939C17.2091 67.3632 17.2288 66.1654 17.2456 64.8005L18.9922 64.7336Z" fill="white"/>
<path d="M25.8125 60.8978L25.7534 64.6333L29.0272 64.5247L28.9006 66.0874L25.7366 66.171L25.6691 73.4582L23.8888 73.5L24.0322 66.2211L21.1128 66.288L21.1466 64.7503L24.0659 64.6668L24.1334 61.0065L25.8125 60.8978Z" fill="white"/>
<path d="M33.35 61.792C33.35 61.9536 33.3162 62.1068 33.2488 62.2516C33.1869 62.3965 33.0997 62.5218 32.9872 62.6277C32.8803 62.7335 32.7537 62.8171 32.6075 62.8784C32.4613 62.9397 32.3038 62.9703 32.135 62.9703C31.9719 62.9703 31.8172 62.9397 31.6709 62.8784C31.5303 62.8171 31.4038 62.7335 31.2913 62.6277C31.1844 62.5218 31.1 62.3965 31.0381 62.2516C30.9763 62.1068 30.9453 61.9536 30.9453 61.792C30.9453 61.6249 30.9763 61.4689 31.0381 61.324C31.1 61.1792 31.1844 61.0538 31.2913 60.948C31.4038 60.8365 31.5303 60.7502 31.6709 60.6889C31.8172 60.622 31.9719 60.5886 32.135 60.5886C32.3038 60.5886 32.4613 60.622 32.6075 60.6889C32.7537 60.7502 32.8803 60.8365 32.9872 60.948C33.0997 61.0538 33.1869 61.1792 33.2488 61.324C33.3162 61.4689 33.35 61.6249 33.35 61.792ZM32.9534 64.7336C32.9366 65.5303 32.9197 66.2629 32.9028 66.9315C32.8916 67.5944 32.8803 68.1989 32.8691 68.7449C32.8578 69.2909 32.8466 69.7812 32.8353 70.2157C32.8297 70.6447 32.8241 71.0208 32.8184 71.3439C32.8016 72.1127 32.7931 72.7172 32.7931 73.1573H31.0634C31.0747 72.5556 31.0888 71.8397 31.1056 71.0096C31.1169 70.2965 31.1309 69.4246 31.1478 68.3939C31.1703 67.3632 31.19 66.1654 31.2069 64.8005L32.9534 64.7336Z" fill="white"/>
<path d="M45.0388 63.6723L44.9881 73.2743C44.9825 73.6365 44.9347 73.9958 44.8447 74.3524C44.7547 74.7145 44.6197 75.0627 44.4397 75.397C44.2653 75.7368 44.0459 76.0544 43.7816 76.3496C43.5228 76.6505 43.2219 76.9151 42.8787 77.1435C42.5413 77.3775 42.1616 77.567 41.7397 77.7118C41.3178 77.8622 40.8566 77.9569 40.3559 77.9959C39.6753 78.0182 39.0341 77.9486 38.4322 77.787C38.1734 77.7202 37.9091 77.6282 37.6391 77.5112C37.3747 77.3943 37.1188 77.2438 36.8713 77.06C36.6238 76.8817 36.3959 76.6644 36.1878 76.4081C35.9797 76.1574 35.8081 75.8594 35.6731 75.514L37.3016 74.812C37.4084 75.0515 37.5378 75.2577 37.6897 75.4304C37.8416 75.6031 38.0047 75.7479 38.1791 75.8649C38.3534 75.9819 38.5306 76.0767 38.7106 76.1491C38.8963 76.2215 39.0763 76.2744 39.2506 76.3079C39.6613 76.397 40.0944 76.4137 40.55 76.358C40.9438 76.28 41.2841 76.1602 41.5709 75.9987C41.8634 75.8371 42.1109 75.656 42.3134 75.4555C42.5159 75.2605 42.6791 75.0515 42.8028 74.8287C42.9322 74.6114 43.0334 74.4025 43.1066 74.2019C43.1797 74.0014 43.2275 73.8175 43.25 73.6504C43.2781 73.4888 43.2922 73.3635 43.2922 73.2743V72.1796C42.9547 72.4971 42.6031 72.7423 42.2375 72.915C41.8775 73.0821 41.5428 73.2047 41.2334 73.2827C40.8734 73.3774 40.5191 73.4303 40.1703 73.4415C39.5178 73.4415 38.9103 73.3272 38.3478 73.0988C37.7853 72.876 37.2959 72.5556 36.8797 72.1378C36.4634 71.7144 36.1344 71.2018 35.8925 70.6001C35.6562 69.9984 35.5381 69.3215 35.5381 68.5694C35.5381 67.8117 35.6703 67.1376 35.9347 66.5471C36.1991 65.9509 36.545 65.4495 36.9725 65.0428C37.4056 64.6361 37.8922 64.3269 38.4322 64.1152C38.9778 63.8979 39.5263 63.7893 40.0775 63.7893C40.46 63.8339 40.8453 63.9174 41.2334 64.04C41.5653 64.1458 41.9225 64.2963 42.305 64.4913C42.6875 64.6863 43.0419 64.9509 43.3681 65.2852L43.385 63.6221L45.0388 63.6723ZM40.1703 71.8369C40.5416 71.8369 40.9016 71.7729 41.2503 71.6447C41.5991 71.5166 41.9141 71.3383 42.1953 71.1099C42.4822 70.8759 42.7241 70.6001 42.9209 70.2826C43.1178 69.9594 43.2528 69.6057 43.3259 69.2212V68.1265C43.2641 67.7309 43.1319 67.3716 42.9294 67.0485C42.7269 66.7198 42.4794 66.4384 42.1869 66.2044C41.8944 65.9704 41.5681 65.7894 41.2081 65.6612C40.8538 65.5331 40.4909 65.469 40.1197 65.469C39.7147 65.469 39.3406 65.5526 38.9975 65.7197C38.6544 65.8813 38.3591 66.1069 38.1116 66.3966C37.8697 66.6863 37.6784 67.029 37.5378 67.4245C37.4028 67.8201 37.3353 68.2463 37.3353 68.7031C37.3353 69.16 37.4056 69.5806 37.5463 69.965C37.6869 70.3494 37.8809 70.6809 38.1284 70.9595C38.3816 71.2325 38.6797 71.447 39.0228 71.603C39.3716 71.7589 39.7541 71.8369 40.1703 71.8369Z" fill="white"/>
<path d="M52.2809 72.1629C52.5791 72.1629 52.8744 72.1183 53.1669 72.0292C53.4594 71.9344 53.7294 71.8007 53.9769 71.628C54.2244 71.4497 54.4381 71.2297 54.6181 70.9678C54.8038 70.706 54.9388 70.4023 55.0231 70.0569L56.6516 70.3829C56.4941 70.8898 56.2719 71.3495 55.985 71.7617C55.6981 72.174 55.3634 72.5278 54.9809 72.8231C54.5984 73.1183 54.1766 73.3467 53.7153 73.5083C53.2597 73.6699 52.7816 73.7507 52.2809 73.7507C51.5384 73.7507 50.8803 73.6392 50.3066 73.4164C49.7328 73.1935 49.2491 72.8788 48.8553 72.4721C48.4616 72.0654 48.1606 71.5751 47.9525 71.0013C47.75 70.4274 47.6488 69.7867 47.6488 69.0792C47.6488 68.3828 47.7669 67.7337 48.0031 67.132C48.245 66.5248 48.5741 65.9983 48.9903 65.5526C49.4066 65.1069 49.8959 64.7559 50.4584 64.4996C51.0209 64.2433 51.6284 64.1152 52.2809 64.1152C52.8659 64.1152 53.4172 64.2294 53.9347 64.4578C54.4522 64.6807 54.9106 64.9927 55.31 65.3938C55.7094 65.7894 56.0384 66.2573 56.2972 66.7978C56.5559 67.3382 56.7191 67.9231 56.7866 68.5527L49.4797 69.6307C49.5191 70.0263 49.6175 70.3829 49.775 70.7004C49.9325 71.0124 50.1322 71.277 50.3741 71.4943C50.6216 71.7116 50.9056 71.8787 51.2263 71.9957C51.5525 72.1071 51.9041 72.1629 52.2809 72.1629ZM54.6097 67.4747L54.5591 67.3159C54.3453 66.7643 54.05 66.3326 53.6731 66.0206C53.3019 65.7086 52.8378 65.5526 52.2809 65.5526C52.0447 65.5526 51.7859 65.5944 51.5047 65.6779C51.2234 65.7559 50.9506 65.8924 50.6863 66.0874C50.4219 66.2824 50.1828 66.5443 49.9691 66.873C49.7609 67.1961 49.6147 67.6 49.5303 68.0847L54.6097 67.4747Z" fill="white"/>
<path d="M62.6028 67.5248L65.1594 64.3074L66.7541 64.9258L63.6744 68.8201L66.9228 72.7645L65.3703 73.3913L62.6534 70.1238L60.1138 73.3579L58.3334 72.8815L61.565 68.8034L58.2322 64.767L59.9956 64.3576L62.6028 67.5248Z" fill="white"/>
</g>
</svg>
