<svg width="58" height="58" viewBox="0 0 58 58" fill="none" xmlns="http://www.w3.org/2000/svg">
<path d="M0 28.9999C0 40.7927 7.09136 50.9237 17.2388 55.3779C17.1578 53.3669 17.2244 50.9527 17.7401 48.7647C18.2938 46.4268 21.4457 33.0718 21.4457 33.0718C21.4457 33.0718 20.5257 31.2329 20.5257 28.5152C20.5257 24.2473 22.9993 21.0598 26.0799 21.0598C28.6995 21.0598 29.9651 23.0274 29.9651 25.3835C29.9651 28.0169 28.2856 31.9558 27.4218 35.6041C26.7002 38.6591 28.9536 41.1509 31.9674 41.1509C37.4239 41.1509 41.099 34.1425 41.099 25.8389C41.099 19.5269 36.8477 14.8025 29.1153 14.8025C20.3793 14.8025 14.9369 21.3174 14.9369 28.5946C14.9369 31.1038 15.6767 32.8731 16.8354 34.2433C17.3682 34.8727 17.4422 35.1258 17.2494 35.8484C17.1112 36.3783 16.794 37.654 16.6626 38.1596C16.4709 38.889 15.8798 39.1498 15.2206 38.8805C11.1968 37.2378 9.32285 32.8313 9.32285 27.8778C9.32285 19.6968 16.2225 9.88708 29.9057 9.88708C40.9012 9.88708 48.1381 17.8438 48.1381 26.3848C48.1381 37.6824 41.8572 46.1226 32.5987 46.1226C29.4895 46.1226 26.5648 44.4419 25.5629 42.5328C25.5629 42.5328 23.891 49.1683 23.5368 50.4497C22.9262 52.6701 21.731 54.8895 20.6382 56.6192C23.2284 57.3837 25.9645 57.8002 28.8003 57.8002C44.7038 57.8002 57.5987 44.906 57.5987 28.9999C57.5987 13.0944 44.7038 0.200195 28.8003 0.200195C12.8953 0.200195 0 13.0944 0 28.9999Z" fill="#666666"/>
</svg>
