<svg width="161" height="140" viewBox="0 0 161 140" fill="none" xmlns="http://www.w3.org/2000/svg">
<g id="Logo _ 04">
<rect width="161" height="140" rx="8" fill="#666666" fill-opacity="0.08"/>
<rect x="0.6" y="0.6" width="159.8" height="138.8" rx="7.4" stroke="#666666" stroke-opacity="0.24" stroke-width="1.2"/>
<g id="Vector">
<path fill-rule="evenodd" clip-rule="evenodd" d="M87.7207 34.2883C87.8576 33.6122 87.7388 32.9162 87.3789 32.3089C87.019 31.7005 86.4483 31.2283 85.7551 30.9634C85.6182 31.6395 85.7382 32.3355 86.0969 32.9428C86.4555 33.5513 87.0263 34.0234 87.7207 34.2883ZM85.1141 34.7527C84.6427 34.8801 84.1422 34.91 83.6466 34.8358C82.9013 34.7238 82.2263 34.3836 81.7247 33.8705C82.379 33.5313 83.1364 33.4072 83.8829 33.5191C84.4694 33.6078 85.0135 33.8372 85.4631 34.1819C101.162 36.1835 112.982 48.5209 112.982 63.1458C112.982 79.3001 98.6633 92.3955 81 92.3955C63.3367 92.3955 49.0181 79.3001 49.0181 63.1458C49.0181 48.5209 60.838 36.1835 76.5369 34.1819C76.9865 33.8372 77.5294 33.6078 78.1159 33.5191C78.8624 33.4072 79.6198 33.5313 80.2741 33.8705C79.7737 34.3836 79.0975 34.7238 78.3522 34.8358C77.8566 34.91 77.3573 34.8801 76.8859 34.7527C61.3821 36.6101 49.687 48.7503 49.687 63.1458C49.687 78.9632 63.7063 91.7849 81 91.7849C98.2937 91.7849 112.313 78.9632 112.313 63.1458C112.313 48.7503 100.617 36.6101 85.1141 34.7527ZM48.7309 61.4745C47.982 61.4179 47.2779 61.1309 46.7314 60.6543C46.1836 60.1778 45.8346 59.5505 45.7353 58.8689C46.4854 58.9254 47.1882 59.2125 47.736 59.6879C48.2837 60.1656 48.6327 60.7929 48.7309 61.4745ZM77.4858 91.3072C77.5573 90.6234 77.3706 89.9385 76.9538 89.3633C76.5357 88.7859 75.9225 88.3625 75.2064 88.1541C75.1349 88.8391 75.3215 89.5229 75.7383 90.0981C76.1552 90.6755 76.7684 91.0988 77.4858 91.3072ZM74.5108 90.8683C74.6538 90.1934 74.5411 89.4963 74.1872 88.8856C73.8334 88.2738 73.2675 87.7984 72.5767 87.5269C72.4338 88.2018 72.5465 88.8989 72.8991 89.5096C73.2529 90.1213 73.8188 90.5968 74.5108 90.8683ZM71.5964 90.1679C71.8109 89.5085 71.7733 88.8047 71.4861 88.1652C71.1989 87.5246 70.6863 87.0004 70.0271 86.6691C69.8126 87.3285 69.8502 88.0322 70.1374 88.6717C70.4246 89.3112 70.9372 89.8354 71.5964 90.1679ZM68.7705 89.2103C69.054 88.5731 69.0904 87.8693 68.8735 87.2077C68.6566 86.5449 68.2009 85.9775 67.5805 85.5896C67.2969 86.2268 67.2594 86.9306 67.4775 87.5922C67.6944 88.2539 68.15 88.8213 68.7705 89.2103ZM66.0585 88.0056C66.4087 87.3972 66.5201 86.7001 66.3735 86.0218C66.2269 85.3435 65.8343 84.7373 65.2574 84.2962C64.9084 84.9047 64.797 85.6018 64.9424 86.28C65.0902 86.9594 65.4828 87.5645 66.0585 88.0056ZM63.4882 86.5671C63.9014 85.9919 64.0856 85.3081 64.0129 84.6209C63.939 83.9327 63.6142 83.2954 63.0859 82.8045C62.6739 83.3797 62.4885 84.0635 62.5612 84.7506C62.6351 85.4389 62.9611 86.0761 63.4882 86.5671ZM61.0828 84.9069C61.5554 84.3716 61.8123 83.7077 61.8111 83.0161C61.8111 82.3246 61.5542 81.6618 61.0816 81.1254C60.609 81.6607 60.3521 82.3246 60.3533 83.0161C60.3533 83.7077 60.6114 84.3705 61.0828 84.9069ZM58.8652 83.0405C59.3923 82.5496 59.7183 81.9112 59.791 81.2241C59.8637 80.5347 59.6795 79.852 59.2663 79.2779C58.7392 79.7689 58.4132 80.4072 58.3405 81.0944C58.2678 81.7826 58.452 82.4653 58.8652 83.0405ZM56.8572 80.9858C57.434 80.5436 57.8255 79.9373 57.9709 79.2591C58.1175 78.5797 58.006 77.8848 57.6558 77.2752C57.0802 77.7174 56.6864 78.3237 56.5409 79.0019C56.3943 79.6802 56.5058 80.3762 56.8572 80.9858ZM55.0759 78.7626C55.6963 78.3736 56.1519 77.8061 56.3689 77.1434C56.587 76.4806 56.5494 75.778 56.2646 75.1407C55.6442 75.5286 55.1886 76.0971 54.9717 76.7599C54.7547 77.4226 54.7923 78.1253 55.0759 78.7626ZM53.5393 76.3908C54.1985 76.0595 54.7111 75.5341 54.9983 74.8947C55.2855 74.2541 55.3231 73.5525 55.1074 72.8931C54.4482 73.2245 53.9356 73.7498 53.6496 74.3893C53.3624 75.0288 53.3248 75.7314 53.5393 76.3908ZM52.2633 73.8939C52.954 73.6223 53.5211 73.1447 53.8738 72.534C54.2276 71.9222 54.3403 71.2262 54.1961 70.5513C53.5054 70.8228 52.9382 71.3005 52.5856 71.9112C52.2306 72.5229 52.1191 73.2189 52.2633 73.8939ZM51.2563 71.2961C51.9724 71.0877 52.5868 70.6632 53.0037 70.0858C53.4205 69.5084 53.6059 68.8257 53.5345 68.1408C52.8183 68.3491 52.2039 68.7736 51.787 69.351C51.3714 69.9284 51.1848 70.6111 51.2563 71.2961ZM50.5316 68.6207C51.2672 68.4766 51.924 68.1086 52.399 67.5722C52.8752 67.0347 53.1321 66.372 53.1333 65.6837C52.3978 65.8278 51.741 66.1957 51.266 66.7333C50.7909 67.2697 50.5328 67.9324 50.5316 68.6207ZM50.0941 65.8932C50.8406 65.8145 51.5338 65.5075 52.0645 65.0154C52.5953 64.5233 52.9225 63.8861 52.9964 63.2012C52.2487 63.2787 51.5568 63.5868 51.026 64.0789C50.4952 64.5721 50.1693 65.2094 50.0941 65.8932ZM77.0568 92.431C76.9477 93.1115 76.5902 93.7355 76.0352 94.2043C75.4802 94.6742 74.7738 94.9535 74.0236 95C74.1327 94.3195 74.4902 93.6956 75.0452 93.2268C75.599 92.7568 76.3055 92.4787 77.0568 92.431ZM73.8649 91.9278C73.1124 91.9057 72.3792 92.1185 71.7757 92.5352C71.1723 92.9508 70.7481 93.5393 70.5652 94.2065C71.3165 94.2286 72.0508 94.0158 72.6543 93.5991C73.2566 93.1835 73.6807 92.595 73.8649 91.9278ZM70.7433 91.1354C69.9968 91.0445 69.2443 91.1875 68.5984 91.5466C67.9525 91.9057 67.4654 92.4509 67.2097 93.0982C67.9561 93.1891 68.7087 93.045 69.3546 92.6859C70.0005 92.3279 70.4888 91.7815 70.7433 91.1354ZM67.7259 90.0593C66.994 89.9008 66.2281 89.9739 65.5459 90.2721C64.8648 90.5691 64.3195 91.0678 63.9947 91.6885C64.7267 91.8469 65.4913 91.7738 66.1736 91.4757C66.8558 91.1775 67.3999 90.6799 67.7259 90.0593ZM64.8394 88.7127C64.1293 88.4877 63.3598 88.4911 62.6484 88.7249C61.9371 88.9588 61.3409 89.4043 60.9495 89.9917C61.6608 90.2178 62.4291 90.2133 63.1416 89.9795C63.8518 89.7456 64.4492 89.3001 64.8394 88.7127ZM62.1177 87.1079C61.4354 86.8187 60.6696 86.7511 59.9364 86.9184C59.2033 87.0858 58.561 87.4748 58.1066 88.0234C58.7888 88.3126 59.5547 88.3802 60.289 88.2129C61.0222 88.0444 61.6644 87.6554 62.1177 87.1079ZM59.585 85.2604C58.9379 84.9102 58.1829 84.7728 57.434 84.8725C56.6864 84.9712 56.0041 85.2992 55.4927 85.8035C56.1398 86.1537 56.8948 86.2911 57.6437 86.1914C58.3914 86.0927 59.0724 85.7647 59.585 85.2604ZM57.2668 83.1901C56.6609 82.7823 55.9253 82.5762 55.1692 82.6061C54.4142 82.636 53.7005 82.8998 53.1358 83.3542C53.7417 83.7631 54.4772 83.9682 55.2322 83.9382C55.9884 83.9094 56.7021 83.6457 57.2668 83.1901ZM55.1874 80.9182C54.6299 80.456 53.921 80.1845 53.1661 80.1457C52.4111 80.1069 51.6719 80.3031 51.0599 80.7043C51.6186 81.1664 52.3275 81.438 53.0824 81.4767C53.8374 81.5166 54.5778 81.3194 55.1874 80.9182ZM53.3684 78.4678C52.8643 77.9568 52.1881 77.621 51.4417 77.5135C50.6952 77.4049 49.9378 77.5335 49.2859 77.8759C49.79 78.3868 50.4662 78.7227 51.2126 78.8302C51.9591 78.9388 52.7177 78.8102 53.3684 78.4678ZM51.8282 75.8622C51.3823 75.308 50.7473 74.9124 50.0154 74.7351C49.2847 74.5588 48.5164 74.6165 47.8305 74.898C48.2764 75.4521 48.9126 75.8489 49.6433 76.0251C50.3741 76.2013 51.1423 76.1426 51.8282 75.8622ZM50.5801 73.128C50.1971 72.5351 49.6082 72.0829 48.8993 71.8402C48.1916 71.5975 47.4221 71.5853 46.7084 71.8014C47.0913 72.3944 47.6802 72.8465 48.3891 73.0893C49.0968 73.332 49.8675 73.3442 50.5801 73.128ZM49.6385 70.2931C49.3222 69.6691 48.7866 69.1648 48.108 68.8589C47.4306 68.5531 46.6659 68.4688 45.9328 68.6196C46.2479 69.2446 46.7847 69.7478 47.4633 70.0548C48.1395 70.3596 48.9054 70.4438 49.6385 70.2931ZM49.0132 67.386C48.2667 67.4681 47.5154 67.3151 46.8744 66.9483C46.2333 66.5814 45.7547 66.0306 45.5087 65.38C46.2551 65.298 47.0077 65.451 47.6475 65.8178C48.2898 66.1858 48.7672 66.7366 49.0132 67.386ZM48.7103 64.4369C47.9589 64.4502 47.227 64.2285 46.6308 63.8052C46.0334 63.3818 45.6165 62.7889 45.4444 62.1195C46.1958 62.1062 46.9277 62.3278 47.5239 62.7512C48.1201 63.1757 48.537 63.7675 48.7103 64.4369ZM84.513 91.3072C85.2304 91.0988 85.8436 90.6744 86.2617 90.0981C86.6785 89.5218 86.8639 88.8379 86.7936 88.1541C86.0762 88.3625 85.4631 88.787 85.045 89.3633C84.6294 89.9396 84.4427 90.6234 84.513 91.3072ZM87.4892 90.8683C88.1812 90.5968 88.7471 90.1202 89.1009 89.5096C89.4548 88.8989 89.5662 88.2018 89.4233 87.5269C88.7313 87.7984 88.1654 88.2749 87.8128 88.8856C87.4577 89.4963 87.3462 90.1934 87.4892 90.8683ZM90.4036 90.1679C91.0628 89.8365 91.5754 89.3123 91.8626 88.6717C92.1498 88.0322 92.1886 87.3285 91.9741 86.6691C91.3137 87.0004 90.8023 87.5246 90.5151 88.1652C90.2267 88.8047 90.1891 89.5085 90.4036 90.1679ZM93.2295 89.2103C93.85 88.8224 94.3056 88.255 94.5225 87.5922C94.7394 86.9306 94.7031 86.2268 94.4195 85.5896C93.7991 85.9775 93.3434 86.5449 93.1265 87.2077C92.9096 87.8693 92.946 88.5731 93.2295 89.2103ZM95.9403 88.0056C96.5172 87.5645 96.9098 86.9594 97.0552 86.28C97.2018 85.6029 97.0903 84.9058 96.7401 84.2962C96.1633 84.7373 95.7719 85.3435 95.6253 86.0218C95.4799 86.7001 95.5901 87.3972 95.9403 88.0056ZM98.5118 86.5671C99.0389 86.0761 99.3649 85.4389 99.4376 84.7506C99.5115 84.0635 99.3261 83.3797 98.9141 82.8045C98.387 83.2954 98.061 83.9327 97.9871 84.6209C97.9132 85.3081 98.0986 85.993 98.5118 86.5671ZM100.916 84.9069C101.389 84.3716 101.646 83.7077 101.646 83.0161C101.646 82.3246 101.389 81.6607 100.917 81.1254C100.445 81.6607 100.188 82.3246 100.188 83.0161C100.188 83.7066 100.445 84.3716 100.916 84.9069ZM103.134 83.0405C103.547 82.4653 103.732 81.7826 103.658 81.0944C103.586 80.4061 103.26 79.7678 102.733 79.2779C102.319 79.8531 102.134 80.5358 102.208 81.2241C102.282 81.9112 102.608 82.5496 103.134 83.0405ZM105.143 80.9858C105.493 80.3773 105.604 79.6802 105.458 79.0019C105.312 78.3237 104.92 77.7174 104.344 77.2752C103.994 77.8837 103.883 78.5797 104.028 79.2591C104.175 79.9373 104.566 80.5436 105.143 80.9858ZM106.924 78.7626C107.208 78.1253 107.245 77.4226 107.028 76.7599C106.81 76.0982 106.356 75.5286 105.735 75.1407C105.451 75.778 105.414 76.4806 105.631 77.1434C105.848 77.805 106.302 78.3736 106.924 78.7626ZM108.461 76.3908C108.675 75.7314 108.638 75.0288 108.35 74.3893C108.063 73.7498 107.551 73.2245 106.891 72.8931C106.677 73.5525 106.714 74.2552 107.002 74.8947C107.289 75.5341 107.801 76.0595 108.461 76.3908ZM109.737 73.8939C109.881 73.2189 109.768 72.5229 109.414 71.9112C109.061 71.3005 108.495 70.8228 107.804 70.5513C107.66 71.2262 107.772 71.9222 108.126 72.534C108.48 73.1458 109.046 73.6235 109.737 73.8939ZM110.744 71.2961C110.815 70.6111 110.63 69.9284 110.213 69.351C109.796 68.7747 109.182 68.3491 108.466 68.1408C108.394 68.8257 108.579 69.5084 108.996 70.0858C109.412 70.6621 110.026 71.0877 110.744 71.2961ZM111.468 68.6207C111.467 67.9324 111.21 67.2697 110.734 66.7322C110.258 66.1957 109.602 65.8267 108.867 65.6826C108.868 66.3709 109.125 67.0336 109.602 67.5711C110.076 68.1086 110.733 68.4766 111.468 68.6207ZM111.906 65.8932C111.831 65.2083 111.505 64.5721 110.974 64.0789C110.443 63.5868 109.75 63.2787 109.004 63.2012C109.079 63.8861 109.405 64.5222 109.935 65.0154C110.465 65.5075 111.158 65.8156 111.906 65.8932ZM84.9432 92.431C85.0523 93.1115 85.4098 93.7355 85.9648 94.2043C86.5198 94.6742 87.2262 94.9535 87.9776 95C87.8685 94.3195 87.511 93.6956 86.956 93.2268C86.3998 92.7568 85.6933 92.4787 84.9432 92.431ZM88.1363 91.9278C88.3181 92.595 88.7434 93.1835 89.3469 93.5991C89.9504 94.0158 90.6835 94.2286 91.4361 94.2065C91.2531 93.5393 90.8289 92.9508 90.2255 92.5352C89.6208 92.1185 88.8876 91.9057 88.1363 91.9278ZM91.2567 91.1354C91.5112 91.7827 91.9995 92.3279 92.6442 92.687C93.2913 93.0461 94.0439 93.1902 94.7891 93.0993C94.5334 92.4521 94.0475 91.9057 93.4004 91.5477C92.7545 91.1875 92.002 91.0434 91.2567 91.1354ZM94.2741 90.0593C94.5989 90.6788 95.1442 91.1775 95.8252 91.4757C96.5075 91.7738 97.2733 91.848 98.004 91.6885C97.6793 91.0689 97.1352 90.5702 96.4529 90.2721C95.7719 89.9739 95.0072 89.9008 94.2741 90.0593ZM97.1594 88.7127C97.5508 89.3001 98.147 89.7456 98.8584 89.9795C99.5697 90.2133 100.339 90.2178 101.051 89.9917C100.659 89.4043 100.063 88.9588 99.3516 88.7249C98.639 88.49 97.8707 88.4866 97.1594 88.7127ZM99.8823 87.1079C100.336 87.6565 100.978 88.0444 101.711 88.2129C102.444 88.3802 103.211 88.3137 103.893 88.0234C103.44 87.4748 102.798 87.0858 102.064 86.9184C101.33 86.75 100.565 86.8176 99.8823 87.1079ZM102.415 85.2604C102.925 85.7647 103.607 86.0927 104.356 86.1925C105.104 86.2911 105.859 86.1548 106.506 85.8046C105.995 85.3003 105.312 84.9723 104.565 84.8736C103.817 84.7728 103.063 84.9102 102.415 85.2604ZM104.733 83.1901C105.297 83.6445 106.012 83.9083 106.767 83.9382C107.523 83.9682 108.258 83.7631 108.863 83.3542C108.3 82.8998 107.585 82.636 106.83 82.6061C106.073 82.5773 105.339 82.7823 104.733 83.1901ZM106.811 80.9182C107.422 81.3194 108.163 81.5155 108.918 81.4767C109.673 81.438 110.381 81.1653 110.939 80.7043C110.328 80.3031 109.589 80.1069 108.834 80.1457C108.079 80.1845 107.37 80.4571 106.811 80.9182ZM108.632 78.4678C109.284 78.8102 110.041 78.9388 110.787 78.8302C111.534 78.7215 112.21 78.3857 112.714 77.8759C112.062 77.5335 111.305 77.4049 110.558 77.5135C109.812 77.621 109.134 77.9568 108.632 78.4678ZM110.172 75.8622C110.858 76.1437 111.626 76.2013 112.357 76.0251C113.087 75.8489 113.724 75.4532 114.17 74.898C113.484 74.6176 112.715 74.5588 111.985 74.7351C111.253 74.9113 110.618 75.308 110.172 75.8622ZM111.42 73.128C112.134 73.3442 112.903 73.332 113.611 73.0893C114.319 72.8465 114.909 72.3944 115.292 71.8014C114.578 71.5853 113.808 71.5975 113.101 71.8402C112.391 72.0829 111.802 72.5351 111.42 73.128ZM112.36 70.2931C113.093 70.4438 113.859 70.3596 114.537 70.0537C115.215 69.7467 115.751 69.2435 116.067 68.6185C115.333 68.4688 114.568 68.552 113.891 68.8578C113.213 69.1648 112.677 69.6691 112.36 70.2931ZM112.987 67.386C113.733 67.4681 114.486 67.3151 115.126 66.9483C115.767 66.5814 116.245 66.0306 116.49 65.38C115.744 65.298 114.991 65.451 114.351 65.8178C113.71 66.1858 113.233 66.7366 112.987 67.386ZM62.4642 38.9675C62.989 38.4754 63.3125 37.837 63.3828 37.1477C63.4543 36.4594 63.2665 35.7767 62.8508 35.2037C62.3261 35.6958 62.0025 36.3342 61.931 37.0235C61.8608 37.7118 62.0486 38.3945 62.4642 38.9675ZM104.442 42.8254C104.974 42.3389 105.308 41.7038 105.388 41.0167C105.469 40.3284 105.291 39.6446 104.883 39.0661C104.351 39.5515 104.018 40.1877 103.938 40.8748C103.857 41.5631 104.035 42.2469 104.442 42.8254ZM49.9487 63.1402C50.7 63.1291 51.4223 62.8842 52.0027 62.4409C52.5832 61.9976 52.9758 61.3924 53.1236 60.7175C52.3723 60.7286 51.6501 60.9735 51.0696 61.4168C50.488 61.8613 50.0954 62.4653 49.9487 63.1402ZM50.0966 60.3872C50.8455 60.4426 51.5907 60.2631 52.216 59.8752C52.8413 59.4851 53.2957 58.9188 53.5139 58.2593C52.7637 58.2039 52.0197 58.3835 51.3956 58.7725C50.7691 59.1615 50.3147 59.7289 50.0966 60.3872ZM50.5352 57.6609C51.2756 57.7828 52.0354 57.6697 52.6983 57.3395C53.3624 57.007 53.875 56.4839 54.1622 55.8466C53.4218 55.7247 52.662 55.8377 51.9991 56.1691C51.335 56.5005 50.8224 57.0247 50.5352 57.6609ZM51.2635 54.9855C51.9858 55.1728 52.7553 55.1284 53.4508 54.8569C54.1464 54.5854 54.7123 54.1088 55.0662 53.5015C54.3427 53.3142 53.5744 53.3585 52.8789 53.63C52.1821 53.9027 51.6162 54.3781 51.2635 54.9855ZM52.2705 52.3888C52.971 52.6392 53.7405 52.6636 54.4603 52.4553C55.1825 52.2469 55.7957 51.8235 56.2125 51.2506C55.5121 51.0001 54.7426 50.9757 54.0216 51.1841C53.3006 51.3913 52.6862 51.8147 52.2705 52.3888ZM53.549 49.8929C54.2191 50.2043 54.9826 50.2963 55.7218 50.1534C56.4622 50.0104 57.1178 49.6435 57.594 49.1094C56.9239 48.7979 56.1592 48.7048 55.42 48.8489C54.6808 48.9919 54.024 49.3587 53.549 49.8929ZM55.0868 47.5223C55.7205 47.8914 56.4707 48.0509 57.222 47.9756C57.9733 47.898 58.6664 47.591 59.196 47.1023C58.5622 46.7321 57.8121 46.5725 57.0608 46.6501C56.3083 46.7265 55.6163 47.0335 55.0868 47.5223ZM56.8693 45.3002C57.4607 45.7236 58.1902 45.9496 58.9464 45.9408C59.7025 45.9308 60.4248 45.687 61.0028 45.2481C60.4114 44.8236 59.6819 44.5975 58.9258 44.6075C58.1708 44.6164 57.4486 44.8602 56.8693 45.3002ZM58.8797 43.2465C59.4238 43.7209 60.1267 44.0113 60.8792 44.0689C61.6329 44.1265 62.377 43.9481 62.9999 43.5613C62.457 43.087 61.7541 42.7966 61.0004 42.7389C60.2466 42.6813 59.5026 42.8597 58.8797 43.2465ZM61.0985 41.3813C61.5893 41.9022 62.2582 42.2524 63.0011 42.3776C63.7451 42.5018 64.5049 42.3909 65.1654 42.0618C64.6746 41.5409 64.0069 41.1907 63.2628 41.0654C62.5188 40.9402 61.7602 41.0521 61.0985 41.3813ZM49.0774 58.5286C49.0544 57.8415 48.7757 57.1854 48.2837 56.6601C47.7905 56.1359 47.1228 55.7856 46.3836 55.6615C46.4078 56.3487 46.6853 57.0048 47.1785 57.529C47.6693 58.0543 48.3382 58.4045 49.0774 58.5286ZM49.7439 55.6294C49.796 54.9434 49.5912 54.2651 49.1586 53.6976C48.7272 53.1313 48.0995 52.7212 47.3773 52.5295C47.3252 53.2155 47.53 53.8938 47.9626 54.4613C48.3964 55.0287 49.0229 55.4388 49.7439 55.6294ZM50.7267 52.8066C50.8539 52.1283 50.7243 51.4345 50.3559 50.8305C49.9875 50.2276 49.4095 49.7621 48.7115 49.505C48.5842 50.1833 48.7139 50.8771 49.0823 51.4811C49.4507 52.0851 50.0299 52.5495 50.7267 52.8066ZM52.0136 50.088C52.2148 49.4252 52.1615 48.7226 51.861 48.0886C51.5604 47.4536 51.0369 46.9382 50.3704 46.619C50.1705 47.2818 50.2226 47.9844 50.5231 48.6184C50.8236 49.2523 51.3471 49.7688 52.0136 50.088ZM53.5914 47.5012C53.8641 46.8595 53.8895 46.1569 53.6593 45.4975C53.4302 44.8391 52.9649 44.2772 52.3384 43.8982C52.0657 44.5388 52.0415 45.2426 52.2705 45.902C52.4996 46.5603 52.9649 47.1222 53.5914 47.5012ZM55.4467 45.073C55.7884 44.4601 55.8902 43.763 55.7339 43.0858C55.5776 42.4098 55.1764 41.808 54.5936 41.3735C54.2518 41.9864 54.1513 42.6835 54.3064 43.3607C54.4627 44.0356 54.8638 44.6374 55.4467 45.073ZM57.5576 42.8254C57.9648 42.2469 58.1429 41.562 58.0618 40.8748C57.9818 40.1877 57.6473 39.5526 57.1153 39.0661C56.7082 39.6446 56.5312 40.3295 56.6124 41.0167C56.6924 41.7038 57.0257 42.34 57.5576 42.8254ZM59.9049 40.7839C60.3739 40.2453 60.6247 39.5803 60.6199 38.8888C60.615 38.1972 60.3521 37.5356 59.877 37.0025C59.4081 37.5411 59.156 38.205 59.1621 38.8965C59.1669 39.5892 59.4287 40.252 59.9049 40.7839ZM112.051 63.1402C111.905 62.4653 111.512 61.8601 110.93 61.4179C110.35 60.9757 109.628 60.7297 108.875 60.7186C109.022 61.3936 109.414 61.9987 109.996 62.442C110.577 62.8842 111.3 63.1291 112.051 63.1402ZM111.903 60.3872C111.685 59.7289 111.231 59.1615 110.604 58.7725C109.98 58.3835 109.235 58.2039 108.486 58.2593C108.704 58.9188 109.159 59.4851 109.785 59.8752C110.409 60.2631 111.155 60.4426 111.903 60.3872ZM111.464 57.6609C111.176 57.0247 110.664 56.5005 110 56.1691C109.337 55.8377 108.577 55.7247 107.837 55.8466C108.124 56.4828 108.636 57.007 109.3 57.3395C109.963 57.6697 110.724 57.7828 111.464 57.6609ZM110.736 54.9855C110.384 54.3781 109.817 53.9016 109.121 53.63C108.427 53.3585 107.657 53.3142 106.934 53.5015C107.286 54.1088 107.854 54.5854 108.549 54.8569C109.245 55.1284 110.014 55.1728 110.736 54.9855ZM109.729 52.3888C109.313 51.8158 108.699 51.3924 107.978 51.1841C107.257 50.9757 106.488 51.0001 105.787 51.2506C106.204 51.8235 106.817 52.2469 107.54 52.4553C108.26 52.6625 109.029 52.6392 109.729 52.3888ZM108.451 49.8929C107.976 49.3598 107.32 48.993 106.58 48.85C105.841 48.707 105.076 48.799 104.406 49.1105C104.881 49.6447 105.537 50.0104 106.278 50.1545C107.017 50.2963 107.78 50.2043 108.451 49.8929ZM106.913 47.5223C106.384 47.0335 105.692 46.7265 104.94 46.6501C104.189 46.5725 103.439 46.7332 102.805 47.1023C103.335 47.591 104.027 47.898 104.778 47.9756C105.528 48.0509 106.278 47.8925 106.913 47.5223ZM105.129 45.3002C104.55 44.8602 103.829 44.6164 103.073 44.6075C102.317 44.5975 101.587 44.8236 100.996 45.2481C101.574 45.687 102.296 45.9308 103.052 45.9408C103.809 45.9496 104.538 45.7236 105.129 45.3002ZM103.12 43.2465C102.497 42.8609 101.753 42.6824 101 42.7401C100.247 42.7977 99.5442 43.0869 99.0001 43.5624C99.623 43.9481 100.367 44.1265 101.121 44.07C101.873 44.0113 102.576 43.7209 103.12 43.2465ZM113.29 64.4369C114.041 64.4502 114.773 64.2285 115.369 63.8052C115.967 63.3818 116.383 62.7889 116.556 62.1195C115.804 62.1062 115.074 62.3278 114.476 62.7512C113.879 63.1757 113.463 63.7675 113.29 64.4369ZM113.269 61.4745C114.018 61.4179 114.722 61.1309 115.269 60.6543C115.816 60.1778 116.165 59.5505 116.265 58.8689C115.515 58.9254 114.812 59.2125 114.264 59.6879C113.716 60.1656 113.367 60.7929 113.269 61.4745ZM112.923 58.5286C113.662 58.4045 114.331 58.0543 114.823 57.5301C115.316 57.0059 115.595 56.3498 115.618 55.6626C114.878 55.7868 114.211 56.137 113.717 56.6612C113.224 57.1854 112.947 57.8415 112.923 58.5286ZM112.255 55.6294C112.977 55.4376 113.604 55.0276 114.036 54.4613C114.469 53.8938 114.674 53.2166 114.622 52.5295C113.899 52.7212 113.273 53.1313 112.84 53.6976C112.408 54.2662 112.203 54.9434 112.255 55.6294ZM111.273 52.8066C111.971 52.5495 112.549 52.084 112.918 51.4811C113.286 50.8771 113.416 50.1833 113.289 49.505C112.592 49.7621 112.012 50.2276 111.644 50.8305C111.276 51.4356 111.146 52.1294 111.273 52.8066ZM109.986 50.088C110.652 49.7688 111.176 49.2523 111.477 48.6173C111.777 47.9822 111.83 47.2807 111.628 46.6179C110.963 46.9371 110.438 47.4536 110.138 48.0875C109.839 48.7237 109.785 49.4252 109.986 50.088ZM108.407 47.5012C109.035 47.1222 109.5 46.5603 109.729 45.902C109.958 45.2426 109.934 44.5388 109.662 43.8982C109.035 44.2772 108.569 44.8391 108.341 45.4975C108.11 46.1569 108.136 46.8595 108.407 47.5012ZM106.553 45.073C107.136 44.6374 107.537 44.0367 107.692 43.3607C107.849 42.6835 107.747 41.9864 107.405 41.3735C106.822 41.808 106.421 42.4098 106.266 43.0858C106.11 43.7619 106.212 44.459 106.553 45.073ZM63.5052 39.7222C63.9378 40.2841 64.5667 40.6919 65.2926 40.8826C66.0197 41.0721 66.788 41.0289 67.4799 40.7607C67.0473 40.1988 66.4184 39.7898 65.6925 39.6003C64.9654 39.4097 64.1983 39.454 63.5052 39.7222ZM66.0766 38.2848C66.4487 38.8821 67.0291 39.3443 67.7332 39.5981C68.4372 39.8519 69.2055 39.8763 69.9229 39.6701C69.5521 39.0727 68.9704 38.6106 68.2676 38.3568C67.5635 38.1041 66.7952 38.0786 66.0766 38.2848ZM68.7886 37.0823C69.0952 37.7096 69.6248 38.2216 70.2961 38.5363C70.9699 38.8511 71.7321 38.9442 72.4689 38.8034C72.1623 38.175 71.634 37.6641 70.9602 37.3494C70.2876 37.0346 69.5254 36.9415 68.7886 37.0823ZM71.6158 36.1269C71.8533 36.7786 72.3271 37.335 72.9621 37.7085C73.5995 38.0819 74.3484 38.2426 75.0961 38.1673C74.8586 37.5145 74.3848 36.9593 73.7486 36.5858C73.1124 36.2123 72.3635 36.0527 71.6158 36.1269ZM74.5314 35.4276C74.6986 36.0981 75.1106 36.6944 75.7044 37.1211C76.2982 37.5489 77.0265 37.7749 77.779 37.7672C77.6118 37.0967 77.1998 36.5004 76.606 36.0737C76.011 35.6448 75.2827 35.4187 74.5314 35.4276ZM65.209 37.3959C65.7858 36.9537 66.1772 36.3486 66.3238 35.6703C66.4705 34.9921 66.3578 34.2949 66.0076 33.6865C65.4307 34.1287 65.0393 34.7338 64.8939 35.4132C64.7473 36.0904 64.8588 36.7875 65.209 37.3959ZM68.1137 36.0837C68.7365 35.6969 69.1922 35.1306 69.4115 34.4678C69.6309 33.8073 69.5957 33.1024 69.3146 32.4652C68.6917 32.852 68.2361 33.4183 68.0167 34.081C67.7974 34.7416 67.8325 35.4465 68.1137 36.0837ZM71.1468 35.0441C71.8085 34.7161 72.3247 34.1952 72.6155 33.5568C72.9064 32.9185 72.9488 32.2158 72.7379 31.5553C72.0763 31.8833 71.5613 32.4053 71.2692 33.0426C70.9796 33.681 70.9372 34.3847 71.1468 35.0441ZM74.2793 34.2883C74.9737 34.0234 75.5445 33.5513 75.9032 32.9428C76.2631 32.3344 76.383 31.6395 76.2461 30.9634C75.5529 31.2283 74.981 31.7005 74.6223 32.3089C74.2612 32.9173 74.1424 33.6122 74.2793 34.2883ZM100.901 41.3813C100.24 41.0532 99.4812 40.9413 98.7372 41.0654C97.9943 41.1896 97.3254 41.5398 96.8346 42.0618C97.4963 42.3909 98.2549 42.5018 99.0001 42.3776C99.7418 42.2524 100.409 41.9022 100.901 41.3813ZM98.4948 39.7222C97.8029 39.454 97.0346 39.4097 96.3075 39.6003C95.5816 39.7898 94.9527 40.1977 94.5201 40.7607C95.2133 41.0289 95.9803 41.0732 96.7074 40.8826C97.4333 40.6919 98.061 40.2841 98.4948 39.7222ZM95.9234 38.2848C95.206 38.0797 94.4365 38.1041 93.7336 38.3579C93.0308 38.6117 92.4491 39.0739 92.0771 39.6712C92.7945 39.8763 93.564 39.8519 94.268 39.5992C94.9697 39.3443 95.5513 38.8821 95.9234 38.2848ZM93.2114 37.0823C92.4758 36.9415 91.7123 37.0346 91.0398 37.3494C90.3672 37.6641 89.8377 38.175 89.5311 38.8034C90.2679 38.9442 91.0301 38.8511 91.7039 38.5363C92.3752 38.2216 92.9048 37.7107 93.2114 37.0823ZM90.3842 36.1269C89.6365 36.0527 88.8876 36.2123 88.2514 36.5858C87.6152 36.9581 87.1426 37.5145 86.9051 38.1673C87.6528 38.2426 88.4017 38.0819 89.0379 37.7085C89.6729 37.335 90.1467 36.7786 90.3842 36.1269ZM87.4686 35.4276C86.7161 35.4198 85.9878 35.6459 85.394 36.0737C84.8002 36.5015 84.3882 37.0967 84.221 37.7672C84.9735 37.7749 85.7018 37.5489 86.2956 37.1211C86.8906 36.6933 87.3014 36.0981 87.4686 35.4276ZM102.095 40.7839C102.571 40.252 102.833 39.5881 102.838 38.8976C102.843 38.2061 102.591 37.5411 102.123 37.0036C101.648 37.5356 101.385 38.1983 101.38 38.8899C101.374 39.5803 101.626 40.2453 102.095 40.7839ZM99.5358 38.9675C99.9514 38.3945 100.139 37.7107 100.068 37.0235C99.9962 36.3353 99.6727 35.6969 99.148 35.2037C98.7335 35.7767 98.5457 36.4605 98.616 37.1477C98.6875 37.837 99.0111 38.4754 99.5358 38.9675ZM96.7898 37.3959C97.14 36.7875 97.2515 36.0904 97.1061 35.4121C96.9607 34.7327 96.5693 34.1276 95.9912 33.6854C95.641 34.2938 95.5295 34.9909 95.675 35.6692C95.8216 36.3486 96.213 36.9537 96.7898 37.3959ZM93.8863 36.0837C94.1675 35.4465 94.2026 34.7416 93.9833 34.081C93.7627 33.4183 93.3071 32.8531 92.6854 32.4652C92.4043 33.1024 92.3691 33.8062 92.5885 34.4678C92.8078 35.1306 93.2635 35.6969 93.8863 36.0837ZM90.8532 35.0441C91.0628 34.3847 91.0204 33.681 90.7296 33.0426C90.4375 32.4042 89.9225 31.8822 89.2609 31.5553C89.0512 32.2158 89.0936 32.9185 89.3845 33.5568C89.6753 34.1952 90.1915 34.7161 90.8532 35.0441Z" fill="white"/>
<path fill-rule="evenodd" clip-rule="evenodd" d="M79.8645 51.1397C79.8039 51.1276 79.7397 51.1154 79.6719 51.101C77.4615 50.6499 76.5042 50.078 74.0551 50.4349C70.6294 50.9325 67.1697 52.8653 64.4783 52.7601C64.025 52.7423 63.6482 52.6913 63.2555 52.4564C62.8447 52.2092 62.7078 51.8324 63.1089 51.3647C62.7878 51.9255 63.4216 52.4287 63.9984 52.3699C64.7109 52.2968 64.8672 51.4456 64.4104 50.9779C63.9087 50.4637 63.0932 50.5313 62.6351 51.0367C62.2388 51.4733 62.3867 52.0851 62.9986 52.6692C64.4989 54.1022 67.4654 53.3574 70.5482 52.6636C72.6591 52.1893 75.4257 51.5531 77.5985 52.3345C79.0357 52.8509 79.0853 53.0637 79.2417 54.3294C79.5725 57.0081 81.1575 60.0769 79.0199 63.7121C77.9778 65.4831 78.6636 67.2863 79.3374 68.6661C79.8197 69.6547 80.0318 70.7375 80.0657 71.8059H80.3226C80.3735 71.8059 80.4159 71.8436 80.4159 71.8901C80.4159 71.9367 80.3747 71.9743 80.3226 71.9743H79.9578C79.6464 71.9832 79.3956 72.2182 79.3956 72.5041C79.3956 72.7956 79.6573 73.0339 79.976 73.0339H79.4174C79.2586 73.0339 79.1278 73.1536 79.1278 73.2998C79.1278 73.4461 79.2574 73.5647 79.4174 73.5647H79.9736C79.8294 74.6564 79.541 75.6638 79.2223 76.4562H78.8333C78.7824 76.4562 78.7412 76.4939 78.7412 76.5405C78.7412 76.5859 78.7812 76.6236 78.8309 76.6247H78.3886C78.1959 76.6247 78.0396 76.7677 78.0396 76.9439C78.0396 77.1201 78.1959 77.2631 78.3886 77.2631H78.6055C77.8214 77.682 77.2919 78.46 77.2919 79.3466C77.2919 79.3954 77.2943 79.4442 77.2967 79.4918C77.9426 80.1036 79.5749 80.4283 80.9903 80.4206C79.587 80.5935 77.9147 80.4704 76.6811 79.6503C75.7383 79.9185 75.1627 80.2765 75.1627 80.6688C75.1627 81.5011 77.7499 82.1761 80.9418 82.1761C84.1337 82.1761 86.7209 81.5011 86.7209 80.6688C86.7209 80.1967 85.8884 79.7755 84.5857 79.4996C84.5894 79.4497 84.5906 79.3987 84.5906 79.3477C84.5906 78.4622 84.061 77.6831 83.277 77.2642H83.4939C83.6866 77.2642 83.8429 77.1212 83.8429 76.945C83.8429 76.7688 83.6866 76.6258 83.4939 76.6258H83.1643C83.214 76.6247 83.2539 76.587 83.2539 76.5416C83.2539 76.495 83.2127 76.4573 83.1619 76.4573H82.7729C82.4554 75.6649 82.167 74.6575 82.0215 73.5658H82.4651C82.6238 73.5658 82.7547 73.4461 82.7547 73.301C82.7547 73.1547 82.625 73.035 82.4651 73.035H81.9634V73.0327C82.2554 73.0061 82.4857 72.779 82.4857 72.5052C82.4857 72.2193 82.2348 71.9843 81.9246 71.9755H81.6713C81.6204 71.9755 81.5792 71.9378 81.5792 71.8912C81.5792 71.8447 81.6204 71.807 81.6713 71.807H81.9282C81.9622 70.7375 82.1742 69.6547 82.6565 68.6672C83.3303 67.2874 84.0162 65.4842 82.974 63.7132C80.8364 60.0769 82.4214 57.0081 82.751 54.3305C82.9074 53.0648 82.9571 52.852 84.3943 52.3356C86.567 51.5542 89.3336 52.1904 91.4445 52.6647C94.5274 53.3585 97.4939 54.1044 98.9941 52.6703C99.606 52.0862 99.7539 51.4744 99.3576 51.0378C98.8996 50.5335 98.084 50.4648 97.5823 50.979C97.1255 51.4467 97.2818 52.2979 97.9943 52.371C98.5712 52.4298 99.2049 51.9277 98.8838 51.3658C99.2849 51.8346 99.148 52.2103 98.7372 52.4575C98.3446 52.6936 97.9677 52.7445 97.5145 52.7612C94.8218 52.8653 91.3633 50.9336 87.9376 50.436C85.4885 50.0802 84.5312 50.651 82.3209 51.1021C82.253 51.1165 82.19 51.1287 82.1282 51.1408C81.2375 49.0595 81.9367 49.5582 83.0952 47.376C83.2479 47.0879 83.3291 46.7631 83.317 46.4207C83.2636 44.9068 81.3623 44.4058 80.9915 42.6182C80.6219 44.4058 78.7194 44.9079 78.6661 46.4207C78.6539 46.7631 78.7363 47.0879 78.889 47.376C80.056 49.5571 80.7552 49.0573 79.8645 51.1397ZM102.596 73.0815V73.9083C99.8981 73.9083 100.413 77.1434 95.5004 77.1434C90.5866 77.1434 91.1028 73.9083 88.4041 73.9083V73.0815H102.596ZM100.698 73.7476C99.1516 76.4795 96.7971 76.904 95.332 76.5737C96.9994 76.474 99.051 75.5009 100.698 73.7476ZM95.2496 72.4332V54.7793L91.0325 72.4332H90.5114L94.9854 53.7032H96.0106L100.485 72.4332H99.9647L95.7477 54.7782V72.4332H95.2496ZM73.5971 73.0815V73.9083C70.8996 73.9083 71.4146 77.1434 66.502 77.1434C61.5881 77.1434 62.1043 73.9083 59.4056 73.9083V73.0815H73.5971ZM61.3021 73.7476C62.949 75.5009 65.0018 76.4729 66.6668 76.5737C65.2029 76.904 62.8472 76.4795 61.3021 73.7476ZM66.7504 72.4332H66.2511V54.7782L62.034 72.4332H61.5142L65.9882 53.7032H67.0133L71.4873 72.4332H70.9675L66.7504 54.7793V72.4332ZM67.246 53.4361C70.7821 53.353 77.7936 50.2797 78.9666 54.3139C76.7175 50.6521 70.8027 53.7198 67.246 53.4361ZM94.754 53.4361C91.1961 53.7198 85.2813 50.6521 83.0322 54.3139C84.2064 50.2797 91.2191 53.3541 94.754 53.4361ZM79.8282 54.7394C80.1275 56.8352 80.8703 59.0329 80.794 61.0544C80.6837 64.0268 78.3886 64.9922 80.2463 69.6336C77.4397 64.8193 80.0366 63.8307 80.4377 61.1974C80.7504 59.1615 79.9966 57.1356 79.8282 54.7394Z" fill="white"/>
<path fill-rule="evenodd" clip-rule="evenodd" d="M66.2002 46.5304C66.2002 46.7842 66.2002 47.0025 66.1857 47.1178C66.1736 47.1976 66.159 47.2586 66.0984 47.2696C66.0718 47.2741 66.0354 47.2807 65.9894 47.2807C65.953 47.2807 65.9409 47.2896 65.9409 47.3029C65.9409 47.3228 65.9615 47.3306 66.0015 47.3306C66.0621 47.3306 66.1396 47.325 66.2099 47.325C66.2826 47.3228 66.3481 47.3228 66.382 47.3228C66.4729 47.3228 66.5662 47.3251 66.6959 47.3306C66.8255 47.3328 66.9915 47.3395 67.2169 47.3395C67.3308 47.3395 67.3587 47.3395 67.3793 47.2674C67.3951 47.212 67.4193 47.0247 67.4193 46.9615C67.4193 46.9338 67.4193 46.9117 67.3951 46.9117C67.3745 46.9117 67.3684 46.9227 67.3624 46.9527C67.3418 47.0657 67.3054 47.1233 67.2266 47.1566C67.1479 47.1887 67.0206 47.1887 66.9419 47.1887C66.6341 47.1887 66.5868 47.1477 66.5807 46.9571C66.5771 46.8773 66.5807 46.6235 66.5807 46.5293V46.311C66.5807 46.2943 66.5844 46.2833 66.5989 46.2833C66.6704 46.2833 66.9697 46.2866 67.0267 46.2921C67.1382 46.3032 67.1806 46.3442 67.1951 46.3996C67.2036 46.4362 67.2036 46.4717 67.2072 46.4994C67.2072 46.5127 67.2133 46.5238 67.2339 46.5238C67.2606 46.5238 67.2606 46.4938 67.2606 46.4706C67.2606 46.4517 67.2703 46.3409 67.2727 46.2855C67.2848 46.1447 67.2969 46.1004 67.2969 46.0838C67.2969 46.0671 67.2884 46.0616 67.2763 46.0616C67.2606 46.0616 67.2497 46.0749 67.2291 46.0971C67.2012 46.1237 67.1563 46.1325 67.0836 46.1381C67.0146 46.1436 66.668 46.1436 66.6013 46.1436C66.5832 46.1436 66.5807 46.1325 66.5807 46.1137V45.4166C66.5807 45.3966 66.5868 45.3889 66.6013 45.3889C66.6619 45.3889 66.9782 45.3944 67.0303 45.4C67.1806 45.4166 67.2109 45.4498 67.2315 45.4997C67.2472 45.5318 67.2497 45.5795 67.2497 45.5983C67.2497 45.6227 67.2545 45.6371 67.2763 45.6371C67.2969 45.6371 67.303 45.6205 67.3066 45.6072C67.3127 45.574 67.3187 45.4521 67.3212 45.4255C67.3308 45.2991 67.3454 45.2659 67.3454 45.2459C67.3454 45.2315 67.3418 45.2204 67.3272 45.2204C67.3127 45.2204 67.2933 45.2293 67.2787 45.2315C67.2545 45.237 67.206 45.2426 67.1491 45.2481C67.0921 45.2503 66.4911 45.2503 66.3953 45.2503C66.3529 45.2503 66.2838 45.2481 66.2051 45.2448C66.1299 45.2448 66.0427 45.2415 65.9603 45.2415C65.9155 45.2415 65.8936 45.247 65.8936 45.267C65.8936 45.2858 65.9118 45.2913 65.9445 45.2913C65.987 45.2913 66.0391 45.2947 66.0621 45.3002C66.1615 45.3191 66.1857 45.3634 66.1918 45.4576C66.1978 45.5463 66.1978 45.6227 66.1978 46.0417V46.5304H66.2002ZM68.3803 47.3694C68.5402 47.3694 68.7087 47.345 68.8601 47.2563C69.0771 47.1267 69.1437 46.936 69.1437 46.7764C69.1437 46.5138 69.014 46.3243 68.6493 46.0727L68.5645 46.0151C68.3148 45.8422 68.2445 45.7446 68.2445 45.6183C68.2445 45.452 68.3803 45.3335 68.6032 45.3335C68.7996 45.3335 68.8868 45.4166 68.9316 45.4687C68.9947 45.5396 69.0104 45.6261 69.0104 45.6504C69.0104 45.6837 69.0189 45.7003 69.0407 45.7003C69.0649 45.7003 69.0734 45.6781 69.0734 45.6172C69.0734 45.4022 69.0855 45.3224 69.0855 45.2858C69.0855 45.267 69.0698 45.2581 69.0431 45.2526C68.9644 45.2337 68.8383 45.206 68.642 45.206C68.2227 45.206 67.9452 45.4243 67.9452 45.728C67.9452 45.9519 68.0604 46.1447 68.3912 46.3819L68.5305 46.4805C68.7814 46.6601 68.8262 46.7864 68.8262 46.9216C68.8262 47.0679 68.6929 47.2364 68.4215 47.2364C68.2349 47.2364 68.0567 47.1621 67.9901 46.9582C67.9743 46.9117 67.9634 46.8529 67.9634 46.8175C67.9634 46.7953 67.9598 46.7709 67.9331 46.7709C67.9089 46.7709 67.9004 46.8008 67.8968 46.8418C67.8931 46.8862 67.881 47.0513 67.881 47.2031C67.881 47.2641 67.8895 47.2774 67.9392 47.2962C68.07 47.3505 68.2058 47.3694 68.3803 47.3694ZM70.2622 46.5304C70.2622 46.7842 70.2622 47.0025 70.2477 47.1178C70.238 47.1976 70.221 47.2586 70.1604 47.2696C70.1338 47.2741 70.0962 47.2807 70.0513 47.2807C70.015 47.2807 70.0029 47.2896 70.0029 47.3029C70.0029 47.3228 70.0247 47.3306 70.0635 47.3306C70.1846 47.3306 70.3737 47.3228 70.444 47.3228C70.5288 47.3228 70.7191 47.3306 70.9178 47.3306C70.9505 47.3306 70.9747 47.3228 70.9747 47.3029C70.9747 47.2896 70.9602 47.2807 70.9263 47.2807C70.8814 47.2807 70.8148 47.2752 70.7724 47.2696C70.6815 47.2586 70.6633 47.1976 70.6548 47.1211C70.6403 47.0025 70.6403 46.7842 70.6403 46.5304V45.4L71.0208 45.4088C71.2886 45.4144 71.3698 45.4919 71.3758 45.5629L71.3795 45.5928C71.3831 45.6349 71.3892 45.6482 71.4134 45.6482C71.4316 45.6482 71.4377 45.6316 71.4401 45.6039C71.4401 45.5318 71.4498 45.3412 71.4498 45.2836C71.4498 45.2426 71.4473 45.226 71.4255 45.226C71.4134 45.226 71.3892 45.2315 71.3443 45.2404C71.2995 45.2459 71.2329 45.2537 71.1359 45.2537H69.9411C69.8417 45.2537 69.7266 45.2481 69.6393 45.2404C69.5642 45.2348 69.5339 45.2071 69.5097 45.2071C69.4915 45.2071 69.483 45.2237 69.4733 45.2592C69.4685 45.2814 69.4103 45.5318 69.4103 45.5762C69.4103 45.6061 69.4164 45.6205 69.437 45.6205C69.4551 45.6205 69.4648 45.6094 69.4709 45.5873C69.4757 45.5651 69.4915 45.5318 69.5218 45.4908C69.5666 45.4299 69.6393 45.4166 69.8138 45.411L70.2634 45.4V46.5304H70.2622ZM72.0024 46.5304C72.0024 46.7842 72.0024 47.0025 71.9866 47.1178C71.9745 47.1976 71.9599 47.2586 71.8994 47.2696C71.8727 47.2741 71.8363 47.2807 71.7915 47.2807C71.7551 47.2807 71.743 47.2896 71.743 47.3029C71.743 47.3228 71.7648 47.3306 71.8036 47.3306C71.8642 47.3306 71.943 47.325 72.012 47.325C72.0848 47.3228 72.1502 47.3228 72.1841 47.3228C72.2593 47.3228 72.3647 47.3306 72.4798 47.3395C72.5949 47.3483 72.7185 47.3561 72.8264 47.3561C73.385 47.3561 73.6989 47.1599 73.837 47.0314C74.0055 46.874 74.1654 46.6091 74.1654 46.2622C74.1654 45.9342 74.0236 45.7047 73.8734 45.5618C73.545 45.247 73.0409 45.247 72.664 45.247C72.4834 45.247 72.2932 45.2559 72.1999 45.2559C72.115 45.2559 71.926 45.247 71.7661 45.247C71.72 45.247 71.6994 45.2526 71.6994 45.2725C71.6994 45.2913 71.7176 45.2969 71.7503 45.2969C71.7927 45.2969 71.8436 45.3002 71.8678 45.3058C71.9672 45.3246 71.9914 45.3689 71.9975 45.4631C72.0036 45.5518 72.0036 45.6283 72.0036 46.0472V46.5304H72.0024ZM72.3804 46.0018C72.3804 45.7834 72.3804 45.544 72.3829 45.4498C72.3829 45.4199 72.3926 45.4055 72.4192 45.3944C72.4435 45.3833 72.5549 45.3756 72.6143 45.3756C72.8506 45.3756 73.1948 45.4088 73.4711 45.6515C73.6007 45.7646 73.7607 45.9907 73.7607 46.3409C73.7607 46.6246 73.7001 46.8762 73.5074 47.028C73.3256 47.171 73.1208 47.2264 72.8131 47.2264C72.5755 47.2264 72.4568 47.1688 72.418 47.1156C72.3938 47.0857 72.3877 46.9748 72.3853 46.9061C72.3816 46.854 72.3792 46.6412 72.3792 46.3487V46.0018H72.3804Z" fill="white"/>
<path fill-rule="evenodd" clip-rule="evenodd" d="M90.326 47.3228C90.5163 47.3228 90.5636 47.3139 90.5878 47.2397C90.6181 47.1455 90.675 46.8895 90.675 46.8451C90.675 46.8174 90.6726 46.793 90.6508 46.793C90.6326 46.793 90.6242 46.8041 90.6145 46.8374C90.5781 46.967 90.4787 47.0613 90.2703 47.0823C90.1588 47.0956 89.8025 47.0989 89.7517 47.0989H89.5456C89.5311 47.0989 89.525 47.0912 89.5396 47.0801C89.9286 46.7964 90.5769 46.3298 90.5769 45.7945C90.5769 45.472 90.3503 45.2071 89.8207 45.2071C89.5553 45.2071 89.393 45.257 89.2742 45.3113C89.2415 45.3312 89.2378 45.3412 89.2378 45.3667C89.2378 45.4476 89.2536 45.6759 89.256 45.7014C89.2597 45.7335 89.2681 45.7535 89.2827 45.7535C89.313 45.7535 89.3215 45.7291 89.3215 45.7014C89.3215 45.6294 89.376 45.4997 89.4487 45.4365C89.5396 45.3589 89.6377 45.3368 89.7674 45.3368C89.9177 45.3368 90.1806 45.4254 90.1806 45.861C90.1806 46.4428 89.5808 46.8728 89.1579 47.212C89.1276 47.2375 89.0973 47.2619 89.0973 47.284C89.0973 47.3062 89.1179 47.3228 89.1397 47.3228H90.326ZM92.4794 46.2245C92.4794 45.7856 92.3195 45.2071 91.722 45.2071C91.1646 45.2071 90.9174 45.7069 90.9174 46.3497C90.9174 46.741 91.081 47.3705 91.6748 47.3705C92.1934 47.3694 92.4794 46.9094 92.4794 46.2245ZM92.1268 46.332C92.1268 46.8673 91.9753 47.2452 91.7317 47.2452C91.3997 47.2452 91.27 46.721 91.27 46.2433C91.27 45.6149 91.4324 45.3312 91.659 45.3312C91.9874 45.3312 92.1268 45.8554 92.1268 46.332ZM93.9457 47.3228C94.136 47.3228 94.1844 47.3139 94.2087 47.2397C94.239 47.1455 94.2959 46.8895 94.2959 46.8451C94.2959 46.8174 94.2923 46.793 94.2717 46.793C94.2535 46.793 94.245 46.8041 94.2353 46.8374C94.199 46.967 94.0996 47.0613 93.8912 47.0823C93.7797 47.0956 93.4234 47.0989 93.3725 47.0989H93.1665C93.152 47.0989 93.1459 47.0912 93.1605 47.0801C93.5494 46.7964 94.1978 46.3298 94.1978 45.7945C94.1978 45.472 93.9712 45.2071 93.4404 45.2071C93.175 45.2071 93.0114 45.257 92.8951 45.3113C92.8624 45.3312 92.8587 45.3412 92.8587 45.3667C92.8587 45.4476 92.8733 45.6759 92.8769 45.7014C92.8793 45.7335 92.889 45.7535 92.9036 45.7535C92.9339 45.7535 92.9423 45.7291 92.9423 45.7014C92.9423 45.6294 92.9969 45.4997 93.0696 45.4365C93.1605 45.3589 93.2598 45.3368 93.3895 45.3368C93.541 45.3368 93.8027 45.4254 93.8027 45.861C93.8027 46.4428 93.2029 46.8728 92.78 47.212C92.7509 47.2375 92.7206 47.2619 92.7206 47.284C92.7206 47.3062 92.7412 47.3228 92.763 47.3228H93.9457ZM95.7549 47.3228C95.9452 47.3228 95.9924 47.3139 96.0179 47.2397C96.0482 47.1455 96.1051 46.8895 96.1051 46.8451C96.1051 46.8174 96.1015 46.793 96.0809 46.793C96.0627 46.793 96.0542 46.8041 96.0446 46.8374C96.0082 46.967 95.9088 47.0613 95.7004 47.0823C95.5889 47.0956 95.2326 47.0989 95.1805 47.0989H94.9757C94.96 47.0989 94.9551 47.0912 94.9697 47.0801C95.3587 46.7964 96.007 46.3298 96.007 45.7945C96.007 45.472 95.7804 45.2071 95.2496 45.2071C94.9842 45.2071 94.8218 45.257 94.7043 45.3113C94.6716 45.3312 94.6679 45.3412 94.6679 45.3667C94.6679 45.4476 94.6825 45.6759 94.6861 45.7014C94.6898 45.7335 94.6982 45.7535 94.7128 45.7535C94.7431 45.7535 94.7528 45.7291 94.7528 45.7014C94.7528 45.6294 94.8073 45.4997 94.88 45.4365C94.9709 45.3589 95.0703 45.3368 95.1999 45.3368C95.3502 45.3368 95.6132 45.4254 95.6132 45.861C95.6132 46.4428 95.0133 46.8728 94.5904 47.212C94.5601 47.2375 94.5298 47.2619 94.5298 47.284C94.5298 47.3062 94.5516 47.3228 94.5722 47.3228H95.7549Z" fill="white"/>
<path fill-rule="evenodd" clip-rule="evenodd" d="M81.5805 21L82.5463 23.7363L85.6897 23.7308L83.1425 25.4154L84.1204 28.1484L81.5805 26.4539L79.0417 28.1484L80.0184 25.4154L77.4724 23.7308L80.6147 23.7363L81.5805 21Z" fill="white"/>
<path fill-rule="evenodd" clip-rule="evenodd" d="M69.4309 24.9322L70.0974 26.8218L72.2677 26.8174L70.5094 27.9811L71.1832 29.8674L69.4309 28.6981L67.6774 29.8674L68.3524 27.9811L66.5941 26.8174L68.7644 26.8218L69.4309 24.9322ZM59.9207 29.5415L60.3933 30.8826L61.9335 30.8803L60.6853 31.706L61.1652 33.0448L59.9207 32.2147L58.6761 33.0448L59.1548 31.706L57.9067 30.8803L59.4481 30.8826L59.9207 29.5415Z" fill="white"/>
<path fill-rule="evenodd" clip-rule="evenodd" d="M103.24 29.5415L102.766 30.8826L101.226 30.8803L102.474 31.706L101.996 33.0448L103.24 32.2147L104.485 33.0448L104.005 31.706L105.253 30.8803L103.713 30.8826L103.24 29.5415ZM93.73 24.9322L93.0635 26.8218L90.8932 26.8174L92.6515 27.9811L91.9765 29.8674L93.73 28.6981L95.4835 29.8674L94.8085 27.9811L96.5668 26.8174L94.3965 26.8218L93.73 24.9322Z" fill="white"/>
<path d="M51.3953 114.384C51.24 113.867 51.0793 113.355 50.9133 112.848C50.7473 112.336 50.5732 111.821 50.3911 111.304L43.9242 111.57C43.726 112.057 43.5359 112.541 43.3538 113.023C43.1717 113.504 42.995 113.991 42.8236 114.483L41 114.247C41.7551 112.331 42.5906 110.445 43.5064 108.589C44.4276 106.734 45.4077 104.896 46.4467 103.076L48.6961 103.114C49.6172 104.873 50.4581 106.668 51.2186 108.498C51.9791 110.323 52.67 112.199 53.2912 114.125L51.3953 114.384ZM47.4027 104.338C46.8618 105.312 46.3503 106.29 45.8683 107.274C45.3863 108.252 44.9257 109.243 44.4865 110.247L49.9172 110.027C49.553 109.053 49.162 108.098 48.7443 107.16C48.3265 106.222 47.8793 105.281 47.4027 104.338Z" fill="white"/>
<path d="M58.7326 103L58.6763 106.399L61.7933 106.3L61.6728 107.722L58.6603 107.798L58.596 114.43L56.9009 114.468L57.0375 107.844L54.2579 107.905L54.29 106.506L57.0696 106.43L57.1339 103.099L58.7326 103Z" fill="white"/>
<path d="M67.2266 103L67.1704 106.399L70.2874 106.3L70.1669 107.722L67.1543 107.798L67.09 114.43L65.395 114.468L65.5315 107.844L62.752 107.905L62.7841 106.506L65.5637 106.43L65.628 103.099L67.2266 103Z" fill="white"/>
<path d="M80.2435 110.262C80.2435 110.901 80.1311 111.492 79.9061 112.034C79.6812 112.577 79.3732 113.048 78.9823 113.449C78.5913 113.849 78.1334 114.161 77.6085 114.384C77.0837 114.612 76.524 114.726 75.9295 114.726C75.3351 114.726 74.7781 114.62 74.2586 114.407C73.7391 114.194 73.2839 113.892 72.8929 113.502C72.5073 113.106 72.202 112.635 71.9771 112.087C71.7521 111.54 71.6397 110.932 71.6397 110.262C71.6397 109.588 71.7521 108.977 71.9771 108.43C72.202 107.877 72.5073 107.406 72.8929 107.015C73.2839 106.625 73.7391 106.323 74.2586 106.11C74.7781 105.897 75.3351 105.791 75.9295 105.791C76.524 105.791 77.0837 105.905 77.6085 106.133C78.1334 106.356 78.5913 106.668 78.9823 107.068C79.3732 107.464 79.6812 107.935 79.9061 108.483C80.1311 109.025 80.2435 109.619 80.2435 110.262ZM78.5485 110.247C78.5485 109.882 78.5003 109.515 78.4039 109.144C78.3074 108.769 78.1548 108.435 77.9459 108.141C77.7371 107.842 77.4666 107.598 77.1346 107.411C76.8025 107.223 76.4008 107.129 75.9295 107.129C75.4743 107.129 75.0833 107.223 74.7567 107.411C74.43 107.598 74.1622 107.842 73.9533 108.141C73.7444 108.435 73.5918 108.769 73.4954 109.144C73.399 109.515 73.3508 109.882 73.3508 110.247C73.3508 110.612 73.4017 110.98 73.5034 111.35C73.6105 111.72 73.7712 112.055 73.9854 112.354C74.1997 112.648 74.4674 112.888 74.7888 113.076C75.1155 113.264 75.4957 113.357 75.9295 113.357C76.3848 113.357 76.7757 113.264 77.1024 113.076C77.4345 112.888 77.7076 112.648 77.9218 112.354C78.1361 112.055 78.2941 111.72 78.3958 111.35C78.4976 110.98 78.5485 110.612 78.5485 110.247Z" fill="white"/>
<path d="M88.7697 109.669C88.7644 109.421 88.7403 109.205 88.6974 109.023C88.6599 108.84 88.609 108.683 88.5448 108.551C88.4859 108.42 88.4162 108.311 88.3359 108.224C88.2609 108.138 88.1833 108.067 88.1029 108.011C87.9155 107.885 87.7039 107.824 87.4683 107.829C87.3183 107.849 87.1577 107.91 86.9863 108.011C86.8203 108.108 86.6489 108.234 86.4721 108.392C86.2954 108.544 86.116 108.719 85.9339 108.916C85.7572 109.109 85.5858 109.309 85.4198 109.517C85.2537 109.72 85.0957 109.923 84.9458 110.125C84.7958 110.328 84.6619 110.513 84.5441 110.681C84.5495 111.061 84.5575 111.436 84.5682 111.806C84.5789 112.171 84.5869 112.513 84.5923 112.833C84.603 113.147 84.6137 113.433 84.6244 113.692C84.6405 113.946 84.6566 114.151 84.6726 114.308L82.9454 114.513C82.9133 113.641 82.8839 112.853 82.8571 112.148C82.8303 111.439 82.8062 110.805 82.7848 110.247C82.7633 109.689 82.7446 109.198 82.7285 108.772C82.7178 108.346 82.7071 107.978 82.6964 107.669C82.675 106.944 82.6589 106.407 82.6482 106.057L84.4798 106.027C84.4852 106.336 84.4879 106.653 84.4879 106.977C84.4932 107.297 84.4986 107.591 84.5039 107.859C84.5093 108.174 84.512 108.48 84.512 108.779C84.6673 108.546 84.8547 108.29 85.0743 108.011C85.2992 107.733 85.551 107.469 85.8295 107.221C86.1133 106.972 86.4213 106.757 86.7533 106.574C87.0907 106.387 87.4495 106.27 87.8298 106.224C88.2582 106.204 88.6492 106.29 89.0027 106.483C89.1526 106.564 89.2999 106.673 89.4445 106.81C89.5945 106.942 89.731 107.114 89.8542 107.327C89.9828 107.535 90.0899 107.786 90.1756 108.08C90.2613 108.369 90.3202 108.711 90.3523 109.106L88.7697 109.669Z" fill="white"/>
<path d="M92.5963 114.513C92.5642 113.641 92.5347 112.853 92.508 112.148C92.4812 111.439 92.4571 110.805 92.4356 110.247C92.4142 109.689 92.3955 109.198 92.3794 108.772C92.3687 108.346 92.358 107.978 92.3473 107.669C92.3259 106.944 92.3098 106.407 92.2991 106.057L94.1307 106.027L94.1628 108.217C94.3396 107.928 94.5404 107.657 94.7654 107.403C94.9903 107.144 95.234 106.916 95.4964 106.719C95.7588 106.521 96.0373 106.361 96.3319 106.24C96.6318 106.118 96.9451 106.047 97.2718 106.027C97.6788 106.001 98.0323 106.034 98.3322 106.125C98.6375 106.217 98.8972 106.343 99.1115 106.506C99.3257 106.668 99.5024 106.861 99.6417 107.084C99.7809 107.302 99.8907 107.53 99.971 107.768C100.051 108.001 100.108 108.234 100.14 108.468C100.177 108.701 100.201 108.914 100.212 109.106C100.244 109.978 100.252 110.856 100.236 111.738C100.22 112.62 100.201 113.535 100.18 114.483L98.5331 114.43C98.5759 113.613 98.6134 112.797 98.6455 111.981C98.683 111.165 98.6803 110.341 98.6375 109.51C98.6375 109.418 98.6295 109.302 98.6134 109.16C98.6027 109.013 98.5732 108.858 98.525 108.696C98.4822 108.534 98.4206 108.374 98.3403 108.217C98.2599 108.054 98.1555 107.915 98.027 107.798C97.8984 107.677 97.7404 107.586 97.553 107.525C97.3709 107.464 97.1567 107.451 96.9103 107.487C96.4872 107.548 96.0561 107.842 95.6169 108.369C95.1831 108.891 94.7145 109.657 94.211 110.665C94.2325 111.482 94.2485 112.133 94.2593 112.62C94.2753 113.101 94.2887 113.466 94.2994 113.715C94.3101 114.009 94.3182 114.207 94.3235 114.308L92.5963 114.513Z" fill="white"/>
<path d="M107.075 113.251C107.359 113.251 107.64 113.21 107.919 113.129C108.197 113.043 108.454 112.921 108.69 112.764C108.926 112.602 109.129 112.402 109.301 112.163C109.477 111.925 109.606 111.649 109.686 111.335L111.237 111.631C111.087 112.093 110.875 112.511 110.602 112.886C110.329 113.261 110.01 113.583 109.646 113.852C109.282 114.12 108.88 114.328 108.441 114.475C108.007 114.622 107.552 114.696 107.075 114.696C106.368 114.696 105.742 114.594 105.195 114.392C104.649 114.189 104.189 113.902 103.814 113.532C103.439 113.162 103.152 112.716 102.954 112.194C102.761 111.672 102.665 111.089 102.665 110.445C102.665 109.811 102.777 109.221 103.002 108.673C103.233 108.12 103.546 107.641 103.942 107.236C104.339 106.83 104.805 106.511 105.34 106.278C105.876 106.044 106.454 105.928 107.075 105.928C107.632 105.928 108.157 106.032 108.65 106.24C109.143 106.442 109.579 106.726 109.959 107.091C110.34 107.451 110.653 107.877 110.899 108.369C111.146 108.861 111.301 109.393 111.365 109.966L104.408 110.947C104.446 111.307 104.539 111.631 104.689 111.92C104.839 112.204 105.029 112.445 105.26 112.643C105.495 112.84 105.766 112.992 106.071 113.099C106.382 113.2 106.716 113.251 107.075 113.251ZM109.293 108.985L109.244 108.84C109.041 108.338 108.76 107.946 108.401 107.662C108.047 107.378 107.606 107.236 107.075 107.236C106.85 107.236 106.604 107.274 106.336 107.35C106.068 107.421 105.809 107.545 105.557 107.722C105.305 107.9 105.078 108.138 104.874 108.437C104.676 108.731 104.537 109.099 104.456 109.54L109.293 108.985Z" fill="white"/>
<path d="M121 106.255C120.716 107.046 120.456 107.768 120.221 108.422C119.99 109.076 119.782 109.667 119.594 110.194C119.407 110.721 119.238 111.19 119.088 111.601C118.938 112.011 118.807 112.371 118.694 112.681C118.432 113.406 118.226 113.963 118.076 114.354C117.969 114.653 117.843 114.97 117.698 115.304C117.559 115.644 117.385 115.981 117.176 116.316C116.973 116.65 116.732 116.972 116.453 117.281C116.18 117.596 115.859 117.875 115.489 118.118C115.125 118.366 114.707 118.569 114.236 118.726C113.765 118.883 113.234 118.975 112.645 119L112.332 117.517C112.664 117.558 112.975 117.548 113.264 117.487C113.558 117.431 113.829 117.34 114.075 117.213C114.327 117.091 114.557 116.942 114.766 116.764C114.98 116.587 115.173 116.399 115.344 116.202C115.521 116.004 115.676 115.801 115.81 115.593C115.944 115.39 116.062 115.2 116.164 115.023L112.774 106.506L114.613 106.27L116.983 112.97C117.112 112.594 117.262 112.153 117.433 111.646C117.61 111.134 117.795 110.584 117.987 109.996C118.186 109.408 118.389 108.795 118.598 108.156C118.807 107.512 119.01 106.873 119.209 106.24L121 106.255Z" fill="white"/>
</g>
</g>
</svg>
