<svg width="33" height="32" viewBox="0 0 33 32" fill="none" xmlns="http://www.w3.org/2000/svg">
<path d="M27.5 2H5.5C4.70435 2 3.94129 2.31607 3.37868 2.87868C2.81607 3.44129 2.5 4.20435 2.5 5V10H30.5V5C30.5 4.20435 30.1839 3.44129 29.6213 2.87868C29.0587 2.31607 28.2956 2 27.5 2ZM7.5 8C7.30222 8 7.10888 7.94135 6.94443 7.83147C6.77998 7.72159 6.65181 7.56541 6.57612 7.38268C6.50043 7.19996 6.48063 6.99889 6.51921 6.80491C6.5578 6.61093 6.65304 6.43275 6.79289 6.29289C6.93275 6.15304 7.11093 6.0578 7.30491 6.01921C7.49889 5.98063 7.69996 6.00043 7.88268 6.07612C8.06541 6.15181 8.22159 6.27998 8.33147 6.44443C8.44135 6.60888 8.5 6.80222 8.5 7C8.5 7.26522 8.39464 7.51957 8.20711 7.70711C8.01957 7.89464 7.76522 8 7.5 8ZM10.5 8C10.3022 8 10.1089 7.94135 9.94443 7.83147C9.77998 7.72159 9.65181 7.56541 9.57612 7.38268C9.50043 7.19996 9.48063 6.99889 9.51921 6.80491C9.5578 6.61093 9.65304 6.43275 9.79289 6.29289C9.93275 6.15304 10.1109 6.0578 10.3049 6.01921C10.4989 5.98063 10.7 6.00043 10.8827 6.07612C11.0654 6.15181 11.2216 6.27998 11.3315 6.44443C11.4414 6.60888 11.5 6.80222 11.5 7C11.5 7.26522 11.3946 7.51957 11.2071 7.70711C11.0196 7.89464 10.7652 8 10.5 8ZM13.5 8C13.3022 8 13.1089 7.94135 12.9444 7.83147C12.78 7.72159 12.6518 7.56541 12.5761 7.38268C12.5004 7.19996 12.4806 6.99889 12.5192 6.80491C12.5578 6.61093 12.653 6.43275 12.7929 6.29289C12.9327 6.15304 13.1109 6.0578 13.3049 6.01921C13.4989 5.98063 13.7 6.00043 13.8827 6.07612C14.0654 6.15181 14.2216 6.27998 14.3315 6.44443C14.4414 6.60888 14.5 6.80222 14.5 7C14.5 7.26522 14.3946 7.51957 14.2071 7.70711C14.0196 7.89464 13.7652 8 13.5 8ZM25.5 8H23.5C23.2348 8 22.9804 7.89464 22.7929 7.70711C22.6054 7.51957 22.5 7.26522 22.5 7C22.5 6.73478 22.6054 6.48043 22.7929 6.29289C22.9804 6.10536 23.2348 6 23.5 6H25.5C25.7652 6 26.0196 6.10536 26.2071 6.29289C26.3946 6.48043 26.5 6.73478 26.5 7C26.5 7.26522 26.3946 7.51957 26.2071 7.70711C26.0196 7.89464 25.7652 8 25.5 8ZM2.5 27C2.5 27.7956 2.81607 28.5587 3.37868 29.1213C3.94129 29.6839 4.70435 30 5.5 30H27.5C28.2956 30 29.0587 29.6839 29.6213 29.1213C30.1839 28.5587 30.5 27.7956 30.5 27V12H2.5V27ZM19.79 15.71C19.6968 15.6168 19.6228 15.5061 19.5723 15.3842C19.5219 15.2624 19.4959 15.1319 19.4959 15C19.4959 14.7337 19.6017 14.4783 19.79 14.29C19.9783 14.1017 20.2337 13.9959 20.5 13.9959C20.6319 13.9959 20.7624 14.0219 20.8842 14.0723C21.0061 14.1228 21.1168 14.1968 21.21 14.29L26.21 19.29C26.3037 19.383 26.3781 19.4936 26.4289 19.6154C26.4797 19.7373 26.5058 19.868 26.5058 20C26.5058 20.132 26.4797 20.2627 26.4289 20.3846C26.3781 20.5064 26.3037 20.617 26.21 20.71L21.21 25.71C21.117 25.8037 21.0064 25.8781 20.8846 25.9289C20.7627 25.9797 20.632 26.0058 20.5 26.0058C20.368 26.0058 20.2373 25.9797 20.1154 25.9289C19.9936 25.8781 19.883 25.8037 19.79 25.71C19.6963 25.617 19.6219 25.5064 19.5711 25.3846C19.5203 25.2627 19.4942 25.132 19.4942 25C19.4942 24.868 19.5203 24.7373 19.5711 24.6154C19.6219 24.4936 19.6963 24.383 19.79 24.29L24.09 20L19.79 15.71ZM16.5 14.8C16.553 14.5348 16.7093 14.3015 16.9343 14.1515C17.1594 14.0014 17.4348 13.947 17.7 14C17.9652 14.053 18.1985 14.2093 18.3485 14.4343C18.4986 14.6594 18.553 14.9348 18.5 15.2L16.5 25.2C16.4532 25.4293 16.3276 25.6349 16.1449 25.7811C15.9621 25.9272 15.7339 26.0047 15.5 26H15.3C15.1674 25.9762 15.041 25.9259 14.9284 25.8521C14.8157 25.7783 14.7191 25.6825 14.6444 25.5704C14.5697 25.4583 14.5184 25.3323 14.4936 25.1999C14.4688 25.0676 14.4709 24.9315 14.5 24.8L16.5 14.8ZM6.79 19.29L11.79 14.29C11.9783 14.1017 12.2337 13.9959 12.5 13.9959C12.7663 13.9959 13.0217 14.1017 13.21 14.29C13.3983 14.4783 13.5041 14.7337 13.5041 15C13.5041 15.2663 13.3983 15.5217 13.21 15.71L8.91 20L13.21 24.29C13.3037 24.383 13.3781 24.4936 13.4289 24.6154C13.4797 24.7373 13.5058 24.868 13.5058 25C13.5058 25.132 13.4797 25.2627 13.4289 25.3846C13.3781 25.5064 13.3037 25.617 13.21 25.71C13.117 25.8037 13.0064 25.8781 12.8846 25.9289C12.7627 25.9797 12.632 26.0058 12.5 26.0058C12.368 26.0058 12.2373 25.9797 12.1154 25.9289C11.9936 25.8781 11.883 25.8037 11.79 25.71L6.79 20.71C6.69627 20.617 6.62188 20.5064 6.57111 20.3846C6.52034 20.2627 6.4942 20.132 6.4942 20C6.4942 19.868 6.52034 19.7373 6.57111 19.6154C6.62188 19.4936 6.69627 19.383 6.79 19.29Z" fill="#28E98C"/>
</svg>
