<svg width="26" height="26" viewBox="0 0 26 26" fill="none" xmlns="http://www.w3.org/2000/svg">
<path d="M23.5845 18.2042L14.823 10.4238L13.1109 12.1359L20.8913 20.8974C21.6222 21.7265 22.8977 21.7657 23.6777 20.9857C24.4577 20.2057 24.4136 18.9303 23.5845 18.2042Z" fill="#28E98C"/>
<path d="M13.106 20.1226C13.106 19.2445 12.3947 18.5381 11.5215 18.5381H5.06563C4.19244 18.5381 3.48111 19.2445 3.48111 20.1226V20.829H13.106V20.1226Z" fill="#28E98C"/>
<path d="M13.2385 21.3193H3.34865C2.47546 21.3193 1.76413 22.0258 1.76413 22.9039V24.1548C1.76413 24.4541 2.00941 24.6993 2.30865 24.6993H14.2785C14.5826 24.6993 14.823 24.4541 14.823 24.1548V22.9039C14.823 22.0258 14.1117 21.3193 13.2385 21.3193Z" fill="#28E98C"/>
<path d="M6.43671 8.74902L11.4435 3.74218L16.1216 8.42023L11.1148 13.4271L6.43671 8.74902Z" fill="#28E98C"/>
<path d="M16.5664 8.17647C17.027 8.63713 17.7726 8.63716 18.2333 8.17647C18.6939 7.71582 18.6939 6.97027 18.2333 6.50961L13.366 1.64234C13.1357 1.41199 12.8326 1.29684 12.5325 1.29986C12.2325 1.29684 11.9295 1.41199 11.6991 1.64234C11.2384 2.10302 11.2384 2.84854 11.6991 3.30923L16.5664 8.17647Z" fill="#28E98C"/>
<path d="M9.19879 15.5437C9.65944 16.0043 10.405 16.0043 10.8657 15.5437C11.3263 15.083 11.3263 14.3375 10.8657 13.8768L5.9984 9.00956C5.76806 8.77922 5.46499 8.66406 5.168 8.66406C4.86493 8.66406 4.56186 8.77922 4.33151 9.00956C3.87086 9.47021 3.87086 10.2158 4.33151 10.6764L9.19879 15.5437Z" fill="#28E98C"/>
</svg>
