<svg width="48" height="48" viewBox="0 0 48 48" fill="none" xmlns="http://www.w3.org/2000/svg">
<g id="24-hours 1" clip-path="url(#clip0_4125_918)">
<path id="Vector" fill-rule="evenodd" clip-rule="evenodd" d="M39.305 37.1861L32.8993 33.4881C31.6546 32.7695 30.0485 33.1976 29.3302 34.4435L29.0775 34.882C28.4375 35.9923 27.4528 36.6998 26.1976 36.957C24.9474 37.2131 23.755 36.945 22.7343 36.1792C20.6392 34.6074 18.6599 32.8719 16.8082 31.0201C14.9568 29.1688 13.2213 27.1898 11.6499 25.0949C10.8841 24.0738 10.6151 22.8814 10.8713 21.6308C11.1283 20.3758 11.8374 19.3926 12.947 18.7522L13.3851 18.4995C13.9927 18.1488 14.418 17.5879 14.5997 16.911C14.7805 16.237 14.6907 15.5351 14.3417 14.9306L10.6433 8.52492C9.98653 7.38745 8.63138 6.93605 7.41216 7.40395L7.33256 7.43452C6.07594 7.91658 2.61253 9.18164 1.68178 10.1124C-1.07062 12.8649 0.107064 17.8443 1.335 21.013C3.48553 26.5624 7.56488 31.9037 11.7454 36.0837C15.9253 40.2631 21.2663 44.3437 26.8152 46.4941C28.7405 47.2402 30.9069 47.8291 32.9853 47.8291C34.7247 47.8291 36.4561 47.408 37.7168 46.1474C38.604 45.2601 39.92 41.6882 40.4022 40.4753L40.4333 40.3972C40.9146 39.1863 40.43 37.8355 39.305 37.1861ZM37.3319 12.0579C37.9375 12.2749 38.3414 12.8495 38.3414 13.4925V20.7864H38.6254C39.4664 20.7864 40.1494 21.4694 40.1494 22.3104C40.1494 23.1524 39.4673 23.8344 38.6254 23.8344H38.3414V25.5215C38.3414 26.3635 37.6585 27.045 36.8174 27.045C35.9759 27.045 35.2939 26.3635 35.2939 25.5215V23.8344H29.5604C28.9709 23.8344 28.434 23.4943 28.1824 22.9619C27.9308 22.4285 28.0089 21.7981 28.3832 21.343L35.6403 12.5237C36.0487 12.0274 36.7262 11.841 37.3319 12.0579ZM35.2939 20.7865H32.7886L35.2939 17.7425V20.7865ZM24.965 17.7775C25.2449 16.7518 25.0805 15.9879 24.4734 15.5076C23.7676 14.9496 22.5923 14.8507 21.797 15.2838C21.2245 15.5956 20.9824 16.1213 21.0556 16.8918C21.1369 17.7298 20.5232 18.4747 19.6853 18.5547C18.8468 18.636 18.1033 18.0213 18.0224 17.1843C17.8297 15.1818 18.6739 13.5131 20.3385 12.6064C22.2152 11.5857 24.6936 11.795 26.3649 13.1182C27.9491 14.3713 28.5108 16.363 27.9052 18.5803C27.4928 20.0912 26.0657 21.2038 24.5565 22.3827C23.9123 22.885 23.2275 23.4193 22.6066 23.9975H27.0349C27.8765 23.9975 28.5585 24.6804 28.5585 25.5215C28.5585 26.3635 27.8765 27.045 27.0349 27.045H19.5042C18.9794 27.045 18.4911 26.7754 18.2125 26.3307C17.9335 25.8863 17.9043 25.3288 18.133 24.8565C19.17 22.7202 21.1168 21.2006 22.6808 19.9799C23.6333 19.236 24.8189 18.3108 24.965 17.7775ZM48 20.0181C48 25.3194 45.9351 30.303 42.1866 34.0519C41.8886 34.3489 41.4991 34.4986 41.1087 34.4986C40.7192 34.4986 40.3283 34.3489 40.0313 34.0519C39.436 33.4566 39.436 32.4915 40.0313 31.8962C43.2038 28.7237 44.952 24.5048 44.952 20.0181C44.952 10.754 37.4159 3.21792 28.1518 3.21792C23.6647 3.21792 19.4462 4.9657 16.2733 8.1382C15.678 8.73351 14.7133 8.73351 14.118 8.1382C13.5227 7.54289 13.5227 6.5782 14.118 5.98289C17.867 2.23486 22.8505 0.169922 28.1518 0.169922C39.0958 0.170016 48 9.07374 48 20.0181Z" fill="#28E98C"/>
</g>
<defs>
<clipPath id="clip0_4125_918">
<rect width="48" height="48" fill="white"/>
</clipPath>
</defs>
</svg>
