<svg width="43" height="48" viewBox="0 0 43 48" fill="none" xmlns="http://www.w3.org/2000/svg">
<path d="M29.9375 13.9041C33.0572 14.2492 36.1961 14.3889 39.3341 14.3223L39.3256 14.3091C35.6401 8.69997 30.8711 3.88355 25.2988 0.142578C25.2066 3.29526 25.3231 6.45059 25.6475 9.58789C25.88 11.6616 27.8609 13.6566 29.9375 13.9041Z" fill="#28E98C"/>
<path d="M39.4063 16.8243C38.7819 16.8374 38.1584 16.8458 37.5397 16.843C34.9055 16.8328 32.2737 16.6829 29.6553 16.3939H29.6328C28.0728 16.2064 26.5391 15.4274 25.3203 14.1983C24.1016 12.9693 23.3309 11.4318 23.1556 9.86988V9.84738C22.8203 6.59104 22.7003 3.3161 22.7966 0.0439442C17.8748 -0.0934232 12.9492 0.0913464 8.05157 0.597069C4.77969 0.964569 1.6325 4.08926 1.24156 7.35832C0.35469 15.3749 0.301252 30.2811 1.12906 38.3033C1.49656 41.5752 4.625 44.7186 7.89032 45.1133C13.6625 45.752 19.4754 45.9447 25.2772 45.6899C25.2916 45.4084 25.3433 45.13 25.4309 44.8621L25.4356 44.8471L25.4413 44.8311C25.8772 43.5636 26.5297 41.9624 27.1991 40.5055C27.1756 40.4671 27.1503 40.4296 27.1278 40.3902C26.7161 39.6726 26.5095 38.8557 26.5306 38.0286C26.1052 37.3202 25.8819 36.5089 25.8848 35.6825C25.8878 34.8562 26.117 34.0465 26.5475 33.3411C26.5322 32.5137 26.7439 31.6978 27.1598 30.9823C27.5756 30.2668 28.1797 29.679 28.9063 29.2827C29.3016 28.5754 29.8784 27.9863 30.5773 27.5763C31.2762 27.1663 32.0719 26.9501 32.8822 26.9502H32.9759C33.6845 26.5252 34.4959 26.3022 35.3222 26.3053C36.1484 26.3085 36.9581 26.5376 37.6634 26.968H37.7572C38.3211 26.9705 38.8796 27.0789 39.4034 27.2877C39.4925 23.8311 39.4906 20.2105 39.4063 16.8243ZM10.31 17.7618H10.3156L23.4688 17.8124C23.8168 17.8124 24.1507 17.9507 24.3968 18.1968C24.643 18.4429 24.7813 18.7768 24.7813 19.1249C24.7813 19.473 24.643 19.8068 24.3968 20.053C24.1507 20.2991 23.8168 20.4374 23.4688 20.4374H23.4641L10.31 20.3896C9.96191 20.3896 9.62807 20.2513 9.38193 20.0051C9.13578 19.759 8.9975 19.4252 8.9975 19.0771C8.9975 18.729 9.13578 18.3951 9.38193 18.149C9.62807 17.9028 9.96191 17.7646 10.31 17.7646V17.7618ZM24.3247 33.0111L10.2622 32.9605C9.91409 32.9599 9.5805 32.821 9.3348 32.5744C9.0891 32.3278 8.95141 31.9938 8.95203 31.6457C8.95266 31.2976 9.09153 30.964 9.33811 30.7183C9.58469 30.4726 9.91878 30.3349 10.2669 30.3355L24.3294 30.3861C24.6775 30.3868 25.0111 30.5256 25.2568 30.7722C25.5025 31.0188 25.6402 31.3529 25.6395 31.701C25.6389 32.0491 25.5 32.3827 25.2535 32.6284C25.0069 32.8741 24.6728 33.0118 24.3247 33.0111ZM29.705 26.7439H29.6994L10.2847 26.6736C9.93659 26.6736 9.60275 26.5354 9.35661 26.2892C9.11047 26.0431 8.97219 25.7092 8.97219 25.3611C8.97219 25.013 9.11047 24.6792 9.35661 24.4331C9.60275 24.1869 9.93659 24.0486 10.2847 24.0486H10.2894L29.705 24.1189C30.0531 24.1196 30.3867 24.2584 30.6324 24.505C30.8781 24.7516 31.0158 25.0857 31.0152 25.4338C31.0145 25.7819 30.8757 26.1155 30.6291 26.3612C30.3825 26.6069 30.0484 26.7446 29.7003 26.7439H29.705Z" fill="#28E98C"/>
<path d="M41.75 34.6618C41.5079 34.3037 41.3942 33.8741 41.4275 33.4431C41.458 33.0604 41.3724 32.6774 41.1817 32.3442C40.991 32.011 40.7042 31.7431 40.3587 31.5756C39.9687 31.3867 39.6546 31.0706 39.4681 30.6793C39.3033 30.3326 39.0377 30.0437 38.706 29.8505C38.3743 29.6573 37.9919 29.5688 37.6091 29.5965C37.177 29.6282 36.747 29.5115 36.3903 29.2656C36.0742 29.0476 35.6997 28.9302 35.3158 28.9287C34.9319 28.9272 34.5565 29.0417 34.2387 29.2571C33.8809 29.4998 33.4511 29.6136 33.02 29.5796C32.6381 29.5497 32.2561 29.6355 31.9237 29.8258C31.5912 30.0161 31.3238 30.3021 31.1562 30.6465C30.9672 31.0366 30.6507 31.3504 30.2591 31.5362C29.9124 31.7012 29.6236 31.967 29.4305 32.2989C29.2375 32.6308 29.1492 33.0133 29.1772 33.3962C29.2082 33.8284 29.0911 34.2582 28.8453 34.615C28.6275 34.9311 28.5103 35.3057 28.5089 35.6896C28.5076 36.0735 28.6222 36.4489 28.8378 36.7665C29.0803 37.1245 29.194 37.5542 29.1603 37.9853C29.1296 38.368 29.2152 38.751 29.4059 39.0843C29.5966 39.4175 29.8835 39.6853 30.2291 39.8528C30.6189 40.0419 30.933 40.3579 31.1197 40.749C31.2844 41.0958 31.55 41.3848 31.8817 41.578C32.2135 41.7712 32.5958 41.8597 32.9787 41.8318C33.4109 41.8008 33.8407 41.9178 34.1975 42.1637C34.5137 42.3813 34.8883 42.4984 35.2721 42.4997C35.656 42.501 36.0313 42.3865 36.3491 42.1712C36.7068 41.9282 37.1367 41.8144 37.5678 41.8487C37.9504 41.8793 38.3333 41.7938 38.6665 41.6033C38.9997 41.4128 39.2676 41.1261 39.4353 40.7809C39.6237 40.3904 39.9399 40.0762 40.3316 39.8903C40.6782 39.7254 40.967 39.4597 41.1602 39.128C41.3534 38.7963 41.442 38.4141 41.4144 38.0312C41.3828 37.5991 41.4996 37.1692 41.7453 36.8125C41.9626 36.4962 42.0793 36.1216 42.0802 35.7379C42.081 35.3541 41.9659 34.9791 41.75 34.6618ZM38.9159 35.1493C38.5653 35.5815 38.2026 36.0287 37.8369 36.4853C37.7639 36.5756 37.7236 36.6879 37.7225 36.804C37.7225 37.3721 37.7078 37.94 37.6784 38.5075C37.6606 38.8543 37.3034 39.1309 36.9978 39.0296C36.4906 38.8637 35.9722 38.6809 35.4444 38.4859C35.3388 38.4466 35.2227 38.4466 35.1172 38.4859C34.5884 38.6734 34.0681 38.8562 33.56 39.0175C33.2497 39.1168 32.8991 38.8384 32.8831 38.4915C32.8606 37.9234 32.85 37.3553 32.8512 36.7871C32.8506 36.6711 32.8113 36.5587 32.7397 36.4675C32.3769 36.009 32.0169 35.559 31.67 35.124C31.4553 34.8578 31.6062 34.4678 31.9512 34.359C32.5137 34.1846 33.0762 34.0075 33.6322 33.8321C33.746 33.7976 33.845 33.726 33.9134 33.6287C34.2519 33.1459 34.5866 32.6593 34.9081 32.1756C34.9501 32.1073 35.0088 32.051 35.0787 32.0119C35.1486 31.9728 35.2274 31.9522 35.3075 31.9522C35.3876 31.9522 35.4664 31.9728 35.5363 32.0119C35.6062 32.051 35.6649 32.1073 35.7069 32.1756C36.0247 32.6612 36.3556 33.1506 36.6903 33.6362C36.7586 33.7341 36.8575 33.8063 36.9716 33.8415C37.5275 34.0206 38.0872 34.2015 38.6478 34.3796C38.9872 34.4931 39.1353 34.885 38.9187 35.1493H38.9159Z" fill="#28E98C"/>
<path d="M40.7506 41.1738C40.6945 41.2248 40.6484 41.2859 40.6147 41.3538C40.3494 41.8964 39.9375 42.3538 39.4257 42.6744C38.914 42.995 38.3227 43.1659 37.7187 43.1679C37.6334 43.1679 37.5472 43.1679 37.4628 43.1576H37.415C37.2959 43.1573 37.1794 43.1932 37.0812 43.2607C36.8109 43.4442 36.514 43.5852 36.2009 43.6788C36.7522 45.0682 37.4197 46.5635 37.9981 47.6838C38.2016 48.0645 38.8128 48.1226 38.9609 47.7513C39.2009 47.1729 39.4512 46.5448 39.7109 45.8979C39.7427 45.82 39.8041 45.758 39.8816 45.7253C39.9591 45.6926 40.0464 45.692 40.1244 45.7235C40.7675 45.9888 41.3928 46.2457 41.975 46.4735C42.3453 46.6263 42.725 46.1473 42.5966 45.7366C42.0591 44.1854 41.443 42.6625 40.7506 41.1738Z" fill="#28E98C"/>
<path d="M33.4513 43.246C33.3517 43.1776 33.2337 43.141 33.1128 43.141H33.0697C32.9928 43.1466 32.9141 43.1495 32.8363 43.1495C32.2283 43.148 31.6331 42.975 31.119 42.6505C30.6049 42.326 30.1928 41.863 29.93 41.3148C29.8976 41.2466 29.852 41.1854 29.796 41.1348C29.0942 42.6179 28.4684 44.1358 27.921 45.6826C27.786 46.0923 28.1666 46.5741 28.5378 46.4251C29.121 46.1991 29.7481 45.946 30.3941 45.6854C30.4328 45.67 30.4742 45.6625 30.5158 45.6631C30.5575 45.6637 30.5986 45.6726 30.6368 45.6891C30.675 45.7057 30.7096 45.7296 30.7386 45.7595C30.7675 45.7894 30.7903 45.8248 30.8056 45.8635C31.0588 46.5123 31.3044 47.1423 31.5406 47.7216C31.686 48.0966 32.2981 48.0404 32.5035 47.6616C33.0903 46.5451 33.7681 45.0554 34.3297 43.6707C34.0169 43.5748 33.7207 43.4316 33.4513 43.246Z" fill="#28E98C"/>
</svg>
