<svg width="48" height="48" viewBox="0 0 48 48" fill="none" xmlns="http://www.w3.org/2000/svg">
<g id="legal 2">
<path id="Vector" fill-rule="evenodd" clip-rule="evenodd" d="M7.05295 6.91347C7.13158 6.63939 7.38415 6.43885 7.68348 6.43885H21.0297C21.0554 6.43885 21.0776 6.42896 21.0948 6.40985L24.0572 3.10938L24.0527 3.13241C24.0474 3.16006 24.0544 3.18617 24.0731 3.20729L26.9122 6.40957C26.9294 6.42896 26.9517 6.43904 26.9777 6.43904H40.3162C40.6155 6.43904 40.868 6.63958 40.9467 6.91357C40.9471 6.91472 40.9474 6.91577 40.9478 6.91693L45.5524 20.8117C45.5526 20.8123 45.5528 20.8127 45.553 20.8133C45.6019 20.9518 45.6046 21.047 45.5793 21.1873C45.5791 21.1886 45.5789 21.1895 45.5787 21.1908C45.3993 22.4831 44.7576 23.6257 43.8269 24.4451C41.8197 26.2121 38.8126 26.2121 36.8055 24.4451C35.8736 23.6248 35.2315 22.4804 35.0531 21.1863C35.0529 21.1851 35.0528 21.1841 35.0526 21.1829C35.03 21.0558 35.0301 20.9623 35.074 20.8298L39.3703 7.8656C39.3794 7.83805 39.3752 7.8104 39.3582 7.78688C39.3412 7.76336 39.3163 7.75059 39.2874 7.75059H27.6897C27.664 7.75059 27.6418 7.76048 27.6246 7.77968C27.6074 7.79888 27.6 7.82201 27.6028 7.84755L30.4053 33.2791C30.4096 33.3179 30.389 33.3534 30.3532 33.3689C29.5308 33.7256 28.6729 34.0584 27.8023 34.2427C27.7576 34.2522 27.7133 34.2258 27.7003 34.182C27.3834 33.1122 26.5514 32.2149 25.4145 31.8721L24.7178 31.6621C24.6805 31.6508 24.6558 31.6178 24.6556 31.5787L24.5492 7.06112C24.5492 7.05718 24.549 7.05392 24.5485 7.05008L24.1095 3.72646C24.1038 3.68365 24.0687 3.65187 24.0256 3.65053C23.9824 3.64918 23.9453 3.67865 23.937 3.72109L23.2964 6.98153C23.2953 6.98739 23.2948 6.99258 23.2948 6.99853L23.3437 31.13C23.3438 31.1587 23.3314 31.1833 23.3084 31.2003C23.2855 31.2174 23.2583 31.2221 23.231 31.2139L18.5514 29.803C18.3903 29.7545 18.2298 29.7124 18.0698 29.6769C18.026 29.6672 17.997 29.6265 18.0018 29.5819L20.397 7.84745C20.3997 7.82182 20.3923 7.79869 20.3752 7.77958C20.358 7.76038 20.3358 7.75049 20.3101 7.75049H8.7125C8.68351 7.75049 8.65865 7.76326 8.64166 7.78678C8.62466 7.8103 8.62044 7.83795 8.62956 7.8655L12.92 20.812C12.9202 20.8125 12.9204 20.813 12.9206 20.8136C12.9694 20.9518 12.9719 21.0471 12.9467 21.1871C12.9465 21.1884 12.9463 21.1893 12.9461 21.1906C12.7668 22.4829 12.125 23.6255 11.1943 24.4449C9.18713 26.2119 6.18012 26.2119 4.17286 24.4449C3.24098 23.6246 2.59894 22.4804 2.42047 21.1864C2.42028 21.1852 2.42018 21.1842 2.41999 21.183C2.39743 21.0558 2.39743 20.9623 2.4414 20.8296L7.05199 6.91693C7.05238 6.91568 7.05266 6.91472 7.05295 6.91347ZM27.7659 35.5901C27.7401 35.5947 27.7197 35.6088 27.7063 35.6313C27.6929 35.6538 27.6901 35.6784 27.6982 35.7033C27.7442 35.8438 27.7381 35.9892 27.6878 36.1345C27.6875 36.1352 27.6874 36.1358 27.6871 36.1364C27.465 36.831 26.9979 37.3514 26.408 37.668C25.7974 37.9958 25.0559 38.1006 24.3273 37.9474C22.9922 37.6667 21.1529 37.1849 19.972 37.0724C19.4922 37.0267 19.0395 37.0442 18.5525 37.1138C18.1945 37.1648 17.863 36.9159 17.8121 36.5579C17.7611 36.1999 18.01 35.8684 18.368 35.8174C18.6514 35.7767 18.9396 35.7516 19.2341 35.7429C20.7796 35.698 22.9466 36.3201 24.5936 36.6663C25.0196 36.7558 25.4451 36.6989 25.7878 36.515C26.087 36.3545 26.3235 36.0933 26.4364 35.7463C26.4368 35.7453 26.437 35.7444 26.4374 35.7433C26.7609 34.6127 26.1338 33.4632 25.0346 33.1318L18.1716 31.0627C15.1516 30.1523 13.2546 32.3342 10.5284 33.0771C8.65068 33.5888 6.76102 33.9664 4.78217 34.4864C4.74319 34.4967 4.71698 34.5307 4.71698 34.571V43.4271C4.71698 43.4512 4.72562 43.472 4.74271 43.4891C4.7598 43.5061 4.78063 43.5147 4.80482 43.5145C8.91094 43.4945 13.2401 43.3092 17.2719 43.8904C19.5473 44.2184 21.7956 45.0498 24.0676 44.8647C26.9314 44.6314 29.9635 42.8027 32.3318 41.2673C35.7865 39.0275 39.9994 35.4398 43.0374 32.5615C43.7694 31.868 43.8396 30.7316 43.1986 29.9533L43.1097 29.8454C42.5141 29.1222 41.5073 28.9343 40.691 29.3941C36.7761 31.5994 32.1114 34.252 29.2012 35.2246C28.7398 35.3791 28.2617 35.5013 27.7659 35.5901ZM4.08962 20.3885H11.2774C11.3064 20.3885 11.3313 20.3757 11.3483 20.3522C11.3653 20.3287 11.3695 20.3011 11.3604 20.2735L7.76652 9.42886C7.75442 9.39248 7.72188 9.36896 7.68348 9.36896C7.64518 9.36896 7.61254 9.39248 7.60044 9.42886L4.00668 20.2736C3.99756 20.3011 4.00178 20.3288 4.01878 20.3523C4.03577 20.3757 4.06063 20.3885 4.08962 20.3885ZM36.7223 20.3885H43.9101C43.9391 20.3885 43.964 20.3757 43.981 20.3522C43.998 20.3287 44.0022 20.3011 43.9931 20.2735L40.3992 9.42886C40.3871 9.39248 40.3546 9.36896 40.3162 9.36896C40.2779 9.36896 40.2452 9.39248 40.2331 9.42886L36.6394 20.2736C36.6303 20.3011 36.6345 20.3288 36.6515 20.3523C36.6685 20.3757 36.6933 20.3885 36.7223 20.3885Z" fill="#28E98C"/>
</g>
</svg>
