<svg width="24" height="24" viewBox="0 0 24 24" fill="none" xmlns="http://www.w3.org/2000/svg">
<g id="diploma 1">
<path id="Vector" d="M9.35699 16.621C8.90324 16.34 8.30149 16.2365 7.99849 15.596C7.70249 14.9535 8.01099 14.4213 8.08674 13.8965C7.91774 13.3375 7.53249 12.619 7.97724 11.9593C7.65874 11.5745 7.34924 11.1808 7.05399 10.7793C5.08324 12.5218 2.48199 14.5143 1.63249 15.1568C1.09824 15.5468 1.17099 16.262 1.18249 16.8543C1.37374 19.3173 2.47874 21.4563 4.82924 22.996C4.91374 22.996 4.99549 22.9518 5.04024 22.88C6.26499 20.9515 7.92174 18.9533 9.64399 17.0963C9.55799 16.9583 9.44274 16.7163 9.35699 16.6205V16.621Z" fill="#1C1D20"/>
<path id="Vector_2" d="M10.0895 17.6484C10.05 17.6152 10.0128 17.5807 9.97751 17.5449C8.52801 19.1399 7.14576 20.8274 6.05151 22.4809C6.49126 22.5784 6.93926 22.6302 7.38976 22.6302C7.89476 22.6579 8.44251 22.5464 8.69976 22.0552C9.10901 21.3232 9.54551 20.6069 10.007 19.9077L10.0893 17.6484H10.0895Z" fill="#1C1D20"/>
<path id="Vector_3" d="M12.5406 17.7279C12.4149 17.6929 12.2589 17.6494 12.1859 17.6494C11.7224 17.7772 11.1276 18.1029 10.5804 17.9074L10.4826 20.5879C10.4791 20.6802 10.5269 20.7667 10.6064 20.8129C10.6861 20.8594 10.7846 20.8587 10.8634 20.8099L11.8024 20.2322L12.6966 20.8767C12.7719 20.9307 12.8699 20.9389 12.9526 20.8984C13.0354 20.8579 13.0894 20.7749 13.0926 20.6829L13.1956 17.8557C12.9551 17.8407 12.7276 17.7802 12.5406 17.7279Z" fill="#1C1D20"/>
<path id="Vector_4" d="M8.82699 11.2512C8.92324 11.1977 9.07899 11.1109 9.11524 11.0714C9.34699 10.7039 9.45249 10.2154 9.87324 9.8832C9.63149 9.6317 9.38749 9.38095 9.14874 9.1287C9.05649 9.02795 8.88449 9.02345 8.79024 9.1237L7.59824 10.3157C7.51049 10.4034 7.50024 10.5422 7.57424 10.6417C7.81174 10.9612 8.06024 11.2737 8.31324 11.5824C8.48449 11.4424 8.66924 11.3387 8.82649 11.2512H8.82699Z" fill="#1C1D20"/>
<path id="Vector_5" d="M18.1881 17.3274L16.0553 15.4746C15.7623 15.9641 15.2751 16.1154 14.9066 16.3796C14.7093 16.6846 14.6071 17.1031 14.3096 17.4181L16.4748 19.2991C16.5213 19.3394 16.5796 19.3604 16.6388 19.3604C16.7616 19.3621 16.8731 19.2646 16.8868 19.1421L17.0268 18.0484L18.0901 17.7569C18.2783 17.7119 18.3378 17.4494 18.1881 17.3274Z" fill="#1C1D20"/>
<path id="Vector_6" d="M15.5735 14.0557C15.1743 13.3715 15.863 12.7597 15.57 12.0657C15.3475 11.5732 14.688 11.497 14.3265 11.1982C14.0028 10.8585 13.8738 10.2147 13.3538 10.0352C12.8413 9.83924 12.3273 10.248 11.861 10.3007C11.7168 10.3072 11.5358 10.257 11.3458 10.204C10.5295 9.92774 10.0535 10.1452 9.74026 10.9527C9.58651 11.3367 9.44201 11.5055 9.06901 11.6882C8.27876 12.0707 8.08626 12.5912 8.44776 13.395C8.51551 13.572 8.57976 13.7392 8.58576 13.8747C8.59201 14.021 8.54201 14.2002 8.48901 14.39C8.21226 15.207 8.43076 15.682 9.23776 15.9955C9.62176 16.149 9.79076 16.2935 9.97326 16.6665C10.3555 17.4545 10.872 17.6505 11.68 17.2877C12.0595 17.1187 12.2818 17.1185 12.6745 17.2465C13.491 17.523 13.967 17.3052 14.2805 16.4977C14.4343 16.1137 14.5785 15.945 14.9515 15.7622C15.7415 15.38 15.9343 14.8592 15.5728 14.0555L15.5735 14.0557ZM13.1158 14.8302C12.5055 15.4405 11.5163 15.4405 10.906 14.8302C9.49401 13.3172 11.6033 11.2087 13.1158 12.6207C13.726 13.231 13.726 14.2202 13.1158 14.8302Z" fill="#1C1D20"/>
<path id="Vector_7" d="M22.62 6.14507C22 4.16507 19.6638 1.83157 17.685 1.21007C16.4493 0.821073 15.4945 0.945572 14.9868 1.83182C13.289 4.21832 11.3908 6.49857 9.33026 8.59332C9.66051 8.94432 10 9.29557 10.3355 9.64282C10.8268 9.47657 11.3903 9.72932 11.8358 9.80132C12.3215 9.66057 12.9623 9.32807 13.5253 9.56557C14.1963 9.81507 14.3565 10.3961 14.665 10.8298C14.9235 11.0018 15.291 11.1003 15.5765 11.3233C17.076 9.98807 18.1005 9.15557 18.1305 9.13132C18.1885 9.08432 18.2228 9.01332 18.2233 8.93857C18.2238 8.86382 18.1905 8.79232 18.133 8.74457C17.1883 7.96157 16.1923 6.99782 15.6695 5.32107C16.4503 6.51357 17.5683 7.61707 18.6525 8.55307C18.7665 8.64832 18.8318 8.78807 18.8313 8.93682C18.8313 9.08582 18.7648 9.22557 18.65 9.32057C18.2028 9.69007 17.2033 10.5291 15.9238 11.6791C16.2 12.0643 16.1768 12.5981 16.0748 12.9643C17.776 11.4683 19.6175 10.1543 21.5875 9.02507C22.8025 8.61357 23.0795 7.57207 22.62 6.14507ZM18.0783 6.03382C17.7638 5.58957 17.4648 5.07957 17.471 4.52107C17.48 3.95782 17.8475 3.57757 18.3965 3.79707C18.8863 3.96807 19.341 4.44457 19.4343 4.86182L18.1093 6.07432C18.0993 6.06082 18.0878 6.04707 18.078 6.03382H18.0783ZM15.4475 3.73007C15.3875 3.55257 15.34 3.36757 15.31 3.18257C15.045 1.74557 16.0668 1.17757 17.5275 1.68507C18.4475 1.99257 19.4375 2.64257 20.3125 3.52007C21.428 4.68607 22.2448 5.87282 22.325 7.29257C22.314 8.06757 21.9573 8.54932 21.189 8.32657C20.1053 8.02307 19.178 7.27982 18.4253 6.46307L19.869 5.14182C19.9248 5.09082 19.9543 5.01732 19.9495 4.94182C19.8755 3.85532 18.2293 2.67682 17.3473 3.53632C17.3393 3.54232 17.3298 3.54557 17.3225 3.55257L16.2725 4.60507C17.1868 6.08507 18.3925 7.36582 19.8415 8.28432C17.9578 7.52132 16.142 5.68757 15.4475 3.73007Z" fill="#1C1D20"/>
</g>
</svg>
