<svg width="24" height="24" viewBox="0 0 24 24" fill="none" xmlns="http://www.w3.org/2000/svg">
<g id="stamp 1" clip-path="url(#clip0_4125_994)">
<path id="Vector" d="M2.85938 21.8906V23.2969C2.85938 23.685 3.17437 24 3.5625 24H20.4375C20.8256 24 21.1406 23.685 21.1406 23.2969V21.8906H2.85938Z" fill="#1C1D20"/>
<path id="Vector_2" d="M15.5831 8.29594C16.664 7.14844 17.1225 5.58891 16.8403 4.01672C16.4325 1.74141 14.4037 0 12 0C9.56857 0 7.56185 1.77047 7.15966 4.01672C6.87747 5.58891 7.33591 7.14844 8.41685 8.29594C9.14857 9.07312 9.4195 10.0673 9.51794 10.7644C9.72466 12.2302 9.28028 13.3378 8.72294 14.1562H15.2779C14.7201 13.3378 14.2758 12.2292 14.482 10.7644C14.5804 10.0673 14.8514 9.07312 15.5831 8.29594Z" fill="#1C1D20"/>
<path id="Vector_3" d="M21.8438 20.4844H2.15625C1.76794 20.4844 1.45312 20.1696 1.45312 19.7812V19.0781C1.45312 17.1396 3.03023 15.5625 4.96875 15.5625H19.0312C20.9698 15.5625 22.5469 17.1396 22.5469 19.0781V19.7812C22.5469 20.1696 22.2321 20.4844 21.8438 20.4844Z" fill="#1C1D20"/>
</g>
<defs>
<clipPath id="clip0_4125_994">
<rect width="24" height="24" fill="white"/>
</clipPath>
</defs>
</svg>
