<svg width="41" height="40" viewBox="0 0 41 40" fill="none" xmlns="http://www.w3.org/2000/svg">
<g id="corporate-laws 1">
<path id="Vector" d="M2.58867 16.3337C2.558 16.327 2.53 16.3137 2.5 16.3057V27.3337C2.5 27.6873 2.64048 28.0264 2.89052 28.2765C3.14057 28.5265 3.47971 28.667 3.83333 28.667H18.5253C18.5781 28.2137 18.7814 27.7911 19.1027 27.467C19.4104 27.1732 19.7999 26.9796 20.2199 26.9115C20.6398 26.8434 21.0706 26.9042 21.4553 27.0857L27.5887 20.9557C27.3995 20.5713 27.335 20.1374 27.4042 19.7146C27.4734 19.2917 27.6728 18.9011 27.9747 18.597C28.3087 18.2838 28.7349 18.0868 29.1899 18.0353C29.6449 17.9837 30.1044 18.0804 30.5 18.311V16.3057C30.47 16.313 30.4427 16.3263 30.412 16.333L20.5 18.5337V20.667C20.5 21.1974 20.2893 21.7061 19.9142 22.0812C19.5391 22.4563 19.0304 22.667 18.5 22.667H14.5C13.9696 22.667 13.4609 22.4563 13.0858 22.0812C12.7107 21.7061 12.5 21.1974 12.5 20.667V18.5337L2.58867 16.3337Z" fill="#28E98C"/>
<path id="Vector_2" d="M18.4999 21.3337C18.6767 21.3337 18.8463 21.2634 18.9713 21.1384C19.0963 21.0134 19.1666 20.8438 19.1666 20.667V18.667H13.8333V20.667C13.8333 20.8438 13.9035 21.0134 14.0285 21.1384C14.1535 21.2634 14.3231 21.3337 14.4999 21.3337H18.4999Z" fill="#28E98C"/>
<path id="Vector_3" d="M23.8334 5.33301V2.66634C23.8334 2.31272 23.6929 1.97358 23.4429 1.72353C23.1928 1.47348 22.8537 1.33301 22.5001 1.33301H10.5001C10.1465 1.33301 9.80732 1.47348 9.55727 1.72353C9.30722 1.97358 9.16675 2.31272 9.16675 2.66634V5.33301H10.5001V3.99967C10.5001 3.64605 10.6406 3.30691 10.8906 3.05687C11.1407 2.80682 11.4798 2.66634 11.8334 2.66634H21.1667C21.5204 2.66634 21.8595 2.80682 22.1096 3.05687C22.3596 3.30691 22.5001 3.64605 22.5001 3.99967V5.33301H23.8334Z" fill="#28E98C"/>
<path id="Vector_4" d="M33.3667 30.8545L31.3533 32.8678L36.734 38.2498C37.0023 38.511 37.3626 38.6561 37.737 38.6536C38.1115 38.6511 38.4698 38.5012 38.7345 38.2364C38.9993 37.9716 39.149 37.6131 39.1514 37.2387C39.1538 36.8643 39.0086 36.504 38.7473 36.2358L33.3667 30.8545Z" fill="#28E98C"/>
<path id="Vector_5" d="M29.4254 19.3331C29.3307 19.3323 29.2368 19.3503 29.1491 19.3861C29.0615 19.4219 28.9818 19.4748 28.9148 19.5418C28.7783 19.6783 28.7017 19.8634 28.7017 20.0564C28.7017 20.2494 28.7783 20.4346 28.9148 20.5711L35.8114 27.4664C35.95 27.5984 36.1341 27.672 36.3254 27.672C36.5168 27.672 36.7009 27.5984 36.8394 27.4664C36.9759 27.3299 37.0526 27.1448 37.0526 26.9518C37.0526 26.7587 36.9759 26.5736 36.8394 26.4371L29.9428 19.5418C29.8748 19.4743 29.794 19.4211 29.7052 19.3852C29.6163 19.3494 29.5212 19.3317 29.4254 19.3331Z" fill="#28E98C"/>
<path id="Vector_6" d="M27.9713 36.3402C28.1078 36.2037 28.1845 36.0186 28.1845 35.8255C28.1845 35.6325 28.1078 35.4474 27.9713 35.3109L21.074 28.4122C20.9396 28.2773 20.7572 28.201 20.5667 28.2002C20.4231 28.2016 20.2831 28.245 20.164 28.3253C20.0449 28.4055 19.9519 28.5189 19.8967 28.6514C19.8415 28.784 19.8264 28.9298 19.8533 29.0708C19.8802 29.2119 19.9479 29.3419 20.048 29.4449L26.9427 36.3402C27.0792 36.4763 27.2642 36.5527 27.457 36.5527C27.6498 36.5527 27.8348 36.4763 27.9713 36.3402Z" fill="#28E98C"/>
<path id="Vector_7" d="M31.42 24.9637L28.4427 21.9863L22.488 27.941L25.4654 30.919L28.4427 33.897L34.3974 27.941L31.42 24.9637Z" fill="#28E98C"/>
<path id="Vector_8" d="M2.87793 15.031L13.2393 17.3337H19.7606L30.1226 15.031C30.4193 14.9664 30.6849 14.802 30.8749 14.5651C31.0649 14.3282 31.1679 14.0333 31.1666 13.7297V8.00033C31.1666 7.6467 31.0261 7.30757 30.7761 7.05752C30.526 6.80747 30.1869 6.66699 29.8333 6.66699H3.1666C2.81297 6.66699 2.47384 6.80747 2.22379 7.05752C1.97374 7.30757 1.83326 7.6467 1.83326 8.00033V13.7297C1.832 14.0334 1.93506 14.3284 2.12522 14.5653C2.31537 14.8021 2.58109 14.9665 2.87793 15.031Z" fill="#28E98C"/>
</g>
</svg>
