<svg width="64" height="64" viewBox="0 0 64 64" fill="none" xmlns="http://www.w3.org/2000/svg">
<path d="M0.07375 29.8493C6.27725 44.1003 22.0182 46.4901 40.805 34.4108C49.47 42.4305 51.6287 51.9383 44.3985 61.5088C40.5852 63.1128 36.3965 63.9998 32 63.9998C14.327 63.9998 0 49.673 0 31.9998C0 31.2771 0.0265 30.5603 0.07375 29.8493ZM29.3384 23.6632C32.1396 11.9894 39.9619 5.2934 52.2579 7.2289C59.4254 13.0974 64.0001 22.0139 64.0001 31.9999C64.0001 44.5987 56.7184 55.4946 46.1351 60.7141C55.7491 47.0182 47.8926 32.5681 29.3384 23.6632ZM32.0001 0C38.8589 0 45.2129 2.15875 50.4219 5.8325C32.9342 3.7995 24.6759 18.3763 25.8294 38.506C14.4664 41.9912 5.2094 39.4232 0.3174 27.4942C2.50765 11.9547 15.8566 0 32.0001 0Z" fill="#666666"/>
</svg>
