<svg width="40" height="32" viewBox="0 0 40 32" fill="none" xmlns="http://www.w3.org/2000/svg">
<path fill-rule="evenodd" clip-rule="evenodd" d="M5.37422 17.1152V31.2238H21.5969V29.2215C21.5969 28.673 22.0461 28.2246 22.5938 28.2246H28.0906C28.6391 28.2246 29.0859 28.6738 29.0859 29.2215V31.2238H34.6234V17.1145L20.0031 13.1941L5.37422 17.1152ZM26.4992 22.6355L22.0617 24.809C21.893 24.0652 21.6555 23.3121 21.3242 22.5457L9.99766 28.0949C9.68828 28.2449 9.31641 28.1168 9.16641 27.8098C9.01641 27.5004 9.14219 27.1285 9.45156 26.9785L20.7789 21.4285C20.4 20.7379 19.9367 20.0348 19.3703 19.3168L23.8078 17.1434C24.2773 19.1449 25.2352 20.9535 26.4992 22.6355ZM39.9609 15.8059H35.2648L20.7148 11.9051L20.7133 0.776953L39.9609 15.8059ZM19.2891 11.9051L4.73516 15.8059H0.0390625L19.2875 0.775391L19.2891 11.9051Z" fill="#28E98C"/>
</svg>
