<svg width="41" height="40" viewBox="0 0 41 40" fill="none" xmlns="http://www.w3.org/2000/svg">
<g id="international-law 1" clip-path="url(#clip0_4125_961)">
<g id="Layer_x0020_1">
<g id="_362160656">
<path id="_362161616" fill-rule="evenodd" clip-rule="evenodd" d="M34.5143 32.0841V0H11.4554V32.0841H34.5143ZM22.9838 6.94749C28.0066 6.94749 32.0783 11.0193 32.0783 16.0421C32.0783 21.0648 28.0066 25.1367 22.9838 25.1367C17.961 25.1367 13.8892 21.0648 13.8892 16.0421C13.8892 11.0193 17.961 6.94749 22.9838 6.94749Z" fill="#28E98C"/>
<path id="_362161256" fill-rule="evenodd" clip-rule="evenodd" d="M10.7411 0H9.72462C7.94318 0 6.48572 1.45747 6.48572 3.23891V33.0676C7.01371 32.4656 7.78779 32.0841 8.6477 32.0841H10.7411V0Z" fill="#28E98C"/>
<path id="_362161160" fill-rule="evenodd" clip-rule="evenodd" d="M15.5925 37.1223V35.3174H12.5573V37.1223V40L13.3161 38.9048L14.0749 37.8095L14.8337 38.9048L15.5925 40V37.1223Z" fill="#28E98C"/>
<path id="_362161640" fill-rule="evenodd" clip-rule="evenodd" d="M34.5143 32.7988H11.0982H8.6477C7.45865 32.7988 6.48572 33.7717 6.48572 34.9608C6.48572 36.1498 7.45856 37.1228 8.6477 37.1228H11.843V35.3179H9.68273V34.6036H29.1553V35.3179H16.3068V37.1228H34.5143C33.3252 37.1228 32.3523 36.1498 32.3523 34.9608C32.3523 33.7717 33.3252 32.7988 34.5143 32.7988Z" fill="#28E98C"/>
<g id="Group">
<path id="_362161016" d="M22.9837 5.83594C24.7457 5.83594 26.3266 7.00486 27.458 8.89482C28.557 10.7304 29.2368 13.258 29.2368 16.0424C29.2368 18.8265 28.557 21.3542 27.458 23.1899C26.3266 25.0798 24.7457 26.2488 22.9837 26.2488C21.2216 26.2488 19.6407 25.0798 18.5093 23.1899C17.4102 21.3542 16.7305 18.8265 16.7305 16.0424C16.7305 13.2581 17.4102 10.7305 18.5092 8.89482C19.6408 7.00486 21.2216 5.83594 22.9837 5.83594ZM26.8497 9.25865C25.8466 7.58333 24.4787 6.54709 22.9837 6.54709C21.4885 6.54709 20.1206 7.58333 19.1176 9.25865C18.0821 10.9882 17.4416 13.3863 17.4416 16.0424C17.4416 18.6985 18.0821 21.0964 19.1176 22.826C20.1206 24.5014 21.4885 25.5376 22.9837 25.5376C24.4787 25.5376 25.8466 24.5014 26.8497 22.826C27.8852 21.0964 28.5256 18.6985 28.5256 16.0424C28.5256 13.3862 27.8851 10.9882 26.8497 9.25865Z" fill="#28E98C"/>
<path id="_362160992" d="M22.9836 5.83594C23.6436 5.83594 24.1796 7.05211 24.5123 9.01846C24.8174 10.8214 25.0061 13.3051 25.0061 16.0424C25.0061 18.7795 24.8174 21.2633 24.5123 23.0662C24.1796 25.0325 23.6436 26.2488 22.9836 26.2488C22.3235 26.2488 21.7876 25.0325 21.4549 23.0662C21.1498 21.2633 20.9611 18.7795 20.9611 16.0424C20.9611 13.3051 21.1498 10.8214 21.4549 9.01846C21.7876 7.05211 22.3235 5.83594 22.9836 5.83594ZM23.8123 9.1351C23.5418 7.53608 23.2441 6.54709 22.9836 6.54709C22.7231 6.54709 22.4254 7.53608 22.1549 9.1351C21.8567 10.8973 21.6722 13.3391 21.6722 16.0424C21.6722 18.7456 21.8567 21.1873 22.1549 22.9496C22.4254 24.5485 22.7231 25.5376 22.9836 25.5376C23.2441 25.5376 23.5418 24.5485 23.8123 22.9496C24.1105 21.1873 24.295 18.7456 24.295 16.0424C24.295 13.3391 24.1105 10.8973 23.8123 9.1351Z" fill="#28E98C"/>
<path id="_362160200" d="M33.19 16.0536C33.1488 17.3016 31.9283 18.4014 29.9885 19.1706C28.1411 19.9032 25.6169 20.3564 22.854 20.3564C22.5996 20.3564 22.323 20.3514 22.0259 20.3416C19.4758 20.2574 17.2034 19.7864 15.5649 19.0739C13.832 18.3204 12.7772 17.2769 12.7772 16.0961C12.7772 16.0942 12.778 16.0771 12.7795 16.0313C12.8207 14.7833 14.0412 13.6835 15.9809 12.9143C17.8284 12.1817 20.3525 11.7285 23.1155 11.7285C23.3697 11.7285 23.6462 11.7336 23.9432 11.7434C26.4935 11.8275 28.7659 12.2985 30.4045 13.011C32.1375 13.7646 33.1923 14.8082 33.1923 15.9889C33.1923 15.9908 33.1914 16.0078 33.19 16.0536ZM29.7275 18.5123C31.4004 17.849 32.4507 16.9695 32.4816 16.0313C32.4819 16.0214 32.4811 16.0265 32.4811 15.9889C32.4811 15.1184 31.5882 14.2989 30.1212 13.661C28.5598 12.9821 26.38 12.5329 23.921 12.4517C23.6798 12.4437 23.4115 12.4397 23.1155 12.4397C20.4379 12.4397 18.0072 12.8726 16.242 13.5727C14.5691 14.2361 13.5188 15.1155 13.4878 16.0536C13.4875 16.0635 13.4884 16.0585 13.4884 16.0961C13.4884 16.9665 14.3812 17.786 15.8482 18.4239C17.4095 19.1029 19.5893 19.5521 22.0482 19.6333C22.2895 19.6412 22.558 19.6453 22.854 19.6453C25.5316 19.6453 27.9623 19.2123 29.7275 18.5123Z" fill="#28E98C"/>
</g>
</g>
</g>
</g>
<defs>
<clipPath id="clip0_4125_961">
<rect width="40" height="40" fill="white" transform="translate(0.5)"/>
</clipPath>
</defs>
</svg>
