<svg width="24" height="24" viewBox="0 0 24 24" fill="none" xmlns="http://www.w3.org/2000/svg">
<g id="Icon" clip-path="url(#clip0_4163_1615)">
<path id="Vector" d="M9.04594 12.7959L2.29594 19.5459C2.08459 19.7572 1.79795 19.8759 1.49906 19.8759C1.20018 19.8759 0.913532 19.7572 0.702188 19.5459C0.490844 19.3345 0.372112 19.0479 0.372112 18.749C0.372111 18.4501 0.490844 18.1635 0.702188 17.9521L5.53125 13.1249H-8.25C-8.54837 13.1249 -8.83452 13.0064 -9.0455 12.7954C-9.25647 12.5844 -9.375 12.2983 -9.375 11.9999C-9.375 11.7016 -9.25647 11.4154 -9.0455 11.2044C-8.83452 10.9934 -8.54837 10.8749 -8.25 10.8749H5.53125L0.704062 6.04492C0.492718 5.83358 0.373985 5.54693 0.373985 5.24804C0.373986 4.94916 0.492718 4.66251 0.704062 4.45117C0.915406 4.23983 1.20205 4.12109 1.50094 4.12109C1.79982 4.12109 2.08647 4.23983 2.29781 4.45117L9.04781 11.2012C9.15271 11.3058 9.2359 11.4302 9.2926 11.5671C9.34931 11.704 9.37841 11.8507 9.37823 11.9989C9.37806 12.1471 9.34861 12.2938 9.29159 12.4305C9.23456 12.5673 9.15108 12.6914 9.04594 12.7959Z" fill="#1C1D20"/>
</g>
<defs>
<clipPath id="clip0_4163_1615">
<rect width="24" height="24" fill="white"/>
</clipPath>
</defs>
</svg>
