<svg width="24" height="33" viewBox="0 0 24 33" fill="none" xmlns="http://www.w3.org/2000/svg">
<path d="M21.5 3.05C21.5 1.64375 20.3563 0.5 18.95 0.5H5.05C3.64375 0.5 2.5 1.64375 2.5 3.05V3.99688H21.5V3.05Z" fill="#28E98C"/>
<path d="M2.5 5.87207H21.5V7.7502H2.5V5.87207Z" fill="#28E98C"/>
<path d="M2.5 29.95C2.5 31.3563 3.64375 32.5 5.05 32.5H18.95C20.3563 32.5 21.5 31.3563 21.5 29.95V26.5H2.5V29.95ZM10.4062 28.125H13.5938C14.1112 28.125 14.5312 28.545 14.5312 29.0625C14.5312 29.58 14.1112 30 13.5938 30H10.4062C9.88875 30 9.46875 29.58 9.46875 29.0625C9.46875 28.545 9.88875 28.125 10.4062 28.125Z" fill="#28E98C"/>
<path d="M22.9375 9.625H1.0625C0.545 9.625 0.125 10.045 0.125 10.5625V23.6875C0.125 24.205 0.545 24.625 1.0625 24.625H22.9375C23.455 24.625 23.875 24.205 23.875 23.6875V10.5625C23.875 10.045 23.455 9.625 22.9375 9.625ZM8.60063 18.4312C8.96688 18.7969 8.96688 19.3906 8.60063 19.7569C8.4175 19.94 8.1775 20.0312 7.9375 20.0312C7.6975 20.0312 7.4575 19.94 7.27437 19.7569L5.30562 17.7881C4.94 17.4219 4.94 16.8281 5.30562 16.4625L7.27437 14.4937C7.64062 14.1275 8.23438 14.1275 8.60063 14.4937C8.96688 14.8594 8.96688 15.4531 8.60063 15.8194L7.29438 17.125L8.60063 18.4312ZM13.7856 13.9213L12.0312 20.7925C11.9108 21.2893 11.3787 21.6007 10.8906 21.4688C10.3894 21.3406 10.0862 20.83 10.2144 20.3288L11.9688 13.4575C12.0921 12.9638 12.6062 12.6499 13.1094 12.7812C13.6106 12.9094 13.9138 13.42 13.7856 13.9213ZM18.6944 17.7881L16.7256 19.7569C16.5425 19.94 16.3025 20.0312 16.0625 20.0312C15.8225 20.0312 15.5825 19.94 15.3994 19.7569C15.0338 19.3906 15.0338 18.7969 15.3994 18.4306L16.7056 17.125L15.3994 15.8194C15.0338 15.4531 15.0338 14.8594 15.3994 14.4931C15.7656 14.1275 16.3594 14.1275 16.7256 14.4931L18.6944 16.4619C19.06 16.8281 19.06 17.4219 18.6944 17.7881Z" fill="#28E98C"/>
</svg>
