<svg width="29" height="30" viewBox="0 0 29 30" fill="none" xmlns="http://www.w3.org/2000/svg">
<path fill-rule="evenodd" clip-rule="evenodd" d="M8.40216 17.0357H7.38882C7.12011 17.0376 6.86239 17.1426 6.66882 17.329C6.48084 17.5215 6.37557 17.7799 6.37549 18.049V19.8268H9.42438V18.049C9.42438 17.9152 9.39788 17.7827 9.3464 17.6592C9.29492 17.5356 9.21948 17.4235 9.12444 17.3293C9.0294 17.2351 8.91664 17.1607 8.79267 17.1103C8.6687 17.0599 8.53597 17.0345 8.40216 17.0357Z" fill="#28E98C"/>
<path fill-rule="evenodd" clip-rule="evenodd" d="M0.277832 9.92432V25.1599C0.28018 26.2365 0.708917 27.2684 1.47022 28.0297C2.23153 28.791 3.26341 29.2197 4.34005 29.2221H24.6601C25.7367 29.2197 26.7686 28.791 27.5299 28.0297C28.2912 27.2684 28.7199 26.2365 28.7223 25.1599V9.92432H0.277832ZM11.4512 23.1243C11.4512 23.3931 11.3444 23.6508 11.1544 23.8409C10.9643 24.0309 10.7066 24.1377 10.4378 24.1377C10.1691 24.1377 9.91133 24.0309 9.7213 23.8409C9.53126 23.6508 9.4245 23.3931 9.4245 23.1243V21.8976H6.37561V23.1243C6.38886 23.266 6.3724 23.4088 6.32728 23.5437C6.28216 23.6787 6.20937 23.8027 6.11357 23.9079C6.01777 24.013 5.90107 24.0971 5.77094 24.1546C5.6408 24.2121 5.5001 24.2418 5.35783 24.2418C5.21556 24.2418 5.07486 24.2121 4.94473 24.1546C4.81459 24.0971 4.6979 24.013 4.6021 23.9079C4.5063 23.8027 4.43351 23.6787 4.38839 23.5437C4.34326 23.4088 4.3268 23.266 4.34005 23.1243V18.0488C4.34005 17.2401 4.66128 16.4646 5.23305 15.8929C5.80483 15.3211 6.58033 14.9999 7.38894 14.9999H8.40228C8.80332 14.9975 9.20085 15.0748 9.57182 15.2271C9.94279 15.3795 10.2798 15.604 10.5634 15.8876C10.847 16.1712 11.0715 16.5082 11.2239 16.8792C11.3763 17.2502 11.4535 17.6477 11.4512 18.0488V23.1243ZM20.7223 18.8488C20.7223 19.6574 20.4011 20.4329 19.8293 21.0047C19.2575 21.5764 18.482 21.8976 17.6734 21.8976H15.5134V23.1243C15.5134 23.3931 15.4066 23.6508 15.2166 23.8409C15.0266 24.0309 14.7688 24.1377 14.5001 24.1377C14.2313 24.1377 13.9736 24.0309 13.7835 23.8409C13.5935 23.6508 13.4867 23.3931 13.4867 23.1243V16.0132C13.4867 15.7445 13.5935 15.4867 13.7835 15.2967C13.9736 15.1066 14.2313 14.9999 14.5001 14.9999H17.6912C18.0907 14.9999 18.4863 15.0789 18.8552 15.2323C19.2242 15.3857 19.5591 15.6106 19.8408 15.8939C20.1225 16.1773 20.3454 16.5135 20.4967 16.8833C20.6479 17.2531 20.7246 17.6492 20.7223 18.0488V18.8488ZM24.6423 23.1243C24.6555 23.266 24.6391 23.4088 24.5939 23.5437C24.5488 23.6787 24.476 23.8027 24.3802 23.9079C24.2844 24.013 24.1677 24.0971 24.0376 24.1546C23.9075 24.2121 23.7668 24.2418 23.6245 24.2418C23.4822 24.2418 23.3415 24.2121 23.2114 24.1546C23.0813 24.0971 22.9646 24.013 22.8688 23.9079C22.773 23.8027 22.7002 23.6787 22.6551 23.5437C22.6099 23.4088 22.5935 23.266 22.6067 23.1243V16.0132C22.6304 15.7597 22.7479 15.5241 22.9362 15.3527C23.1244 15.1812 23.3699 15.0862 23.6245 15.0862C23.8791 15.0862 24.1246 15.1812 24.3128 15.3527C24.5011 15.5241 24.6186 15.7597 24.6423 16.0132V23.1243Z" fill="#28E98C"/>
<path fill-rule="evenodd" clip-rule="evenodd" d="M28.7223 7.88894V4.84005C28.7199 3.76341 28.2912 2.73153 27.5299 1.97022C26.7686 1.20892 25.7367 0.78018 24.6601 0.777832H4.34005C3.26341 0.78018 2.23153 1.20892 1.47022 1.97022C0.708917 2.73153 0.28018 3.76341 0.277832 4.84005V7.88894H28.7223ZM9.4245 3.82672C9.62453 3.82848 9.81957 3.88939 9.98503 4.0018C10.1505 4.11421 10.279 4.27308 10.3543 4.45839C10.4297 4.6437 10.4485 4.84716 10.4084 5.04314C10.3683 5.23912 10.2711 5.41884 10.129 5.55967C9.98694 5.7005 9.80638 5.79613 9.61005 5.83452C9.41373 5.8729 9.21044 5.85232 9.0258 5.77537C8.84115 5.69842 8.68341 5.56854 8.57246 5.4021C8.4615 5.23565 8.40228 5.04009 8.40228 4.84005C8.40227 4.70623 8.42877 4.57373 8.48025 4.4502C8.53173 4.32668 8.60717 4.21457 8.70221 4.12036C8.79725 4.02614 8.91001 3.95169 9.03398 3.90129C9.15795 3.85089 9.29068 3.82555 9.4245 3.82672ZM5.35339 3.82672C5.55381 3.82672 5.74972 3.88615 5.91637 3.9975C6.08301 4.10884 6.21289 4.26711 6.28959 4.45227C6.36628 4.63743 6.38635 4.84118 6.34725 5.03775C6.30815 5.23431 6.21164 5.41487 6.06992 5.55659C5.92821 5.69831 5.74765 5.79482 5.55108 5.83392C5.35451 5.87302 5.15076 5.85295 4.9656 5.77625C4.78044 5.69956 4.62218 5.56967 4.51083 5.40303C4.39949 5.23639 4.34005 5.04047 4.34005 4.84005C4.34005 4.5713 4.44682 4.31356 4.63685 4.12352C4.82689 3.93348 5.08463 3.82672 5.35339 3.82672Z" fill="#28E98C"/>
<path fill-rule="evenodd" clip-rule="evenodd" d="M17.6912 17.0357H15.5134V19.8623H17.6912C17.96 19.8623 18.2177 19.7556 18.4077 19.5656C18.5978 19.3755 18.7045 19.1178 18.7045 18.849V18.049C18.7057 17.9156 18.6803 17.7833 18.6298 17.6598C18.5793 17.5364 18.5047 17.4242 18.4104 17.3298C18.316 17.2355 18.2039 17.1609 18.0804 17.1104C17.9569 17.0599 17.8246 17.0345 17.6912 17.0357Z" fill="#28E98C"/>
</svg>
