<svg width="37" height="28" viewBox="0 0 37 28" fill="none" xmlns="http://www.w3.org/2000/svg">
<path fill-rule="evenodd" clip-rule="evenodd" d="M9.37579 20.1269L12.5023 25.5421C12.9425 26.3047 12.6788 27.2888 11.9162 27.7291C11.1536 28.1694 10.1695 27.9057 9.72915 27.1431L6.19582 21.0231C7.25611 20.7266 8.31283 20.414 9.37572 20.1268L9.37579 20.1269ZM31.5118 14.4763C31.3349 14.3746 31.2739 14.1488 31.3756 13.9718C31.4772 13.7949 31.7031 13.7339 31.88 13.8356L35.2843 15.801C35.4612 15.9027 35.5222 16.1286 35.4206 16.3055C35.3189 16.4824 35.093 16.5434 34.9161 16.4418L31.5118 14.4763ZM29.6925 5.66757C29.5908 5.84451 29.365 5.90552 29.188 5.80384C29.0111 5.70216 28.9501 5.47631 29.0518 5.29937L31.0172 1.89511C31.1189 1.71817 31.3448 1.65716 31.5217 1.75884C31.6986 1.86052 31.7597 2.08637 31.658 2.26331L29.6925 5.66757ZM32.4258 9.69647C32.2281 9.74931 32.0249 9.63182 31.9721 9.4341C31.9194 9.23638 32.0368 9.03317 32.2345 8.9804L36.0315 7.96301C36.2292 7.91017 36.4324 8.02766 36.4852 8.22538C36.538 8.42309 36.4205 8.6263 36.2228 8.67907L32.4258 9.69647ZM21.8106 0.105027C21.0547 0.30757 20.602 1.09162 20.8045 1.84746L26.0941 21.5885C26.2966 22.3444 27.0807 22.797 27.8365 22.5946C28.5924 22.392 29.045 21.6079 28.8426 20.8521L23.553 1.11099C23.3505 0.355218 22.5664 -0.0974419 21.8106 0.105027ZM11.0816 18.9343L9.13043 11.6524C7.17328 12.2589 5.16655 12.6977 3.18699 13.2281C1.24773 13.7477 0.0862035 15.7595 0.640915 17.8295C1.19563 19.8995 3.20732 21.061 5.14659 20.5414C7.12622 20.0109 9.08337 19.3877 11.0816 18.9343ZM9.83677 11.4244C15.2537 9.60206 18.7892 6.55486 20.554 3.78004L24.9109 20.0401C21.9951 18.5195 17.4096 17.6483 11.8073 18.7785L9.83677 11.4244V11.4244ZM26.3139 8.54689L28.2144 8.56374C28.3835 8.56522 28.5257 8.67536 28.5695 8.83879L29.3232 11.6515C29.367 11.8149 29.2989 11.9814 29.1532 12.0673L27.5157 13.0321L26.3139 8.54689Z" fill="#28E98C"/>
</svg>
