<svg width="33" height="32" viewBox="0 0 33 32" fill="none" xmlns="http://www.w3.org/2000/svg">
<path d="M28.485 3.52002H4.515C3.98089 3.52099 3.46893 3.7336 3.09125 4.11127C2.71358 4.48895 2.50097 5.00091 2.5 5.53502V18.705H30.5V5.53502C30.499 5.00091 30.2864 4.48895 29.9087 4.11127C29.5311 3.7336 29.0191 3.52099 28.485 3.52002ZM10.425 12.705C10.378 15.3393 6.30242 15.3495 6.255 12.71V9.52002C6.25762 9.38914 6.31146 9.26451 6.40494 9.17288C6.49843 9.08125 6.62411 9.02993 6.75502 9.02994C6.88592 9.02994 7.0116 9.08127 7.10508 9.17291C7.19856 9.26454 7.25239 9.38918 7.255 9.52005V12.71C7.25091 14.0202 9.43022 14.0162 9.425 12.705V9.50503C9.425 9.37243 9.47768 9.24525 9.57145 9.15148C9.66521 9.05771 9.79239 9.00503 9.925 9.00503C10.0576 9.00503 10.1848 9.05771 10.2786 9.15148C10.3723 9.24525 10.425 9.37243 10.425 9.50503V12.705ZM15.34 9.79504L13.79 11.935L15.125 13.905C15.1959 14.0151 15.2209 14.1486 15.1945 14.2769C15.1682 14.4052 15.0926 14.518 14.9841 14.5913C14.8755 14.6645 14.7426 14.6923 14.6138 14.6687C14.485 14.6451 14.3705 14.572 14.295 14.465L13.165 12.7951L11.945 14.4801C11.8664 14.587 11.7488 14.6586 11.6176 14.6792C11.4865 14.6998 11.3526 14.6678 11.245 14.5901C11.1915 14.5516 11.1462 14.5028 11.1116 14.4467C11.0771 14.3906 11.054 14.3281 11.0438 14.263C11.0336 14.1979 11.0364 14.1314 11.052 14.0674C11.0677 14.0034 11.0959 13.9431 11.135 13.8901L12.57 11.9151L11.125 9.78506C11.051 9.67498 11.0235 9.54007 11.0486 9.40981C11.0738 9.27955 11.1494 9.16453 11.2591 9.08988C11.3687 9.01522 11.5035 8.98701 11.6339 9.01141C11.7643 9.0358 11.8797 9.11081 11.955 9.22006L13.195 11.0501L14.53 9.21006C14.6088 9.1059 14.7252 9.03674 14.8544 9.01737C14.9836 8.99801 15.1152 9.02998 15.2211 9.10645C15.3269 9.18292 15.3987 9.2978 15.4209 9.4265C15.4431 9.5552 15.4141 9.68749 15.34 9.79504ZM20.06 8.26004L16.4 15.925C16.3415 16.0426 16.2392 16.1324 16.1151 16.1753C15.991 16.2182 15.855 16.2106 15.7364 16.1543C15.6178 16.098 15.5261 15.9973 15.4809 15.874C15.4358 15.7507 15.4408 15.6146 15.495 15.495L19.155 7.83004C19.2141 7.71354 19.3164 7.62474 19.4401 7.58255C19.5637 7.54037 19.6989 7.54814 19.817 7.6042C19.935 7.66027 20.0264 7.76021 20.0718 7.88271C20.1172 8.00522 20.113 8.14062 20.06 8.26004ZM24.83 12.705C24.783 15.3393 20.7074 15.3495 20.66 12.71V9.52002C20.6626 9.38914 20.7165 9.26451 20.8099 9.17288C20.9034 9.08125 21.0291 9.02993 21.16 9.02994C21.2909 9.02994 21.4166 9.08127 21.5101 9.17291C21.6036 9.26454 21.6574 9.38918 21.66 9.52005V12.71C21.6597 14.0204 23.8348 14.0157 23.83 12.705V9.50503C23.83 9.37243 23.8827 9.24525 23.9764 9.15148C24.0702 9.05771 24.1974 9.00503 24.33 9.00503C24.4626 9.00503 24.5898 9.05771 24.6835 9.15148C24.7773 9.24525 24.83 9.37243 24.83 9.50503L24.83 12.705ZM26.745 14.185C26.743 14.3164 26.6895 14.4417 26.596 14.5338C26.5024 14.626 26.3763 14.6777 26.245 14.6777C26.1136 14.6777 25.9876 14.626 25.894 14.5338C25.8005 14.4416 25.7469 14.3163 25.745 14.185V9.50503C25.7474 9.37402 25.8012 9.24919 25.8947 9.1574C25.9882 9.06561 26.114 9.01418 26.245 9.01418C26.376 9.01419 26.5018 9.06562 26.5953 9.15742C26.6889 9.24922 26.7426 9.37405 26.745 9.50506V14.185Z" fill="#28E98C"/>
<path d="M3.5 19.7051H2.5V21.0651C2.50097 21.5992 2.71357 22.1112 3.09125 22.4888C3.46893 22.8665 3.98089 23.0791 4.515 23.0801H14.31C14.365 24.2701 12.375 26.3601 10.795 27.5851C10.712 27.6485 10.651 27.7364 10.6206 27.8364C10.5902 27.9364 10.592 28.0433 10.6257 28.1422C10.6594 28.2411 10.7233 28.327 10.8084 28.3876C10.8935 28.4482 10.9955 28.4805 11.1 28.4801H21.9C22.005 28.4774 22.1065 28.4421 22.1905 28.379C22.2745 28.3159 22.3368 28.2283 22.3687 28.1282C22.4006 28.0282 22.4005 27.9206 22.3685 27.8206C22.3364 27.7206 22.2741 27.633 22.19 27.5701C22.155 27.5451 19.065 25.3201 18.815 23.0801H28.485C29.0191 23.0791 29.5311 22.8665 29.9088 22.4888C30.2864 22.1112 30.499 21.5992 30.5 21.0651V19.7051H3.5ZM15.24 20.2501H17.61C17.7413 20.252 17.8666 20.3056 17.9588 20.3991C18.051 20.4927 18.1026 20.6187 18.1026 20.7501C18.1026 20.8814 18.051 21.0075 17.9588 21.101C17.8666 21.1946 17.7413 21.2481 17.61 21.2501H15.24C15.1087 21.248 14.9835 21.1945 14.8914 21.1009C14.7993 21.0074 14.7477 20.8814 14.7477 20.7501C14.7477 20.6188 14.7993 20.4928 14.8914 20.3992C14.9835 20.3057 15.1087 20.2521 15.24 20.2501Z" fill="#28E98C"/>
</svg>
