<svg width="64" height="64" viewBox="0 0 64 64" fill="none" xmlns="http://www.w3.org/2000/svg">
<path d="M28.1726 21.0669C28.1449 21.2278 28.1628 21.3933 28.2243 21.5445C28.2858 21.6958 28.3884 21.8268 28.5205 21.9228C28.6526 22.0187 28.809 22.0758 28.9719 22.0875C29.1347 22.0991 29.2976 22.065 29.4421 21.9889L32.0001 20.6444L34.5581 21.9889C34.7025 22.065 34.8654 22.0991 35.0283 22.0875C35.1912 22.0758 35.3475 22.0187 35.4797 21.9228C35.6118 21.8268 35.7144 21.6958 35.7759 21.5445C35.8374 21.3933 35.8553 21.2278 35.8276 21.0669L35.3391 18.2169L37.4081 16.1999C37.525 16.086 37.6078 15.9417 37.647 15.7832C37.6861 15.6247 37.6802 15.4585 37.6298 15.3032C37.5794 15.148 37.4865 15.0099 37.3617 14.9047C37.2369 14.7995 37.0851 14.7313 36.9236 14.7079L34.0636 14.2924L32.7846 11.6999C32.7123 11.5535 32.6005 11.4303 32.4619 11.3442C32.3233 11.2581 32.1633 11.2124 32.0001 11.2124C31.8369 11.2124 31.6769 11.2581 31.5383 11.3442C31.3997 11.4303 31.2879 11.5535 31.2156 11.6999L29.9366 14.2914L27.0761 14.7069C26.9145 14.7303 26.7628 14.7985 26.638 14.9037C26.5132 15.0089 26.4203 15.147 26.3699 15.3022C26.3195 15.4575 26.3135 15.6237 26.3527 15.7822C26.3919 15.9407 26.4746 16.085 26.5916 16.1989L28.6611 18.2169L28.1726 21.0669ZM30.6436 15.9589C30.784 15.9386 30.9173 15.8844 31.032 15.8011C31.1468 15.7177 31.2395 15.6076 31.3021 15.4804L32.0001 14.0664L32.7001 15.4804C32.7629 15.6076 32.8557 15.7176 32.9705 15.801C33.0853 15.8844 33.2187 15.9385 33.3591 15.9589L34.9196 16.1859L33.7906 17.2859C33.6894 17.3851 33.6139 17.5075 33.5703 17.6424C33.5268 17.7772 33.5166 17.9207 33.5406 18.0604L33.8071 19.6144L32.4111 18.8809C32.2856 18.8145 32.1458 18.7799 32.0038 18.7799C31.8619 18.7799 31.7221 18.8145 31.5966 18.8809L30.1971 19.6149L30.4636 18.0609C30.4876 17.9212 30.4775 17.7777 30.4339 17.6428C30.3904 17.5079 30.3148 17.3856 30.2136 17.2864L29.0841 16.1864L30.6436 15.9589Z" fill="#1C1D20"/>
<path d="M28.376 26.4087L28.806 29.0352C28.8304 29.1839 28.893 29.3238 28.9875 29.4412C29.0821 29.5586 29.2054 29.6496 29.3455 29.7052C29.1792 31.3412 28.5858 32.9047 27.625 34.2392H24.4645C24.3495 34.2391 24.2357 34.2617 24.1295 34.3057C24.0234 34.3496 23.9269 34.4141 23.8456 34.4953C23.7643 34.5766 23.6999 34.6731 23.6559 34.7793C23.612 34.8855 23.5894 34.9993 23.5895 35.1142V42.9967C23.5894 43.1116 23.612 43.2254 23.6559 43.3316C23.6999 43.4378 23.7643 43.5343 23.8456 43.6156C23.9269 43.6968 24.0234 43.7613 24.1295 43.8052C24.2357 43.8492 24.3495 43.8718 24.4645 43.8717H39.5355C39.6504 43.8718 39.7642 43.8492 39.8704 43.8052C39.9766 43.7613 40.0731 43.6968 40.1543 43.6156C40.2356 43.5343 40.3 43.4378 40.344 43.3316C40.3879 43.2254 40.4105 43.1116 40.4105 42.9967V35.1142C40.4105 34.9993 40.3879 34.8855 40.344 34.7793C40.3 34.6731 40.2356 34.5766 40.1543 34.4953C40.0731 34.4141 39.9766 34.3496 39.8704 34.3057C39.7642 34.2617 39.6504 34.2391 39.5355 34.2392H36.3725C35.4077 32.9071 34.8144 31.3425 34.6535 29.7057C34.7939 29.6502 34.9175 29.5593 35.0122 29.4418C35.1069 29.3243 35.1696 29.1842 35.194 29.0352L35.624 26.4087C37.4111 25.4172 38.8997 23.9646 39.9345 22.2021C40.9693 20.4397 41.5125 18.432 41.5075 16.3882V8.7002C41.5075 8.46813 41.4153 8.24557 41.2512 8.08148C41.0871 7.91738 40.8645 7.8252 40.6325 7.8252H23.3675C23.1354 7.8252 22.9128 7.91738 22.7487 8.08148C22.5847 8.24557 22.4925 8.46813 22.4925 8.7002V16.3882C22.4874 18.432 23.0306 20.4397 24.0654 22.2021C25.1002 23.9646 26.5888 25.4172 28.376 26.4087ZM33.5875 28.0187H30.4125L30.2 26.7242H33.8L33.5875 28.0187ZM38.6605 42.1217H25.3395V35.9892H38.6605V42.1217ZM29.706 34.2392C30.4864 32.8665 30.9619 31.3417 31.1 29.7687H32.9C33.0376 31.3416 33.5125 32.8664 34.2925 34.2392H29.706ZM24.2425 9.5762H39.7575V16.3882C39.7617 18.1528 39.2841 19.8851 38.3761 21.3982C37.4681 22.9113 36.1641 24.1478 34.605 24.9742H29.395C27.8363 24.1474 26.5328 22.9109 25.6253 21.3978C24.7177 19.8847 24.2405 18.1526 24.245 16.3882L24.2425 9.5762Z" fill="#1C1D20"/>
<path d="M61.6374 31.4499C61.5885 31.3459 61.5195 31.2526 61.4344 31.1753C61.3492 31.0981 61.2497 31.0385 61.1414 30.9999C59.7179 30.4918 58.1887 30.3528 56.6969 30.5961C55.2051 30.8394 53.7993 31.4568 52.6109 32.3909C53.0288 30.3125 53.2631 28.2013 53.3109 26.0819C55.5236 25.8651 57.5768 24.8336 59.0716 23.1879C60.5664 21.5422 61.3963 19.3996 61.3999 17.1764C61.4 17.0614 61.3774 16.9476 61.3335 16.8414C61.2895 16.7352 61.2251 16.6388 61.1438 16.5575C61.0625 16.4762 60.966 16.4118 60.8599 16.3678C60.7537 16.3239 60.6399 16.3013 60.5249 16.3014C59.0396 16.3025 57.5779 16.6733 56.2717 17.3804C54.9654 18.0874 53.8556 19.1084 53.0424 20.3514C52.8115 18.3406 52.4618 16.3453 51.9949 14.3759C53.1089 12.3547 53.3996 9.98153 52.8065 7.75123C52.2134 5.52094 50.7822 3.60569 48.8114 2.40485C48.6131 2.28548 48.3756 2.2494 48.1508 2.30448C47.926 2.35956 47.7321 2.50133 47.6114 2.69885C46.4132 4.669 46.0231 7.02616 46.5227 9.2773C47.0224 11.5284 48.3732 13.4992 50.2924 14.7774C52.7704 25.3389 51.6324 34.5774 46.8974 42.2309C42.9604 48.5959 37.1219 52.8809 31.9974 55.6434C26.8804 52.8829 21.0524 48.6044 17.1139 42.2434C12.3724 34.5854 11.2319 25.3434 13.7109 14.7784C15.6301 13.5 16.9806 11.5292 17.48 9.27802C17.9794 7.02686 17.589 4.66979 16.3904 2.69985C16.2699 2.50223 16.076 2.36037 15.8511 2.30528C15.6262 2.25019 15.3887 2.28635 15.1904 2.40585C13.2196 3.60686 11.7884 5.52237 11.1955 7.75288C10.6026 9.9834 10.8936 12.3567 12.0079 14.3779C11.5411 16.3473 11.1913 18.3426 10.9604 20.3534C10.1475 19.1095 9.03756 18.0876 7.7309 17.3799C6.42423 16.6723 4.96193 16.3011 3.47594 16.2999C3.36101 16.2998 3.2472 16.3224 3.14101 16.3663C3.03482 16.4103 2.93834 16.4747 2.85707 16.556C2.77581 16.6373 2.71136 16.7337 2.66741 16.8399C2.62346 16.9461 2.60087 17.0599 2.60094 17.1749C2.60363 19.3989 3.43309 21.5425 4.92812 23.1891C6.42316 24.8357 8.47698 25.8676 10.6904 26.0844C10.7383 28.204 10.9725 30.3153 11.3904 32.3939C10.2019 31.4595 8.79587 30.8418 7.30377 30.5985C5.81168 30.3551 4.28225 30.4941 2.85844 31.0024C2.63998 31.0806 2.46153 31.2423 2.36233 31.4521C2.26312 31.6618 2.25129 31.9024 2.32944 32.1209C3.07719 34.2184 4.58095 35.9613 6.54629 37.0082C8.51163 38.0552 10.797 38.3309 12.9549 37.7814C13.6758 39.6541 14.5691 41.4559 15.6234 43.1634C15.6919 43.2739 15.7649 43.3779 15.8344 43.4869C15.2246 43.3004 14.5968 43.1791 13.9614 43.1249C12.7896 43.0236 11.6093 43.1563 10.4892 43.515C9.36906 43.8738 8.33138 44.4516 7.43644 45.2149C7.25949 45.3649 7.1493 45.579 7.13008 45.8101C7.11087 46.0413 7.18418 46.2707 7.33394 46.4479C8.77224 48.1431 10.7895 49.243 12.9936 49.5338C15.1977 49.8247 17.4312 49.2856 19.2599 48.0214C22.378 51.454 26.0306 54.3599 30.0764 56.6264C27.2149 58.0451 24.2182 59.1733 21.1314 59.9939C20.9223 60.0422 20.7382 60.1658 20.6142 60.3411C20.4902 60.5164 20.435 60.7312 20.4591 60.9445C20.4832 61.1578 20.5849 61.3549 20.7448 61.4981C20.9047 61.6414 21.1117 61.7208 21.3264 61.7214C21.3927 61.7216 21.4588 61.7143 21.5234 61.6994C25.1588 60.763 28.6741 59.411 31.9999 57.6699C35.3257 59.4112 38.841 60.7635 42.4764 61.6999C42.541 61.7148 42.6071 61.7221 42.6734 61.7219C42.8885 61.7217 43.0959 61.6424 43.2562 61.4991C43.4165 61.3558 43.5184 61.1584 43.5425 60.9447C43.5665 60.731 43.511 60.516 43.3866 60.3406C43.2622 60.1652 43.0776 60.0418 42.8679 59.9939C39.7792 59.1758 36.7807 58.0486 33.9179 56.6294C37.9659 54.3626 41.6203 51.4557 44.7394 48.0214C46.568 49.2858 48.8015 49.8253 51.0056 49.5348C53.2098 49.2444 55.2273 48.1448 56.6659 46.4499C56.816 46.273 56.8897 46.0438 56.871 45.8127C56.8522 45.5815 56.7425 45.3672 56.5659 45.2169C55.6707 44.4541 54.633 43.8765 53.5129 43.5178C52.3929 43.159 51.2127 43.0261 50.0409 43.1269C49.4056 43.1811 48.7777 43.3024 48.1679 43.4889C48.2374 43.3799 48.3104 43.2759 48.3789 43.1654C49.433 41.4578 50.3264 39.6561 51.0474 37.7834C53.2054 38.3329 55.4907 38.0572 57.4561 37.0102C59.4214 35.9633 60.9252 34.2204 61.6729 32.1229C61.7118 32.0139 61.7287 31.8983 61.7226 31.7828C61.7165 31.6673 61.6875 31.5541 61.6374 31.4499ZM4.34994 32.3919C5.90072 32.0576 7.51845 32.2438 8.95272 32.9217C10.387 33.5996 11.5578 34.7314 12.2839 36.1419C10.7331 36.4762 9.11539 36.29 7.6811 35.6121C6.24682 34.9342 5.07601 33.8024 4.34994 32.3919ZM15.3284 4.43835C15.9662 5.89098 16.1076 7.51326 15.7308 9.05432C15.354 10.5954 14.48 11.9694 13.2439 12.9639C12.6063 11.5112 12.4649 9.88896 12.8417 8.34792C13.2185 6.80688 14.0924 5.43287 15.3284 4.43835ZM4.41144 18.1119C5.98417 18.3203 7.44439 19.0413 8.56622 20.1631C9.68804 21.2849 10.4089 22.7451 10.6174 24.3179C9.04473 24.1093 7.58456 23.3883 6.46275 22.2665C5.34094 21.1447 4.62 19.6846 4.41144 18.1119ZM9.31994 45.9909C10.6544 45.1317 12.2353 44.7371 13.817 44.8684C15.3987 44.9997 16.8928 45.6495 18.0674 46.7169C16.7323 47.5742 15.1519 47.9677 13.5706 47.8364C11.9894 47.7052 10.4955 47.0566 9.31994 45.9909ZM50.1834 44.8684C51.7653 44.7333 53.3471 45.1282 54.6799 45.9909C53.5042 47.0571 52.0098 47.706 50.428 47.8373C48.8463 47.9685 47.2653 47.5747 45.9299 46.7169C47.103 45.6452 48.5996 44.9948 50.1834 44.8684ZM59.5884 18.1119C59.3799 19.6846 58.6589 21.1447 57.5371 22.2665C56.4153 23.3883 54.9551 24.1093 53.3824 24.3179C53.5908 22.7451 54.3116 21.2847 55.4335 20.1629C56.5553 19.041 58.0156 18.3202 59.5884 18.1119ZM48.6714 4.43835C49.9074 5.43287 50.7814 6.80688 51.1582 8.34792C51.535 9.88896 51.3936 11.5112 50.7559 12.9639C49.5199 11.9694 48.6458 10.5954 48.2691 9.05432C47.8923 7.51326 48.0337 5.89098 48.6714 4.43835ZM51.7169 36.1444C52.4434 34.7342 53.6143 33.6027 55.0484 32.9248C56.4826 32.2469 58.1002 32.0605 59.6509 32.3944C58.9241 33.8042 57.7532 34.9354 56.3191 35.6132C54.8851 36.291 53.2677 36.4777 51.7169 36.1444Z" fill="#1C1D20"/>
</svg>
