<svg width="64" height="64" viewBox="0 0 64 64" fill="none" xmlns="http://www.w3.org/2000/svg">
<path d="M18.089 24.9448C17.927 25.3018 17.989 25.7208 18.247 26.0168L24.393 33.0388L21.748 42.7368C21.641 43.1308 21.783 43.5498 22.109 43.7968C22.434 44.0438 22.877 44.0668 23.227 43.8578L32 38.5968L40.771 43.8578C40.931 43.9528 41.108 43.9998 41.286 43.9998C41.5 43.9998 41.712 43.9318 41.89 43.7968C42.216 43.5498 42.359 43.1308 42.251 42.7368L39.606 33.0388L45.752 26.0168C46.01 25.7218 46.072 25.3028 45.91 24.9448C45.748 24.5868 45.393 24.3578 45 24.3578H36.364L32.914 16.5928C32.753 16.2328 32.396 15.9998 32 15.9998C31.604 15.9998 31.247 16.2328 31.086 16.5938L27.636 24.3588H19C18.607 24.3578 18.251 24.5878 18.089 24.9448ZM28.286 26.3578C28.682 26.3578 29.039 26.1248 29.2 25.7638L32 19.4618L34.8 25.7638C34.961 26.1248 35.319 26.3578 35.714 26.3578H42.796L37.747 32.1248C37.526 32.3768 37.447 32.7238 37.535 33.0468L39.667 40.8618L32.515 36.5718C32.357 36.4768 32.178 36.4288 32 36.4288C31.822 36.4288 31.644 36.4758 31.485 36.5718L24.333 40.8618L26.465 33.0468C26.553 32.7238 26.474 32.3778 26.253 32.1248L21.204 26.3578H28.286ZM61.025 26.2048C60.866 26.0028 60.635 25.8708 60.381 25.8338C60.336 25.8278 59.926 25.7708 59.288 25.7708C58.888 25.7708 58.341 25.7958 57.712 25.8898C59.36 25.0168 61.147 23.4788 61.866 20.7918C63.318 15.3708 58.678 11.8258 58.48 11.6768C58.275 11.5228 58.016 11.4548 57.763 11.4848C57.629 11.5008 55.848 11.7378 54.02 12.8208C54.601 11.7738 55 10.5148 55 8.99976C55 3.38776 49.602 1.16376 49.371 1.07076C49.133 0.975762 48.867 0.975762 48.629 1.07076C48.398 1.16376 43 3.38776 43 8.99976C43 14.6118 48.398 16.8358 48.629 16.9288C48.748 16.9758 48.874 16.9998 49 16.9998C49.126 16.9998 49.252 16.9758 49.371 16.9288C49.446 16.8988 50.079 16.6348 50.891 16.1038C50.647 16.5838 50.433 17.1028 50.277 17.6858C48.823 23.1068 53.464 26.6528 53.662 26.8008C53.835 26.9308 54.045 26.9998 54.26 26.9998C54.299 26.9998 54.339 26.9978 54.378 26.9928C54.39 26.9918 54.425 26.9868 54.461 26.9808C53.379 27.5958 52.335 28.5128 51.543 29.8848C48.737 34.7448 52.301 39.3708 52.453 39.5648C52.457 39.5688 52.463 39.5718 52.466 39.5758C50.885 39.8788 49.479 40.6168 48.339 41.7568C45.52 44.5748 45.836 48.1018 46.291 49.9958C42.231 53.2178 37.188 54.9998 32 54.9998C26.812 54.9998 21.769 53.2178 17.709 49.9968C18.164 48.1028 18.48 44.5758 15.661 41.7578C14.521 40.6178 13.115 39.8798 11.534 39.5768C11.537 39.5728 11.543 39.5698 11.547 39.5658C11.699 39.3718 15.263 34.7458 12.457 29.8858C11.665 28.5138 10.621 27.5968 9.53904 26.9818C9.57504 26.9868 9.61004 26.9918 9.62204 26.9938C9.66104 26.9978 9.70104 26.9998 9.74004 26.9998C9.95504 26.9998 10.165 26.9308 10.339 26.8008C10.537 26.6528 15.178 23.1068 13.724 17.6858C13.568 17.1028 13.354 16.5838 13.11 16.1038C13.922 16.6348 14.554 16.8988 14.63 16.9288C14.748 16.9758 14.874 16.9998 15 16.9998C15.126 16.9998 15.252 16.9758 15.371 16.9288C15.602 16.8358 21 14.6118 21 8.99976C21 3.38776 15.602 1.16376 15.371 1.07076C15.133 0.975762 14.867 0.975762 14.629 1.07076C14.398 1.16376 9.00004 3.38776 9.00004 8.99976C9.00004 10.5148 9.39904 11.7738 9.97904 12.8198C8.15104 11.7368 6.37004 11.4998 6.23604 11.4838C5.98004 11.4548 5.72404 11.5228 5.51904 11.6758C5.32104 11.8238 0.681036 15.3688 2.13304 20.7908C2.85304 23.4788 4.63904 25.0158 6.28704 25.8888C5.65804 25.7948 5.11104 25.7698 4.71104 25.7698C4.07304 25.7698 3.66304 25.8268 3.61804 25.8328C3.36404 25.8698 3.13404 26.0018 2.97404 26.2038C2.82204 26.3988 -0.741964 31.0238 2.06404 35.8838C3.45204 38.2888 5.61104 39.3008 7.40004 39.7178C6.61804 39.9058 6.11204 40.1138 6.07504 40.1298C5.83904 40.2318 5.65004 40.4198 5.55004 40.6558C5.45204 40.8838 3.20704 46.2728 7.17704 50.2418C8.70604 51.7718 10.714 52.5808 12.984 52.5808C15.078 52.5808 16.695 51.8978 16.762 51.8688C16.783 51.8598 16.799 51.8408 16.82 51.8298C20.559 54.6908 25.026 56.4548 29.698 56.8888L25.294 61.2928C24.903 61.6838 24.903 62.3158 25.294 62.7068C25.685 63.0978 26.317 63.0978 26.708 62.7068L32 57.4138L37.293 62.7058C37.488 62.9018 37.744 62.9998 38 62.9998C38.256 62.9998 38.512 62.9018 38.707 62.7068C39.098 62.3158 39.098 61.6838 38.707 61.2928L34.303 56.8888C38.975 56.4538 43.442 54.6908 47.181 51.8298C47.202 51.8408 47.217 51.8598 47.239 51.8688C47.306 51.8978 48.924 52.5808 51.017 52.5808C53.287 52.5808 55.294 51.7718 56.824 50.2418C60.794 46.2728 58.549 40.8838 58.451 40.6558C58.35 40.4198 58.162 40.2318 57.926 40.1308C57.889 40.1148 57.383 39.9058 56.601 39.7188C58.39 39.3018 60.549 38.2898 61.937 35.8848C64.741 31.0238 61.178 26.3988 61.025 26.2048ZM49.002 14.8968C47.948 14.3558 45 12.5268 45 8.99976C45 5.45176 47.934 3.64176 48.997 3.10276C50.052 3.64376 53 5.47276 53 8.99976C53 12.5468 50.069 14.3558 49.002 14.8968ZM52.208 18.2028C53.126 14.7758 56.428 13.7868 57.595 13.5408C58.474 14.3358 60.849 16.8658 59.936 20.2728C59.018 23.6988 55.718 24.6888 54.548 24.9348C53.669 24.1398 51.295 21.6098 52.208 18.2028ZM14.997 3.10276C16.052 3.64376 19 5.47276 19 8.99976C19 12.5468 16.069 14.3558 15.002 14.8968C13.948 14.3558 11 12.5268 11 8.99976C11 5.45176 13.934 3.64176 14.997 3.10276ZM4.06404 20.2728C3.14604 16.8448 5.51104 14.3378 6.40004 13.5428C7.55804 13.7928 10.879 14.7958 11.792 18.2028C12.711 21.6318 10.344 24.1388 9.45504 24.9358C8.28704 24.6898 4.98304 23.7018 4.06404 20.2728ZM3.79704 34.8848C2.02204 31.8128 3.65804 28.7798 4.31004 27.7798C4.42404 27.7738 4.55904 27.7698 4.71104 27.7698C6.28504 27.7698 9.16004 28.1748 10.725 30.8848C12.499 33.9568 10.864 36.9898 10.212 37.9898C10.098 37.9958 9.96304 37.9998 9.81104 37.9998C8.23604 37.9998 5.36004 37.5948 3.79704 34.8848ZM8.59104 48.8278C6.08204 46.3198 6.87504 42.9678 7.24604 41.8328C7.75704 41.6698 8.72604 41.4188 9.85404 41.4188C11.606 41.4188 13.083 42.0078 14.247 43.1708C16.756 45.6788 15.962 49.0308 15.591 50.1668C15.08 50.3298 14.112 50.5808 12.984 50.5808C11.231 50.5808 9.75304 49.9908 8.59104 48.8278ZM55.409 48.8278C54.247 49.9908 52.768 50.5808 51.016 50.5808C49.886 50.5808 48.918 50.3298 48.409 50.1668C48.037 49.0288 47.245 45.6788 49.753 43.1708C50.916 42.0078 52.394 41.4188 54.146 41.4188C55.274 41.4188 56.242 41.6688 56.751 41.8318C57.114 42.9638 57.9 46.3368 55.409 48.8278ZM60.203 34.8848C58.64 37.5948 55.764 37.9998 54.189 37.9998C54.037 37.9998 53.902 37.9958 53.788 37.9898C53.135 36.9878 51.502 33.9558 53.275 30.8848C54.839 28.1748 57.714 27.7698 59.289 27.7698C59.44 27.7698 59.574 27.7738 59.687 27.7788C60.331 28.7778 61.965 31.8328 60.203 34.8848Z" fill="#1C1D20"/>
</svg>
