<svg width="64" height="64" viewBox="0 0 64 64" fill="none" xmlns="http://www.w3.org/2000/svg">
<path d="M47.55 36.5673L37.441 34.2223V31.2628C40.0254 29.1714 41.9098 26.3409 42.8425 23.1498L44.102 22.8588C44.9573 22.6647 45.7209 22.185 46.2669 21.4986C46.8129 20.8123 47.1087 19.9604 47.1055 19.0833V18.6738C47.1046 17.9116 46.8014 17.1809 46.2624 16.6419C45.7234 16.1029 44.9927 15.7997 44.2305 15.7988H43.75V10.6533C43.7475 8.4329 42.8643 6.30415 41.2942 4.73408C39.7242 3.16401 37.5954 2.28083 35.375 2.27832H23.284C23.1667 2.27826 23.0505 2.3018 22.9425 2.34755C22.8345 2.3933 22.7367 2.46032 22.6551 2.54462C22.5736 2.62892 22.5098 2.72878 22.4676 2.83825C22.4253 2.94772 22.4056 3.06456 22.4095 3.18182C22.4772 4.52723 22.8987 5.83095 23.6315 6.96132L23.5075 7.02282C22.5266 7.50671 21.7012 8.25627 21.1253 9.18619C20.5494 10.1161 20.2461 11.189 20.25 12.2828V15.7998H19.7705C19.0083 15.8007 18.2776 16.1039 17.7386 16.6429C17.1996 17.1819 16.8964 17.9126 16.8955 18.6748V19.0843C16.8929 19.9611 17.1891 20.8125 17.7353 21.4984C18.2814 22.1842 19.0449 22.6635 19.9 22.8573L21.1595 23.1483C22.0915 26.3399 23.9754 29.1711 26.5595 31.2633V34.2223L16.45 36.5673C14.934 36.913 13.5808 37.7645 12.6133 38.9818C11.6458 40.199 11.1216 41.7094 11.127 43.2643V60.8463C11.127 61.0784 11.2192 61.3009 11.3833 61.465C11.5474 61.6291 11.7699 61.7213 12.002 61.7213C12.2341 61.7213 12.4566 61.6291 12.6207 61.465C12.7848 61.3009 12.877 61.0784 12.877 60.8463V43.2643C12.8725 42.1052 13.2629 40.9791 13.984 40.0716C14.7051 39.1641 15.7138 38.5293 16.844 38.2718L19.494 37.6568L26.733 50.5143C25.951 51.4557 25.4359 52.5896 25.2416 53.7979C25.0473 55.0062 25.1808 56.2445 25.6283 57.3836C26.0757 58.5226 26.8207 59.5207 27.7854 60.2737C28.7502 61.0267 29.8994 61.5069 31.113 61.6643C31.4064 61.7011 31.7018 61.7197 31.9975 61.7198C33.2972 61.7239 34.571 61.3569 35.6693 60.6619C36.7675 59.967 37.6446 58.9729 38.1974 57.7966C38.7501 56.6203 38.9556 55.3107 38.7896 54.0217C38.6237 52.7326 38.0932 51.5177 37.2605 50.5198L44.5045 37.6568L47.1545 38.2718C48.2846 38.5293 49.2934 39.1641 50.0145 40.0716C50.7356 40.9791 51.126 42.1052 51.1215 43.2643V60.8463C51.1215 61.0784 51.2137 61.3009 51.3778 61.465C51.5419 61.6291 51.7644 61.7213 51.9965 61.7213C52.2286 61.7213 52.4511 61.6291 52.6152 61.465C52.7793 61.3009 52.8715 61.0784 52.8715 60.8463V43.2643C52.877 41.7096 52.353 40.1994 51.3858 38.9821C50.4185 37.7649 49.0657 36.9133 47.55 36.5673ZM32 47.1243L25.841 36.1848L26.9695 35.9233C27.4909 36.781 28.2325 37.4834 29.1171 37.9576C30.0017 38.4319 30.9971 38.6607 32 38.6203C33.0029 38.6607 33.9983 38.4319 34.8829 37.9576C35.7675 37.4834 36.5091 36.781 37.0305 35.9233L38.159 36.1848L32 47.1243ZM32 33.3668C33.2865 33.3658 34.5535 33.0528 35.6925 32.4548V34.7373C35.3488 35.4115 34.8172 35.9717 34.1619 36.3503C33.5066 36.7288 32.7557 36.9094 32 36.8703C31.2442 36.9096 30.4932 36.7289 29.8379 36.3503C29.1825 35.9717 28.651 35.4112 28.3075 34.7368V32.4553C29.4466 33.053 30.7136 33.3658 32 33.3668ZM45.3555 18.6723V19.0818C45.3571 19.5627 45.1949 20.0299 44.8955 20.4062C44.5961 20.7826 44.1774 21.0457 43.7085 21.1523L43.3195 21.2423C43.5539 20.0236 43.6897 18.7879 43.7255 17.5473H44.2305C44.5287 17.5477 44.8147 17.6664 45.0256 17.8773C45.2364 18.0882 45.3551 18.3741 45.3555 18.6723ZM24.287 8.58982L25.4745 7.99982C25.6086 7.93323 25.7233 7.83333 25.8078 7.70969C25.8922 7.58604 25.9434 7.4428 25.9566 7.29367C25.9698 7.14454 25.9445 6.99451 25.8831 6.85797C25.8217 6.72142 25.7263 6.60292 25.606 6.51382C24.7965 5.91382 24.437 4.81382 24.2795 4.02932H35.3755C37.1317 4.03131 38.8155 4.72981 40.0574 5.97161C41.2992 7.2134 41.9979 8.89709 42 10.6533V15.3628L41.36 15.0978C41.063 14.9753 40.8091 14.7674 40.6305 14.5003C40.4519 14.2332 40.3567 13.9191 40.357 13.5978V12.6653C40.3569 12.4333 40.2646 12.2108 40.1006 12.0467C39.9365 11.8827 39.714 11.7905 39.482 11.7903H24.5175C24.2855 11.7905 24.063 11.8827 23.8989 12.0467C23.7349 12.2108 23.6426 12.4333 23.6425 12.6653V13.5963C23.6428 13.9176 23.5476 14.2317 23.369 14.4988C23.1904 14.7659 22.9365 14.9738 22.6395 15.0963L22 15.3628V12.2828C21.9971 11.5148 22.2099 10.7615 22.6142 10.1086C23.0186 9.45564 23.5982 8.92941 24.287 8.58982ZM20.2915 21.1523C19.8225 21.0457 19.4039 20.7826 19.1045 20.4062C18.8051 20.0299 18.6429 19.5627 18.6445 19.0818V18.6723C18.6449 18.3741 18.7635 18.0882 18.9744 17.8773C19.1853 17.6664 19.4712 17.5477 19.7695 17.5473H20.2745C20.3103 18.7879 20.4461 20.0236 20.6805 21.2423L20.2915 21.1523ZM22.006 17.2523L23.3095 16.7123C23.9268 16.4579 24.4545 16.0255 24.8255 15.4703C25.1964 14.9151 25.3938 14.262 25.3925 13.5943V13.5383H38.6075V13.5943C38.6062 14.262 38.8036 14.9151 39.1745 15.4703C39.5454 16.0255 40.0731 16.4579 40.6905 16.7123L41.994 17.2523C41.822 24.5663 38.4235 28.4848 35.5605 30.4948C34.5165 31.2244 33.2736 31.6157 32 31.6157C30.7264 31.6157 29.4835 31.2244 28.4395 30.4948C25.5765 28.4868 22.1775 24.5683 22.006 17.2543V17.2523ZM24.0645 36.5948L30.587 48.1798C29.6759 48.3731 28.8145 48.7521 28.0565 49.2933L21.2715 37.2433L24.0645 36.5948ZM35.6025 58.4768C35.0101 59.0694 34.2808 59.5066 33.479 59.7499C32.6772 59.9931 31.8279 60.0349 31.0061 59.8714C30.1844 59.708 29.4156 59.3443 28.768 58.8127C28.1204 58.2811 27.6139 57.598 27.2934 56.8239C26.9729 56.0498 26.8483 55.2085 26.9306 54.3747C27.013 53.5409 27.2997 52.7403 27.7654 52.0438C28.2311 51.3473 28.8615 50.7765 29.6005 50.3818C30.3396 49.9872 31.1646 49.7809 32.0025 49.7813C32.2238 49.7813 32.4449 49.7951 32.6645 49.8228C33.6073 49.9471 34.4964 50.3327 35.2314 50.936C35.9664 51.5394 36.5178 52.3364 36.8234 53.2369C37.1289 54.1374 37.1762 55.1054 36.9601 56.0315C36.744 56.9575 36.273 57.8046 35.6005 58.4768H35.6025ZM35.9435 49.2928C35.1863 48.7507 34.3253 48.3708 33.4145 48.1768L39.9355 36.5968L42.7285 37.2468L35.9435 49.2928Z" fill="black"/>
<path d="M19.3906 48.0332C19.1586 48.0333 18.9361 48.1256 18.7721 48.2896C18.608 48.4537 18.5158 48.6762 18.5156 48.9082V60.8467C18.5156 61.0788 18.6078 61.3013 18.7719 61.4654C18.936 61.6295 19.1586 61.7217 19.3906 61.7217C19.6227 61.7217 19.8452 61.6295 20.0093 61.4654C20.1734 61.3013 20.2656 61.0788 20.2656 60.8467V48.9082C20.2656 48.6761 20.1734 48.4536 20.0093 48.2895C19.8452 48.1254 19.6227 48.0332 19.3906 48.0332Z" fill="black"/>
<path d="M44.6094 48.0332C44.3773 48.0332 44.1547 48.1254 43.9907 48.2895C43.8266 48.4536 43.7344 48.6761 43.7344 48.9082V60.8467C43.7344 61.0788 43.8266 61.3013 43.9907 61.4654C44.1547 61.6295 44.3773 61.7217 44.6094 61.7217C44.8414 61.7217 45.064 61.6295 45.2281 61.4654C45.3922 61.3013 45.4844 61.0788 45.4844 60.8467V48.9082C45.4842 48.6762 45.392 48.4537 45.2279 48.2896C45.0639 48.1256 44.8414 48.0333 44.6094 48.0332Z" fill="black"/>
<path d="M28.3906 25.918C28.3906 26.15 28.4828 26.3726 28.6469 26.5367C28.811 26.7008 29.0336 26.793 29.2656 26.793H34.7346C34.9667 26.793 35.1892 26.7008 35.3533 26.5367C35.5174 26.3726 35.6096 26.15 35.6096 25.918C35.6096 25.6859 35.5174 25.4633 35.3533 25.2993C35.1892 25.1352 34.9667 25.043 34.7346 25.043H29.2656C29.0336 25.043 28.811 25.1352 28.6469 25.2993C28.4828 25.4633 28.3906 25.6859 28.3906 25.918Z" fill="black"/>
<path d="M28 19.521C28.6622 19.521 29.199 18.9842 29.199 18.322C29.199 17.6599 28.6622 17.123 28 17.123C27.3378 17.123 26.801 17.6599 26.801 18.322C26.801 18.9842 27.3378 19.521 28 19.521Z" fill="black"/>
<path d="M36 19.521C36.6622 19.521 37.199 18.9842 37.199 18.322C37.199 17.6599 36.6622 17.123 36 17.123C35.3378 17.123 34.801 17.6599 34.801 18.322C34.801 18.9842 35.3378 19.521 36 19.521Z" fill="black"/>
<path d="M32.8 51.4175C32.2129 51.2825 31.6011 51.299 31.0221 51.4653C30.4431 51.6316 29.9159 51.9424 29.4899 52.3684C29.064 52.7944 28.7533 53.3216 28.587 53.9007C28.4208 54.4797 28.4044 55.0915 28.5395 55.6785C28.6851 56.328 29.0123 56.9227 29.483 57.3933C29.9537 57.8639 30.5484 58.191 31.198 58.3365C31.4593 58.3948 31.7262 58.4244 31.994 58.4245C32.865 58.4242 33.7056 58.1037 34.3556 57.5239C35.0057 56.9441 35.4199 56.1456 35.5195 55.2802C35.619 54.4149 35.3969 53.5431 34.8955 52.8309C34.394 52.1186 33.6482 51.6156 32.8 51.4175ZM33.2705 56.1485C33.0528 56.3668 32.7827 56.5256 32.4861 56.6095C32.1895 56.6935 31.8762 56.6999 31.5765 56.628C31.2535 56.5524 30.9581 56.388 30.7237 56.1533C30.4893 55.9187 30.3252 55.6231 30.25 55.3C30.178 55.0002 30.1844 54.6869 30.2683 54.3901C30.3523 54.0934 30.5111 53.8233 30.7295 53.6055C30.8956 53.4377 31.0935 53.3048 31.3117 53.2144C31.5298 53.124 31.7638 53.0779 32 53.079C32.1427 53.0793 32.2851 53.095 32.4245 53.126C32.7478 53.2014 33.0437 53.3658 33.2784 53.6005C33.5132 53.8353 33.6776 54.1312 33.753 54.4545C33.8248 54.7547 33.8182 55.0683 33.7339 55.3652C33.6496 55.6622 33.4903 55.9324 33.2715 56.15L33.2705 56.1485Z" fill="black"/>
</svg>
