<svg width="64" height="64" viewBox="0 0 64 64" fill="none" xmlns="http://www.w3.org/2000/svg">
<path d="M52.9309 12.367C53.0519 12.059 53.0129 11.711 52.8269 11.437C52.6409 11.164 52.3309 11 51.9999 11H39.5169L41.7529 8.445C42.0109 8.15 42.0729 7.731 41.9099 7.373C41.7479 7.016 41.3929 6.786 40.9999 6.786H35.2209L32.9139 1.594C32.7529 1.233 32.3959 1 31.9999 1C31.6049 1 31.2469 1.233 31.0859 1.594L28.7789 6.786H22.9999C22.6069 6.786 22.2509 7.015 22.0889 7.373C21.9269 7.731 21.9889 8.149 22.2469 8.445L24.4839 11H11.9999C11.6689 11 11.3599 11.164 11.1729 11.437C10.9869 11.711 10.9479 12.059 11.0689 12.367L23.9999 45.189V54H20.9999C20.5539 54 20.1609 54.296 20.0389 54.725L18.0389 61.725C17.9529 62.027 18.0129 62.351 18.2019 62.602C18.3909 62.853 18.6859 63 18.9999 63H44.9999H45.0199C45.5729 63 46.0199 62.552 46.0199 62C46.0199 61.835 45.9799 61.679 45.9099 61.542L43.9629 54.725C43.8389 54.296 43.4459 54 42.9999 54H39.9999V45.19L52.9309 12.367ZM29.4289 8.786C29.8239 8.786 30.1819 8.553 30.3429 8.192L31.9999 4.463L33.6559 8.192C33.8159 8.553 34.1749 8.786 34.5699 8.786H38.7959L35.7479 12.269C35.5269 12.521 35.4479 12.868 35.5359 13.191L36.8099 17.863L32.5139 15.287C32.3559 15.192 32.1779 15.144 31.9999 15.144C31.8219 15.144 31.6439 15.191 31.4859 15.287L27.1909 17.863L28.4649 13.191C28.5529 12.868 28.4729 12.522 28.2529 12.269L25.2049 8.786H29.4289ZM26.2339 13L26.3939 13.183L24.6059 19.737C24.4989 20.131 24.6419 20.55 24.9669 20.797C25.2919 21.044 25.7359 21.069 26.0849 20.858L31.9999 17.311L37.9149 20.858C38.0739 20.953 38.2519 21 38.4299 21C38.6439 21 38.8559 20.932 39.0339 20.797C39.3599 20.55 39.5029 20.131 39.3949 19.737L37.6079 13.182L37.7669 13H50.5319L38.3189 44H25.6809L13.4689 13H26.2339ZM43.6739 61H20.3259L21.7549 56H42.2469L43.6739 61ZM25.9999 54V46H37.9999V54H25.9999ZM27.9999 29C27.9999 28.448 28.4479 28 28.9999 28H34.9999C35.5529 28 35.9999 28.448 35.9999 29C35.9999 29.552 35.5529 30 34.9999 30H28.9999C28.4479 30 27.9999 29.552 27.9999 29ZM27.9999 35C27.9999 34.448 28.4479 34 28.9999 34H34.9999C35.5529 34 35.9999 34.448 35.9999 35C35.9999 35.552 35.5529 36 34.9999 36H28.9999C28.4479 36 27.9999 35.552 27.9999 35Z" fill="#1C1D20"/>
</svg>
