<svg width="32" height="32" viewBox="0 0 32 32" fill="none" xmlns="http://www.w3.org/2000/svg">
<path d="M16 9C12.7999 9 10.8 10.5556 9.99985 13.6665C11.2 12.1109 12.6 11.5278 14.1999 11.9165C15.1129 12.1383 15.7653 12.7824 16.4877 13.4952C17.6641 14.6562 19.0257 15.9999 22.0002 15.9999C25.1999 15.9999 27.2002 14.4443 28 11.3331C26.8001 12.8887 25.4001 13.4721 23.7999 13.0833C22.8873 12.8615 22.2348 12.2174 21.5125 11.5047C20.336 10.3437 18.9741 9 16 9ZM9.99985 15.9999C6.80005 15.9999 4.7998 17.5554 4 20.6666C5.19985 19.111 6.59988 18.5276 8.20008 18.9167C9.11272 19.1388 9.76516 19.7826 10.4875 20.495C11.664 21.656 13.0259 23 16 23C19.2001 23 21.2001 21.4444 22.0002 18.3332C20.8 19.8888 19.4 20.4722 17.8001 20.0832C16.8871 19.8617 16.2347 19.2173 15.5123 18.5048C14.3359 17.3438 12.9743 15.9999 9.99985 15.9999Z" fill="#06B6D4"/>
</svg>
