<svg width="24" height="24" viewBox="0 0 24 24" fill="none" xmlns="http://www.w3.org/2000/svg">
<g clip-path="url(#clip0_4106_1035)">
<path d="M23.0295 14.791C22.9291 14.6909 22.8024 14.6213 22.6641 14.5902C22.5258 14.5592 22.3815 14.568 22.248 14.6155C20.4535 15.2553 18.5143 15.3728 16.6557 14.9543C14.7971 14.5358 13.0954 13.5986 11.7483 12.2514C10.4012 10.9042 9.46398 9.20245 9.0456 7.34383C8.62721 5.4852 8.74481 3.546 9.38471 1.75155C9.43226 1.61799 9.44098 1.47369 9.40986 1.33538C9.37875 1.19707 9.30907 1.07041 9.2089 0.970085C9.10873 0.869761 8.98218 0.799882 8.84392 0.768548C8.70565 0.737214 8.56134 0.74571 8.42771 0.79305C6.80988 1.36435 5.34171 2.29314 4.13246 3.5103C1.96468 5.67972 0.747223 8.62128 0.747803 11.6881C0.748383 14.755 1.96695 17.6961 4.13555 19.8647C6.30416 22.0333 9.24525 23.2519 12.3121 23.2525C15.379 23.253 18.3205 22.0356 20.49 19.8678C21.7072 18.6583 22.636 17.1899 23.2072 15.5718C23.2544 15.4382 23.2627 15.2939 23.2312 15.1557C23.1998 15.0175 23.1298 14.8911 23.0295 14.791ZM19.4295 18.8073C18.4068 19.8271 17.1766 20.6149 15.8226 21.1172C14.4685 21.6195 13.0222 21.8246 11.5818 21.7185C10.1415 21.6124 8.74084 21.1976 7.47499 20.5023C6.20913 19.8069 5.10772 18.8474 4.24553 17.6887C3.38333 16.5301 2.78055 15.1995 2.47811 13.7872C2.17566 12.375 2.18064 10.9142 2.4927 9.50412C2.80476 8.09399 3.41659 6.76751 4.28666 5.61476C5.15672 4.46201 6.26465 3.50998 7.53521 2.8233C7.15908 4.69585 7.24969 6.6322 7.79905 8.46144C8.34841 10.2907 9.33963 11.9566 10.6852 13.312C12.0405 14.6579 13.7064 15.6492 15.5357 16.1986C17.365 16.748 19.3014 16.8384 21.174 16.462C20.7102 17.3249 20.1225 18.115 19.4295 18.8073Z" fill="#1C1D20"/>
</g>
<defs>
<clipPath id="clip0_4106_1035">
<rect width="24" height="24" fill="white"/>
</clipPath>
</defs>
</svg>
