<svg width="28" height="28" viewBox="0 0 28 28" fill="none" xmlns="http://www.w3.org/2000/svg">
<path d="M12.8918 17.4418L10.7335 19.6002C10.2785 20.0552 9.55516 20.0552 9.0885 19.6118C8.96016 19.4835 8.83183 19.3668 8.7035 19.2385C7.50183 18.0252 6.41683 16.7535 5.4485 15.4235C4.49183 14.0935 3.72183 12.7635 3.16183 11.4452C2.6135 10.1152 2.3335 8.8435 2.3335 7.63016C2.3335 6.83683 2.4735 6.0785 2.7535 5.3785C3.0335 4.66683 3.47683 4.0135 4.09516 3.43016C4.84183 2.69516 5.6585 2.3335 6.52183 2.3335C6.8485 2.3335 7.17516 2.4035 7.46683 2.5435C7.77016 2.6835 8.0385 2.8935 8.2485 3.19683L10.9552 7.01183C11.1652 7.3035 11.3168 7.57183 11.4218 7.8285C11.5268 8.0735 11.5852 8.3185 11.5852 8.54016C11.5852 8.82016 11.5035 9.10016 11.3402 9.3685C11.1885 9.63683 10.9668 9.91683 10.6868 10.1968L9.80016 11.1185C9.67183 11.2468 9.6135 11.3985 9.6135 11.5852C9.6135 11.6785 9.62516 11.7602 9.6485 11.8535C9.6835 11.9468 9.7185 12.0168 9.74183 12.0868C9.95183 12.4718 10.3135 12.9735 10.8268 13.5802C11.3518 14.1868 11.9118 14.8052 12.5185 15.4235C12.6352 15.5402 12.7635 15.6568 12.8802 15.7735C13.3468 16.2285 13.3585 16.9752 12.8918 17.4418Z" fill="#1C1D20"/>
<path d="M25.6319 21.3849C25.6319 21.7115 25.5735 22.0499 25.4569 22.3766C25.4219 22.4699 25.3869 22.5632 25.3402 22.6566C25.1419 23.0766 24.8852 23.4732 24.5469 23.8466C23.9752 24.4766 23.3452 24.9316 22.6335 25.2232C22.6219 25.2232 22.6102 25.2349 22.5985 25.2349C21.9102 25.5149 21.1635 25.6666 20.3585 25.6666C19.1685 25.6666 17.8969 25.3866 16.5552 24.8149C15.2135 24.2432 13.8719 23.4732 12.5419 22.5049C12.0869 22.1666 11.6319 21.8282 11.2002 21.4665L15.0152 17.6515C15.3419 17.8965 15.6335 18.0832 15.8785 18.2115C15.9369 18.2349 16.0069 18.2699 16.0885 18.3049C16.1819 18.3399 16.2752 18.3515 16.3802 18.3515C16.5785 18.3515 16.7302 18.2816 16.8585 18.1532L17.7452 17.2782C18.0369 16.9866 18.3169 16.7649 18.5852 16.6249C18.8535 16.4615 19.1219 16.3799 19.4135 16.3799C19.6352 16.3799 19.8685 16.4265 20.1252 16.5315C20.3819 16.6365 20.6502 16.7882 20.9419 16.9866L24.8035 19.7282C25.1069 19.9382 25.3169 20.1832 25.4452 20.4749C25.5619 20.7665 25.6319 21.0582 25.6319 21.3849Z" fill="#1C1D20"/>
</svg>
