<svg width="24" height="24" viewBox="0 0 24 24" fill="none" xmlns="http://www.w3.org/2000/svg">
<path d="M11.05 14.9497L9.2 16.7997C8.81 17.1897 8.19 17.1897 7.79 16.8097C7.68 16.6997 7.57 16.5997 7.46 16.4897C6.43 15.4497 5.5 14.3597 4.67 13.2197C3.85 12.0797 3.19 10.9397 2.71 9.80968C2.24 8.66968 2 7.57968 2 6.53968C2 5.85968 2.12 5.20968 2.36 4.60968C2.6 3.99968 2.98 3.43968 3.51 2.93968C4.15 2.30968 4.85 1.99968 5.59 1.99968C5.87 1.99968 6.15 2.05968 6.4 2.17968C6.66 2.29968 6.89 2.47968 7.07 2.73968L9.39 6.00968C9.57 6.25968 9.7 6.48968 9.79 6.70968C9.88 6.91968 9.93 7.12968 9.93 7.31968C9.93 7.55968 9.86 7.79968 9.72 8.02968C9.59 8.25968 9.4 8.49968 9.16 8.73968L8.4 9.52968C8.29 9.63968 8.24 9.76968 8.24 9.92968C8.24 10.0097 8.25 10.0797 8.27 10.1597C8.3 10.2397 8.33 10.2997 8.35 10.3597C8.53 10.6897 8.84 11.1197 9.28 11.6397C9.73 12.1597 10.21 12.6897 10.73 13.2197C10.83 13.3197 10.94 13.4197 11.04 13.5197C11.44 13.9097 11.45 14.5497 11.05 14.9497Z" fill="#28E98C"/>
<path d="M21.9701 18.3297C21.9701 18.6097 21.9201 18.8997 21.8201 19.1797C21.7901 19.2597 21.7601 19.3397 21.7201 19.4197C21.5501 19.7797 21.3301 20.1197 21.0401 20.4397C20.5501 20.9797 20.0101 21.3697 19.4001 21.6197C19.3901 21.6197 19.3801 21.6297 19.3701 21.6297C18.7801 21.8697 18.1401 21.9997 17.4501 21.9997C16.4301 21.9997 15.3401 21.7597 14.1901 21.2697C13.0401 20.7797 11.8901 20.1197 10.7501 19.2897C10.3601 18.9997 9.9701 18.7097 9.6001 18.3997L12.8701 15.1297C13.1501 15.3397 13.4001 15.4997 13.6101 15.6097C13.6601 15.6297 13.7201 15.6597 13.7901 15.6897C13.8701 15.7197 13.9501 15.7297 14.0401 15.7297C14.2101 15.7297 14.3401 15.6697 14.4501 15.5597L15.2101 14.8097C15.4601 14.5597 15.7001 14.3697 15.9301 14.2497C16.1601 14.1097 16.3901 14.0397 16.6401 14.0397C16.8301 14.0397 17.0301 14.0797 17.2501 14.1697C17.4701 14.2597 17.7001 14.3897 17.9501 14.5597L21.2601 16.9097C21.5201 17.0897 21.7001 17.2997 21.8101 17.5497C21.9101 17.7997 21.9701 18.0497 21.9701 18.3297Z" fill="#28E98C"/>
</svg>
