<svg width="41" height="36" viewBox="0 0 41 36" fill="none" xmlns="http://www.w3.org/2000/svg">
<path d="M8.77266 9.34124C10.597 7.83091 10.8517 5.12761 9.34134 3.30325C7.83103 1.47889 5.12772 1.22433 3.30334 2.73466C1.47896 4.24499 1.22435 6.94829 2.73466 8.77265C4.24497 10.597 6.94828 10.8516 8.77266 9.34124Z" fill="#121212"/>
<path d="M6.05798 0.776529C3.15126 0.765293 0.785752 3.11255 0.774515 6.01927C0.763279 8.92599 3.11053 11.2915 6.01725 11.3027C8.92398 11.314 11.2894 8.96671 11.3007 6.05999C11.312 3.15327 8.9647 0.787828 6.05798 0.776529ZM6.01956 10.6985C3.44651 10.6885 1.36875 8.5946 1.37874 6.02157C1.38874 3.44859 3.48264 1.37082 6.05568 1.38076C8.62872 1.39069 10.7065 3.48459 10.6966 6.05763C10.6865 8.63074 8.5926 10.7085 6.01956 10.6985Z" fill="#121212"/>
<path d="M40.4286 12.8872C40.4287 12.865 40.4273 12.8432 40.4273 12.821C40.3706 18.5163 35.8898 22.9838 30.185 22.9617L7.67931 22.8746L7.64237 32.4138C7.63467 34.4023 5.92399 36.0078 3.93544 36C1.94688 35.9923 0.248676 34.3737 0.256374 32.3852L0.293499 22.7836C0.30964 18.6209 3.90626 15.0394 8.06899 15.0555L30.3593 15.1418C31.8706 15.1477 33.1 14.0569 33.1058 12.5456C33.1117 11.0343 31.8907 9.9341 30.3795 9.9282L11.2097 9.85402C11.2097 9.85402 13.9973 5.95451 11.2383 2.46802L30.2641 2.54165C35.9689 2.56375 40.4149 7.12497 40.4273 12.821C40.4275 12.7988 40.429 12.777 40.4291 12.7548L40.4286 12.8872Z" fill="#121212"/>
</svg>
