<svg width="49" height="48" viewBox="0 0 49 48" fill="none" xmlns="http://www.w3.org/2000/svg">
<path fill-rule="evenodd" clip-rule="evenodd" d="M24.5 24C24.5 20.6863 27.1863 18 30.5 18C33.8137 18 36.5 20.6863 36.5 24C36.5 27.3137 33.8137 30 30.5 30C27.1863 30 24.5 27.3137 24.5 24Z" fill="#1ABCFE"/>
<path fill-rule="evenodd" clip-rule="evenodd" d="M12.5 36C12.5 32.6863 15.1863 30 18.5 30H24.5V36C24.5 39.3137 21.8137 42 18.5 42C15.1863 42 12.5 39.3137 12.5 36Z" fill="#0ACF83"/>
<path fill-rule="evenodd" clip-rule="evenodd" d="M24.5 6V18H30.5C33.8137 18 36.5 15.3137 36.5 12C36.5 8.68629 33.8137 6 30.5 6H24.5Z" fill="#FF7262"/>
<path fill-rule="evenodd" clip-rule="evenodd" d="M12.5 12C12.5 15.3137 15.1863 18 18.5 18H24.5V6H18.5C15.1863 6 12.5 8.68629 12.5 12Z" fill="#F24E1E"/>
<path fill-rule="evenodd" clip-rule="evenodd" d="M12.5 24C12.5 27.3137 15.1863 30 18.5 30H24.5V18H18.5C15.1863 18 12.5 20.6863 12.5 24Z" fill="#A259FF"/>
</svg>
