<svg width="193" height="80" viewBox="0 0 193 80" fill="none" xmlns="http://www.w3.org/2000/svg">
<g id="logo1 (1) 1">
<path id="Vector" d="M112.539 37.8601L105.111 30.1793V30.126C104.659 29.6835 104.061 29.4423 103.443 29.4535C102.825 29.4647 102.235 29.7273 101.798 30.1859C101.361 30.6446 101.111 31.2635 101.1 31.912C101.089 32.5605 101.32 33.1881 101.741 33.6623L101.792 33.7079L109.111 41.4952H112.575V37.8601H112.539Z" fill="white"/>
<path id="Vector_2" d="M113.809 46.4242L121.223 54.1051L121.273 54.1583C121.72 54.6262 122.326 54.8887 122.957 54.888C123.588 54.8873 124.194 54.6234 124.64 54.1545C125.086 53.6856 125.336 53.0499 125.335 52.3875C125.334 51.725 125.083 51.09 124.636 50.6221L124.593 50.5764L117.274 42.7891H113.809V46.4242Z" fill="white"/>
<path id="Vector_3" d="M117.252 41.4952L124.571 33.7079L124.621 33.6623C125.044 33.1881 125.273 32.5605 125.262 31.912C125.252 31.2635 125.001 30.6446 124.564 30.1859C124.128 29.7273 123.538 29.4647 122.92 29.4535C122.301 29.4423 121.704 29.6835 121.252 30.126L121.208 30.1793L113.809 37.8601V41.4952H117.252Z" fill="white"/>
<path id="Vector_4" d="M109.079 42.7889L101.768 50.5686L101.717 50.6143C101.27 51.0872 101.021 51.7271 101.023 52.3931C101.024 52.7229 101.087 53.0492 101.21 53.3533C101.331 53.6575 101.508 53.9334 101.731 54.1656C101.955 54.3978 102.219 54.5817 102.51 54.7066C102.801 54.8315 103.112 54.895 103.426 54.8936C104.061 54.8908 104.669 54.6235 105.116 54.1505L105.159 54.0973L112.58 46.424V42.7812H109.109L109.079 42.7889Z" fill="white"/>
<path id="Vector_5" d="M47.2031 51.0997L46.3262 37.9282C46.2248 36.4072 46.1596 35.1296 46.1596 33.814C45.8842 35.2361 45.6812 36.0954 45.2754 37.6164L41.5578 51.0997H37.543L34.1951 38.1715C33.8907 36.9624 33.4703 35.2285 33.2457 33.8064C33.2457 35.2665 33.1804 36.719 33.079 38.24L32.2673 51.0997H27.5714L29.7454 26.4525H35.7966L38.8692 38.7951C39.2053 40.0796 39.4763 41.3818 39.6809 42.6964C39.9051 41.3457 40.1954 40.008 40.5505 38.6886L43.7246 26.4525H49.7395L51.8338 51.0997H47.2031ZM67.7696 52.0198C66.7426 51.6004 65.8834 50.8249 65.3347 49.8221C65.011 50.1693 64.6621 50.4897 64.2911 50.7803C63.2544 51.4802 62.0373 51.8281 60.8054 51.7765C56.9573 51.7765 54.863 49.7156 54.863 46.1033C54.863 41.8446 57.6675 39.8598 63.1751 39.8598H64.1897V39.0993C64.1897 37.0764 63.8129 36.3996 62.1606 36.3996C60.7112 36.3996 59.0154 37.1601 57.1603 38.4605L55.2325 35.0536C56.1199 34.4554 57.0589 33.9461 58.0372 33.5326C59.5267 32.8358 61.1384 32.4732 62.7693 32.4679C65.668 32.4679 67.6682 33.601 68.3421 35.6239C68.6491 36.6794 68.7526 37.7885 68.6464 38.8864L68.545 44.9702C68.545 46.9551 68.6464 47.8068 70.1683 49.016L67.7696 52.0198ZM63.9143 43.1527C60.7764 43.1527 59.6894 43.761 59.6894 45.9208C59.6603 46.2167 59.6899 46.5157 59.7761 46.7991C59.8624 47.0825 60.0034 47.3441 60.1906 47.5676C60.3777 47.7911 60.6067 47.9716 60.8634 48.0978C61.1201 48.224 61.3989 48.2932 61.6823 48.3011C62.1383 48.278 62.5847 48.1551 62.9927 47.9403C63.4008 47.7256 63.7617 47.4236 64.052 47.0539L64.1172 43.1527H63.9143ZM78.2993 51.5255C76.002 51.5255 74.1758 50.4609 73.6395 48.8639C73.3458 47.9652 73.242 47.0103 73.3352 46.0653V36.1791H71.6105V32.947H73.3352C73.2987 31.5125 73.3544 30.077 73.5019 28.6503L78.0964 27.4488C77.9194 29.2757 77.8299 31.1107 77.8282 32.947H81.8792L80.7341 36.2095H77.8355V45.3352C77.8355 47.6167 78.2413 48.2403 79.7921 48.2403C80.3459 48.2021 80.8921 48.0844 81.4154 47.8904L81.9879 50.727C80.8209 51.2469 79.5671 51.5183 78.2993 51.5255ZM92.4523 37.0916C92.0516 36.8501 91.5953 36.729 91.1334 36.7418C90.5931 36.7625 90.064 36.9099 89.585 37.1731C89.106 37.4362 88.6892 37.8086 88.3651 38.2628V51.0997H83.8358V38.97C83.9007 37.171 83.6854 35.3729 83.1982 33.6467L87.2491 32.5135C87.682 33.3032 87.9303 34.1893 87.9738 35.0992C88.9521 33.7151 90.3435 32.5135 92.032 32.5135C92.6169 32.492 93.1976 32.6254 93.7205 32.9014L92.4523 37.0916ZM97.2135 30.8861C96.8471 30.8841 96.4846 30.8064 96.1469 30.6574C95.8091 30.5085 95.5026 30.2911 95.2449 30.0178C94.9872 29.7445 94.7833 29.4207 94.6448 29.0647C94.5064 28.7087 94.4361 28.3276 94.4379 27.9431C94.4456 27.1584 94.7485 26.4087 95.2806 25.8575C95.8128 25.3062 96.531 24.998 97.2787 25C97.6447 25.001 98.0069 25.0781 98.3443 25.2269C98.6821 25.3757 98.9873 25.5933 99.2443 25.867C99.5013 26.1407 99.7042 26.4651 99.8401 26.8214C99.9769 27.1778 100.045 27.559 100.04 27.9431C100.041 28.3318 99.9681 28.7168 99.8263 29.0758C99.6845 29.4349 99.4757 29.7607 99.2128 30.0345C98.9499 30.3083 98.6378 30.5246 98.2946 30.6708C97.9513 30.8169 97.5838 30.8902 97.2135 30.8861ZM94.967 51.0997V33.2588L99.4964 32.4983V51.0997H94.967ZM129.099 30.8861C128.734 30.8841 128.372 30.8064 128.034 30.6573C127.697 30.5082 127.391 30.2908 127.134 30.0174C126.877 29.744 126.673 29.42 126.535 29.0641C126.398 28.7081 126.328 28.3272 126.331 27.9431C126.337 27.1591 126.639 26.4094 127.169 25.8579C127.7 25.3064 128.418 24.998 129.165 25C129.531 25.001 129.893 25.0781 130.231 25.2269C130.567 25.3757 130.874 25.5933 131.131 25.867C131.388 26.1407 131.59 26.4651 131.726 26.8214C131.863 27.1778 131.93 27.559 131.926 27.9431C131.927 28.3318 131.854 28.7168 131.713 29.0758C131.57 29.4349 131.362 29.7607 131.099 30.0345C130.836 30.3083 130.524 30.5246 130.18 30.6708C129.838 30.8169 129.47 30.8902 129.099 30.8861ZM126.853 51.0997V33.2588L131.375 32.4983V51.0997H126.853ZM146.637 52.0198C145.61 51.6004 144.751 50.8249 144.202 49.8221C143.88 50.1711 143.531 50.4916 143.159 50.7803C142.122 51.4802 140.905 51.8281 139.673 51.7765C135.825 51.7765 133.73 49.7156 133.73 46.1033C133.73 41.8446 136.535 39.8598 142.042 39.8598H143.057V39.0993C143.057 37.0764 142.68 36.3996 141.028 36.3996C139.578 36.3996 137.883 37.1601 136.028 38.4605L134.1 35.1068C134.987 34.5086 135.926 33.9994 136.904 33.5858C138.394 32.889 140.006 32.5264 141.636 32.5212C144.535 32.5212 146.535 33.6543 147.21 35.6771C147.516 36.7326 147.62 37.8417 147.514 38.9396L147.413 45.0234C147.413 47.0083 147.514 47.86 149.035 49.0692L146.637 52.0198ZM142.796 43.1527C139.658 43.1527 138.579 43.761 138.579 45.9208C138.548 46.2169 138.577 46.5164 138.663 46.8003C138.748 47.0842 138.89 47.3463 139.077 47.57C139.264 47.7937 139.494 47.9742 139.751 48.1001C140.009 48.2259 140.287 48.2944 140.571 48.3011C141.024 48.2749 141.466 48.1505 141.87 47.9358C142.274 47.7212 142.631 47.4209 142.919 47.0539L142.984 43.1527H142.796ZM160.392 51.0997V39.2894C160.392 37.2361 160.051 36.6277 158.87 36.6277C157.674 36.7807 156.564 37.3575 155.724 38.2628V51.0997H151.195V37.9282C151.217 36.4831 151.012 35.0442 150.586 33.6695L154.609 32.4679C155.009 33.1566 155.231 33.943 155.254 34.7494C155.892 34.2596 156.557 33.8101 157.247 33.4033C158.215 32.9073 159.277 32.6473 160.355 32.6428C162.282 32.6428 163.978 33.6999 164.515 35.2665C164.771 36.101 164.883 36.9764 164.849 37.8521V51.0997H160.392Z" fill="white"/>
</g>
</svg>
