<svg width="48" height="48" viewBox="0 0 48 48" fill="none" xmlns="http://www.w3.org/2000/svg">
<path d="M4 18.2C4 12.8795 4 10.2193 5.03544 8.18709C5.94624 6.39955 7.39955 4.94624 9.18709 4.03544C11.2193 3 13.8795 3 19.2 3H30.8C36.1205 3 38.7807 3 40.8129 4.03544C42.6004 4.94624 44.0538 6.39955 44.9646 8.18709C46 10.2193 46 12.8795 46 18.2V29.8C46 35.1205 46 37.7807 44.9646 39.8129C44.0538 41.6004 42.6004 43.0538 40.8129 43.9646C38.7807 45 36.1205 45 30.8 45H19.2C13.8795 45 11.2193 45 9.18709 43.9646C7.39955 43.0538 5.94624 41.6004 5.03544 39.8129C4 37.7807 4 35.1205 4 29.8V18.2Z" fill="#001E36"/>
<path d="M13 33.7744V15.3051C13 15.1795 13.0525 15.1077 13.175 15.1077C14.9834 15.1077 16.7911 15 18.6 15C21.5352 15 24.7135 16.0036 25.8275 19.0744C26.09 19.8282 26.23 20.6 26.23 21.4077C26.23 22.9513 25.88 24.2256 25.18 25.2308C23.2246 28.0385 19.8355 27.9949 16.7975 27.9949V33.7564C16.8213 33.927 16.6759 34.0077 16.535 34.0077H13.21C13.07 34.0077 13 33.9359 13 33.7744ZM16.815 18.5718V24.6026C18.0196 24.6908 19.2801 24.7004 20.4375 24.3154C21.7152 23.9468 22.415 22.8407 22.415 21.5154C22.4505 20.386 21.8351 19.3024 20.7875 18.8949C19.644 18.4194 18.0493 18.3909 16.815 18.5718Z" fill="#31A8FF"/>
<path d="M37.145 23.4111C36.6155 23.132 36.0515 22.9279 35.4686 22.8042C34.7194 22.6279 31.7647 22.0106 31.7636 23.5555C31.7898 24.4181 33.159 24.8407 33.7639 25.0871C35.8877 25.8162 38.291 27.1196 38.2438 29.7396C38.3087 33.0012 35.1486 34.3051 32.4397 34.3054C31.0295 34.32 29.5604 34.1016 28.2698 33.4963C28.1466 33.431 28.0673 33.2916 28.0726 33.1495V30.0286C28.0587 29.9034 28.193 29.7941 28.298 29.8841C29.5625 30.6488 31.0614 31.0201 32.5242 31.04C33.17 31.04 34.4499 30.9774 34.4402 30.0286C34.4402 29.118 32.9091 28.6994 32.2988 28.4681C31.4142 28.1523 30.5753 27.7148 29.8053 27.1677C28.7293 26.4002 28.0542 25.1695 28.0726 23.8156C28.0663 20.7445 30.9752 19.3661 33.5949 19.3654C34.8196 19.3553 36.1347 19.446 37.2748 19.9434C37.4387 19.9916 37.4727 20.1643 37.472 20.319V23.2377C37.4824 23.4188 37.2812 23.4805 37.145 23.4111Z" fill="#31A8FF"/>
</svg>
