<svg width="49" height="48" viewBox="0 0 49 48" fill="none" xmlns="http://www.w3.org/2000/svg">
<path d="M3.5 18.2C3.5 12.8795 3.5 10.2193 4.53544 8.18709C5.44624 6.39955 6.89955 4.94624 8.68709 4.03544C10.7193 3 13.3795 3 18.7 3H30.3C35.6205 3 38.2807 3 40.3129 4.03544C42.1004 4.94624 43.5538 6.39955 44.4646 8.18709C45.5 10.2193 45.5 12.8795 45.5 18.2V29.8C45.5 35.1205 45.5 37.7807 44.4646 39.8129C43.5538 41.6004 42.1004 43.0538 40.3129 43.9646C38.2807 45 35.6205 45 30.3 45H18.7C13.3795 45 10.7193 45 8.68709 43.9646C6.89955 43.0538 5.44624 41.6004 4.53544 39.8129C3.5 37.7807 3.5 35.1205 3.5 29.8V18.2Z" fill="#330000"/>
<path d="M23.853 29.3944H17.3446L16.0203 33.6134C15.9836 33.7702 15.8392 33.8812 15.6822 33.8735H12.3858C12.1978 33.8735 12.132 33.7676 12.1885 33.5556L17.8235 16.9107C17.8799 16.7373 17.9363 16.5399 17.9926 16.3183C18.0663 15.9328 18.104 15.5409 18.1053 15.148C18.0892 15.0319 18.1912 14.9294 18.3025 14.9457H22.7823C22.9135 14.9457 22.9887 14.9939 23.0077 15.0902L29.4035 33.5845C29.4598 33.7773 29.4034 33.8736 29.2344 33.8735H25.5716C25.4431 33.8881 25.3205 33.8 25.2899 33.6712L23.853 29.3944ZM18.3588 25.7533H22.8105C22.0791 23.2541 21.2537 20.7876 20.5847 18.2689C19.8629 20.7919 19.0754 23.3047 18.3588 25.7533Z" fill="#FF9A00"/>
<path d="M33.2067 18.0087C32.9194 18.0206 32.6328 17.9701 32.3658 17.8605C32.0987 17.751 31.8573 17.5848 31.6571 17.373C31.4575 17.152 31.3025 16.8927 31.201 16.61C31.0994 16.3273 31.0533 16.0268 31.0654 15.7258C31.0551 15.4278 31.1063 15.1309 31.2155 14.8546C31.3248 14.5782 31.4896 14.3286 31.6993 14.122C31.907 13.9176 32.1521 13.7574 32.4205 13.6508C32.6889 13.5441 32.9753 13.4931 33.263 13.5007C33.9393 13.5007 34.4699 13.7078 34.855 14.122C35.0493 14.3373 35.2004 14.5897 35.2995 14.8649C35.3986 15.1401 35.4438 15.4327 35.4325 15.7258C35.4443 16.028 35.3967 16.3295 35.2927 16.6125C35.1886 16.8954 35.0302 17.1541 34.8268 17.373C34.6142 17.5879 34.3605 17.7554 34.0816 17.8648C33.8028 17.9742 33.5049 18.0232 33.2067 18.0087ZM31.2626 33.5844V19.7714C31.2626 19.5981 31.3375 19.5114 31.488 19.5114H34.9536C35.1037 19.5114 35.1788 19.5981 35.179 19.7714V33.5844C35.179 33.7772 35.1038 33.8736 34.9536 33.8734H31.5162C31.3472 33.8734 31.2627 33.7771 31.2626 33.5844Z" fill="#FF9A00"/>
</svg>
