<svg width="49" height="48" viewBox="0 0 49 48" fill="none" xmlns="http://www.w3.org/2000/svg">
<path fill-rule="evenodd" clip-rule="evenodd" d="M12.6636 7.18526L24.5 6L36.3363 7.18526L45.4999 18.837L24.5 41.9999L3.5 18.837L12.6636 7.18526Z" fill="#FDB300"/>
<path d="M12.0059 18.8369L24.4999 41.9999L3.5 18.8369H12.0059ZM36.9941 18.8369L24.5001 41.9999L45.5 18.8369" fill="#EA6C00"/>
<path fill-rule="evenodd" clip-rule="evenodd" d="M12.0059 18.8369H36.9937L24.4998 41.9999" fill="#FDAD00"/>
<path d="M24.4998 6L12.6634 7.18507L12.0059 18.8369L24.4998 6ZM24.5 6L36.3363 7.18507L36.9939 18.8369" fill="#FDD231"/>
<path d="M45.5 18.8369L36.3365 7.18506L36.9941 18.8369H45.5ZM3.5 18.8369L12.6635 7.18506L12.0059 18.8369" fill="#FDAD00"/>
<path fill-rule="evenodd" clip-rule="evenodd" d="M24.4998 6L12.0059 18.8369H36.9937" fill="#FEEEB7"/>
</svg>
