<svg width="49" height="48" viewBox="0 0 49 48" fill="none" xmlns="http://www.w3.org/2000/svg">
<path d="M3.5 18.2C3.5 12.8795 3.5 10.2193 4.53544 8.18709C5.44624 6.39955 6.89955 4.94624 8.68709 4.03544C10.7193 3 13.3795 3 18.7 3H30.3C35.6205 3 38.2807 3 40.3129 4.03544C42.1004 4.94624 43.5538 6.39955 44.4646 8.18709C45.5 10.2193 45.5 12.8795 45.5 18.2V29.8C45.5 35.1205 45.5 37.7807 44.4646 39.8129C43.5538 41.6004 42.1004 43.0538 40.3129 43.9646C38.2807 45 35.6205 45 30.3 45H18.7C13.3795 45 10.7193 45 8.68709 43.9646C6.89955 43.0538 5.44624 41.6004 4.53544 39.8129C3.5 37.7807 3.5 35.1205 3.5 29.8V18.2Z" fill="#470137"/>
<path d="M25.4697 15.3507L20.2291 24.2222L25.836 33.6428C25.9525 33.8564 25.836 33.9036 25.6669 33.9036H21.6661C21.3843 33.9036 21.1871 33.8934 21.0744 33.7006C20.6984 32.9493 20.3228 32.2028 19.9474 31.4611C19.5714 30.7196 19.1723 29.9635 18.75 29.1926C18.3274 28.4223 17.9094 27.6421 17.4962 26.8519C17.1202 27.6226 16.7023 28.3932 16.2987 29.1637C15.8946 29.9345 15.4955 30.7002 15.1013 31.4611C14.7069 32.2223 14.3031 32.9785 13.8898 33.7295C13.8145 33.9029 13.6829 33.9208 13.4953 33.9208H9.63539C9.48373 33.9208 9.46543 33.8068 9.55088 33.6717L14.9886 24.5112L9.6917 15.3218C9.59548 15.1907 9.6783 15.051 9.83261 15.0617H13.8052C13.9772 15.052 14.1293 15.1169 14.2279 15.264C14.566 16.0347 14.9416 16.8053 15.3548 17.5758C15.7678 18.3466 16.1858 19.1075 16.6086 19.8587C17.0313 20.61 17.4492 21.371 17.8061 22.1416C18.1816 21.3519 18.562 20.5813 18.9472 19.8298C19.332 19.0785 19.7264 18.3223 20.1305 17.5614C20.5343 16.8005 20.924 16.0444 21.2998 15.2929C21.3497 15.1281 21.4691 15.0445 21.6379 15.0617H25.3288C25.4697 15.0617 25.528 15.2541 25.4697 15.3507Z" fill="#FF61F6"/>
<path d="M33.5557 34.2788C31.0709 34.3175 28.4683 33.2945 27.16 31.0278C26.5212 29.9396 26.2019 28.5766 26.202 26.9388C26.1914 25.6125 26.5219 24.3068 27.16 23.1532C28.8065 20.21 32.1236 19.1072 35.2744 19.3966V13.7038C35.2744 13.5692 35.3307 13.5015 35.4435 13.5015H38.9934C39.0905 13.4873 39.1764 13.5754 39.1625 13.6749V30.7533C39.1625 31.4579 39.2324 32.1601 39.2753 32.8628C39.2822 32.9828 39.2127 33.1015 39.1062 33.1518C37.3521 33.9021 35.4542 34.2701 33.5557 34.2788ZM35.2743 30.6955V22.8065C32.701 22.0915 30.2026 24.0516 30.2029 26.7654C30.1417 29.5712 32.5603 31.5096 35.2743 30.6955Z" fill="#FF61F6"/>
</svg>
