<svg width="193" height="80" viewBox="0 0 193 80" fill="none" xmlns="http://www.w3.org/2000/svg">
<g id="logo3 1">
<path id="Vector" d="M39.122 34.1335L38.4026 23.1577H48.67V33.6225L39.122 34.1335Z" fill="white"/>
<path id="Vector_2" d="M51.2967 23.668L61.8192 24.437V33.6265H50.7959L51.2967 23.668Z" fill="white"/>
<path id="Vector_3" d="M39.1262 36.8257V44.993L49.389 46.2683V36.8257H39.1262Z" fill="white"/>
<path id="Vector_4" d="M51.7422 37.0932L51.774 45.6938L60.7847 45.353L61.1763 36.772L51.7422 37.0932Z" fill="white"/>
<path id="Vector_5" d="M48.6725 48.8137V57.4873H39.3567L40.0761 48.2979L48.6725 48.8137Z" fill="white"/>
<path id="Vector_6" d="M77.1132 52.8951C77.1678 53.4499 76.8992 53.9804 76.4347 54.2336C76.1888 54.3406 75.9294 54.3991 75.6608 54.3991C75.4149 54.3893 75.1781 54.3309 74.9504 54.2336C74.4905 53.9756 74.2219 53.4499 74.272 52.8951V39.6657H72.7012C72.1047 39.7241 71.5811 39.2569 71.5264 38.6193C71.5174 38.5414 71.5219 38.4586 71.531 38.3807C71.4582 37.748 71.8771 37.1736 72.469 37.1006C72.5464 37.0909 72.6238 37.0909 72.7012 37.0958H74.2903C74.2903 34.5891 74.2903 33.6983 74.8138 32.7103C75.5515 31.2258 77.095 30.666 78.9845 30.666C79.4762 30.666 80.5873 30.666 80.5873 31.951C80.5873 33.1045 79.6948 33.2068 79.1986 33.236C78.3653 33.3041 77.9965 33.3333 77.6277 33.6838C77.1041 34.1316 77.1041 34.5745 77.1041 37.1153H79.3806C79.7995 37.1153 80.5554 37.2125 80.5554 38.4002C80.61 39.0426 80.1638 39.6121 79.5628 39.6657C79.4945 39.6705 79.4262 39.6705 79.3624 39.6657H77.1086L77.1132 52.8951ZM93.5046 53.0459C93.4773 53.4061 93.4135 54.3844 92.2524 54.3844C91.7607 54.4137 91.3008 54.1314 91.0777 53.6592C90.9867 53.3963 90.9548 53.2601 90.9548 52.0774C89.7528 53.6836 87.9133 54.5889 85.9873 54.5159C82.7773 54.5159 80.8058 52.4083 80.8058 49.2738C80.8058 45.3507 83.8291 44.7229 85.4956 44.3675L88.1182 43.7737C89.1654 43.5401 89.7209 43.4135 89.9987 43.3259C90.6452 43.1312 90.8637 42.8781 90.8637 42.041C90.8637 39.2374 88.2093 39.2374 87.6537 39.2374C84.9719 39.2374 84.5075 40.6538 84.2298 41.5494C84.1387 41.9972 83.9839 42.6056 82.9321 42.6056C81.7893 42.6056 81.4842 41.9144 81.4842 41.3205C81.5526 40.6343 81.7756 39.9821 82.1308 39.4077C83.3829 37.3975 85.5229 36.8037 87.6492 36.8037C89.4386 36.8037 91.2872 37.1639 92.4301 38.59C93.4773 39.9285 93.4773 41.5932 93.4773 43.2042L93.5046 53.0459ZM87.1802 46.3582C86.6475 46.4654 86.1194 46.6114 85.6094 46.806C84.5166 47.0689 83.7426 48.1154 83.7562 49.3127C83.7562 51.1282 85.0812 52.0481 86.6247 52.0481C87.9452 52.053 89.1972 51.4057 90.0169 50.3007C90.8182 49.1132 90.85 47.5604 90.8819 45.3556C90.2127 45.6525 89.5115 45.8618 88.7966 45.9835L87.1802 46.3582ZM106.754 48.9331C106.973 48.31 107.246 47.6481 108.079 47.6481C108.453 47.6481 109.559 47.8817 109.559 49.0353C109.504 49.7411 109.286 50.4224 108.917 51.0114C108.425 51.9362 107.005 54.5061 102.624 54.5061C97.006 54.5061 95.1893 49.7264 95.1893 45.5843C95.1711 44.2848 95.3577 42.9901 95.7448 41.7586C97.4158 36.7453 101.637 36.7453 102.78 36.7453C106.358 36.7453 107.788 38.3613 108.621 39.8117C109.268 40.902 109.268 41.2962 109.268 41.5299C109.24 42.3573 108.593 43.0096 107.816 42.9852C107.797 42.9852 107.774 42.9852 107.756 42.9803C106.891 42.9803 106.613 42.3573 106.276 41.5932C105.648 40.0843 104.2 39.1546 102.657 39.2715C99.3875 39.2715 98.1215 42.2745 98.1215 45.4724C98.1215 48.31 98.9228 51.9362 102.657 51.9362C105.484 51.9362 106.29 49.9893 106.754 48.9331ZM113.02 39.6657H111.385C110.783 39.7143 110.256 39.2325 110.21 38.59C110.205 38.5219 110.205 38.4489 110.214 38.3807C110.141 37.748 110.561 37.1736 111.153 37.1006C111.23 37.0909 111.307 37.0909 111.385 37.0958H113.056V33.236C113.056 32.7882 113.179 31.8196 114.444 31.8196C115.711 31.8196 115.865 32.7736 115.865 33.236V37.0958H117.778C118.365 37.0374 118.883 37.4949 118.944 38.1228C118.952 38.2055 118.947 38.2931 118.939 38.3807C118.998 39.0232 118.557 39.5976 117.951 39.6609C117.891 39.6657 117.832 39.6657 117.778 39.6657H115.865V48.0472C115.865 50.0282 115.893 50.2764 115.988 50.6512C116.207 51.6052 116.789 51.7707 117.623 51.8389C118.365 51.873 119.135 51.9362 119.135 53.0946C119.135 54.2481 118.146 54.3893 117.313 54.3893C113.024 54.3893 113.024 51.9118 113.024 49.3467V39.6657H113.02ZM134.433 52.9242C134.469 53.4597 134.2 53.9658 133.754 54.2092C133.299 54.4087 132.789 54.4087 132.334 54.2092C131.687 53.8491 131.687 53.3185 131.687 51.98C130.362 53.8587 129.033 54.4866 126.779 54.4866C126.041 54.4866 124.061 54.4185 122.677 52.8075C121.352 51.2256 121.352 49.1132 121.352 47.5604V38.4148C121.384 37.5679 122.053 36.9108 122.845 36.9497C123.579 36.9838 124.17 37.6019 124.216 38.3856V46.5919C124.216 48.8211 124.307 49.7118 124.707 50.515C125.418 51.9021 126.87 51.9021 127.235 51.9021C129.238 51.98 131 50.5052 131.405 48.4074C131.56 47.4923 131.615 46.5626 131.56 45.6379V38.4148C131.601 37.5679 132.279 36.9205 133.072 36.9643C133.805 37.0081 134.387 37.6312 134.429 38.4148L134.433 52.9242ZM149.031 53.0459C149.003 53.4061 148.939 54.3844 147.778 54.3844C147.287 54.4137 146.827 54.1314 146.604 53.6592C146.513 53.3963 146.481 53.2601 146.481 52.0774C145.278 53.6836 143.435 54.5889 141.513 54.5159C138.304 54.5159 136.331 52.4083 136.331 49.2738C136.331 45.3507 139.355 44.7229 141.021 44.3675L143.644 43.7737C144.691 43.5401 145.247 43.4135 145.524 43.3259C146.171 43.1312 146.39 42.8781 146.39 42.041C146.39 39.2374 143.735 39.2374 143.18 39.2374C140.498 39.2374 140.034 40.6538 139.756 41.5494C139.664 41.9972 139.51 42.6056 138.458 42.6056C137.315 42.6056 137.01 41.9144 137.01 41.3205C137.079 40.6343 137.301 39.9821 137.657 39.4077C138.909 37.3975 141.049 36.8037 143.175 36.8037C144.964 36.8037 146.817 37.1639 147.956 38.59C149.003 39.9285 149.003 41.5932 149.003 43.2042L149.031 53.0459ZM142.72 46.3582C142.187 46.4654 141.658 46.6114 141.149 46.806C140.056 47.0689 139.282 48.1154 139.296 49.3127C139.296 51.1282 140.621 52.0481 142.165 52.0481C143.485 52.053 144.737 51.4057 145.556 50.3007C146.357 49.1132 146.39 47.5604 146.421 45.3556C145.752 45.6525 145.051 45.8618 144.336 45.9835L142.72 46.3582ZM154.959 52.8951C154.959 53.7322 154.322 54.4087 153.538 54.4087C152.755 54.4087 152.122 53.7322 152.122 52.8951V32.1505C152.085 31.3864 152.632 30.7391 153.347 30.6953C153.411 30.6903 153.479 30.6953 153.543 30.7001C154.244 30.6125 154.877 31.1528 154.954 31.9023C154.964 31.9851 154.964 32.0678 154.959 32.1505V52.8951Z" fill="white"/>
</g>
</svg>
