<svg width="193" height="80" viewBox="0 0 193 80" fill="none" xmlns="http://www.w3.org/2000/svg">
<g id="logo2 1">
<path id="Vector" d="M88.8327 40.7078C88.8327 45.8225 84.8927 49.5914 80.0574 49.5914C75.2222 49.5914 71.2822 45.8225 71.2822 40.7078C71.2822 35.5571 75.2222 31.8242 80.0574 31.8242C84.8927 31.8242 88.8327 35.5571 88.8327 40.7078ZM84.9913 40.7078C84.9913 37.5116 82.7077 35.3248 80.0574 35.3248C77.4071 35.3248 75.1236 37.5116 75.1236 40.7078C75.1236 43.8719 77.4071 46.0908 80.0574 46.0908C82.7077 46.0908 84.9913 43.8679 84.9913 40.7078Z" fill="white"/>
<path id="Vector_2" d="M107.765 40.7078C107.765 45.8225 103.825 49.5914 98.9902 49.5914C94.1548 49.5914 90.2148 45.8225 90.2148 40.7078C90.2148 35.5611 94.1548 31.8242 98.9902 31.8242C103.825 31.8242 107.765 35.5571 107.765 40.7078ZM103.924 40.7078C103.924 37.5116 101.64 35.3248 98.9902 35.3248C96.3397 35.3248 94.0562 37.5116 94.0562 40.7078C94.0562 43.8719 96.3397 46.0908 98.9902 46.0908C101.64 46.0908 103.924 43.8679 103.924 40.7078Z" fill="white"/>
<path id="Vector_3" d="M125.909 32.3609V48.3097C125.909 54.8703 122.099 57.5498 117.595 57.5498C113.356 57.5498 110.804 54.67 109.841 52.3149L113.186 50.9011C113.781 52.347 115.241 54.0532 117.591 54.0532C120.474 54.0532 122.261 52.2469 122.261 48.8464V47.5687H122.127C121.267 48.6462 119.611 49.5874 117.52 49.5874C113.147 49.5874 109.139 45.7183 109.139 40.7398C109.139 35.7253 113.147 31.8242 117.52 31.8242C119.607 31.8242 121.263 32.7654 122.127 33.8108H122.261V32.3649H125.909V32.3609ZM122.533 40.7398C122.533 37.6117 120.478 35.3248 117.864 35.3248C115.213 35.3248 112.993 37.6117 112.993 40.7398C112.993 43.8359 115.213 46.0908 117.864 46.0908C120.478 46.0908 122.533 43.8359 122.533 40.7398Z" fill="white"/>
<path id="Vector_4" d="M131.926 23.0156V49.0496H128.18V23.0156H131.926Z" fill="white"/>
<path id="Vector_5" d="M146.521 43.6317L149.503 45.6503C148.541 47.0962 146.222 49.5875 142.215 49.5875C137.245 49.5875 133.534 45.6864 133.534 40.7039C133.534 35.421 137.277 31.8203 141.785 31.8203C146.324 31.8203 148.545 35.4891 149.271 37.4717L149.668 38.481L137.975 43.3994C138.87 45.1817 140.263 46.0909 142.215 46.0909C144.171 46.0909 145.528 45.1136 146.521 43.6317ZM137.344 40.4355L145.16 37.1392C144.731 36.0298 143.437 35.2568 141.915 35.2568C139.963 35.2568 137.245 37.0071 137.344 40.4355Z" fill="white"/>
<path id="Vector_6" d="M57.1023 38.3974V34.6285H69.6085C69.7307 35.2853 69.7939 36.0624 69.7939 36.9035C69.7939 39.7312 69.0327 43.2277 66.5795 45.719C64.1935 48.2423 61.1448 49.588 57.1063 49.588C49.6206 49.588 43.3262 43.3959 43.3262 35.794C43.3262 28.1921 49.6206 22 57.1063 22C61.2474 22 64.1975 23.6502 66.4139 25.801L63.7951 28.4604C62.2057 26.9465 60.0524 25.7689 57.1023 25.7689C51.636 25.7689 47.3609 30.2428 47.3609 35.794C47.3609 41.3453 51.636 45.8191 57.1023 45.8191C60.6479 45.8191 62.6671 44.3732 63.9608 43.0595C65.0099 41.9941 65.7001 40.4721 65.9722 38.3934L57.1023 38.3974Z" fill="white"/>
</g>
</svg>
