<svg width="193" height="80" viewBox="0 0 193 80" fill="none" xmlns="http://www.w3.org/2000/svg">
<g id="logo4 1">
<path id="Vector" d="M99.4284 31.5425C99.4284 32.7678 98.447 33.7548 97.2288 33.7548C96.0107 33.7548 95.0294 32.7678 95.0294 31.5425C95.0294 30.3173 95.9769 29.3303 97.2288 29.3303C98.4811 29.3644 99.4284 30.3514 99.4284 31.5425ZM90.3599 36.001V36.5455C90.3599 36.5455 89.3109 35.1842 87.0776 35.1842C83.3893 35.1842 80.5131 38.009 80.5131 41.9229C80.5131 45.8028 83.3556 48.6617 87.0776 48.6617C89.3448 48.6617 90.3599 47.2663 90.3599 47.2663V47.8448C90.3599 48.1171 90.5629 48.3213 90.8336 48.3213H93.5744V35.5245H90.8336C90.5629 35.5245 90.3599 35.7628 90.3599 36.001ZM90.3599 44.2032C89.8523 44.952 88.8372 45.5986 87.619 45.5986C85.4535 45.5986 83.7954 44.2372 83.7954 41.9229C83.7954 39.6086 85.4535 38.2472 87.619 38.2472C88.8034 38.2472 89.8862 38.9279 90.3599 39.6426V44.2032ZM95.6047 35.5245H98.8534V48.3213H95.6047V35.5245ZM144.128 35.1842C141.894 35.1842 140.846 36.5455 140.846 36.5455V29.3644H137.597V48.3213H140.338C140.608 48.3213 140.811 48.0831 140.811 47.8448V47.2663C140.811 47.2663 141.861 48.6617 144.094 48.6617C147.782 48.6617 150.658 45.8028 150.658 41.9229C150.658 38.043 147.782 35.1842 144.128 35.1842ZM143.586 45.5646C142.334 45.5646 141.353 44.9179 140.846 44.1692V39.6086C141.353 38.9279 142.436 38.2132 143.586 38.2132C145.751 38.2132 147.41 39.5746 147.41 41.8889C147.41 44.2032 145.751 45.5646 143.586 45.5646ZM135.905 40.7317V48.3554H132.657V41.1061C132.657 38.996 131.979 38.1451 130.153 38.1451C129.171 38.1451 128.156 38.6557 127.513 39.4044V48.3213H124.265V35.5245H126.836C127.107 35.5245 127.31 35.7628 127.31 36.001V36.5455C128.257 35.5586 129.51 35.1842 130.761 35.1842C132.183 35.1842 133.367 35.5926 134.314 36.4094C135.465 37.3624 135.905 38.5876 135.905 40.7317ZM116.381 35.1842C114.148 35.1842 113.099 36.5455 113.099 36.5455V29.3644H109.85V48.3213H112.591C112.862 48.3213 113.064 48.0831 113.064 47.8448V47.2663C113.064 47.2663 114.114 48.6617 116.347 48.6617C120.035 48.6617 122.911 45.8028 122.911 41.9229C122.945 38.043 120.07 35.1842 116.381 35.1842ZM115.839 45.5646C114.588 45.5646 113.606 44.9179 113.099 44.1692V39.6086C113.606 38.9279 114.689 38.2132 115.839 38.2132C118.005 38.2132 119.663 39.5746 119.663 41.8889C119.663 44.2032 118.005 45.5646 115.839 45.5646ZM107.042 35.1842C108.023 35.1842 108.531 35.3544 108.531 35.3544V38.3834C108.531 38.3834 105.824 37.4645 104.131 39.4044V48.3554H100.883V35.5245H103.624C103.895 35.5245 104.098 35.7628 104.098 36.001V36.5455C104.707 35.8308 106.027 35.1842 107.042 35.1842ZM73.3058 47.1642C73.1366 46.7558 72.9674 46.3133 72.7983 45.9389C72.5276 45.3263 72.2569 44.7477 72.02 44.2032L71.9862 44.1692C69.6514 39.0641 67.1474 33.8909 64.5081 28.7858L64.4066 28.5816C64.1359 28.0711 63.8652 27.5265 63.5945 26.982C63.2561 26.3694 62.9178 25.7227 62.3764 25.1101C61.2935 23.7487 59.737 23 58.079 23C56.3872 23 54.8644 23.7487 53.7478 25.042C53.2403 25.6547 52.8681 26.3013 52.5296 26.9139C52.2589 27.4585 51.9882 28.003 51.7175 28.5135L51.616 28.7177C49.0105 33.8228 46.4728 38.996 44.138 44.1011L44.1042 44.1692C43.8673 44.7137 43.5966 45.2923 43.3259 45.9049C43.1567 46.2793 42.9875 46.6877 42.8184 47.1301C42.3784 48.3894 42.2431 49.5806 42.4123 50.8058C42.7845 53.3584 44.4764 55.5025 46.8111 56.4555C47.6909 56.8298 48.6045 57 49.552 57C49.8227 57 50.161 56.966 50.4317 56.9319C51.5484 56.7958 52.6989 56.4214 53.8154 55.7748C55.2028 54.992 56.5225 53.8689 58.0113 52.2352C59.5002 53.8689 60.8536 54.992 62.2072 55.7748C63.3238 56.4214 64.4743 56.7958 65.5909 56.9319C65.8616 56.966 66.1999 57 66.4706 57C67.4181 57 68.3656 56.8298 69.2115 56.4555C71.5801 55.5025 73.2381 53.3243 73.6103 50.8058C73.881 49.6146 73.7457 48.4234 73.3058 47.1642ZM58.0452 48.9339C56.2179 46.6196 55.0336 44.4414 54.6276 42.6036C54.4583 41.8208 54.4246 41.1401 54.5261 40.5275C54.5937 39.983 54.7968 39.5065 55.0675 39.0981C55.7104 38.1792 56.7931 37.6006 58.0452 37.6006C59.2971 37.6006 60.4138 38.1451 61.0228 39.0981C61.2935 39.5065 61.4965 39.983 61.5643 40.5275C61.6657 41.1401 61.6319 41.8549 61.4628 42.6036C61.0567 44.4074 59.8724 46.5856 58.0452 48.9339ZM71.5462 50.5335C71.3094 52.3033 70.1251 53.8348 68.4671 54.5155C67.655 54.8559 66.7752 54.958 65.8955 54.8559C65.0495 54.7538 64.2036 54.4815 63.3238 53.971C62.1057 53.2903 60.8875 52.2352 59.4663 50.6697C61.6996 47.9129 63.053 45.3944 63.5607 43.1481C63.7975 42.0931 63.8313 41.1401 63.7298 40.2553C63.5945 39.4044 63.29 38.6216 62.8162 37.9409C61.7672 36.4094 60.0077 35.5245 58.0452 35.5245C56.0826 35.5245 54.323 36.4434 53.2741 37.9409C52.8003 38.6216 52.4958 39.4044 52.3605 40.2553C52.2252 41.1401 52.2589 42.1271 52.5296 43.1481C53.0372 45.3944 54.4246 47.9469 56.624 50.7037C55.2366 52.2693 53.9847 53.3243 52.7665 54.005C51.8867 54.5155 51.0408 54.7878 50.1949 54.8899C49.2813 54.992 48.4015 54.8559 47.6232 54.5495C45.9652 53.8689 44.7809 52.3373 44.5441 50.5676C44.4425 49.7167 44.5102 48.8659 44.8486 47.9129C44.95 47.5726 45.1193 47.2322 45.2885 46.8238C45.5253 46.2793 45.796 45.7007 46.0667 45.1221L46.1006 45.0541C48.4354 39.983 50.9393 34.8098 53.5447 29.7728L53.6463 29.5686C53.917 29.0581 54.1877 28.5135 54.4583 28.003C54.7291 27.4585 55.0336 26.9479 55.4058 26.5055C56.1165 25.6887 57.0638 25.2462 58.1128 25.2462C59.1618 25.2462 60.1092 25.6887 60.8199 26.5055C61.1921 26.9479 61.4965 27.4585 61.7672 28.003C62.0379 28.5135 62.3086 29.0581 62.5794 29.5686L62.6808 29.7728C65.2526 34.8438 67.7565 40.017 70.0912 45.0881V45.1221C70.3619 45.6667 70.5989 46.2793 70.8695 46.8238C71.0387 47.2322 71.2079 47.5726 71.3094 47.9129C71.5801 48.7978 71.6816 49.6486 71.5462 50.5335Z" fill="white"/>
</g>
</svg>
