<svg width="194" height="80" viewBox="0 0 194 80" fill="none" xmlns="http://www.w3.org/2000/svg">
<g id="logo6 1">
<path id="Vector" d="M48.5 46.5104V26.4219H52.083V46.5102L48.5 46.5104ZM61.2547 31.9369C56.6608 31.9369 53.4817 35.4156 53.4817 39.3972C53.4817 43.8411 56.9402 46.9022 61.2903 46.9022C65.4189 46.9022 69.0014 43.8973 69.0014 39.3877C69.0014 35.5955 66.0329 31.9369 61.2547 31.9369ZM61.2124 35.3411C63.6166 35.3411 65.386 37.1841 65.386 39.41C65.386 41.7701 63.4351 43.4917 61.2773 43.4917C58.7278 43.4917 57.1232 41.5015 57.1232 39.4164C57.1232 37.1309 58.9347 35.3411 61.2124 35.3411ZM78.0037 31.9369C73.4099 31.9369 70.2309 35.4156 70.2309 39.3972C70.2309 43.8411 73.6893 46.9022 78.0395 46.9022C82.168 46.9022 85.7506 43.8973 85.7506 39.3877C85.7506 36.7321 84.5829 35.5537 84.5829 35.5537L85.5761 35.2183V32.3543H80.4871C80.4871 32.3543 79.384 31.9369 78.0037 31.9369ZM77.9616 35.3411C80.3657 35.3411 82.1352 37.1841 82.1352 39.41C82.1352 41.7701 80.1843 43.4917 78.0264 43.4917C75.4769 43.4917 73.8722 41.5015 73.8722 39.4164C73.8722 37.1309 75.6839 35.3411 77.9616 35.3411ZM82.1099 47.4922C82.1099 49.8523 80.1589 51.5867 78.0011 51.5867C75.4515 51.5867 73.8405 49.5774 73.8405 47.4922H70.2055C70.2055 51.9361 73.664 54.9973 78.0141 54.9973C82.1427 54.9973 85.7252 52.002 85.7252 47.4922H82.1099ZM87.1857 46.5104V32.3543H90.7686V46.5103L87.1857 46.5104ZM94.2479 46.5104V35.5252H92.3265V32.3543H94.2479V28.0074H97.8307V32.3543H99.8041V35.5252H97.8308V46.5103L94.2479 46.5104Z" fill="white"/>
<path id="Vector_2" d="M88.972 30.6734C90.2823 30.6734 91.3446 29.6272 91.3446 28.3367C91.3446 27.0462 90.2823 26 88.972 26C87.6616 26 86.5994 27.0462 86.5994 28.3367C86.5994 29.6272 87.6616 30.6734 88.972 30.6734Z" fill="white"/>
<path id="Vector_3" d="M107.861 31.9315C103.246 31.9315 100.271 35.412 100.271 39.5293C100.271 43.784 103.256 46.916 107.936 46.916C112.302 46.916 114.449 44.2311 114.449 44.2311L112.055 41.869C112.055 41.869 110.246 43.79 107.982 43.79C106.093 43.79 104.584 42.7523 104.057 40.8494H115.222V39.8776C115.222 36.0005 112.944 31.9315 107.861 31.9315ZM107.748 35.0385C109.398 35.0385 111.086 35.908 111.464 37.9855H103.96C104.257 36.5252 105.555 35.0385 107.748 35.0385ZM124.184 46.9179C119.556 46.9179 116.402 43.4458 116.402 39.3521C116.402 35.1274 119.966 31.9289 124.169 31.9289C128.232 31.9289 130.313 34.754 130.313 34.754L127.814 37.2044C127.814 37.2044 126.365 35.3621 124.152 35.3621C121.7 35.3621 120.023 37.2098 120.023 39.4063C120.023 41.7255 121.806 43.5049 124.125 43.5049C126.373 43.5049 127.81 41.6654 127.81 41.6654L130.335 44.1146C130.335 44.1146 128.275 46.9179 124.184 46.9179ZM131.638 46.5247V26.375H135.22V33.7781C135.22 33.7781 136.593 31.9289 139.577 31.9289C143.329 31.9289 145.502 34.6757 145.502 38.1887V46.5247H141.919V38.722C141.919 36.3619 140.428 35.3827 138.775 35.3827C136.891 35.3827 135.22 36.4382 135.22 38.9046V46.5247H131.638Z" fill="white"/>
</g>
</svg>
