<svg width="137" height="36" viewBox="0 0 137 36" fill="none" xmlns="http://www.w3.org/2000/svg">
<path d="M50 0H57.9818C63.3707 0.0509908 65.7094 2.09065 65.7094 6.78187V14.7875C65.7094 19.4278 63.3707 21.4674 57.9818 21.5184H55.0331V35.5921H50V0ZM60.6254 14.7875V6.78187C60.6254 2.19263 59.6086 0.509915 57.8293 0.509915H55.0331V21.0085H57.8293C59.6086 21.0085 60.6254 19.3258 60.6254 14.7875Z" fill="black"/>
<path d="M70.4104 8.31161C68.6819 8.31161 67.36 6.93484 67.36 5.20113C67.36 3.51841 68.6819 2.14164 70.4104 2.14164C72.0881 2.14164 73.4608 3.51841 73.4608 5.20113C73.4608 6.93484 72.0881 8.31161 70.4104 8.31161ZM67.8684 10.1983H72.9524V35.5921H67.8684V10.1983Z" fill="black"/>
<path d="M91.6644 14.7875C91.6644 18.5099 90.0884 20.6006 86.733 21.2635C90.0884 21.9263 91.6644 24.017 91.6644 27.7904V35.5921H86.5805V27.7904C86.5805 23.2011 85.5637 21.5184 83.7843 21.5184C82.0049 21.5184 80.9882 23.2011 80.9882 27.7904V35.5921H75.9551V27.7904C75.9551 24.017 77.4802 21.9263 80.8356 21.2635C77.4802 20.6006 75.9551 18.5099 75.9551 14.7875V10.1983H80.9882V14.7875C80.9882 19.3258 82.0049 21.0085 83.7843 21.0085C85.5637 21.0085 86.5805 19.3258 86.5805 14.7875V10.1983H91.6644V14.7875Z" fill="black"/>
<path d="M110.135 29.2691C110.135 34.0113 107.745 36 102.254 36C96.7638 36 94.4252 34.0113 94.4252 29.2691V16.5722C94.4252 11.83 96.7638 9.79037 102.254 9.79037C107.745 9.79037 110.135 11.83 110.135 16.5722V21.5184H99.4583V29.2691C99.4583 33.8584 100.475 35.5411 102.254 35.5411C104.034 35.5411 105.051 33.8584 105.051 29.2691V27.5864H110.135V29.2691ZM99.4583 21.0085H105.051V16.5722C105.051 11.983 104.034 10.3003 102.254 10.3003C100.475 10.3003 99.4583 11.983 99.4583 16.5722V21.0085Z" fill="black"/>
<path d="M112.95 0H117.983V35.5921H112.95V0Z" fill="black"/>
<path d="M121.291 10.1983H129.222C134.661 10.1983 137 12.289 137 16.9802V17.6941H131.916V16.9802C131.916 12.3909 130.899 10.7082 129.12 10.7082H126.324V35.5921H121.291V10.1983Z" fill="black"/>
<path d="M8.77266 9.34128C10.597 7.83095 10.8517 5.12765 9.34134 3.30329C7.83103 1.47894 5.12772 1.22437 3.30334 2.7347C1.47896 4.24504 1.22435 6.94834 2.73466 8.77269C4.24497 10.597 6.94828 10.8516 8.77266 9.34128Z" fill="black"/>
<path d="M6.05792 0.776575C3.1512 0.765339 0.785691 3.11259 0.774454 6.01931C0.763218 8.92603 3.11047 11.2915 6.01719 11.3028C8.92392 11.314 11.2894 8.96676 11.3007 6.06004C11.3119 3.15332 8.96464 0.787874 6.05792 0.776575ZM6.01949 10.6985C3.44645 10.6886 1.36869 8.59465 1.37868 6.02161C1.38868 3.44863 3.48258 1.37087 6.05562 1.3808C8.62866 1.39074 10.7064 3.48464 10.6965 6.05768C10.6864 8.63078 8.59253 10.7085 6.01949 10.6985Z" fill="black"/>
<path d="M40.4286 12.8871C40.4287 12.8649 40.4273 12.8431 40.4273 12.821C40.3706 18.5162 35.8898 22.9837 30.185 22.9616L7.67931 22.8745L7.64237 32.4137C7.63467 34.4023 5.92399 36.0077 3.93544 36C1.94688 35.9923 0.248676 34.3736 0.256374 32.3851L0.293499 22.7835C0.30964 18.6209 3.90626 15.0393 8.06899 15.0555L30.3593 15.1418C31.8706 15.1476 33.1 14.0568 33.1058 12.5456C33.1117 11.0342 31.8907 9.93404 30.3795 9.92814L11.2097 9.85395C11.2097 9.85395 13.9973 5.95445 11.2383 2.46796L30.2641 2.54158C35.9689 2.56368 40.4149 7.12491 40.4273 12.821C40.4275 12.7987 40.429 12.7769 40.4291 12.7547L40.4286 12.8871Z" fill="black"/>
</svg>
