<svg width="405" height="107" viewBox="0 0 405 107" fill="none" xmlns="http://www.w3.org/2000/svg">
<path d="M147.81 0.00195312H171.406C187.337 0.152688 194.25 6.18218 194.25 20.05V43.7158C194.25 57.4328 187.337 63.4623 171.406 63.6131H162.689V105.217H147.81V0.00195312ZM179.221 43.7158V20.05C179.221 6.48365 176.215 1.50932 170.955 1.50932H162.689V62.1057H170.955C176.215 62.1057 179.221 57.1314 179.221 43.7158Z" fill="black"/>
<path d="M208.148 24.5721C203.038 24.5721 199.13 20.5022 199.13 15.3772C199.13 10.4028 203.038 6.33292 208.148 6.33292C213.107 6.33292 217.165 10.4028 217.165 15.3772C217.165 20.5022 213.107 24.5721 208.148 24.5721ZM200.633 30.1494H215.662V105.217H200.633V30.1494Z" fill="black"/>
<path d="M270.979 43.7158C270.979 54.7196 266.32 60.8998 256.401 62.8594C266.32 64.819 270.979 70.9992 270.979 82.1537V105.217H255.95V82.1537C255.95 68.5874 252.944 63.6131 247.684 63.6131C242.423 63.6131 239.418 68.5874 239.418 82.1537V105.217H224.539V82.1537C224.539 70.9992 229.048 64.819 238.967 62.8594C229.048 60.8998 224.539 54.7196 224.539 43.7158V30.1494H239.418V43.7158C239.418 57.1314 242.423 62.1057 247.684 62.1057C252.944 62.1057 255.95 57.1314 255.95 43.7158V30.1494H270.979V43.7158Z" fill="black"/>
<path d="M325.58 86.5251C325.58 100.544 318.517 106.422 302.285 106.422C286.054 106.422 279.14 100.544 279.14 86.5251V48.9916C279.14 34.973 286.054 28.9435 302.285 28.9435C318.517 28.9435 325.58 34.973 325.58 48.9916V63.6131H294.019V86.5251C294.019 100.091 297.025 105.066 302.285 105.066C307.545 105.066 310.551 100.091 310.551 86.5251V81.5508H325.58V86.5251ZM294.019 62.1057H310.551V48.9916C310.551 35.4252 307.545 30.4509 302.285 30.4509C297.025 30.4509 294.019 35.4252 294.019 48.9916V62.1057Z" fill="black"/>
<path d="M333.903 0.00195312H348.782V105.217H333.903V0.00195312Z" fill="black"/>
<path d="M358.56 30.1494H382.005C398.087 30.1494 405 36.3296 405 50.1975V52.3078H389.971V50.1975C389.971 36.6311 386.965 31.6568 381.705 31.6568H373.439V105.217H358.56V30.1494Z" fill="black"/>
<path d="M25.9338 27.6137C31.327 23.149 32.0797 15.1577 27.6149 9.76468C23.1501 4.37165 15.1586 3.61912 9.76535 8.08386C4.37209 12.5486 3.61943 20.5399 8.08422 25.9329C12.549 31.3259 20.5405 32.0785 25.9338 27.6137Z" fill="black"/>
<path d="M17.9087 2.29699C9.31581 2.26378 2.32289 9.20255 2.28967 17.7952C2.25645 26.3878 9.19542 33.3805 17.7883 33.4138C26.3811 33.447 33.3739 26.5082 33.4073 17.9156C33.4405 9.32294 26.5015 2.33039 17.9087 2.29699ZM17.7951 31.6276C10.1886 31.598 4.04635 25.4082 4.07589 17.802C4.10544 10.1959 10.2954 4.0538 17.9019 4.08316C25.5083 4.11253 31.6506 10.3024 31.6212 17.9086C31.5915 25.515 25.4015 31.6571 17.7951 31.6276Z" fill="black"/>
<path d="M119.515 38.0973C119.516 38.0316 119.511 37.9672 119.511 37.9016C119.344 54.7375 106.098 67.9441 89.2331 67.8788L22.7016 67.6213L22.5924 95.8203C22.5697 101.699 17.5125 106.445 11.634 106.422C5.75538 106.399 0.735133 101.614 0.75789 95.7357L0.86764 67.3522C0.915356 55.0469 11.5477 44.4594 23.8536 44.5071L89.7482 44.7622C94.2159 44.7795 97.8504 41.5551 97.8676 37.0876C97.8849 32.6198 94.2755 29.3675 89.8079 29.3501L33.1381 29.1308C33.1381 29.1308 41.3788 17.6034 33.2227 7.29688L89.4667 7.51453C106.331 7.57986 119.475 21.0634 119.511 37.9016C119.512 37.8359 119.516 37.7715 119.517 37.7058L119.515 38.0973Z" fill="black"/>
</svg>
