<?xml version="1.0" encoding="utf-8"?>
<!-- Generator: Adobe Illustrator 27.5.0, SVG Export Plug-In . SVG Version: 6.00 Build 0)  -->
<svg version="1.1" xmlns="http://www.w3.org/2000/svg" xmlns:xlink="http://www.w3.org/1999/xlink" x="0px" y="0px"
	 viewBox="0 0 500 500" style="enable-background:new 0 0 500 500;" xml:space="preserve">
<g id="BACKGROUND">
	<rect style="fill:#F9EDD6;" width="500" height="500"/>
</g>
<g id="OBJECTS">
	<g>
		<g>
			<polyline style="fill:none;stroke:#FFFFFF;stroke-miterlimit:10;" points="85.585,396.98 54.359,396.98 54.359,353.832 
				95.717,353.832 			"/>
			<line style="fill:none;stroke:#FFFFFF;stroke-miterlimit:10;" x1="147.199" y1="432.079" x2="156.828" y2="448.757"/>
			<polygon style="fill:none;stroke:#FFFFFF;stroke-miterlimit:10;" points="95.717,414.53 85.585,396.98 95.717,379.43 
				115.982,379.43 126.114,396.98 115.982,414.53 			"/>
			<polygon style="fill:none;stroke:#FFFFFF;stroke-miterlimit:10;" points="95.717,449.629 85.585,432.079 95.717,414.53 
				115.982,414.53 126.114,432.079 115.982,449.629 			"/>
			<polygon style="fill:#FFFFFF;" points="101.052,440.389 96.255,432.079 101.052,423.77 110.647,423.77 115.444,432.079 
				110.647,440.389 			"/>
			<polygon style="fill:none;stroke:#FFFFFF;stroke-miterlimit:10;" points="156.828,483.857 146.695,466.307 156.828,448.757 
				177.093,448.757 187.225,466.307 177.093,483.857 			"/>
			<polygon style="fill:#FFFFFF;" points="162.128,474.677 157.296,466.307 162.128,457.937 171.792,457.937 176.625,466.307 
				171.792,474.677 			"/>
			<polygon style="fill:none;stroke:#FFFFFF;stroke-miterlimit:10;" points="126.934,432.079 116.802,414.53 126.934,396.98 
				147.199,396.98 157.331,414.53 147.199,432.079 			"/>
			<polygon style="fill:none;stroke:#FFFFFF;stroke-miterlimit:10;" points="65.32,467.179 55.187,449.629 65.32,432.079 
				85.585,432.079 95.717,449.629 85.585,467.179 			"/>
			<polygon style="fill:#FFFFFF;" points="23.521,461.099 16.899,449.629 23.521,438.159 36.766,438.159 43.388,449.629 
				36.766,461.099 			"/>
			<line style="fill:none;stroke:#FFFFFF;stroke-miterlimit:10;" x1="55.187" y1="449.629" x2="30.265" y2="449.629"/>
			<polyline style="fill:none;stroke:#FFFFFF;stroke-miterlimit:10;" points="187.225,466.307 250.693,466.307 250.693,340.163 			
				"/>
		</g>
		<g>
			<polyline style="fill:none;stroke:#FFFFFF;stroke-miterlimit:10;" points="396.224,84.828 396.224,53.603 353.076,53.603 
				353.076,94.961 			"/>
			<line style="fill:none;stroke:#FFFFFF;stroke-miterlimit:10;" x1="431.324" y1="146.443" x2="448.001" y2="156.072"/>
			<polygon style="fill:none;stroke:#FFFFFF;stroke-miterlimit:10;" points="413.774,94.961 396.224,84.828 378.674,94.961 
				378.674,115.226 396.224,125.358 413.774,115.226 			"/>
			<polygon style="fill:none;stroke:#FFFFFF;stroke-miterlimit:10;" points="448.873,94.961 431.324,84.828 413.774,94.961 
				413.774,115.226 431.324,125.358 448.873,115.226 			"/>
			<polygon style="fill:#FFFFFF;" points="439.633,100.296 431.324,95.498 423.014,100.296 423.014,109.891 431.324,114.688 
				439.633,109.891 			"/>
			<polygon style="fill:none;stroke:#FFFFFF;stroke-miterlimit:10;" points="483.101,156.072 465.551,145.939 448.001,156.072 
				448.001,176.337 465.551,186.469 483.101,176.337 			"/>
			<polygon style="fill:#FFFFFF;" points="473.921,161.372 465.551,156.539 457.181,161.372 457.181,171.036 465.551,175.869 
				473.921,171.036 			"/>
			<polygon style="fill:none;stroke:#FFFFFF;stroke-miterlimit:10;" points="431.324,126.178 413.774,116.046 396.224,126.178 
				396.224,146.443 413.774,156.575 431.324,146.443 			"/>
			<polygon style="fill:none;stroke:#FFFFFF;stroke-miterlimit:10;" points="466.423,64.564 448.873,54.431 431.324,64.564 
				431.324,84.828 448.873,94.961 466.423,84.828 			"/>
			<polygon style="fill:#FFFFFF;" points="460.343,22.765 448.873,16.143 437.403,22.765 437.403,36.01 448.873,42.632 
				460.343,36.01 			"/>
			<line style="fill:none;stroke:#FFFFFF;stroke-miterlimit:10;" x1="448.873" y1="54.431" x2="448.873" y2="29.509"/>
			<polyline style="fill:none;stroke:#FFFFFF;stroke-miterlimit:10;" points="465.551,186.469 465.551,249.937 270.243,249.937 			
				"/>
		</g>
	</g>
	<path style="opacity:0.63;fill:#F9EDD6;" d="M206.783,42.454c-16.21,4.754-31.57,13.128-43.415,25.043
		c-19.777,19.893-17.597,40.757-21.774,66.69c-6.701,41.598-35.924,64.192-66.17,89.846c-44.819,38.016-69.757,103.89-3.237,136.501
		c27.62,13.54,59.673,13.658,90.428,13.059c45.161-0.88,90.2,0.776,126.117,31.612c16.742,14.373,31.987,30.852,51.103,41.874
		c82.669,47.667,146.37-60.841,136.445-132.078c-3.042-21.832-11.398-42.872-23.959-60.971
		c-12.652-18.229-31.297-31.633-40.51-52.329c-9.106-20.457-9.423-43.796-14.995-65.253c-8.448-32.534-29.72-61.553-58.205-79.398
		c-34.2-21.427-77.577-23.867-116.513-17.982C216.964,39.844,211.832,40.973,206.783,42.454z"/>
	<g>
		<defs>
			<rect id="SVGID_1_" width="500" height="500"/>
		</defs>
		<clipPath id="SVGID_00000101094693417991790880000004446131944482694309_">
			<use xlink:href="#SVGID_1_"  style="overflow:visible;"/>
		</clipPath>
		<g style="clip-path:url(#SVGID_00000101094693417991790880000004446131944482694309_);">
			<g style="opacity:0.77;">
				<g>
					<g>
						<path style="fill:#F9EDD6;" d="M67.219,53.758c-1.122,0-2.03-0.907-2.03-2.03V39.548c0-1.122,0.908-2.03,2.03-2.03
							c1.123,0,2.03,0.908,2.03,2.03v12.181C69.25,52.851,68.342,53.758,67.219,53.758z"/>
					</g>
				</g>
				<g>
					<g>
						<path style="fill:#F9EDD6;" d="M57.173,56.732l-8.614-8.613c-0.793-0.793-0.793-2.078,0-2.871
							c0.793-0.792,2.077-0.792,2.871,0l8.613,8.614c0.793,0.793,0.793,2.078,0,2.87C59.25,57.525,57.966,57.525,57.173,56.732z"/>
					</g>
				</g>
				<g>
					<g>
						<path style="fill:#F9EDD6;" d="M48.559,82.569c-0.793-0.794-0.793-2.077,0-2.871l8.613-8.613c0.794-0.793,2.078-0.793,2.871,0
							c0.793,0.792,0.793,2.077,0,2.871l-8.613,8.613C50.636,83.362,49.352,83.362,48.559,82.569z"/>
					</g>
				</g>
				<g>
					<g>
						<path style="fill:#F9EDD6;" d="M74.396,56.732c-0.793-0.793-0.793-2.077,0-2.87l8.614-8.613c0.793-0.793,2.078-0.793,2.87,0
							c0.793,0.793,0.793,2.077,0,2.87l-8.613,8.613C76.474,57.525,75.189,57.525,74.396,56.732z"/>
					</g>
				</g>
				<g>
					<g>
						<path style="fill:#F9EDD6;" d="M55.039,65.938h-12.18c-1.122,0-2.03-0.908-2.03-2.03c0-1.123,0.908-2.031,2.03-2.031h12.18
							c1.122,0,2.03,0.908,2.03,2.031C57.069,65.031,56.162,65.938,55.039,65.938z"/>
					</g>
				</g>
				<g>
					<g>
						<path style="fill:#F9EDD6;" d="M66.807,73.646c1.122,0,2.03,0.908,2.03,2.03v12.18c0,1.122-0.908,2.03-2.03,2.03
							c-1.122,0-2.03-0.907-2.03-2.03v-12.18C64.777,74.554,65.685,73.646,66.807,73.646z"/>
					</g>
				</g>
				<g>
					<g>
						<path style="fill:#F9EDD6;" d="M76.854,70.672l8.613,8.614c0.793,0.793,0.793,2.077,0,2.871c-0.792,0.793-2.077,0.793-2.871,0
							l-8.614-8.614c-0.792-0.793-0.792-2.078,0-2.871C74.776,69.879,76.061,69.879,76.854,70.672z"/>
					</g>
				</g>
				<g>
					<g>
						<path style="fill:#F9EDD6;" d="M78.987,61.466h12.18c1.122,0,2.03,0.908,2.03,2.03c0,1.122-0.908,2.03-2.03,2.03h-12.18
							c-1.122,0-2.03-0.909-2.03-2.03C76.957,62.373,77.865,61.466,78.987,61.466z"/>
					</g>
				</g>
			</g>
			<g style="opacity:0.77;">
				<g>
					<g>
						<path style="fill:#F9EDD6;" d="M277.18,389.043c-0.71,0-1.285-0.574-1.285-1.285v-7.711c0-0.71,0.575-1.285,1.285-1.285
							c0.711,0,1.285,0.575,1.285,1.285v7.711C278.465,388.468,277.89,389.043,277.18,389.043z"/>
					</g>
				</g>
				<g>
					<g>
						<path style="fill:#F9EDD6;" d="M270.819,390.925l-5.453-5.453c-0.502-0.502-0.502-1.315,0-1.818
							c0.502-0.501,1.315-0.501,1.817,0l5.453,5.454c0.502,0.502,0.502,1.315,0,1.817
							C272.134,391.428,271.321,391.428,270.819,390.925z"/>
					</g>
				</g>
				<g>
					<g>
						<path style="fill:#F9EDD6;" d="M265.366,407.283c-0.502-0.502-0.502-1.315,0-1.817l5.453-5.453
							c0.502-0.502,1.316-0.502,1.817,0c0.502,0.501,0.502,1.315,0,1.817l-5.453,5.453
							C266.681,407.785,265.868,407.785,265.366,407.283z"/>
					</g>
				</g>
				<g>
					<g>
						<path style="fill:#F9EDD6;" d="M281.723,390.925c-0.502-0.502-0.502-1.315,0-1.817l5.453-5.453
							c0.502-0.502,1.315-0.502,1.817,0c0.502,0.502,0.502,1.315,0,1.817l-5.453,5.453
							C283.038,391.428,282.225,391.428,281.723,390.925z"/>
					</g>
				</g>
				<g>
					<g>
						<path style="fill:#F9EDD6;" d="M269.468,396.754h-7.711c-0.71,0-1.285-0.575-1.285-1.285c0-0.711,0.575-1.286,1.285-1.286
							h7.711c0.711,0,1.285,0.575,1.285,1.286C270.754,396.18,270.179,396.754,269.468,396.754z"/>
					</g>
				</g>
				<g>
					<g>
						<path style="fill:#F9EDD6;" d="M276.918,401.634c0.71,0,1.285,0.575,1.285,1.285v7.711c0,0.711-0.575,1.285-1.285,1.285
							c-0.711,0-1.285-0.574-1.285-1.285v-7.711C275.633,402.208,276.208,401.634,276.918,401.634z"/>
					</g>
				</g>
				<g>
					<g>
						<path style="fill:#F9EDD6;" d="M283.279,399.751l5.453,5.454c0.502,0.502,0.502,1.315,0,1.817
							c-0.502,0.502-1.315,0.502-1.817,0l-5.453-5.453c-0.502-0.502-0.502-1.315,0-1.817
							C281.964,399.249,282.777,399.249,283.279,399.751z"/>
					</g>
				</g>
				<g>
					<g>
						<path style="fill:#F9EDD6;" d="M284.63,393.922h7.711c0.711,0,1.285,0.575,1.285,1.285c0,0.71-0.575,1.285-1.285,1.285h-7.711
							c-0.71,0-1.285-0.575-1.285-1.285C283.344,394.497,283.919,393.922,284.63,393.922z"/>
					</g>
				</g>
			</g>
			<g style="opacity:0.77;">
				<g>
					<g>
						<path style="fill:#F9EDD6;" d="M315.041,41.058c-0.71,0-1.285-0.575-1.285-1.285v-7.711c0-0.71,0.575-1.285,1.285-1.285
							c0.711,0,1.285,0.575,1.285,1.285v7.711C316.326,40.483,315.752,41.058,315.041,41.058z"/>
					</g>
				</g>
				<g>
					<g>
						<path style="fill:#F9EDD6;" d="M308.681,42.94l-5.453-5.453c-0.502-0.502-0.502-1.315,0-1.818
							c0.502-0.502,1.315-0.502,1.817,0l5.453,5.454c0.502,0.502,0.502,1.315,0,1.817C309.996,43.443,309.182,43.443,308.681,42.94z
							"/>
					</g>
				</g>
				<g>
					<g>
						<path style="fill:#F9EDD6;" d="M303.227,59.298c-0.502-0.502-0.502-1.315,0-1.818l5.453-5.453
							c0.502-0.502,1.316-0.502,1.817,0c0.502,0.502,0.502,1.315,0,1.817l-5.453,5.453C304.542,59.8,303.729,59.8,303.227,59.298z"
							/>
					</g>
				</g>
				<g>
					<g>
						<path style="fill:#F9EDD6;" d="M319.585,42.94c-0.502-0.502-0.502-1.315,0-1.817l5.453-5.453c0.502-0.502,1.315-0.502,1.817,0
							c0.502,0.502,0.502,1.315,0,1.817l-5.453,5.453C320.9,43.443,320.087,43.443,319.585,42.94z"/>
					</g>
				</g>
				<g>
					<g>
						<path style="fill:#F9EDD6;" d="M307.33,48.769h-7.711c-0.71,0-1.285-0.575-1.285-1.285c0-0.711,0.575-1.286,1.285-1.286h7.711
							c0.71,0,1.285,0.575,1.285,1.286C308.615,48.195,308.04,48.769,307.33,48.769z"/>
					</g>
				</g>
				<g>
					<g>
						<path style="fill:#F9EDD6;" d="M314.78,53.649c0.71,0,1.285,0.575,1.285,1.285v7.711c0,0.71-0.575,1.285-1.285,1.285
							c-0.71,0-1.285-0.574-1.285-1.285v-7.711C313.495,54.224,314.069,53.649,314.78,53.649z"/>
					</g>
				</g>
				<g>
					<g>
						<path style="fill:#F9EDD6;" d="M321.141,51.766l5.453,5.453c0.502,0.502,0.502,1.315,0,1.817
							c-0.502,0.502-1.315,0.502-1.817,0l-5.453-5.453c-0.502-0.502-0.502-1.315,0-1.817
							C319.825,51.264,320.638,51.264,321.141,51.766z"/>
					</g>
				</g>
				<g>
					<g>
						<path style="fill:#F9EDD6;" d="M322.491,45.938h7.711c0.71,0,1.285,0.575,1.285,1.285c0,0.71-0.575,1.285-1.285,1.285h-7.711
							c-0.711,0-1.285-0.575-1.285-1.285C321.206,46.512,321.781,45.938,322.491,45.938z"/>
					</g>
				</g>
			</g>
			<g style="opacity:0.77;">
				<g>
					<g>
						<path style="fill:#F9EDD6;" d="M449.489,471.504c-1.365,0-2.47-1.104-2.47-2.47v-14.823c0-1.365,1.105-2.47,2.47-2.47
							c1.366,0,2.471,1.105,2.471,2.47v14.823C451.96,470.4,450.856,471.504,449.489,471.504z"/>
					</g>
				</g>
				<g>
					<g>
						<path style="fill:#F9EDD6;" d="M437.263,475.123l-10.483-10.482c-0.965-0.965-0.965-2.529,0-3.494
							c0.965-0.964,2.528-0.964,3.493,0l10.482,10.484c0.965,0.965,0.965,2.529,0,3.493
							C439.791,476.089,438.228,476.089,437.263,475.123z"/>
					</g>
				</g>
				<g>
					<g>
						<path style="fill:#F9EDD6;" d="M426.78,506.567c-0.965-0.966-0.965-2.528,0-3.494l10.482-10.482
							c0.966-0.965,2.529-0.965,3.493,0c0.965,0.964,0.965,2.528,0,3.493l-10.482,10.482
							C429.308,507.531,427.745,507.531,426.78,506.567z"/>
					</g>
				</g>
				<g>
					<g>
						<path style="fill:#F9EDD6;" d="M458.223,475.123c-0.965-0.965-0.965-2.528,0-3.493l10.482-10.482
							c0.965-0.965,2.528-0.965,3.493,0c0.965,0.965,0.965,2.528,0,3.493l-10.482,10.482
							C460.751,476.089,459.188,476.089,458.223,475.123z"/>
					</g>
				</g>
				<g>
					<g>
						<path style="fill:#F9EDD6;" d="M434.666,486.328h-14.823c-1.365,0-2.471-1.105-2.471-2.47c0-1.367,1.105-2.471,2.471-2.471
							h14.823c1.366,0,2.47,1.105,2.47,2.471C437.137,485.223,436.032,486.328,434.666,486.328z"/>
					</g>
				</g>
				<g>
					<g>
						<path style="fill:#F9EDD6;" d="M448.987,495.708c1.365,0,2.47,1.105,2.47,2.47v14.823c0,1.366-1.105,2.47-2.47,2.47
							c-1.366,0-2.471-1.104-2.471-2.47v-14.823C446.517,496.812,447.622,495.708,448.987,495.708z"/>
					</g>
				</g>
				<g>
					<g>
						<path style="fill:#F9EDD6;" d="M461.214,492.088l10.482,10.483c0.965,0.965,0.965,2.528,0,3.493
							c-0.964,0.965-2.528,0.965-3.493,0l-10.483-10.483c-0.964-0.965-0.964-2.528,0-3.493
							C458.686,491.123,460.249,491.123,461.214,492.088z"/>
					</g>
				</g>
				<g>
					<g>
						<path style="fill:#F9EDD6;" d="M463.81,480.884h14.823c1.366,0,2.471,1.105,2.471,2.47c0,1.365-1.105,2.471-2.471,2.471
							H463.81c-1.366,0-2.471-1.106-2.471-2.471C461.339,481.989,462.445,480.884,463.81,480.884z"/>
					</g>
				</g>
			</g>
			<g style="opacity:0.77;">
				<g>
					<g>
						<path style="fill:#F9EDD6;" d="M17.15,295.254c-1.365,0-2.47-1.104-2.47-2.47v-14.823c0-1.365,1.105-2.47,2.47-2.47
							c1.366,0,2.471,1.105,2.471,2.47v14.823C19.621,294.15,18.516,295.254,17.15,295.254z"/>
					</g>
				</g>
				<g>
					<g>
						<path style="fill:#F9EDD6;" d="M4.924,298.873l-10.483-10.482c-0.965-0.965-0.965-2.529,0-3.494
							c0.965-0.964,2.528-0.964,3.493,0L8.416,295.38c0.965,0.965,0.965,2.528,0,3.493C7.452,299.838,5.889,299.838,4.924,298.873z"
							/>
					</g>
				</g>
				<g>
					<g>
						<path style="fill:#F9EDD6;" d="M-5.559,330.317c-0.965-0.966-0.965-2.528,0-3.494l10.482-10.482
							c0.966-0.965,2.529-0.965,3.493,0c0.965,0.964,0.965,2.528,0,3.493l-10.482,10.482
							C-3.031,331.281-4.594,331.281-5.559,330.317z"/>
					</g>
				</g>
				<g>
					<g>
						<path style="fill:#F9EDD6;" d="M25.884,298.873c-0.965-0.965-0.965-2.528,0-3.493l10.483-10.482
							c0.965-0.965,2.528-0.965,3.493,0c0.965,0.964,0.965,2.528,0,3.493l-10.482,10.482
							C28.412,299.838,26.849,299.838,25.884,298.873z"/>
					</g>
				</g>
				<g>
					<g>
						<path style="fill:#F9EDD6;" d="M2.327,310.077h-14.823c-1.365,0-2.471-1.105-2.471-2.47c0-1.367,1.105-2.471,2.471-2.471
							H2.327c1.366,0,2.47,1.105,2.47,2.471C4.798,308.973,3.693,310.077,2.327,310.077z"/>
					</g>
				</g>
				<g>
					<g>
						<path style="fill:#F9EDD6;" d="M16.648,319.458c1.365,0,2.47,1.105,2.47,2.47v14.822c0,1.366-1.105,2.47-2.47,2.47
							c-1.366,0-2.471-1.104-2.471-2.47v-14.822C14.177,320.562,15.283,319.458,16.648,319.458z"/>
					</g>
				</g>
				<g>
					<g>
						<path style="fill:#F9EDD6;" d="M28.875,315.838l10.482,10.483c0.965,0.965,0.965,2.528,0,3.493
							c-0.965,0.965-2.528,0.965-3.493,0l-10.483-10.483c-0.964-0.965-0.964-2.529,0-3.493
							C26.347,314.873,27.91,314.873,28.875,315.838z"/>
					</g>
				</g>
				<g>
					<g>
						<path style="fill:#F9EDD6;" d="M31.471,304.634h14.823c1.366,0,2.471,1.105,2.471,2.47c0,1.365-1.105,2.471-2.471,2.471
							H31.471c-1.366,0-2.471-1.106-2.471-2.471C29,305.739,30.105,304.634,31.471,304.634z"/>
					</g>
				</g>
			</g>
			<g style="opacity:0.77;">
				<g>
					<g>
						<path style="fill:#F9EDD6;" d="M283.154,266.147c-1.122,0-2.03-0.907-2.03-2.03v-12.181c0-1.122,0.908-2.03,2.03-2.03
							c1.123,0,2.03,0.908,2.03,2.03v12.181C285.184,265.239,284.276,266.147,283.154,266.147z"/>
					</g>
				</g>
				<g>
					<g>
						<path style="fill:#F9EDD6;" d="M273.107,269.12l-8.614-8.613c-0.793-0.793-0.793-2.078,0-2.871
							c0.793-0.792,2.077-0.792,2.871,0l8.613,8.615c0.793,0.793,0.793,2.078,0,2.87C275.185,269.914,273.9,269.914,273.107,269.12z
							"/>
					</g>
				</g>
				<g>
					<g>
						<path style="fill:#F9EDD6;" d="M264.493,294.958c-0.793-0.794-0.793-2.077,0-2.871l8.613-8.613
							c0.794-0.793,2.078-0.793,2.871,0c0.793,0.792,0.793,2.077,0,2.871l-8.613,8.613
							C266.57,295.751,265.286,295.751,264.493,294.958z"/>
					</g>
				</g>
				<g>
					<g>
						<path style="fill:#F9EDD6;" d="M290.331,269.12c-0.793-0.793-0.793-2.077,0-2.87l8.613-8.613c0.793-0.793,2.078-0.793,2.87,0
							c0.793,0.793,0.793,2.077,0,2.87l-8.613,8.613C292.408,269.914,291.123,269.914,290.331,269.12z"/>
					</g>
				</g>
				<g>
					<g>
						<path style="fill:#F9EDD6;" d="M270.974,278.327h-12.18c-1.122,0-2.03-0.908-2.03-2.03c0-1.123,0.908-2.031,2.03-2.031h12.18
							c1.122,0,2.03,0.908,2.03,2.031C273.003,277.419,272.096,278.327,270.974,278.327z"/>
					</g>
				</g>
				<g>
					<g>
						<path style="fill:#F9EDD6;" d="M282.741,286.035c1.122,0,2.03,0.908,2.03,2.03v12.18c0,1.122-0.908,2.03-2.03,2.03
							c-1.122,0-2.03-0.907-2.03-2.03v-12.18C280.711,286.943,281.619,286.035,282.741,286.035z"/>
					</g>
				</g>
				<g>
					<g>
						<path style="fill:#F9EDD6;" d="M292.788,283.06l8.614,8.614c0.793,0.793,0.793,2.077,0,2.871
							c-0.793,0.793-2.077,0.793-2.871,0l-8.614-8.614c-0.792-0.793-0.792-2.078,0-2.87
							C290.711,282.268,291.995,282.268,292.788,283.06z"/>
					</g>
				</g>
				<g>
					<g>
						<path style="fill:#F9EDD6;" d="M294.921,273.854h12.18c1.122,0,2.03,0.908,2.03,2.03c0,1.122-0.908,2.03-2.03,2.03h-12.18
							c-1.122,0-2.03-0.909-2.03-2.03C292.891,274.762,293.799,273.854,294.921,273.854z"/>
					</g>
				</g>
			</g>
		</g>
	</g>
	<g>
		<g>
			<g>
				<g>
					<path style="fill:#FD4F23;" d="M289.252,207.696c-0.094-2.06-0.094-4.026-0.094-5.992c0-1.592-1.217-2.809-2.809-2.809
						c-11.704,0-20.599-3.371-27.996-10.58c-1.123-1.03-2.809-1.03-3.932,0c-7.397,7.21-16.292,10.58-27.996,10.58
						c-1.591,0-2.809,1.217-2.809,2.809c0,1.966,0,3.932-0.094,5.992c-0.374,19.662-0.936,46.628,31.928,57.957l0.936,0.187
						l0.937-0.187C290.094,254.324,289.626,227.452,289.252,207.696z"/>
				</g>
			</g>
			<g>
				<path style="fill:#FFFFFF;" d="M253.215,238.415c-0.773,0.644-1.674,1.031-2.705,1.031h-0.129c-1.031,0-2.061-0.515-2.705-1.288
					l-9.371-10.378c-1.438-1.593-1.303-4.051,0.301-5.476l0.019-0.017c1.587-1.41,4.015-1.276,5.437,0.301l4.179,4.637
					c1.456,1.615,3.956,1.711,5.532,0.214l15.165-14.416c1.557-1.48,4.023-1.406,5.488,0.166l0,0c1.45,1.556,1.37,3.991-0.179,5.448
					L253.215,238.415z"/>
			</g>
		</g>
		<g>
			<g>
				<path style="fill:#72BAB5;" d="M146.585,417.021c-19.69,0.842-36.335-14.437-37.177-34.127
					c-0.841-19.69,14.437-36.335,34.127-37.177c19.69-0.842,36.335,14.437,37.178,34.127
					C181.555,399.534,166.276,416.178,146.585,417.021z"/>
			</g>
			<g>
				<path style="fill:#FFFFFF;" d="M145.432,412.66c7.912,0,15.118-2.96,20.628-7.803c-0.199-2.861-1.817-5.404-4.411-6.702
					l-8.602-4.298c-0.809-0.409-1.314-1.222-1.314-2.132v-3.042c0.207-0.256,0.422-0.541,0.646-0.857
					c1.116-1.574,2.008-3.327,2.66-5.222c1.269-0.579,2.096-1.837,2.096-3.252v-3.605c0-0.865-0.325-1.705-0.902-2.36v-4.791
					c0.049-0.493,0.251-3.443-1.88-5.873c-1.851-2.11-4.853-3.177-8.924-3.177c-4.07,0-7.068,1.068-8.918,3.177
					c-2.132,2.431-1.934,5.38-1.882,5.873v4.791c-0.576,0.655-0.901,1.494-0.901,2.36v3.605c0,1.094,0.496,2.114,1.349,2.795
					c0.823,3.265,2.55,5.727,3.152,6.514v2.979c0,0.871-0.475,1.671-1.24,2.088l-8.03,4.382c-2.49,1.358-4.035,3.912-4.178,6.725
					C130.293,409.691,137.508,412.66,145.432,412.66z"/>
			</g>
		</g>
		<path style="fill:#FF929C;" d="M270.243,257.08L270.243,257.08c-16.939-16.939-44.402-16.939-61.341,0l-16.429,16.429
			l-16.429-16.429c-16.939-16.939-44.402-16.939-61.341,0v0c-16.939,16.939-16.939,44.402,0,61.341l16.429,16.429l61.341,61.341
			l61.341-61.341l0,0l16.429-16.429C287.182,301.482,287.182,274.019,270.243,257.08z"/>
		<g>
			<g>
				<g>
					<path style="fill:#FFFFFF;" d="M73.07,264.253h73.328c3.345,0,6.057-2.712,6.057-6.057v-48.622
						c0-3.345-2.712-6.057-6.057-6.057H73.07c-3.345,0-6.057,2.712-6.057,6.057v48.622C67.013,261.541,69.725,264.253,73.07,264.253
						z"/>
					<path style="fill:#FFFFFF;" d="M140.947,259.283l-6.557,12.734c-0.812,1.576-3.036,1.657-3.96,0.143l-7.86-12.878H140.947z"/>
				</g>
			</g>
			<g>
				<rect x="88.763" y="220.699" style="fill:#0049DB;" width="40.855" height="25.584"/>
				
					<polyline style="fill:none;stroke:#FFFFFF;stroke-width:1.1455;stroke-linecap:round;stroke-linejoin:round;stroke-miterlimit:10;" points="
					88.763,220.699 108.596,233.629 129.618,220.699 				"/>
			</g>
		</g>
		<g>
			<g>
				<path style="fill:#0049DB;" d="M294.089,361.283h-70.747v-35.792c0-2.967,2.406-5.372,5.372-5.372h65.375
					c2.967,0,5.372,2.405,5.372,5.372v30.421C299.461,358.878,297.055,361.283,294.089,361.283z"/>
				<polygon style="fill:#0049DB;" points="223.345,352.765 223.288,370.954 238.819,352.814 				"/>
				<g>
					<path style="fill:#FFFFFF;" d="M274.235,340.233c-0.006,1.893,1.524,3.432,3.416,3.437c1.893,0.006,3.432-1.524,3.437-3.416
						c0.006-1.892-1.524-3.431-3.416-3.437C275.78,336.811,274.241,338.34,274.235,340.233z"/>
					<path style="fill:#FFFFFF;" d="M259.536,340.187c-0.006,1.892,1.523,3.431,3.416,3.437c1.892,0.006,3.431-1.523,3.437-3.416
						c0.006-1.892-1.524-3.432-3.416-3.437C261.081,336.765,259.542,338.294,259.536,340.187z"/>
					<path style="fill:#FFFFFF;" d="M244.837,340.141c-0.006,1.893,1.524,3.432,3.416,3.437c1.893,0.006,3.432-1.524,3.437-3.416
						c0.006-1.893-1.523-3.432-3.416-3.437C246.382,336.719,244.843,338.248,244.837,340.141z"/>
				</g>
			</g>
		</g>
		<g>
			<g>
				<path style="fill:#FD4F23;" d="M110.9,384.999c-19.69,0.842-36.335-14.437-37.177-34.127
					c-0.841-19.69,14.437-36.335,34.127-37.177c19.69-0.842,36.336,14.437,37.178,34.127
					C145.869,367.512,130.59,384.156,110.9,384.999z"/>
			</g>
			<g>
				<path style="fill:#FFFFFF;" d="M109.746,380.638c7.912,0,15.118-2.96,20.628-7.803c-0.199-2.861-1.817-5.404-4.411-6.702
					l-8.602-4.298c-0.809-0.409-1.314-1.222-1.314-2.132v-3.042c0.207-0.256,0.422-0.541,0.646-0.857
					c1.116-1.574,2.008-3.327,2.66-5.222c1.269-0.579,2.096-1.837,2.096-3.252v-3.605c0-0.865-0.325-1.705-0.902-2.36v-4.791
					c0.049-0.493,0.251-3.443-1.88-5.873c-1.851-2.11-4.853-3.177-8.924-3.177c-4.07,0-7.067,1.068-8.918,3.177
					c-2.132,2.431-1.934,5.38-1.882,5.873v4.791c-0.576,0.655-0.901,1.494-0.901,2.36v3.605c0,1.094,0.496,2.114,1.349,2.795
					c0.823,3.265,2.55,5.727,3.152,6.514v2.98c0,0.871-0.475,1.671-1.24,2.088l-8.03,4.382c-2.49,1.358-4.036,3.912-4.178,6.725
					C94.607,377.669,101.822,380.638,109.746,380.638z"/>
			</g>
		</g>
	</g>
	<g>
		
			<line style="fill:#72BAB5;stroke:#0049DB;stroke-width:2;stroke-linecap:round;stroke-miterlimit:10;" x1="212.717" y1="424.993" x2="470.227" y2="424.993"/>
		<g>
			<g>
				<g>
					<path style="fill:#FFFFFF;" d="M397.549,149.937c0.228-6.299-4.43-11.714-10.693-12.429
						c-6.761-0.772-14.871,3.639-16.61,12.318c-1.479,7.382-2.503,20.428-2.433,19.831l29.555,1.803L397.549,149.937z"/>
					<path style="fill:#EEBFB0;" d="M397.959,172.199l-24.644-2.206c0.777,11.755,0.594,18.835,0.044,25.54
						c-0.619,7.561,5.344,14.039,12.93,14.052l0,0c7.002,0.012,12.755-5.527,13.008-12.525L397.959,172.199z"/>
				</g>
				<g>
					<g>
						<path style="fill:#EEBFB0;" d="M331.213,164.069l52.911,23.843c5.388,3.021,7.159,9.932,3.888,15.172l0,0
							c-3.308,5.3-10.403,6.706-15.483,3.07l-45.317-33.049L331.213,164.069z"/>
						<g>
							<path style="fill:#EEBFB0;" d="M326.007,176.457c5.819,1.966,12.13-1.157,14.096-6.975c1.966-5.819-1.157-12.13-6.975-14.096
								c-5.819-1.966-12.13,1.156-14.096,6.975C317.065,168.18,320.188,174.491,326.007,176.457z"/>
							<path style="fill:#EEBFB0;" d="M327.039,155.721c0,0-0.561-4.351,5.094-2.912c5.655,1.439,10.713,5.824,7.97,16.673
								L327.039,155.721z"/>
						</g>
					</g>
					<g>
						<g>
							<path style="fill:#000612;" d="M343.741,138.865l-10.868-5.768c-0.605-0.321-1.329-0.035-1.618,0.639l-12.411,28.912
								c-0.289,0.674-0.034,1.48,0.571,1.801l10.868,5.768c0.605,0.321,1.329,0.035,1.618-0.639l12.411-28.912
								C344.601,139.992,344.346,139.186,343.741,138.865z"/>
							<path style="fill:#001F5E;" d="M345.836,139.977l-10.868-5.768c-0.604-0.321-1.329-0.035-1.618,0.639l-12.411,28.912
								c-0.289,0.674-0.033,1.48,0.571,1.801l10.868,5.768c0.604,0.321,1.329,0.035,1.618-0.639l12.411-28.912
								C346.696,141.104,346.441,140.298,345.836,139.977z"/>
							<polygon style="fill:#E5E5E5;" points="344.425,142.733 334.876,137.665 324.761,161.228 334.31,166.296 							"/>
							<polygon style="fill:#FFFFFF;" points="334.876,137.665 334.31,166.296 344.425,142.733 							"/>
						</g>
						<g>
							<path style="fill:#EEBFB0;" d="M337.399,167.052l-2.735-9.568c-0.197-0.689,0.024-1.429,0.567-1.898l0,0
								c0.784-0.677,1.971-0.574,2.626,0.228l1.587,2.186L337.399,167.052z"/>
							<path style="fill:#EEBFB0;" d="M336.478,159.097c0,0-4.594,7.155-1.402,13.48l2.776-5.568L336.478,159.097z"/>
						</g>
					</g>
				</g>
			</g>
			<g>
				<g>
					<g>
						<g>
							<polygon style="fill:#EEBFB0;" points="352.321,409.618 369.582,409.546 373.138,386.211 355.877,386.284 							"/>
						</g>
						<g>
							<path style="fill:#FD4F23;" d="M369.441,405.634c-4.061,1.083-13.255,4.629-17.567-1.621l-29.15,15.795l51.458-0.338
								l-2.398-12.291C371.62,406.066,370.528,405.344,369.441,405.634z"/>
							
								<rect x="322.74" y="419.251" transform="matrix(-1 0.0066 -0.0066 -1 699.7018 840.6627)" style="fill:#FFFFFF;" width="51.459" height="4.46"/>
							<path style="fill:#FFFFFF;" d="M352.179,410.527c-0.13-0.056-0.247-0.146-0.337-0.269c-1.887-2.597-3.781-3.877-3.799-3.89
								c-0.373-0.249-0.475-0.755-0.225-1.129c0.249-0.375,0.76-0.466,1.126-0.227c0.088,0.057,2.144,1.439,4.216,4.289
								c0.264,0.364,0.183,0.873-0.18,1.138C352.739,410.613,352.434,410.637,352.179,410.527z"/>
							<path style="fill:#FFFFFF;" d="M348.215,412.615c-0.13-0.056-0.247-0.146-0.337-0.269c-1.886-2.597-3.781-3.878-3.799-3.89
								c-0.373-0.249-0.474-0.755-0.225-1.129c0.248-0.374,0.761-0.471,1.126-0.227c0.088,0.057,2.144,1.439,4.216,4.289
								c0.264,0.365,0.183,0.873-0.18,1.138C348.775,412.7,348.47,412.724,348.215,412.615z"/>
							<path style="fill:#FFFFFF;" d="M344.252,414.701c-0.13-0.056-0.247-0.146-0.337-0.269c-1.887-2.595-3.781-3.876-3.8-3.889
								c-0.373-0.249-0.474-0.755-0.225-1.129c0.248-0.374,0.76-0.471,1.126-0.227c0.088,0.057,2.144,1.44,4.217,4.288
								c0.264,0.363,0.183,0.873-0.18,1.138C344.812,414.786,344.507,414.81,344.252,414.701z"/>
						</g>
					</g>
					<g>
						<g>
							<g>
								<g>
									<path style="fill:#72BAB5;" d="M380.159,194.636c0,0-6.966,15.483-18.55,84.593c-11.583,69.11-13.14,115.551-13.14,115.551
										h35.634l31.07-192.924l-7.94-7.522L380.159,194.636z"/>
								</g>
							</g>
						</g>
					</g>
				</g>
				<g>
					<g>
						<g>
							
								<rect x="410.936" y="386.248" transform="matrix(1 -0.0042 0.0042 1 -1.6768 1.7756)" style="fill:#EEBFB0;" width="17.261" height="23.334"/>
						</g>
						<g>
							<path style="fill:#FD4F23;" d="M428.106,405.246c-4.062,1.083-13.255,4.629-17.567-1.621l-29.15,15.795l51.458-0.338
								l-2.398-12.291C430.284,405.678,429.192,404.956,428.106,405.246z"/>
							
								<rect x="381.404" y="419.251" transform="matrix(-1 0.0066 -0.0066 -1 817.0294 840.2771)" style="fill:#FFFFFF;" width="51.459" height="4.46"/>
							<path style="fill:#FFFFFF;" d="M410.843,410.527c-0.13-0.056-0.247-0.146-0.337-0.269c-1.887-2.597-3.781-3.877-3.799-3.89
								c-0.373-0.249-0.475-0.755-0.225-1.129c0.249-0.375,0.76-0.466,1.126-0.227c0.088,0.057,2.144,1.439,4.216,4.289
								c0.264,0.364,0.183,0.873-0.18,1.138C411.404,410.613,411.098,410.637,410.843,410.527z"/>
							<path style="fill:#FFFFFF;" d="M406.879,412.615c-0.13-0.056-0.247-0.146-0.337-0.269c-1.886-2.597-3.781-3.878-3.799-3.89
								c-0.373-0.249-0.474-0.755-0.225-1.129c0.248-0.374,0.761-0.471,1.126-0.227c0.088,0.057,2.144,1.439,4.216,4.289
								c0.264,0.365,0.183,0.873-0.18,1.138C407.44,412.7,407.135,412.724,406.879,412.615z"/>
							<path style="fill:#FFFFFF;" d="M402.916,414.701c-0.13-0.056-0.247-0.146-0.337-0.269c-1.887-2.595-3.781-3.876-3.8-3.889
								c-0.373-0.249-0.474-0.755-0.225-1.129c0.248-0.374,0.76-0.471,1.126-0.227c0.088,0.057,2.144,1.44,4.216,4.288
								c0.264,0.363,0.184,0.873-0.18,1.138C403.477,414.786,403.171,414.81,402.916,414.701z"/>
						</g>
					</g>
					<g>
						<g>
							<g>
								<g>
									<path style="fill:#72BAB5;" d="M422.78,194.162c0,0,17.043,16.642,17.926,50.083c1.019,38.581-2.172,150.982-2.172,150.982
										l-34.121-0.893l-17.598-199.772L422.78,194.162z"/>
								</g>
							</g>
						</g>
						<polyline style="fill:none;stroke:#549A9C;stroke-width:0.9969;stroke-miterlimit:10;" points="397.368,312.42 
							391.189,250.23 382.366,239.761 						"/>
					</g>
				</g>
			</g>
			<g>
				<g>
					<path style="fill:#FFFFFF;" d="M425.38,134.494l-21.225-1.228l-15.012,1.785l-9.122,3.85c-1.466,0.627-2.388,2.099-2.313,3.691
						l0.25,5.303l0,0c0,0-6.925,23.245,1.347,28.598l0.854,18.142l43.634-0.485l6.607-43.891
						C430.475,147.39,428.241,134.716,425.38,134.494z"/>
					<path style="fill:none;stroke:#E0E0E0;stroke-width:0.7601;stroke-miterlimit:10;" d="M374.884,169.992
						c0,0-1.569-8.897,1.362-14.687"/>
				</g>
				<g>
					<g>
						<path style="fill:#EEBFB0;" d="M444.056,158.607l-21.834,11.87c5.062,10.638,9.171,16.293,11.136,22.727
							c2.216,7.256,7.822,13.018,14.877,10.229h0c6.512-2.574,9.813-9.845,7.465-16.442L444.056,158.607z"/>
						<g>
							<g>
								<path style="fill:#FFFFFF;" d="M438.132,141.82c-4.051-6.408-10.181-8.426-16.265-6.778
									c-6.568,1.779-6.399,17.053-4.429,23.565c1.411,4.663,0.96,3.834,4.784,11.87l24.242-12.324L438.132,141.82z"/>
							</g>
							
								<line style="fill:none;stroke:#E0E0E0;stroke-width:0.7601;stroke-miterlimit:10;" x1="422.221" y1="170.477" x2="416.869" y2="161.221"/>
						</g>
					</g>
					<g>
						<path style="fill:#EEBFB0;" d="M417.552,238.727l18.55-51.692c2.95-5.427,9.836-7.289,15.119-4.088l0,0
							c5.343,3.238,6.843,10.313,3.274,15.441l-27.35,47.526L417.552,238.727z"/>
						<g>
							<path style="fill:#EEBFB0;" d="M430.514,247.074c1.889-5.844-1.317-12.113-7.161-14.002
								c-5.844-1.889-12.113,1.317-14.002,7.161c-1.889,5.844,1.317,12.113,7.161,14.002
								C422.356,256.125,428.625,252.919,430.514,247.074z"/>
							<path style="fill:#EEBFB0;" d="M409.766,246.317c0,0-4.343,0.619-2.98-5.055c1.364-5.674,5.682-10.789,16.566-8.19
								L409.766,246.317z"/>
						</g>
					</g>
				</g>
			</g>
			<g>
				<path style="fill:#0049DB;" d="M384.606,80.481c0,0-14.007-1.251-14.057,15.307c-0.037,12.356-3.199,26.764-7.495,34.072
					c8.425,0.59,36.281-0.039,26.468,0.148c-7.224,0.138,12.664,4.596,30.615-4.173c0,0,4.104-9.549,3.335-21.637
					c-0.769-12.087-6.141-21.155-12.52-25.247C404.574,74.859,390.226,75.063,384.606,80.481z"/>
				<path style="fill:#0049DB;" d="M379.072,79.21c0,0,28.797-9.22,37.705,5.025c6.463,10.335,0.266,29.861-13.149,35.892
					c-12.78,5.745-11.01-36.825-11.01-36.825L379.072,79.21z"/>
				<path style="fill:#DB9788;" d="M384.954,107.715c0.454,3.488-2.006,6.683-5.493,7.137c-3.488,0.454-6.683-2.006-7.137-5.493
					c-0.454-3.488,2.006-6.683,5.493-7.136C381.305,101.769,384.5,104.228,384.954,107.715z"/>
				<path style="fill:#EEBFB0;" d="M386.71,123.098l1.709,13.773c0.59,4.838,3.887,7.061,8.644,6.442l0,0
					c4.061-0.528,7.603-3.12,7.582-7.215l-3.732-21.546L386.71,123.098z"/>
				<path style="fill:#001F5E;" d="M387.802,132.071c0,0,12.653-3.805,15.153-15.168l-16.448,4.786L387.802,132.071z"/>
				<path style="fill:#EEBFB0;" d="M391.051,125.079L391.051,125.079c-8.167,0.514-15.298-5.513-15.942-12.169l-1.425-15.711
					c-0.807-8.341,5.147-15.82,13.458-16.901l0,0c8.508-1.107,17.792,4.699,18.899,13.206l1.009,12.649
					C407.83,115.936,400.783,123.813,391.051,125.079z"/>
				<g>
					<path style="fill:#EEBFB0;" d="M417.274,104.663c0.454,3.488-2.006,6.683-5.493,7.137c-3.488,0.454-6.683-2.006-7.137-5.493
						c-0.454-3.488,2.006-6.683,5.493-7.137C413.625,98.715,416.82,101.175,417.274,104.663z"/>
				</g>
				<g>
					
						<polyline style="fill:none;stroke:#1F1B31;stroke-width:0.533;stroke-linecap:round;stroke-linejoin:round;stroke-miterlimit:10;" points="
						382.557,110.607 382.457,112.407 384.593,112.396 					"/>
					<path style="fill:#0049DB;" d="M391.953,99.517c0,0-3.545-0.148-3.517,1.338c0,0,0.046,1.005,3.136,1.072
						c3.09,0.067,3.881-0.201,4.122-1.157C395.936,99.814,393.61,99.455,391.953,99.517z"/>
					<path style="fill:#0049DB;" d="M377.166,100.084c0,0,2.902-0.436,3.2,0.948c0,0,0.179,0.938-2.364,1.261
						c-2.543,0.323-3.388,0.024-3.662-0.728C374.029,100.714,375.781,100.166,377.166,100.084z"/>
					<path style="fill:#FFFFFF;" d="M381.212,115.668l9.307-0.183c0,0-0.076,2.828-4.44,3.082
						C381.81,118.816,381.212,115.668,381.212,115.668z"/>
					
						<path style="fill:none;stroke:#201D2F;stroke-width:0.6522;stroke-linecap:round;stroke-linejoin:round;stroke-miterlimit:10;" d="
						M389.022,105.934c0,0,1.54-2.2,4.394-0.073"/>
					
						<path style="fill:none;stroke:#201D2F;stroke-width:0.623;stroke-linecap:round;stroke-linejoin:round;stroke-miterlimit:10;" d="
						M376.602,106.568c0,0,1.467-2.333,3.511-0.154"/>
				</g>
				<path style="fill:#0049DB;" d="M379.072,79.21c0,0-13.075,3.817-9.771,18.859l41.657-2.573l-4.59-14.396L379.072,79.21z"/>
				<path style="fill:#0049DB;" d="M400.256,94.149c0,0,3.743,18.059-0.286,38.751c0,0,7.519-1.079,14.523-4.694
					c0,0-2.07-26.442-5.624-34.927c-3.554-8.485-8.465-3.222-8.465-3.222L400.256,94.149z"/>
				<g>
					<path style="fill:#EEBFB0;" d="M389.441,134.641l-4.846,2.33c0,0-6.965,11.693,6.761,12.138
						c16.557,0.537,17.91-9.028,20.553-15.432l-8.462-0.809L389.441,134.641z"/>
				</g>
			</g>
		</g>
	</g>
</g>
<g id="TEXTS">
	<g>
		
			<text transform="matrix(1 0 0 1 50.6497 149.5726)" style="fill:#72BAB5; font-family:'Montserrat-Black'; font-size:108.5456px;">CRM</text>
		
			<text transform="matrix(1 0 0 1 54.509 165.6966)" style="fill:#0049DB; font-family:'Montserrat-Regular'; font-size:11.4382px;">Customer relationship management</text>
	</g>
</g>
</svg>
