<?xml version="1.0" encoding="utf-8"?>
<!-- Generator: Adobe Illustrator 27.5.0, SVG Export Plug-In . SVG Version: 6.00 Build 0)  -->
<svg version="1.1" xmlns="http://www.w3.org/2000/svg" xmlns:xlink="http://www.w3.org/1999/xlink" x="0px" y="0px"
	 viewBox="0 0 500 500" style="enable-background:new 0 0 500 500;" xml:space="preserve">
<g id="BACKGROUND">
	<rect style="fill:#F5E5C9;" width="500" height="500"/>
</g>
<g id="OBJECTS">
	<g>
		<path style="fill:#EBD4AE;" d="M247.822,79.555c18.808,29.993,74.087,32.89,93.428,15.313c21.5-19.54,4.587-65.805-28.063-51.93
			c-17.275,7.341-30.989,9.433-43.437,5.25C254.125,42.938,236.5,61.5,247.822,79.555z"/>
		<path style="fill:#EBD4AE;" d="M364.812,407.625c13.855,37.004,138.938-52.776,86.519-76.628
			C414.922,314.429,342.793,348.813,364.812,407.625z"/>
		<path style="fill:#EBD4AE;" d="M44.318,216.501C44.318,333.564,148.5,420.25,243,420.25s97.585-72.743,146.503-98.653
			c58.672-31.076,66.997-84.954,55.586-136.531c-11.717-52.961-63.599-72.149-117.408-65.836C227,131.041,239.361,65.757,160.062,72
			S44.318,163.437,44.318,216.501z"/>
	</g>
	<g>
		<path style="fill:#FFFFFF;" d="M251.556,380.065l-2.228,0.258c-0.409,0.047-0.746,0.319-0.912,0.697
			c-0.168,0.382-0.359,0.752-0.57,1.108c-0.249,0.418-0.241,0.938,0.062,1.32l1.008,1.272c0.359,0.452,0.321,1.102-0.087,1.51
			l-1.657,1.657c-0.408,0.408-1.058,0.446-1.51,0.087l-1.756-1.392c-0.324-0.257-0.754-0.302-1.139-0.152
			c-0.385,0.15-0.781,0.278-1.188,0.381c-0.471,0.12-0.834,0.493-0.889,0.976l-0.186,1.611c-0.066,0.574-0.552,1.006-1.129,1.006
			h-2.344c-0.577,0-1.063-0.433-1.129-1.006l-0.257-2.227c-0.047-0.409-0.32-0.746-0.697-0.912c-0.382-0.168-0.753-0.359-1.109-0.57
			c-0.418-0.249-0.938-0.241-1.32,0.062l-1.271,1.008c-0.452,0.359-1.102,0.321-1.51-0.087l-1.657-1.657
			c-0.408-0.408-0.446-1.058-0.087-1.51l1.391-1.755c0.257-0.324,0.302-0.754,0.152-1.139c-0.15-0.385-0.278-0.782-0.381-1.188
			c-0.12-0.471-0.493-0.834-0.976-0.889l-1.61-0.186c-0.574-0.066-1.006-0.552-1.006-1.129v-2.344c0-0.577,0.433-1.063,1.006-1.129
			l2.227-0.257c0.409-0.047,0.746-0.32,0.912-0.697c0.168-0.383,0.359-0.753,0.571-1.109c0.249-0.418,0.241-0.939-0.062-1.32
			l-1.008-1.271c-0.359-0.452-0.321-1.102,0.087-1.51l1.657-1.657c0.408-0.408,1.058-0.446,1.51-0.087l1.756,1.392
			c0.324,0.257,0.754,0.302,1.139,0.152c0.385-0.15,0.781-0.278,1.188-0.381c0.471-0.12,0.834-0.493,0.89-0.976l0.186-1.611
			c0.066-0.574,0.552-1.006,1.129-1.006h2.344c0.577,0,1.063,0.433,1.129,1.006l0.258,2.227c0.047,0.409,0.319,0.746,0.697,0.912
			c0.382,0.168,0.752,0.359,1.109,0.57c0.418,0.249,0.939,0.241,1.32-0.062l1.271-1.008c0.452-0.359,1.102-0.321,1.51,0.087
			l1.657,1.657c0.408,0.408,0.446,1.058,0.087,1.51l-1.392,1.756c-0.257,0.324-0.302,0.754-0.152,1.139
			c0.15,0.385,0.278,0.781,0.381,1.187c0.12,0.471,0.493,0.834,0.976,0.89l1.611,0.186c0.574,0.066,1.006,0.552,1.006,1.129v2.344
			C252.562,379.513,252.13,379.999,251.556,380.065z M244.747,376.904c0-3.139-2.545-5.684-5.684-5.684s-5.684,2.545-5.684,5.684
			c0,3.139,2.545,5.684,5.684,5.684S244.747,380.044,244.747,376.904z"/>
		<path style="fill:#FFFFFF;" d="M270.791,394.991l-1.155,0.133c-0.212,0.025-0.387,0.166-0.473,0.361
			c-0.087,0.198-0.186,0.39-0.296,0.575c-0.129,0.217-0.125,0.487,0.032,0.684l0.523,0.659c0.186,0.235,0.167,0.571-0.045,0.783
			l-0.859,0.859c-0.212,0.212-0.548,0.231-0.783,0.045l-0.91-0.722c-0.168-0.133-0.391-0.157-0.591-0.079
			c-0.2,0.078-0.405,0.144-0.616,0.198c-0.244,0.062-0.432,0.256-0.461,0.506l-0.096,0.835c-0.034,0.297-0.286,0.522-0.586,0.522
			h-1.215c-0.299,0-0.551-0.224-0.586-0.522l-0.133-1.155c-0.025-0.212-0.166-0.387-0.361-0.473
			c-0.198-0.087-0.39-0.186-0.575-0.296c-0.217-0.129-0.487-0.125-0.684,0.032l-0.659,0.522c-0.235,0.186-0.571,0.167-0.783-0.045
			l-0.859-0.859c-0.212-0.212-0.231-0.548-0.045-0.783l0.721-0.91c0.133-0.168,0.157-0.391,0.079-0.591
			c-0.078-0.2-0.144-0.405-0.198-0.616c-0.062-0.244-0.256-0.432-0.506-0.461l-0.835-0.097c-0.297-0.034-0.522-0.286-0.522-0.585
			v-1.215c0-0.299,0.224-0.551,0.522-0.585l1.154-0.134c0.212-0.025,0.387-0.166,0.473-0.361c0.087-0.198,0.186-0.39,0.296-0.575
			c0.129-0.217,0.125-0.487-0.032-0.684l-0.522-0.659c-0.186-0.234-0.167-0.571,0.045-0.783l0.859-0.859
			c0.212-0.212,0.548-0.231,0.783-0.045l0.91,0.722c0.168,0.133,0.391,0.157,0.59,0.079c0.2-0.078,0.405-0.144,0.616-0.198
			c0.244-0.062,0.432-0.256,0.461-0.506l0.097-0.835c0.034-0.297,0.286-0.522,0.586-0.522h1.215c0.299,0,0.551,0.224,0.586,0.522
			l0.134,1.155c0.025,0.212,0.166,0.387,0.361,0.473c0.198,0.087,0.39,0.186,0.575,0.296c0.217,0.129,0.487,0.125,0.684-0.032
			l0.659-0.523c0.235-0.186,0.571-0.167,0.783,0.045l0.859,0.859c0.212,0.212,0.231,0.548,0.045,0.783l-0.722,0.911
			c-0.133,0.168-0.157,0.391-0.079,0.59c0.078,0.2,0.144,0.405,0.197,0.616c0.062,0.244,0.256,0.432,0.506,0.461l0.836,0.097
			c0.297,0.034,0.522,0.286,0.522,0.586v1.215C271.312,394.705,271.088,394.957,270.791,394.991z M267.26,393.352
			c0-1.628-1.32-2.947-2.947-2.947c-1.628,0-2.947,1.32-2.947,2.947s1.32,2.947,2.947,2.947
			C265.94,396.299,267.26,394.98,267.26,393.352z"/>
	</g>
	<g>
		<rect x="261.74" y="130.948" style="fill:#D3B78D;" width="10" height="2"/>
		<rect x="261.74" y="136.069" style="fill:#D3B78D;" width="36" height="2"/>
	</g>
	<g>
		<path style="fill:#E59E47;" d="M228.528,134.948h-40c-0.552,0-1-0.448-1-1v-20c0-0.552,0.448-1,1-1h40c0.552,0,1,0.448,1,1v20
			C229.528,134.5,229.08,134.948,228.528,134.948z"/>
		<path style="fill:#1F160F;" d="M208.528,128.207c-0.05,0-0.1-0.015-0.144-0.043l-21-14c-0.119-0.079-0.151-0.24-0.072-0.359
			c0.08-0.119,0.24-0.151,0.359-0.072l20.856,13.904l20.856-13.904c0.119-0.08,0.279-0.047,0.359,0.072
			c0.079,0.119,0.047,0.28-0.072,0.359l-21,14C208.628,128.192,208.578,128.207,208.528,128.207z"/>
		<path style="fill:#1F160F;" d="M225.764,131.537c-0.058,0-0.117-0.02-0.165-0.06l-9.913-8.212
			c-0.11-0.091-0.125-0.254-0.034-0.364c0.091-0.11,0.254-0.126,0.364-0.034l9.913,8.212c0.11,0.091,0.126,0.254,0.034,0.364
			C225.912,131.505,225.838,131.537,225.764,131.537z"/>
		<path style="fill:#1F160F;" d="M191.292,131.537c-0.074,0-0.148-0.032-0.199-0.094c-0.091-0.11-0.076-0.273,0.034-0.364
			l9.913-8.212c0.11-0.091,0.272-0.076,0.364,0.034c0.091,0.11,0.076,0.273-0.034,0.364l-9.913,8.212
			C191.409,131.518,191.35,131.537,191.292,131.537z"/>
	</g>
	<g>
		<path style="fill:#1F160F;" d="M396.492,380.271c-0.198,0-0.398-0.076-0.549-0.228c-0.303-0.303-0.303-0.795,0-1.098
			l13.942-13.942c0.303-0.303,0.795-0.303,1.098,0l7.228,7.228l20.738-20.739c0.303-0.303,0.795-0.303,1.098,0
			c0.303,0.303,0.303,0.795,0,1.098l-21.287,21.288c-0.291,0.291-0.807,0.291-1.098,0l-7.228-7.228l-13.394,13.394
			C396.89,380.194,396.69,380.271,396.492,380.271z"/>
		<path style="fill:#1F160F;" d="M439.498,366.486c-0.429,0-0.776-0.348-0.776-0.776v-12.894h-12.893
			c-0.429,0-0.776-0.348-0.776-0.776c0-0.429,0.348-0.776,0.776-0.776h13.669c0.429,0,0.776,0.348,0.776,0.776v13.67
			C440.274,366.139,439.927,366.486,439.498,366.486z"/>
	</g>
	<g>
		<path style="fill:#FFFFFF;" d="M326.125,87.327h-50c-1.105,0-2-0.895-2-2v-24c0-1.105,0.895-2,2-2h50c1.105,0,2,0.895,2,2v24
			C328.125,86.432,327.23,87.327,326.125,87.327z"/>
		<circle style="fill:#1F160F;" cx="301.125" cy="73.327" r="2"/>
		<circle style="fill:#1F160F;" cx="315.187" cy="73.327" r="2"/>
		<circle style="fill:#1F160F;" cx="287.062" cy="73.327" r="2"/>
		<polygon style="fill:#FFFFFF;" points="278.125,85.327 278.125,101.026 289.062,85.327 		"/>
	</g>
	<g>
		<circle style="fill:#CC4E49;" cx="103.99" cy="127.59" r="40"/>
		<circle style="fill:#FFFFFF;" cx="103.99" cy="127.59" r="31"/>
		<path style="fill:#1F160F;" d="M103.99,158.849c-17.236,0-31.259-14.022-31.259-31.259c0-17.236,14.022-31.259,31.259-31.259
			c6.254,0,12.293,1.849,17.465,5.346c0.118,0.08,0.149,0.241,0.069,0.359c-0.079,0.119-0.241,0.148-0.359,0.069
			c-5.086-3.44-11.025-5.257-17.175-5.257c-16.951,0-30.741,13.791-30.741,30.741c0,16.951,13.791,30.741,30.741,30.741
			c0.143,0,0.259,0.116,0.259,0.259C104.249,158.733,104.133,158.849,103.99,158.849z"/>
		<circle style="fill:#CC4E49;" cx="103.99" cy="127.59" r="19"/>
		<path style="fill:#1F160F;" d="M103.99,146.849c-0.143,0-0.259-0.116-0.259-0.259c0-0.143,0.116-0.259,0.259-0.259
			c10.334,0,18.741-8.407,18.741-18.741c0-0.143,0.116-0.259,0.259-0.259c0.143,0,0.259,0.116,0.259,0.259
			C123.249,138.209,114.609,146.849,103.99,146.849z"/>
		<circle style="fill:#FFFFFF;" cx="103.99" cy="127.59" r="12"/>
		<circle style="fill:#CC4E49;" cx="103.99" cy="127.589" r="3"/>
		<g>
			<path style="fill:#1F160F;" d="M103.99,128.366c-0.199,0-0.397-0.076-0.549-0.228c-0.303-0.303-0.303-0.794,0-1.098
				l42.426-42.426c0.303-0.303,0.795-0.303,1.098,0c0.303,0.303,0.303,0.794,0,1.098l-42.426,42.426
				C104.388,128.29,104.189,128.366,103.99,128.366z"/>
			<polygon style="fill:#E59E47;" points="148.117,83.456 155.316,86.157 143.295,98.178 136.097,95.477 133.395,88.278 
				145.416,76.257 			"/>
		</g>
	</g>
	<g>
		<circle style="fill:#FABC5F;" cx="392.774" cy="137.592" r="31"/>
		<path style="fill:#E59E47;" d="M419.995,122.771c-0.248-0.454-0.509-0.901-0.779-1.342l-24.322,14.043l14.042-24.322
			c-0.44-0.27-0.887-0.531-1.342-0.779l-14.044,24.325v-28.084c-0.259-0.006-0.516-0.02-0.777-0.02c-0.26,0-0.517,0.013-0.776,0.02
			v28.084l-14.044-24.325c-0.454,0.248-0.901,0.509-1.342,0.779l14.043,24.323l-24.323-14.043c-0.27,0.44-0.53,0.887-0.779,1.342
			l24.325,14.044h-28.084c-0.007,0.259-0.02,0.516-0.02,0.776c0,0.26,0.013,0.518,0.02,0.776h28.084l-24.325,14.044
			c0.248,0.454,0.509,0.901,0.779,1.342l24.323-14.043l-14.043,24.323c0.44,0.27,0.887,0.531,1.342,0.779l14.044-24.325v28.084
			c0.259,0.006,0.516,0.02,0.776,0.02c0.26,0,0.518-0.013,0.777-0.02v-28.084l14.044,24.325c0.455-0.248,0.901-0.509,1.342-0.779
			l-14.042-24.322l24.322,14.043c0.27-0.44,0.53-0.887,0.779-1.342l-24.325-14.044h28.084c0.006-0.259,0.02-0.516,0.02-0.776
			c0-0.26-0.013-0.518-0.02-0.776H395.67L419.995,122.771z"/>
		<path style="fill:#1F160F;" d="M413.509,160.877c-0.07,0-0.141-0.029-0.192-0.085c-0.096-0.106-0.087-0.27,0.02-0.366
			c6.469-5.831,10.18-14.154,10.18-22.834c0-16.951-13.79-30.741-30.741-30.741s-30.741,13.79-30.741,30.741
			c0,0.143-0.116,0.259-0.259,0.259s-0.259-0.116-0.259-0.259c0-17.236,14.022-31.259,31.259-31.259s31.259,14.022,31.259,31.259
			c0,8.827-3.772,17.29-10.352,23.219C413.633,160.855,413.57,160.877,413.509,160.877z"/>
		<circle style="fill:#E59E47;" cx="392.774" cy="137.592" r="25"/>
		<path style="fill:#1F160F;" d="M374.012,154.373c-0.071,0-0.143-0.03-0.194-0.088c-4.064-4.612-6.302-10.54-6.302-16.693
			c0-7.339,3.186-14.306,8.743-19.112c0.108-0.092,0.271-0.082,0.364,0.026c0.094,0.108,0.082,0.271-0.026,0.365
			c-5.442,4.708-8.564,11.531-8.564,18.72c0,6.027,2.192,11.834,6.173,16.352c0.095,0.107,0.084,0.27-0.023,0.365
			C374.134,154.352,374.072,154.373,374.012,154.373z"/>
		<path style="fill:#F5E5C9;" d="M402.888,139.846c-0.589-0.93-1.371-1.678-2.341-2.243c-0.971-0.564-2.034-1.022-3.189-1.377
			c-0.895-0.274-1.804-0.497-2.715-0.717v-7.912c0.832,0.078,1.678,0.206,2.557,0.443c1.312,0.355,2.584,0.899,3.818,1.633
			l1.614-3.975c-1.207-0.787-2.624-1.39-4.251-1.81c-1.239-0.319-2.485-0.515-3.738-0.591v-4.366h-3.227v4.43
			c-1.618,0.153-3.022,0.487-4.192,1.02c-1.64,0.748-2.861,1.746-3.66,2.991c-0.801,1.247-1.2,2.617-1.2,4.112
			c0,1.469,0.295,2.676,0.885,3.622c0.59,0.944,1.371,1.699,2.342,2.262c0.97,0.565,2.039,1.03,3.208,1.396
			c0.872,0.276,1.745,0.506,2.617,0.714v7.813c-1.283-0.105-2.542-0.375-3.779-0.813c-1.627-0.578-2.99-1.299-4.092-2.165
			l-1.772,3.975c1.181,0.971,2.748,1.764,4.703,2.38c1.581,0.498,3.23,0.785,4.94,0.881v4.373h3.227v-4.424
			c1.638-0.151,3.06-0.488,4.249-1.025c1.654-0.748,2.88-1.745,3.681-2.991c0.799-1.246,1.2-2.603,1.2-4.074
			C403.774,141.965,403.478,140.777,402.888,139.846z M390.65,134.474c-0.958-0.288-1.732-0.689-2.323-1.2
			c-0.591-0.511-0.885-1.186-0.885-2.027c0-0.681,0.203-1.305,0.61-1.869c0.406-0.564,1.056-1.017,1.949-1.358
			c0.416-0.159,0.892-0.277,1.417-0.362v7.03C391.161,134.617,390.891,134.547,390.65,134.474z M398.107,145.591
			c-0.42,0.538-1.076,0.965-1.968,1.28c-0.432,0.153-0.933,0.267-1.495,0.345v-6.942c0.283,0.08,0.578,0.158,0.846,0.242
			c0.957,0.301,1.738,0.707,2.342,1.219c0.603,0.511,0.906,1.188,0.906,2.027C398.737,144.445,398.526,145.055,398.107,145.591z"/>
		<path style="fill:#1F160F;" d="M393,159.398h-22.234c5.621,5.673,13.41,9.193,22.009,9.193c1.281,0,2.541-0.087,3.782-0.239
			L393,159.398z"/>
	</g>
	<g>
		<g>
			<rect x="107" y="159.398" style="fill:#FFFFFF;" width="286" height="184"/>
			<g>
				<rect x="107" y="159.398" style="fill:#496099;" width="286" height="14"/>
				<path style="fill:#FFFFFF;" d="M366.419,170.175h-12c-0.429,0-0.776-0.348-0.776-0.776v-6c0-0.429,0.348-0.776,0.776-0.776h12
					c0.429,0,0.776,0.348,0.776,0.776v6C367.195,169.827,366.848,170.175,366.419,170.175z M355.195,168.622h10.447v-4.447h-10.447
					V168.622z"/>
				<path style="fill:#FFFFFF;" d="M345.837,167.242h-12c-0.429,0-0.776-0.348-0.776-0.776c0-0.429,0.348-0.776,0.776-0.776h12
					c0.429,0,0.776,0.348,0.776,0.776C346.613,166.895,346.266,167.242,345.837,167.242z"/>
				<g>
					<path style="fill:#FFFFFF;" d="M386.999,170.175c-0.116,0-0.234-0.026-0.346-0.082l-12-6c-0.384-0.192-0.539-0.658-0.348-1.042
						c0.19-0.384,0.655-0.54,1.041-0.347l12,6c0.384,0.192,0.539,0.658,0.348,1.042
						C387.559,170.018,387.284,170.175,386.999,170.175z"/>
					<path style="fill:#FFFFFF;" d="M375.001,170.175c-0.285,0-0.56-0.157-0.695-0.429c-0.191-0.383-0.036-0.85,0.348-1.042l12-6
						c0.386-0.191,0.851-0.036,1.041,0.347c0.191,0.383,0.036,0.85-0.348,1.042l-12,6
						C375.235,170.148,375.117,170.175,375.001,170.175z"/>
				</g>
			</g>
		</g>
		<g>
			<path style="fill:#E59E47;" d="M173.08,217.92c0,13.81-11.19,25-25,25c-13.81,0-25-11.19-25-25s11.19-25,25-25v12
				c-7.17,0-13,5.83-13,13s5.83,13,13,13c7.17,0,13-5.83,13-13H173.08z"/>
			<path style="fill:#1C8C4F;" d="M175.08,215.92h-12c0-7.17-5.83-13-13-13v-12C163.89,190.92,175.08,202.11,175.08,215.92z"/>
			<path style="fill:#CC4E49;" d="M173.08,217.92h-12c0,7.17-5.83,13-13,13c-3.67,0-6.982-1.533-9.348-3.986l-8.494,8.494
				c4.536,4.622,10.852,7.492,17.842,7.492C161.89,242.92,173.08,231.73,173.08,217.92z"/>
		</g>
		<g>
			<rect x="193.033" y="198.467" style="fill:#1F160F;" width="4" height="4"/>
			<rect x="205.254" y="199.967" style="fill:#1F160F;" width="58" height="1"/>
			<rect x="193.033" y="209.436" style="fill:#1F160F;" width="4" height="4"/>
			<rect x="205.254" y="210.936" style="fill:#1F160F;" width="58" height="1"/>
			<rect x="193.033" y="220.404" style="fill:#1F160F;" width="4" height="4"/>
			<rect x="205.254" y="221.904" style="fill:#1F160F;" width="58" height="1"/>
			<rect x="193.033" y="231.373" style="fill:#1F160F;" width="4" height="4"/>
			<rect x="205.254" y="232.873" style="fill:#1F160F;" width="58" height="1"/>
		</g>
		<g>
			<path style="fill:#EBD4AE;" d="M248.438,287.482c-0.237,0-0.471-0.108-0.623-0.313c-0.256-0.345-0.184-0.831,0.159-1.087
				l21.499-16c0.275-0.203,0.652-0.203,0.928,0l21.194,15.773l42.633-11.898c0.423-0.108,0.842,0.128,0.957,0.539
				c0.115,0.413-0.127,0.842-0.539,0.957l-43,12c-0.234,0.064-0.479,0.019-0.673-0.125l-21.036-15.655l-21.037,15.655
				C248.762,287.433,248.599,287.482,248.438,287.482z"/>
			<path style="fill:#1F160F;" d="M229.884,308.884h-3c-0.143,0-0.259-0.116-0.259-0.259s0.116-0.259,0.259-0.259h3
				c0.143,0,0.259,0.116,0.259,0.259S230.027,308.884,229.884,308.884z"/>
			<path style="fill:#1F160F;" d="M229.884,299.208h-3c-0.143,0-0.259-0.116-0.259-0.259c0-0.143,0.116-0.259,0.259-0.259h3
				c0.143,0,0.259,0.116,0.259,0.259C230.143,299.092,230.027,299.208,229.884,299.208z"/>
			<path style="fill:#1F160F;" d="M229.884,289.532h-3c-0.143,0-0.259-0.116-0.259-0.259c0-0.143,0.116-0.259,0.259-0.259h3
				c0.143,0,0.259,0.116,0.259,0.259C230.143,289.416,230.027,289.532,229.884,289.532z"/>
			<path style="fill:#1F160F;" d="M229.884,279.856h-3c-0.143,0-0.259-0.116-0.259-0.259c0-0.143,0.116-0.259,0.259-0.259h3
				c0.143,0,0.259,0.116,0.259,0.259C230.143,279.74,230.027,279.856,229.884,279.856z"/>
			<path style="fill:#1F160F;" d="M229.884,270.181h-3c-0.143,0-0.259-0.116-0.259-0.259s0.116-0.259,0.259-0.259h3
				c0.143,0,0.259,0.116,0.259,0.259S230.027,270.181,229.884,270.181z"/>
			<rect x="244.437" y="293.706" style="fill:#E59E47;" width="8" height="24"/>
			<rect x="265.937" y="277.706" style="fill:#E59E47;" width="8" height="40"/>
			<rect x="287.437" y="293.706" style="fill:#E59E47;" width="8" height="24"/>
			<rect x="308.937" y="287.706" style="fill:#E59E47;" width="8" height="30"/>
			<rect x="330.437" y="281.706" style="fill:#E59E47;" width="8" height="36"/>
			<circle style="fill:#CC4E49;" cx="248.437" cy="286.706" r="2"/>
			<circle style="fill:#CC4E49;" cx="269.937" cy="270.706" r="2"/>
			<circle style="fill:#CC4E49;" cx="291.437" cy="286.706" r="2"/>
			<circle style="fill:#CC4E49;" cx="312.937" cy="280.706" r="2"/>
			<circle style="fill:#CC4E49;" cx="334.437" cy="274.706" r="2"/>
			<path style="fill:#1F160F;" d="M352.384,317.965h-124c-0.143,0-0.259-0.116-0.259-0.259v-50c0-0.143,0.116-0.259,0.259-0.259
				c0.143,0,0.259,0.116,0.259,0.259v49.741h123.741c0.143,0,0.259,0.116,0.259,0.259
				C352.643,317.849,352.526,317.965,352.384,317.965z"/>
		</g>
		<g>
			<rect x="286.437" y="198.978" style="fill:#E59E47;" width="14" height="4"/>
			<rect x="286.437" y="206.936" style="fill:#E59E47;" width="50" height="4"/>
			<rect x="286.437" y="214.893" style="fill:#E59E47;" width="14" height="4"/>
			<rect x="286.437" y="222.851" style="fill:#E59E47;" width="50" height="4"/>
			<rect x="286.437" y="230.809" style="fill:#E59E47;" width="14" height="4"/>
			<rect x="286.437" y="238.767" style="fill:#E59E47;" width="50" height="4"/>
		</g>
	</g>
	<g>
		
			<rect x="406.193" y="257.874" transform="matrix(0.7071 0.7071 -0.7071 0.7071 308.5372 -221.1276)" style="fill:#1F160F;" width="30" height="8"/>
		<path style="fill:#1F160F;" d="M393,259.906c-5.904,0.014-11.813-2.229-16.317-6.734c-8.982-8.982-8.982-23.545,0-32.527
			c4.505-4.505,10.413-6.748,16.317-6.734v-8.001c-7.951-0.014-15.907,3.012-21.974,9.079c-12.106,12.106-12.106,31.734,0,43.84
			c6.067,6.067,14.023,9.092,21.974,9.078V259.906z"/>
		<path style="fill:#CC4E49;" d="M376.683,248.578c-8.982-8.982-8.982-23.545,0-32.527c8.982-8.982,23.545-8.982,32.527,0
			c8.982,8.982,8.982,23.545,0,32.527C400.228,257.56,385.665,257.56,376.683,248.578z M414.867,254.235
			c12.106-12.106,12.106-31.734,0-43.841c-12.106-12.106-31.734-12.106-43.841,0c-12.106,12.106-12.106,31.734,0,43.841
			C383.132,266.341,402.76,266.341,414.867,254.235z"/>
		<path style="fill:#E59E47;" d="M450.185,300.764l-22.627-22.628c-0.781-0.781-0.781-2.047,0-2.828l7.071-7.071
			c0.781-0.781,2.047-0.781,2.828,0l22.627,22.628c0.781,0.781,0.781,2.047,0,2.828l-7.071,7.071
			C452.232,301.545,450.966,301.545,450.185,300.764z"/>
		
			<rect x="448.134" y="295.557" transform="matrix(0.7072 -0.707 0.707 0.7072 -75.8857 408.3826)" style="fill:#1F160F;" width="14" height="0.517"/>
		<path style="fill:#1F160F;" d="M392.946,255.561c-5.956,0-11.912-2.267-16.446-6.8c-0.102-0.101-0.102-0.265,0-0.366
			c0.1-0.101,0.266-0.101,0.365,0c8.867,8.867,23.295,8.867,32.162,0c8.865-8.867,8.865-23.294,0-32.161
			c-0.102-0.101-0.102-0.265,0-0.366c0.1-0.101,0.266-0.101,0.365,0c9.068,9.069,9.068,23.825,0,32.893
			C404.858,253.295,398.902,255.561,392.946,255.561z"/>
	</g>
	<g>
		<polygon style="fill:#1F160F;" points="107,343.398 199.998,343.398 187.998,266.5 107,266.5 		"/>
		<polygon style="fill:#496099;" points="187.998,390.5 155.998,422.5 73.998,422.5 73.998,266.5 187.998,266.5 		"/>
		<polygon style="fill:#FFFFFF;" points="155.998,390.5 187.998,390.5 155.998,422.5 		"/>
		<g>
			<rect x="110.998" y="279.034" style="fill:#FFFFFF;" width="40" height="6"/>
			<rect x="87.998" y="300.199" style="fill:#FFFFFF;" width="86" height="2"/>
			<rect x="87.998" y="308.784" style="fill:#FFFFFF;" width="86" height="2"/>
			<rect x="87.998" y="317.368" style="fill:#FFFFFF;" width="86" height="2"/>
			<rect x="87.998" y="325.953" style="fill:#FFFFFF;" width="56" height="2"/>
		</g>
		<g>
			<path style="fill:#1C8C4F;" d="M96.998,359.03c-4.971,0-9-4.029-9-9c0-4.971,4.029-9,9-9c4.97,0,9,4.029,9,9
				C105.998,355,101.969,359.03,96.998,359.03z M104.799,350.03c0-4.301-3.499-7.8-7.8-7.8c-4.301,0-7.8,3.499-7.8,7.8
				c0,4.301,3.499,7.8,7.8,7.8C101.3,357.83,104.799,354.331,104.799,350.03z"/>
			<rect x="89.062" y="364.344" style="fill:#FFFFFF;" width="6" height="1"/>
			<rect x="88.998" y="367.203" style="fill:#FFFFFF;" width="16" height="1"/>
			<rect x="89.062" y="373.781" style="fill:#FFFFFF;" width="6" height="1"/>
			<rect x="88.998" y="376.641" style="fill:#FFFFFF;" width="16" height="1"/>
		</g>
		<g>
			<path style="fill:#E59E47;" d="M130.998,359.03c-4.971,0-9-4.029-9-9c0-4.971,4.029-9,9-9c4.97,0,9,4.029,9,9
				C139.998,355,135.969,359.03,130.998,359.03z M138.799,350.03c0-4.301-3.499-7.8-7.8-7.8c-4.301,0-7.8,3.499-7.8,7.8
				c0,4.301,3.499,7.8,7.8,7.8C135.3,357.83,138.799,354.331,138.799,350.03z"/>
			<rect x="123.062" y="364.344" style="fill:#FFFFFF;" width="6" height="1"/>
			<rect x="122.998" y="367.203" style="fill:#FFFFFF;" width="16" height="1"/>
			<rect x="123.062" y="373.781" style="fill:#FFFFFF;" width="6" height="1"/>
			<rect x="122.998" y="376.641" style="fill:#FFFFFF;" width="16" height="1"/>
		</g>
		<g>
			<path style="fill:#CC4E49;" d="M164.998,359.03c-4.971,0-9-4.029-9-9c0-4.971,4.029-9,9-9c4.97,0,9,4.029,9,9
				C173.998,355,169.969,359.03,164.998,359.03z M172.799,350.03c0-4.301-3.499-7.8-7.8-7.8c-4.301,0-7.8,3.499-7.8,7.8
				c0,4.301,3.499,7.8,7.8,7.8C169.3,357.83,172.799,354.331,172.799,350.03z"/>
			<rect x="157.062" y="364.344" style="fill:#FFFFFF;" width="6" height="1"/>
			<rect x="156.998" y="367.203" style="fill:#FFFFFF;" width="16" height="1"/>
			<rect x="157.062" y="373.781" style="fill:#FFFFFF;" width="6" height="1"/>
			<rect x="156.998" y="376.641" style="fill:#FFFFFF;" width="16" height="1"/>
		</g>
	</g>
	<g>
		<rect x="312.793" y="376.463" style="fill:#1F160F;" width="60" height="46"/>
		<g>
			<rect x="319.395" y="336.477" style="fill:#1C8C4F;" width="44" height="68"/>
			<rect x="334.395" y="346.813" style="fill:#F5E5C9;" width="14" height="2"/>
			<rect x="323.395" y="354.849" style="fill:#F5E5C9;" width="36" height="1"/>
			<rect x="323.395" y="360.358" style="fill:#F5E5C9;" width="36" height="1"/>
			<rect x="323.395" y="365.867" style="fill:#F5E5C9;" width="36" height="1"/>
			<rect x="323.395" y="377.867" style="fill:#F5E5C9;" width="10" height="1"/>
			<rect x="349.395" y="377.867" style="fill:#F5E5C9;" width="10" height="1"/>
		</g>
		<polygon style="fill:#E59E47;" points="320.715,384.463 304.715,384.463 312.793,422.463 372.793,422.463 366.416,392.463 
			328.416,392.463 		"/>
	</g>
</g>
<g id="TEXTS">
	<g>
		
			<text transform="matrix(1 0 0 1 126.4524 351.5078)" style="fill:#FFFFFF; font-family:'MontserratRoman-SemiBold'; font-size:5px;">25%</text>
		
			<text transform="matrix(1 0 0 1 160.4523 351.5078)" style="fill:#FFFFFF; font-family:'MontserratRoman-SemiBold'; font-size:5px;">35%</text>
		
			<text transform="matrix(1 0 0 1 92.4524 351.5078)" style="fill:#FFFFFF; font-family:'MontserratRoman-SemiBold'; font-size:5px;">15%</text>
	</g>
</g>
</svg>
